<svg width="24" height="25" viewBox="0 0 24 25" fill="none" xmlns="http://www.w3.org/2000/svg">
<path d="M21.7304 18.5L13.7304 4.49998C13.556 4.19218 13.303 3.93617 12.9973 3.75805C12.6917 3.57993 12.3442 3.48608 11.9904 3.48608C11.6366 3.48608 11.2892 3.57993 10.9835 3.75805C10.6778 3.93617 10.4249 4.19218 10.2504 4.49998L2.25042 18.5C2.0741 18.8053 1.98165 19.1519 1.98243 19.5045C1.98321 19.8571 2.0772 20.2032 2.25486 20.5078C2.43253 20.8124 2.68757 21.0646 2.99411 21.2388C3.30066 21.4131 3.64783 21.5032 4.00042 21.5H20.0004C20.3513 21.4996 20.6959 21.4069 20.9997 21.2313C21.3035 21.0556 21.5556 20.8031 21.7309 20.4991C21.9062 20.1951 21.9985 19.8504 21.9984 19.4995C21.9983 19.1486 21.9059 18.8039 21.7304 18.5Z" stroke="#7FCCB8" stroke-width="2" stroke-linecap="round" stroke-linejoin="round"/>
<path d="M12 9.5V13.5" stroke="#7FCCB8" stroke-width="2" stroke-linecap="round" stroke-linejoin="round"/>
<path d="M12 17.5H12.01" stroke="#7FCCB8" stroke-width="2" stroke-linecap="round" stroke-linejoin="round"/>
</svg>
