<svg width="28" height="28" viewBox="0 0 28 28" fill="none" xmlns="http://www.w3.org/2000/svg">
<path d="M2.79267 18.3855C2.79267 18.3855 11.6057 23.3392 13.3977 24.346C13.5902 24.4545 13.7862 24.5 13.9717 24.5C14.1793 24.5 14.373 24.4428 14.5363 24.3518C16.34 23.345 25.2172 18.3867 25.2172 18.3867C25.5042 18.2257 25.6663 17.9282 25.6663 17.6213C25.6663 16.961 24.95 16.5317 24.3643 16.8583C24.3643 16.8583 16.137 21.476 14.4022 22.4233C14.156 22.5575 13.8842 22.6112 13.5598 22.4303C11.636 21.3477 3.65017 16.8595 3.65017 16.8595C3.06451 16.5305 2.34701 16.9587 2.34701 17.6213C2.34701 17.927 2.50684 18.2245 2.79267 18.3855ZM2.79267 14.7537C2.79267 14.7537 11.6057 19.7073 13.3977 20.7142C13.5902 20.8227 13.7862 20.8682 13.9717 20.8682C14.1793 20.8682 14.373 20.811 14.5363 20.72C16.34 19.7132 25.2172 14.7548 25.2172 14.7548C25.5042 14.5938 25.6663 14.2963 25.6663 13.9895C25.6663 13.3292 24.95 12.8998 24.3643 13.2265C24.3643 13.2265 16.137 17.8442 14.4022 18.7915C14.156 18.9257 13.8842 18.9793 13.5598 18.7985C11.636 17.7158 3.65017 13.2277 3.65017 13.2277C3.06451 12.8987 2.34701 13.3268 2.34701 13.9895C2.34701 14.2952 2.50684 14.5927 2.79267 14.7537ZM14.7755 3.72283C14.4885 3.5735 14.226 3.5 13.9682 3.5C13.708 3.5 13.4513 3.57583 13.1807 3.72283L2.81601 9.562C2.49401 9.7755 2.33301 10.08 2.33301 10.3763C2.33301 10.675 2.49517 10.9655 2.81601 11.151L13.1807 16.9913C13.4385 17.1465 13.7022 17.2282 13.9717 17.2282C14.2318 17.2282 14.499 17.1523 14.7755 16.9913L25.1402 11.151C25.4843 10.9573 25.6663 10.6598 25.6663 10.3577C25.6663 10.066 25.4972 9.77083 25.1402 9.562L14.7755 3.72283ZM4.97084 10.3565L13.9787 5.28267L22.9853 10.3565L13.9787 15.4315L4.97084 10.3565Z" fill="white"/>
</svg>
