<svg width="24" height="22" viewBox="0 0 24 22" fill="none" xmlns="http://www.w3.org/2000/svg">
<path d="M0.792675 15.3855C0.792675 15.3855 9.60568 20.3392 11.3977 21.346C11.5902 21.4545 11.7862 21.5 11.9717 21.5C12.1793 21.5 12.373 21.4428 12.5363 21.3518C14.34 20.345 23.2172 15.3867 23.2172 15.3867C23.5042 15.2257 23.6663 14.9282 23.6663 14.6213C23.6663 13.961 22.95 13.5317 22.3643 13.8583C22.3643 13.8583 14.137 18.476 12.4022 19.4233C12.156 19.5575 11.8842 19.6112 11.5598 19.4303C9.63601 18.3477 1.65017 13.8595 1.65017 13.8595C1.06451 13.5305 0.347008 13.9587 0.347008 14.6213C0.347008 14.927 0.506841 15.2245 0.792675 15.3855ZM0.792675 11.7537C0.792675 11.7537 9.60568 16.7073 11.3977 17.7142C11.5902 17.8227 11.7862 17.8682 11.9717 17.8682C12.1793 17.8682 12.373 17.811 12.5363 17.72C14.34 16.7132 23.2172 11.7548 23.2172 11.7548C23.5042 11.5938 23.6663 11.2963 23.6663 10.9895C23.6663 10.3292 22.95 9.89983 22.3643 10.2265C22.3643 10.2265 14.137 14.8442 12.4022 15.7915C12.156 15.9257 11.8842 15.9793 11.5598 15.7985C9.63601 14.7158 1.65017 10.2277 1.65017 10.2277C1.06451 9.89867 0.347008 10.3268 0.347008 10.9895C0.347008 11.2952 0.506841 11.5927 0.792675 11.7537ZM12.7755 0.722833C12.4885 0.5735 12.226 0.5 11.9682 0.5C11.708 0.5 11.4513 0.575833 11.1807 0.722833L0.816008 6.562C0.494008 6.7755 0.333008 7.08 0.333008 7.37633C0.333008 7.675 0.495175 7.9655 0.816008 8.151L11.1807 13.9913C11.4385 14.1465 11.7022 14.2282 11.9717 14.2282C12.2318 14.2282 12.499 14.1523 12.7755 13.9913L23.1402 8.151C23.4843 7.95733 23.6663 7.65983 23.6663 7.35767C23.6663 7.066 23.4972 6.77083 23.1402 6.562L12.7755 0.722833ZM2.97084 7.3565L11.9787 2.28267L20.9853 7.3565L11.9787 12.4315L2.97084 7.3565Z" fill="#2D6886"/>
</svg>
