<svg width="24" height="24" viewBox="0 0 24 24" fill="none" xmlns="http://www.w3.org/2000/svg">
<path d="M12.7502 3.03001V3.59801C12.7502 3.93201 12.8982 4.24801 13.1552 4.46201L14.2232 5.35201C14.6652 5.72101 14.7582 6.36201 14.4392 6.84201L13.9292 7.60801C13.6514 8.02422 13.2429 8.33598 12.7682 8.49401L12.6252 8.54201C12.4638 8.59596 12.317 8.68637 12.1963 8.80624C12.0755 8.9261 11.9841 9.07218 11.9289 9.23314C11.8738 9.3941 11.8565 9.56559 11.8784 9.73432C11.9003 9.90304 11.9608 10.0645 12.0552 10.206C12.4242 10.761 12.2242 11.513 11.6282 11.811L9.00015 13.125L9.42315 14.184C9.50846 14.3991 9.51287 14.6378 9.43555 14.8559C9.35824 15.074 9.20445 15.2566 9.00271 15.37C8.80097 15.4833 8.56498 15.5196 8.33851 15.4722C8.11203 15.4247 7.91045 15.2968 7.77115 15.112L7.09215 14.206C6.97708 14.0527 6.82472 13.9313 6.64954 13.8533C6.47436 13.7754 6.28217 13.7436 6.09121 13.7608C5.90026 13.778 5.71688 13.8438 5.55848 13.9518C5.40008 14.0598 5.27192 14.2065 5.18615 14.378L4.50015 15.75L3.88815 15.903M12.7502 3.03101C11.1692 2.89834 9.58129 3.18594 8.1473 3.86465C6.7133 4.54337 5.48421 5.58909 4.58455 6.89584C3.68489 8.20259 3.14664 9.72393 3.02434 11.3057C2.90204 12.8875 3.20005 14.4735 3.88815 15.903M12.7502 3.03101C14.3178 3.16175 15.8239 3.70113 17.1181 4.59537C18.4124 5.48961 19.4496 6.70747 20.1265 8.12754C20.8033 9.54762 21.0962 11.1203 20.9757 12.6888C20.8553 14.2573 20.3259 15.7669 19.4402 17.067M19.4402 17.067L19.2632 16.538C19.1137 16.09 18.8271 15.7004 18.4439 15.4244C18.0607 15.1483 17.6004 14.9999 17.1282 15H16.5002L16.1762 14.676C16.0134 14.513 15.8142 14.391 15.5951 14.3201C15.3759 14.2492 15.143 14.2314 14.9156 14.2683C14.6882 14.3051 14.4728 14.3954 14.2872 14.5319C14.1016 14.6683 13.9511 14.847 13.8482 15.053L13.8122 15.126C13.7139 15.3226 13.5759 15.4967 13.4069 15.6372C13.2378 15.7777 13.0414 15.8815 12.8302 15.942L11.8402 16.224C11.2902 16.381 10.9462 16.926 11.0402 17.491L11.1132 17.929C11.1932 18.403 11.6032 18.75 12.0832 18.75C12.9292 18.75 13.6812 19.292 13.9482 20.095L14.1632 20.738M19.4392 17.068C18.1913 18.8982 16.3131 20.2047 14.1632 20.738M14.1632 20.738C12.1557 21.2354 10.0382 21.0262 8.16685 20.1456C6.29552 19.265 4.78456 17.7668 3.88815 15.903M15.7502 9.00001C15.7502 9.89601 15.3572 10.7 14.7342 11.25" stroke="#7FCCB8" stroke-width="1.5" stroke-linecap="round" stroke-linejoin="round"/>
</svg>
