<svg width="40" height="40" viewBox="0 0 40 40" fill="none" xmlns="http://www.w3.org/2000/svg">
<circle cx="20" cy="20" r="20" fill="#2D6886"/>
<path d="M11.5109 9.91663L15.15 10.0428C15.9165 10.0694 16.5968 10.5333 16.8905 11.2297L17.9666 13.7808C18.217 14.3744 18.1496 15.0517 17.7869 15.5865L16.4083 17.6192C17.2245 18.7425 19.4447 21.3743 21.7955 22.9148L23.5484 21.8809C23.9939 21.6182 24.5273 21.5402 25.0314 21.664L28.5161 22.5203C29.4429 22.7481 30.0674 23.5999 29.9942 24.5362L29.7705 27.3952C29.6919 28.3985 28.8351 29.1857 27.818 29.0725C14.3924 27.5764 6.51944 9.9166 11.5109 9.91663Z" fill="#96EED7"/>
</svg>
