<svg width="225" height="56" viewBox="0 0 225 56" fill="none" xmlns="http://www.w3.org/2000/svg">
<path d="M14 45.7085V12L55 55H43.9695L21.7005 32.5276V37.7136L14 45.7085Z" stroke="white" stroke-width="2"/>
<path d="M31 27.5833L56 3V13.2083L36.625 33" stroke="white" stroke-width="2"/>
<rect x="1" y="2" width="31" height="8" stroke="#96EED7" stroke-width="2"/>
<path d="M85.2969 16.25V39H82.3281V16.25H85.2969ZM92.6094 16.25V18.7188H75.0312V16.25H92.6094ZM101 39.3125C99.8229 39.3125 98.7552 39.1146 97.7969 38.7188C96.849 38.3125 96.0312 37.7448 95.3438 37.0156C94.6667 36.2865 94.1458 35.4219 93.7812 34.4219C93.4167 33.4219 93.2344 32.3281 93.2344 31.1406V30.4844C93.2344 29.1094 93.4375 27.8854 93.8438 26.8125C94.25 25.7292 94.8021 24.8125 95.5 24.0625C96.1979 23.3125 96.9896 22.7448 97.875 22.3594C98.7604 21.974 99.6771 21.7812 100.625 21.7812C101.833 21.7812 102.875 21.9896 103.75 22.4062C104.635 22.8229 105.359 23.4062 105.922 24.1562C106.484 24.8958 106.901 25.7708 107.172 26.7812C107.443 27.7812 107.578 28.875 107.578 30.0625V31.3594H94.9531V29H104.688V28.7812C104.646 28.0312 104.49 27.3021 104.219 26.5938C103.958 25.8854 103.542 25.3021 102.969 24.8438C102.396 24.3854 101.615 24.1562 100.625 24.1562C99.9688 24.1562 99.3646 24.2969 98.8125 24.5781C98.2604 24.849 97.7865 25.2552 97.3906 25.7969C96.9948 26.3385 96.6875 27 96.4688 27.7812C96.25 28.5625 96.1406 29.4635 96.1406 30.4844V31.1406C96.1406 31.9427 96.25 32.6979 96.4688 33.4062C96.6979 34.1042 97.026 34.7188 97.4531 35.25C97.8906 35.7812 98.4167 36.1979 99.0312 36.5C99.6562 36.8021 100.365 36.9531 101.156 36.9531C102.177 36.9531 103.042 36.7448 103.75 36.3281C104.458 35.9115 105.078 35.3542 105.609 34.6562L107.359 36.0469C106.995 36.599 106.531 37.125 105.969 37.625C105.406 38.125 104.714 38.5312 103.891 38.8438C103.078 39.1562 102.115 39.3125 101 39.3125ZM117.266 30.9219H114.156V29.1406H117.031C117.833 29.1406 118.469 29.0417 118.938 28.8438C119.406 28.6354 119.74 28.349 119.938 27.9844C120.135 27.6198 120.234 27.1927 120.234 26.7031C120.234 26.2656 120.12 25.8542 119.891 25.4688C119.672 25.0729 119.318 24.7552 118.828 24.5156C118.339 24.2656 117.682 24.1406 116.859 24.1406C116.193 24.1406 115.589 24.2604 115.047 24.5C114.505 24.7292 114.073 25.0469 113.75 25.4531C113.438 25.849 113.281 26.2969 113.281 26.7969H110.391C110.391 25.7656 110.682 24.8802 111.266 24.1406C111.859 23.3906 112.646 22.8125 113.625 22.4062C114.615 22 115.693 21.7969 116.859 21.7969C117.839 21.7969 118.714 21.9062 119.484 22.125C120.266 22.3333 120.927 22.6458 121.469 23.0625C122.01 23.4688 122.422 23.9792 122.703 24.5938C122.995 25.1979 123.141 25.901 123.141 26.7031C123.141 27.276 123.005 27.8177 122.734 28.3281C122.464 28.8385 122.073 29.2917 121.562 29.6875C121.052 30.0729 120.432 30.375 119.703 30.5938C118.984 30.8125 118.172 30.9219 117.266 30.9219ZM114.156 29.8281H117.266C118.276 29.8281 119.167 29.9271 119.938 30.125C120.708 30.3125 121.354 30.5938 121.875 30.9688C122.396 31.3438 122.786 31.8073 123.047 32.3594C123.318 32.901 123.453 33.526 123.453 34.2344C123.453 35.026 123.292 35.7396 122.969 36.375C122.656 37 122.208 37.5312 121.625 37.9688C121.042 38.4062 120.344 38.7396 119.531 38.9688C118.729 39.1979 117.839 39.3125 116.859 39.3125C115.766 39.3125 114.703 39.125 113.672 38.75C112.641 38.375 111.792 37.7969 111.125 37.0156C110.458 36.224 110.125 35.2188 110.125 34H113.016C113.016 34.5104 113.177 34.9948 113.5 35.4531C113.823 35.9115 114.271 36.2812 114.844 36.5625C115.427 36.8438 116.099 36.9844 116.859 36.9844C117.672 36.9844 118.349 36.8594 118.891 36.6094C119.432 36.3594 119.839 36.026 120.109 35.6094C120.391 35.1927 120.531 34.7396 120.531 34.25C120.531 33.6146 120.406 33.1042 120.156 32.7188C119.906 32.3333 119.521 32.0521 119 31.875C118.49 31.6875 117.833 31.5938 117.031 31.5938H114.156V29.8281ZM138.281 22.0938V39H135.391V22.0938H138.281ZM149.375 22.0938L141.359 31.7812H137.312L136.875 29.25H140.188L145.859 22.0938H149.375ZM146.266 39L140.047 31.3438L141.906 29.25L149.938 39H146.266ZM162.422 36.1094V27.4062C162.422 26.7396 162.286 26.1615 162.016 25.6719C161.755 25.1719 161.359 24.7865 160.828 24.5156C160.297 24.2448 159.641 24.1094 158.859 24.1094C158.13 24.1094 157.49 24.2344 156.938 24.4844C156.396 24.7344 155.969 25.0625 155.656 25.4688C155.354 25.875 155.203 26.3125 155.203 26.7812H152.312C152.312 26.1771 152.469 25.5781 152.781 24.9844C153.094 24.3906 153.542 23.8542 154.125 23.375C154.719 22.8854 155.427 22.5 156.25 22.2188C157.083 21.9271 158.01 21.7812 159.031 21.7812C160.26 21.7812 161.344 21.9896 162.281 22.4062C163.229 22.8229 163.969 23.4531 164.5 24.2969C165.042 25.1302 165.312 26.1771 165.312 27.4375V35.3125C165.312 35.875 165.359 36.474 165.453 37.1094C165.557 37.7448 165.708 38.2917 165.906 38.75V39H162.891C162.745 38.6667 162.63 38.224 162.547 37.6719C162.464 37.1094 162.422 36.5885 162.422 36.1094ZM162.922 28.75L162.953 30.7812H160.031C159.208 30.7812 158.474 30.849 157.828 30.9844C157.182 31.1094 156.641 31.3021 156.203 31.5625C155.766 31.8229 155.432 32.151 155.203 32.5469C154.974 32.9323 154.859 33.3854 154.859 33.9062C154.859 34.4375 154.979 34.9219 155.219 35.3594C155.458 35.7969 155.818 36.1458 156.297 36.4062C156.786 36.6562 157.385 36.7812 158.094 36.7812C158.979 36.7812 159.76 36.5938 160.438 36.2188C161.115 35.8438 161.651 35.3854 162.047 34.8438C162.453 34.3021 162.672 33.776 162.703 33.2656L163.938 34.6562C163.865 35.0938 163.667 35.5781 163.344 36.1094C163.021 36.6406 162.589 37.151 162.047 37.6406C161.516 38.1198 160.88 38.5208 160.141 38.8438C159.411 39.1562 158.589 39.3125 157.672 39.3125C156.526 39.3125 155.521 39.0885 154.656 38.6406C153.802 38.1927 153.135 37.5938 152.656 36.8438C152.188 36.0833 151.953 35.2344 151.953 34.2969C151.953 33.3906 152.13 32.5938 152.484 31.9062C152.839 31.2083 153.349 30.6302 154.016 30.1719C154.682 29.7031 155.484 29.349 156.422 29.1094C157.359 28.8698 158.406 28.75 159.562 28.75H162.922ZM180.703 14.7344H183.078C183.078 15.7552 182.922 16.5677 182.609 17.1719C182.297 17.7656 181.87 18.224 181.328 18.5469C180.797 18.8698 180.193 19.1146 179.516 19.2812C178.849 19.4479 178.156 19.6094 177.438 19.7656C176.542 19.9531 175.708 20.25 174.938 20.6562C174.177 21.0521 173.521 21.6146 172.969 22.3438C172.427 23.0729 172.026 24.0208 171.766 25.1875C171.516 26.3542 171.448 27.7969 171.562 29.5156V30.9531H169.188V29.5156C169.188 27.5885 169.37 25.9062 169.734 24.4688C170.109 23.0312 170.635 21.8177 171.312 20.8281C171.99 19.8385 172.792 19.0521 173.719 18.4688C174.656 17.8854 175.688 17.4844 176.812 17.2656C177.625 17.1094 178.323 16.9427 178.906 16.7656C179.49 16.5781 179.932 16.3281 180.234 16.0156C180.547 15.7031 180.703 15.276 180.703 14.7344ZM177.281 23.0625C178.385 23.0625 179.37 23.2552 180.234 23.6406C181.099 24.026 181.833 24.5625 182.438 25.25C183.042 25.9375 183.5 26.75 183.812 27.6875C184.135 28.6146 184.297 29.625 184.297 30.7188V31.0625C184.297 32.2396 184.125 33.3333 183.781 34.3438C183.448 35.3438 182.953 36.2188 182.297 36.9688C181.651 37.7083 180.859 38.2865 179.922 38.7031C178.995 39.1198 177.938 39.3281 176.75 39.3281C175.562 39.3281 174.5 39.1198 173.562 38.7031C172.635 38.2865 171.844 37.7083 171.188 36.9688C170.531 36.2188 170.031 35.3438 169.688 34.3438C169.354 33.3333 169.188 32.2396 169.188 31.0625V30.7188C169.188 30.4583 169.234 30.2031 169.328 29.9531C169.422 29.7031 169.536 29.4479 169.672 29.1875C169.818 28.9271 169.948 28.651 170.062 28.3594C170.448 27.4219 170.974 26.5521 171.641 25.75C172.318 24.9479 173.125 24.3021 174.062 23.8125C175.01 23.3125 176.083 23.0625 177.281 23.0625ZM176.719 25.4219C175.656 25.4219 174.781 25.6667 174.094 26.1562C173.417 26.6458 172.911 27.2969 172.578 28.1094C172.245 28.9115 172.078 29.7812 172.078 30.7188V31.0625C172.078 31.8542 172.172 32.6042 172.359 33.3125C172.547 34.0208 172.828 34.651 173.203 35.2031C173.589 35.7448 174.073 36.1719 174.656 36.4844C175.25 36.7969 175.948 36.9531 176.75 36.9531C177.552 36.9531 178.245 36.7969 178.828 36.4844C179.411 36.1719 179.891 35.7448 180.266 35.2031C180.641 34.651 180.922 34.0208 181.109 33.3125C181.297 32.6042 181.391 31.8542 181.391 31.0625V30.7188C181.391 30.0104 181.297 29.3385 181.109 28.7031C180.922 28.0677 180.635 27.5052 180.25 27.0156C179.875 26.526 179.391 26.1406 178.797 25.8594C178.214 25.5677 177.521 25.4219 176.719 25.4219ZM197.547 36.1094V27.4062C197.547 26.7396 197.411 26.1615 197.141 25.6719C196.88 25.1719 196.484 24.7865 195.953 24.5156C195.422 24.2448 194.766 24.1094 193.984 24.1094C193.255 24.1094 192.615 24.2344 192.062 24.4844C191.521 24.7344 191.094 25.0625 190.781 25.4688C190.479 25.875 190.328 26.3125 190.328 26.7812H187.438C187.438 26.1771 187.594 25.5781 187.906 24.9844C188.219 24.3906 188.667 23.8542 189.25 23.375C189.844 22.8854 190.552 22.5 191.375 22.2188C192.208 21.9271 193.135 21.7812 194.156 21.7812C195.385 21.7812 196.469 21.9896 197.406 22.4062C198.354 22.8229 199.094 23.4531 199.625 24.2969C200.167 25.1302 200.438 26.1771 200.438 27.4375V35.3125C200.438 35.875 200.484 36.474 200.578 37.1094C200.682 37.7448 200.833 38.2917 201.031 38.75V39H198.016C197.87 38.6667 197.755 38.224 197.672 37.6719C197.589 37.1094 197.547 36.5885 197.547 36.1094ZM198.047 28.75L198.078 30.7812H195.156C194.333 30.7812 193.599 30.849 192.953 30.9844C192.307 31.1094 191.766 31.3021 191.328 31.5625C190.891 31.8229 190.557 32.151 190.328 32.5469C190.099 32.9323 189.984 33.3854 189.984 33.9062C189.984 34.4375 190.104 34.9219 190.344 35.3594C190.583 35.7969 190.943 36.1458 191.422 36.4062C191.911 36.6562 192.51 36.7812 193.219 36.7812C194.104 36.7812 194.885 36.5938 195.562 36.2188C196.24 35.8438 196.776 35.3854 197.172 34.8438C197.578 34.3021 197.797 33.776 197.828 33.2656L199.062 34.6562C198.99 35.0938 198.792 35.5781 198.469 36.1094C198.146 36.6406 197.714 37.151 197.172 37.6406C196.641 38.1198 196.005 38.5208 195.266 38.8438C194.536 39.1562 193.714 39.3125 192.797 39.3125C191.651 39.3125 190.646 39.0885 189.781 38.6406C188.927 38.1927 188.26 37.5938 187.781 36.8438C187.312 36.0833 187.078 35.2344 187.078 34.2969C187.078 33.3906 187.255 32.5938 187.609 31.9062C187.964 31.2083 188.474 30.6302 189.141 30.1719C189.807 29.7031 190.609 29.349 191.547 29.1094C192.484 28.8698 193.531 28.75 194.688 28.75H198.047ZM207.875 25.3438V45.5H204.969V22.0938H207.625L207.875 25.3438ZM219.266 30.4062V30.7344C219.266 31.9635 219.12 33.1042 218.828 34.1562C218.536 35.1979 218.109 36.1042 217.547 36.875C216.995 37.6458 216.312 38.2448 215.5 38.6719C214.688 39.099 213.755 39.3125 212.703 39.3125C211.63 39.3125 210.682 39.1354 209.859 38.7812C209.036 38.4271 208.339 37.9115 207.766 37.2344C207.193 36.5573 206.734 35.7448 206.391 34.7969C206.057 33.849 205.828 32.7812 205.703 31.5938V29.8438C205.828 28.5938 206.062 27.474 206.406 26.4844C206.75 25.4948 207.203 24.651 207.766 23.9531C208.339 23.2448 209.031 22.7083 209.844 22.3438C210.656 21.9688 211.594 21.7812 212.656 21.7812C213.719 21.7812 214.661 21.9896 215.484 22.4062C216.307 22.8125 217 23.3958 217.562 24.1562C218.125 24.9167 218.547 25.8281 218.828 26.8906C219.12 27.9427 219.266 29.1146 219.266 30.4062ZM216.359 30.7344V30.4062C216.359 29.5625 216.271 28.7708 216.094 28.0312C215.917 27.2812 215.641 26.625 215.266 26.0625C214.901 25.4896 214.432 25.0417 213.859 24.7188C213.286 24.3854 212.604 24.2188 211.812 24.2188C211.083 24.2188 210.448 24.3438 209.906 24.5938C209.375 24.8438 208.922 25.1823 208.547 25.6094C208.172 26.026 207.865 26.5052 207.625 27.0469C207.396 27.5781 207.224 28.1302 207.109 28.7031V32.75C207.318 33.4792 207.609 34.1667 207.984 34.8125C208.359 35.4479 208.859 35.9635 209.484 36.3594C210.109 36.7448 210.896 36.9375 211.844 36.9375C212.625 36.9375 213.297 36.776 213.859 36.4531C214.432 36.1198 214.901 35.6667 215.266 35.0938C215.641 34.5208 215.917 33.8646 216.094 33.125C216.271 32.375 216.359 31.5781 216.359 30.7344Z" fill="white"/>
</svg>
