<svg width="39" height="40" viewBox="0 0 39 40" fill="none" xmlns="http://www.w3.org/2000/svg">
<ellipse cx="19.5" cy="20" rx="20" ry="19.5" transform="rotate(-90 19.5 20)" fill="#2D6886"/>
<path fill-rule="evenodd" clip-rule="evenodd" d="M30.125 19.5625C30.125 13.729 25.396 9 19.5625 9C13.729 9 9 13.729 9 19.5625C9 25.396 13.729 30.125 19.5625 30.125C25.396 30.125 30.125 25.396 30.125 19.5625ZM29.3125 19.5625C29.3125 14.1777 24.9473 9.8125 19.5625 9.8125C14.1777 9.8125 9.8125 14.1777 9.8125 19.5625C9.8125 24.9473 14.1777 29.3125 19.5625 29.3125C24.9473 29.3125 29.3125 24.9473 29.3125 19.5625ZM21.2861 17.8389C22.7224 19.2752 25.3077 25.3077 25.3077 25.3077C25.3077 25.3077 19.2752 22.7224 17.8389 21.2861C16.4026 19.8498 13.8173 13.8173 13.8173 13.8173C13.8173 13.8173 19.8498 16.4026 21.2861 17.8389ZM18.425 20.6834C19.574 21.8324 23.6532 23.6135 23.6532 23.6135C23.6532 23.6135 21.8721 19.5343 20.7231 18.3853L18.425 20.6834Z" fill="#96EED7" stroke="#96EED7" stroke-width="0.5"/>
</svg>
