<svg width="24" height="25" viewBox="0 0 24 25" fill="none" xmlns="http://www.w3.org/2000/svg">
<path d="M7 16.8C9.2 16.8 11 14.97 11 12.75C11 11.59 10.43 10.49 9.29 9.56C8.15 8.63 7.29 7.25 7 5.8C6.71 7.25 5.86 8.64 4.71 9.56C3.56 10.48 3 11.6 3 12.75C3 14.97 4.8 16.8 7 16.8Z" stroke="#96EED7" stroke-width="2" stroke-linecap="round" stroke-linejoin="round"/>
<path d="M12.5598 7.1C13.2476 6.00113 13.7351 4.78905 13.9998 3.52C14.4998 6.02 15.9998 8.42 17.9998 10.02C19.9998 11.62 20.9998 13.52 20.9998 15.52C21.0056 16.9023 20.6007 18.2552 19.8366 19.4071C19.0726 20.559 17.9837 21.4582 16.708 21.9905C15.4323 22.5228 14.0273 22.6644 12.671 22.3973C11.3148 22.1302 10.0684 21.4663 9.08984 20.49" stroke="#96EED7" stroke-width="2" stroke-linecap="round" stroke-linejoin="round"/>
</svg>
