<svg width="24" height="24" viewBox="0 0 24 24" fill="none" xmlns="http://www.w3.org/2000/svg">
<path d="M14.9998 12L6.4998 20.5C5.6698 21.33 4.3298 21.33 3.4998 20.5C3.30266 20.3031 3.14626 20.0693 3.03956 19.8119C2.93285 19.5545 2.87793 19.2786 2.87793 19C2.87793 18.7214 2.93285 18.4455 3.03956 18.1881C3.14626 17.9307 3.30266 17.6969 3.4998 17.5L11.9998 9" stroke="#96EED7" stroke-width="2" stroke-linecap="round" stroke-linejoin="round"/>
<path d="M17.6396 15L21.9996 10.64" stroke="#96EED7" stroke-width="2" stroke-linecap="round" stroke-linejoin="round"/>
<path d="M20.91 11.7L19.66 10.45C19.06 9.85001 18.73 9.05001 18.73 8.20001V7.34001L16.01 4.60001C15.4936 4.08062 14.8798 3.66837 14.2036 3.38693C13.5275 3.10549 12.8024 2.9604 12.07 2.96001H9L9.92 3.78001C10.5735 4.3594 11.0967 5.07071 11.4552 5.86705C11.8137 6.66339 11.9994 7.52668 12 8.40001V9.96001L14 11.96H16.47L18.73 13.87" stroke="#96EED7" stroke-width="2" stroke-linecap="round" stroke-linejoin="round"/>
</svg>
