<svg width="286" height="232" viewBox="0 0 286 232" fill="none" xmlns="http://www.w3.org/2000/svg">
<path d="M269.591 179.818C269.628 179.818 270.293 177.302 270.311 177.135C270.563 175.235 269.8 171.425 267.64 170.53C267.276 170.391 266.884 170.322 266.489 170.329C266.094 170.336 265.705 170.418 265.347 170.569C264.989 170.721 264.671 170.938 264.413 171.208C264.154 171.478 263.962 171.794 263.848 172.136C263.307 173.569 264.076 175.302 264.962 176.485C266.015 177.874 269.591 179.818 269.591 179.818Z" fill="#263238"/>
<path d="M227.366 179.79C229.089 180.429 233.256 180.268 233.263 180.262C233.269 180.257 232.309 177.818 232.222 177.668C231.268 175.957 228.308 173.158 225.956 173.491C225.568 173.555 225.2 173.693 224.874 173.895C224.549 174.097 224.275 174.358 224.069 174.662C223.864 174.966 223.731 175.306 223.681 175.66C223.631 176.013 223.664 176.372 223.778 176.713C224.202 178.179 225.901 179.246 227.366 179.79Z" fill="#263238"/>
<path d="M229.083 190.667C230.862 190.867 234.561 189.823 234.857 189.739C235.512 191.652 236.31 193.523 237.245 195.339C237.78 196.4 238.359 197.45 238.956 198.499C238.605 198.055 238.285 197.666 238.236 197.611C236.814 196.189 233.139 194.194 230.967 195.078C230.612 195.233 230.297 195.454 230.043 195.727C229.789 195.999 229.602 196.317 229.493 196.659C229.383 197.001 229.355 197.36 229.41 197.712C229.464 198.065 229.601 198.403 229.809 198.705C230.646 200.021 232.598 200.638 234.167 200.816C235.737 200.994 238.944 200.16 239.781 199.927C240.008 200.333 240.236 200.733 240.47 201.132C241.596 203.049 242.729 204.96 243.769 206.86C244.139 207.532 244.477 208.204 244.816 208.876C244.502 208.482 244.237 208.154 244.2 208.11C242.772 206.687 239.097 204.693 236.931 205.571C236.575 205.727 236.26 205.948 236.006 206.22C235.751 206.493 235.563 206.811 235.453 207.154C235.343 207.496 235.315 207.856 235.369 208.209C235.423 208.562 235.559 208.901 235.768 209.204C236.605 210.515 238.556 211.131 240.132 211.309C241.707 211.487 244.594 210.754 245.591 210.465C245.911 211.165 246.237 211.859 246.521 212.548C246.699 213.026 246.908 213.47 247.056 213.953C247.204 214.437 247.376 214.903 247.53 215.375C247.795 216.286 248.072 217.225 248.306 218.12C248.478 218.742 248.626 219.336 248.773 219.936C248.416 219.269 247.684 217.964 247.61 217.864C246.441 216.264 243.141 213.792 240.839 214.364C240.462 214.469 240.113 214.644 239.815 214.878C239.518 215.112 239.278 215.401 239.112 215.724C238.946 216.047 238.857 216.398 238.852 216.755C238.846 217.111 238.923 217.464 239.079 217.792C239.695 219.203 241.541 220.086 243.037 220.475C244.717 220.903 248.404 220.414 248.866 220.347C249.112 221.341 249.34 222.308 249.537 223.225C250.091 225.747 250.485 227.946 250.768 229.679H252.356C252.023 227.902 251.562 225.608 250.915 222.964C250.669 221.952 250.386 220.88 250.084 219.781C251.187 219.358 252.262 218.877 253.304 218.342C254.535 219.508 257.698 220.842 258.105 221.008C257.704 221.958 257.304 222.88 256.91 223.741C255.839 226.097 254.836 228.102 254.018 229.679H255.729C256.461 228.169 257.317 226.346 258.191 224.213C258.609 223.247 259.028 222.214 259.422 221.141C259.871 221.219 263.546 221.819 265.245 221.441C266.783 221.097 268.636 220.269 269.295 218.881C269.463 218.558 269.554 218.207 269.562 217.85C269.57 217.493 269.495 217.139 269.341 216.81C269.187 216.482 268.958 216.186 268.669 215.943C268.38 215.699 268.037 215.514 267.664 215.398C265.392 214.759 262.007 217.136 260.782 218.697C260.708 218.792 260.05 219.875 259.65 220.558C259.816 220.125 259.988 219.703 260.154 219.247C260.493 218.358 260.801 217.459 261.139 216.47C261.287 215.998 261.428 215.525 261.576 215.042C261.724 214.559 261.835 214.048 261.964 213.548C262.247 212.381 262.462 211.187 262.659 209.976C263.521 210.243 266.611 211.148 268.199 211.02C269.787 210.893 271.751 210.326 272.637 209.037C272.856 208.741 273.004 208.406 273.071 208.055C273.138 207.704 273.122 207.344 273.025 206.999C272.927 206.653 272.75 206.33 272.505 206.051C272.26 205.771 271.953 205.542 271.603 205.376C269.467 204.432 265.725 206.315 264.254 207.698C264.161 207.782 263.226 208.882 262.727 209.493C262.838 208.765 262.949 208.037 263.035 207.298C263.275 205.171 263.447 203.004 263.65 200.844C263.706 200.183 263.767 199.522 263.829 198.86C264.137 198.96 267.78 200.11 269.559 199.971C271.141 199.844 273.111 199.283 273.997 197.994C274.218 197.698 274.367 197.364 274.435 197.013C274.503 196.662 274.487 196.302 274.39 195.956C274.293 195.611 274.117 195.287 273.872 195.008C273.627 194.728 273.319 194.498 272.969 194.333C270.833 193.389 267.085 195.272 265.614 196.65C265.503 196.755 264.161 198.316 263.841 198.755C263.977 197.3 264.124 195.855 264.34 194.433C264.614 192.515 265.025 190.615 265.571 188.745C265.712 188.789 269.516 190 271.332 189.856C272.914 189.728 274.884 189.167 275.77 187.878C275.991 187.583 276.14 187.248 276.207 186.897C276.275 186.546 276.26 186.186 276.163 185.84C276.066 185.495 275.889 185.172 275.644 184.892C275.4 184.612 275.092 184.383 274.742 184.218C272.606 183.273 268.858 185.156 267.387 186.534C267.288 186.628 266.266 187.828 265.792 188.412L265.675 188.362C266.279 186.492 267.07 184.675 268.039 182.934C268.562 181.968 269.116 181.068 269.676 180.212C270.359 180.501 273.492 181.801 275.148 181.829C276.804 181.857 278.761 181.496 279.795 180.301C280.05 180.029 280.239 179.711 280.349 179.368C280.458 179.026 280.487 178.666 280.432 178.313C280.378 177.959 280.241 177.621 280.032 177.318C279.822 177.016 279.545 176.756 279.217 176.557C277.21 175.413 273.259 176.913 271.627 178.14C271.541 178.207 270.716 178.974 270.132 179.54C270.39 179.151 270.655 178.751 270.907 178.39C271.874 177.018 272.846 175.818 273.72 174.757C274.225 174.163 274.693 173.646 275.136 173.135C275.967 173.135 279.328 172.952 280.786 172.302C282.245 171.652 283.821 170.497 284.135 169.008C284.221 168.661 284.225 168.3 284.147 167.951C284.069 167.602 283.911 167.272 283.682 166.981C283.453 166.691 283.16 166.448 282.82 166.267C282.48 166.086 282.102 165.971 281.71 165.931C279.34 165.742 276.601 168.708 275.776 170.486C275.708 170.641 274.896 173.141 274.939 173.141H274.988C274.557 173.608 274.09 174.113 273.597 174.674C272.698 175.718 271.689 176.896 270.692 178.257C269.597 179.709 268.596 181.217 267.694 182.773C266.678 184.514 265.833 186.332 265.171 188.206V188.273C265.171 187.645 265.097 185.884 265.072 185.751C264.758 183.857 262.912 180.362 260.567 180.018C260.175 179.969 259.776 179.996 259.397 180.096C259.018 180.196 258.666 180.367 258.365 180.599C258.064 180.83 257.82 181.116 257.65 181.438C257.48 181.76 257.388 182.111 257.378 182.468C257.274 183.979 258.523 185.467 259.723 186.401C261.084 187.445 264.814 188.417 265.109 188.495C264.488 190.417 264.011 192.375 263.681 194.355C263.478 195.505 263.318 196.672 263.17 197.844C263.17 197.288 263.127 196.811 263.115 196.733C262.795 194.839 260.948 191.345 258.603 191C258.212 190.952 257.813 190.978 257.433 191.078C257.054 191.178 256.702 191.35 256.401 191.581C256.1 191.812 255.857 192.098 255.687 192.42C255.517 192.742 255.424 193.093 255.415 193.45C255.31 194.961 256.56 196.45 257.766 197.383C258.972 198.316 262.149 199.21 262.986 199.433C262.936 199.883 262.881 200.333 262.832 200.783C262.592 202.943 262.37 205.099 262.081 207.204C261.976 207.948 261.847 208.676 261.718 209.426C261.718 208.943 261.675 208.537 261.668 208.476C261.348 206.582 259.502 203.088 257.157 202.743C256.765 202.695 256.366 202.721 255.987 202.821C255.608 202.922 255.256 203.093 254.955 203.324C254.654 203.555 254.41 203.841 254.24 204.164C254.07 204.486 253.978 204.836 253.968 205.193C253.864 206.704 255.113 208.193 256.32 209.121C257.526 210.048 260.388 210.865 261.385 211.137C261.231 211.876 261.078 212.62 260.887 213.359C260.745 213.842 260.647 214.32 260.474 214.798C260.302 215.275 260.16 215.748 260.007 216.22C259.668 217.109 259.329 218.031 258.972 218.897C258.732 219.497 258.492 220.069 258.252 220.642C258.363 219.903 258.548 218.453 258.548 218.331C258.483 216.646 257.941 215.005 256.972 213.564C256.974 213.378 256.957 213.192 256.923 213.009C256.865 212.656 256.726 212.318 256.515 212.017C256.303 211.716 256.024 211.459 255.694 211.262C255.365 211.065 254.993 210.932 254.604 210.874C254.214 210.815 253.815 210.831 253.433 210.92C251.143 211.515 249.771 215.181 249.709 217.097C249.709 217.209 249.814 218.442 249.9 219.214C249.771 218.77 249.654 218.331 249.518 217.87C249.26 216.959 248.964 216.053 248.656 215.092C248.49 214.625 248.318 214.159 248.146 213.681C247.973 213.203 247.758 212.726 247.53 212.242C247.05 211.131 246.502 210.02 245.924 208.909C246.81 208.698 249.937 207.915 251.18 207.015C252.423 206.115 253.722 204.671 253.673 203.16C253.675 202.805 253.596 202.454 253.438 202.128C253.281 201.803 253.05 201.511 252.76 201.271C252.47 201.031 252.128 200.849 251.755 200.736C251.382 200.624 250.987 200.582 250.595 200.616C248.232 200.894 246.287 204.327 245.874 206.215C245.874 206.332 245.745 207.71 245.702 208.471C245.351 207.81 245 207.149 244.619 206.487C243.517 204.588 242.335 202.699 241.172 200.805C240.809 200.249 240.464 199.644 240.113 199.066C240.427 198.994 244.169 198.133 245.56 197.127C246.791 196.233 248.102 194.783 248.022 193.267C248.024 192.912 247.944 192.561 247.786 192.237C247.628 191.912 247.397 191.621 247.107 191.382C246.817 191.142 246.475 190.961 246.103 190.848C245.73 190.736 245.336 190.695 244.945 190.728C242.587 191 240.636 194.439 240.23 196.322C240.23 196.466 240.052 198.449 240.039 198.96C239.264 197.677 238.507 196.4 237.817 195.105C236.869 193.368 236.046 191.578 235.355 189.745C235.503 189.711 239.418 188.828 240.839 187.801C242.07 186.906 243.381 185.456 243.332 183.94C243.335 183.585 243.255 183.233 243.098 182.908C242.94 182.583 242.709 182.291 242.419 182.051C242.129 181.811 241.787 181.629 241.414 181.516C241.041 181.403 240.646 181.362 240.255 181.396C237.891 181.673 235.946 185.112 235.54 186.995C235.509 187.117 235.392 188.634 235.355 189.356H235.22C234.588 187.493 234.139 185.584 233.878 183.651C233.724 182.59 233.638 181.562 233.582 180.568C234.327 180.468 237.737 180.012 239.122 179.196C240.507 178.379 241.929 177.113 242.064 175.607C242.11 175.253 242.073 174.895 241.955 174.555C241.837 174.214 241.641 173.901 241.38 173.633C241.118 173.366 240.798 173.151 240.438 173.003C240.079 172.855 239.689 172.777 239.294 172.774C236.919 172.813 234.543 176.035 233.927 177.868C233.896 177.968 233.681 179.018 233.539 179.779C233.539 179.329 233.49 178.868 233.484 178.435C233.447 176.813 233.527 175.324 233.607 173.991C233.662 173.241 233.724 172.563 233.792 171.936C234.475 171.491 237.183 169.714 237.996 168.425C238.808 167.136 239.43 165.408 238.777 164.014C238.639 163.68 238.423 163.377 238.145 163.123C237.867 162.87 237.533 162.672 237.165 162.543C236.797 162.414 236.402 162.357 236.008 162.375C235.613 162.393 235.227 162.486 234.875 162.648C232.782 163.675 232.321 167.519 232.715 169.402C232.745 169.569 233.601 172.058 233.638 172.036H233.681C233.601 172.641 233.521 173.297 233.453 174.008C233.342 175.324 233.225 176.813 233.219 178.452C233.193 180.206 233.282 181.961 233.484 183.707C233.705 185.665 234.117 187.602 234.715 189.495V189.561C234.333 189.039 233.195 187.606 233.096 187.506C231.674 186.084 228 184.09 225.827 184.968C225.471 185.123 225.156 185.344 224.902 185.617C224.647 185.89 224.459 186.208 224.349 186.55C224.239 186.893 224.211 187.252 224.265 187.606C224.319 187.959 224.455 188.298 224.664 188.6C225.538 189.873 227.489 190.495 229.083 190.667Z" fill="#263238"/>
<path opacity="0.3" d="M227.366 179.79C229.089 180.429 233.256 180.268 233.263 180.262C233.269 180.257 232.309 177.818 232.222 177.668C231.268 175.957 228.308 173.158 225.956 173.491C225.568 173.555 225.2 173.693 224.874 173.895C224.549 174.097 224.275 174.358 224.069 174.662C223.864 174.966 223.731 175.306 223.681 175.66C223.631 176.013 223.664 176.372 223.778 176.713C224.202 178.179 225.901 179.246 227.366 179.79Z" fill="#263238"/>
<path opacity="0.3" d="M269.591 179.818C269.628 179.818 270.293 177.302 270.311 177.135C270.563 175.235 269.8 171.425 267.64 170.53C267.276 170.391 266.884 170.322 266.489 170.329C266.094 170.336 265.705 170.418 265.347 170.569C264.989 170.721 264.671 170.938 264.413 171.208C264.154 171.478 263.962 171.794 263.848 172.136C263.307 173.569 264.076 175.302 264.962 176.485C266.015 177.874 269.591 179.818 269.591 179.818Z" fill="#263238"/>
<path opacity="0.3" d="M229.083 190.667C230.862 190.867 234.561 189.823 234.857 189.739C235.512 191.652 236.31 193.523 237.245 195.339C237.78 196.4 238.359 197.45 238.956 198.499C238.605 198.055 238.285 197.666 238.236 197.611C236.814 196.189 233.139 194.194 230.967 195.078C230.612 195.233 230.297 195.454 230.043 195.727C229.789 195.999 229.602 196.317 229.493 196.659C229.383 197.001 229.355 197.36 229.41 197.712C229.464 198.065 229.601 198.403 229.809 198.705C230.646 200.021 232.598 200.638 234.167 200.816C235.737 200.994 238.944 200.16 239.781 199.927C240.008 200.333 240.236 200.733 240.47 201.132C241.596 203.049 242.729 204.96 243.769 206.86C244.139 207.532 244.477 208.204 244.816 208.876C244.502 208.482 244.237 208.154 244.2 208.11C242.772 206.687 239.097 204.693 236.931 205.571C236.575 205.727 236.26 205.948 236.006 206.22C235.751 206.493 235.563 206.811 235.453 207.154C235.343 207.496 235.315 207.856 235.369 208.209C235.423 208.562 235.559 208.901 235.768 209.204C236.605 210.515 238.556 211.131 240.132 211.309C241.707 211.487 244.594 210.754 245.591 210.465C245.911 211.165 246.237 211.859 246.521 212.548C246.699 213.026 246.908 213.47 247.056 213.953C247.204 214.437 247.376 214.903 247.53 215.375C247.795 216.286 248.072 217.225 248.306 218.12C248.478 218.742 248.626 219.336 248.773 219.936C248.416 219.269 247.684 217.964 247.61 217.864C246.441 216.264 243.141 213.792 240.839 214.364C240.462 214.469 240.113 214.644 239.815 214.878C239.518 215.112 239.278 215.401 239.112 215.724C238.946 216.047 238.857 216.398 238.852 216.755C238.846 217.111 238.923 217.464 239.079 217.792C239.695 219.203 241.541 220.086 243.037 220.475C244.717 220.903 248.404 220.414 248.866 220.347C249.112 221.341 249.34 222.308 249.537 223.225C250.091 225.747 250.485 227.946 250.768 229.679H252.356C252.023 227.902 251.562 225.608 250.915 222.964C250.669 221.952 250.386 220.88 250.084 219.781C251.187 219.358 252.262 218.877 253.304 218.342C254.535 219.508 257.698 220.842 258.105 221.008C257.704 221.958 257.304 222.88 256.91 223.741C255.839 226.097 254.836 228.102 254.018 229.679H255.729C256.461 228.169 257.317 226.346 258.191 224.213C258.609 223.247 259.028 222.214 259.422 221.141C259.871 221.219 263.546 221.819 265.245 221.441C266.783 221.097 268.636 220.269 269.295 218.881C269.463 218.558 269.554 218.207 269.562 217.85C269.57 217.493 269.495 217.139 269.341 216.81C269.187 216.482 268.958 216.186 268.669 215.943C268.38 215.699 268.037 215.514 267.664 215.398C265.392 214.759 262.007 217.136 260.782 218.697C260.708 218.792 260.05 219.875 259.65 220.558C259.816 220.125 259.988 219.703 260.154 219.247C260.493 218.358 260.801 217.459 261.139 216.47C261.287 215.998 261.428 215.525 261.576 215.042C261.724 214.559 261.835 214.048 261.964 213.548C262.247 212.381 262.462 211.187 262.659 209.976C263.521 210.243 266.611 211.148 268.199 211.02C269.787 210.893 271.751 210.326 272.637 209.037C272.856 208.741 273.004 208.406 273.071 208.055C273.138 207.704 273.122 207.344 273.025 206.999C272.927 206.653 272.75 206.33 272.505 206.051C272.26 205.771 271.953 205.542 271.603 205.376C269.467 204.432 265.725 206.315 264.254 207.698C264.161 207.782 263.226 208.882 262.727 209.493C262.838 208.765 262.949 208.037 263.035 207.298C263.275 205.171 263.447 203.004 263.65 200.844C263.706 200.183 263.767 199.522 263.829 198.86C264.137 198.96 267.78 200.11 269.559 199.971C271.141 199.844 273.111 199.283 273.997 197.994C274.218 197.698 274.367 197.364 274.435 197.013C274.503 196.662 274.487 196.302 274.39 195.956C274.293 195.611 274.117 195.287 273.872 195.008C273.627 194.728 273.319 194.498 272.969 194.333C270.833 193.389 267.085 195.272 265.614 196.65C265.503 196.755 264.161 198.316 263.841 198.755C263.977 197.3 264.124 195.855 264.34 194.433C264.614 192.515 265.025 190.615 265.571 188.745C265.712 188.789 269.516 190 271.332 189.856C272.914 189.728 274.884 189.167 275.77 187.878C275.991 187.583 276.14 187.248 276.207 186.897C276.275 186.546 276.26 186.186 276.163 185.84C276.066 185.495 275.889 185.172 275.644 184.892C275.4 184.612 275.092 184.383 274.742 184.218C272.606 183.273 268.858 185.156 267.387 186.534C267.288 186.628 266.266 187.828 265.792 188.412L265.675 188.362C266.279 186.492 267.07 184.675 268.039 182.934C268.562 181.968 269.116 181.068 269.676 180.212C270.359 180.501 273.492 181.801 275.148 181.829C276.804 181.857 278.761 181.496 279.795 180.301C280.05 180.029 280.239 179.711 280.349 179.368C280.458 179.026 280.487 178.666 280.432 178.313C280.378 177.959 280.241 177.621 280.032 177.318C279.822 177.016 279.545 176.756 279.217 176.557C277.21 175.413 273.259 176.913 271.627 178.14C271.541 178.207 270.716 178.974 270.132 179.54C270.39 179.151 270.655 178.751 270.907 178.39C271.874 177.018 272.846 175.818 273.72 174.757C274.225 174.163 274.693 173.646 275.136 173.135C275.967 173.135 279.328 172.952 280.786 172.302C282.245 171.652 283.821 170.497 284.135 169.008C284.221 168.661 284.225 168.3 284.147 167.951C284.069 167.602 283.911 167.272 283.682 166.981C283.453 166.691 283.16 166.448 282.82 166.267C282.48 166.086 282.102 165.971 281.71 165.931C279.34 165.742 276.601 168.708 275.776 170.486C275.708 170.641 274.896 173.141 274.939 173.141H274.988C274.557 173.608 274.09 174.113 273.597 174.674C272.698 175.718 271.689 176.896 270.692 178.257C269.597 179.709 268.596 181.217 267.694 182.773C266.678 184.514 265.833 186.332 265.171 188.206V188.273C265.171 187.645 265.097 185.884 265.072 185.751C264.758 183.857 262.912 180.362 260.567 180.018C260.175 179.969 259.776 179.996 259.397 180.096C259.018 180.196 258.666 180.367 258.365 180.599C258.064 180.83 257.82 181.116 257.65 181.438C257.48 181.76 257.388 182.111 257.378 182.468C257.274 183.979 258.523 185.467 259.723 186.401C261.084 187.445 264.814 188.417 265.109 188.495C264.488 190.417 264.011 192.375 263.681 194.355C263.478 195.505 263.318 196.672 263.17 197.844C263.17 197.288 263.127 196.811 263.115 196.733C262.795 194.839 260.948 191.345 258.603 191C258.212 190.952 257.813 190.978 257.433 191.078C257.054 191.178 256.702 191.35 256.401 191.581C256.1 191.812 255.857 192.098 255.687 192.42C255.517 192.742 255.424 193.093 255.415 193.45C255.31 194.961 256.56 196.45 257.766 197.383C258.972 198.316 262.149 199.21 262.986 199.433C262.936 199.883 262.881 200.333 262.832 200.783C262.592 202.943 262.37 205.099 262.081 207.204C261.976 207.948 261.847 208.676 261.718 209.426C261.718 208.943 261.675 208.537 261.668 208.476C261.348 206.582 259.502 203.088 257.157 202.743C256.765 202.695 256.366 202.721 255.987 202.821C255.608 202.922 255.256 203.093 254.955 203.324C254.654 203.555 254.41 203.841 254.24 204.164C254.07 204.486 253.978 204.836 253.968 205.193C253.864 206.704 255.113 208.193 256.32 209.121C257.526 210.048 260.388 210.865 261.385 211.137C261.231 211.876 261.078 212.62 260.887 213.359C260.745 213.842 260.647 214.32 260.474 214.798C260.302 215.275 260.16 215.748 260.007 216.22C259.668 217.109 259.329 218.031 258.972 218.897C258.732 219.497 258.492 220.069 258.252 220.642C258.363 219.903 258.548 218.453 258.548 218.331C258.483 216.646 257.941 215.005 256.972 213.564C256.974 213.378 256.957 213.192 256.923 213.009C256.865 212.656 256.726 212.318 256.515 212.017C256.303 211.716 256.024 211.459 255.694 211.262C255.365 211.065 254.993 210.932 254.604 210.874C254.214 210.815 253.815 210.831 253.433 210.92C251.143 211.515 249.771 215.181 249.709 217.097C249.709 217.209 249.814 218.442 249.9 219.214C249.771 218.77 249.654 218.331 249.518 217.87C249.26 216.959 248.964 216.053 248.656 215.092C248.49 214.625 248.318 214.159 248.146 213.681C247.973 213.203 247.758 212.726 247.53 212.242C247.05 211.131 246.502 210.02 245.924 208.909C246.81 208.698 249.937 207.915 251.18 207.015C252.423 206.115 253.722 204.671 253.673 203.16C253.675 202.805 253.596 202.454 253.438 202.128C253.281 201.803 253.05 201.511 252.76 201.271C252.47 201.031 252.128 200.849 251.755 200.736C251.382 200.624 250.987 200.582 250.595 200.616C248.232 200.894 246.287 204.327 245.874 206.215C245.874 206.332 245.745 207.71 245.702 208.471C245.351 207.81 245 207.149 244.619 206.487C243.517 204.588 242.335 202.699 241.172 200.805C240.809 200.249 240.464 199.644 240.113 199.066C240.427 198.994 244.169 198.133 245.56 197.127C246.791 196.233 248.102 194.783 248.022 193.267C248.024 192.912 247.944 192.561 247.786 192.237C247.628 191.912 247.397 191.621 247.107 191.382C246.817 191.142 246.475 190.961 246.103 190.848C245.73 190.736 245.336 190.695 244.945 190.728C242.587 191 240.636 194.439 240.23 196.322C240.23 196.466 240.052 198.449 240.039 198.96C239.264 197.677 238.507 196.4 237.817 195.105C236.869 193.368 236.046 191.578 235.355 189.745C235.503 189.711 239.418 188.828 240.839 187.801C242.07 186.906 243.381 185.456 243.332 183.94C243.335 183.585 243.255 183.233 243.098 182.908C242.94 182.583 242.709 182.291 242.419 182.051C242.129 181.811 241.787 181.629 241.414 181.516C241.041 181.403 240.646 181.362 240.255 181.396C237.891 181.673 235.946 185.112 235.54 186.995C235.509 187.117 235.392 188.634 235.355 189.356H235.22C234.588 187.493 234.139 185.584 233.878 183.651C233.724 182.59 233.638 181.562 233.582 180.568C234.327 180.468 237.737 180.012 239.122 179.196C240.507 178.379 241.929 177.113 242.064 175.607C242.11 175.253 242.073 174.895 241.955 174.555C241.837 174.214 241.641 173.901 241.38 173.633C241.118 173.366 240.798 173.151 240.438 173.003C240.079 172.855 239.689 172.777 239.294 172.774C236.919 172.813 234.543 176.035 233.927 177.868C233.896 177.968 233.681 179.018 233.539 179.779C233.539 179.329 233.49 178.868 233.484 178.435C233.447 176.813 233.527 175.324 233.607 173.991C233.662 173.241 233.724 172.563 233.792 171.936C234.475 171.491 237.183 169.714 237.996 168.425C238.808 167.136 239.43 165.408 238.777 164.014C238.639 163.68 238.423 163.377 238.145 163.123C237.867 162.87 237.533 162.672 237.165 162.543C236.797 162.414 236.402 162.357 236.008 162.375C235.613 162.393 235.227 162.486 234.875 162.648C232.782 163.675 232.321 167.519 232.715 169.402C232.745 169.569 233.601 172.058 233.638 172.036H233.681C233.601 172.641 233.521 173.297 233.453 174.008C233.342 175.324 233.225 176.813 233.219 178.452C233.193 180.206 233.282 181.961 233.484 183.707C233.705 185.665 234.117 187.602 234.715 189.495V189.561C234.333 189.039 233.195 187.606 233.096 187.506C231.674 186.084 228 184.09 225.827 184.968C225.471 185.123 225.156 185.344 224.902 185.617C224.647 185.89 224.459 186.208 224.349 186.55C224.239 186.893 224.211 187.252 224.265 187.606C224.319 187.959 224.455 188.298 224.664 188.6C225.538 189.873 227.489 190.495 229.083 190.667Z" fill="#263238"/>
<path d="M158.967 12.8579H21.6641V225.013H158.967V12.8579Z" stroke="#263238" stroke-linecap="round" stroke-linejoin="round"/>
<path d="M154.894 17.4408H25.7344V220.431H154.894V17.4408Z" stroke="#263238" stroke-linecap="round" stroke-linejoin="round"/>
<path d="M152.635 80.573H25.7344V85.2114H152.635V80.573Z" stroke="#263238" stroke-linecap="round" stroke-linejoin="round"/>
<path d="M91.759 156.859V220.375H86.6133V156.859" stroke="#263238" stroke-linecap="round" stroke-linejoin="round"/>
<path d="M86.6133 152.215V85.217" stroke="#263238" stroke-linecap="round" stroke-linejoin="round"/>
<path d="M91.7578 152.215V85.217" stroke="#263238" stroke-linecap="round" stroke-linejoin="round"/>
<path d="M86.6133 80.573V17.4074H91.759V80.573" stroke="#263238" stroke-linecap="round" stroke-linejoin="round"/>
<path d="M152.635 152.215H25.7344V156.854H152.635V152.215Z" stroke="#263238" stroke-linecap="round" stroke-linejoin="round"/>
<path d="M149.131 152.215V85.217" stroke="#263238" stroke-linecap="round" stroke-linejoin="round"/>
<path d="M149.133 80.573V17.4408H25.7344V80.573V85.217V152.216V156.859V220.431H149.133V156.859" stroke="#263238" stroke-linecap="round" stroke-linejoin="round"/>
<path d="M145.414 27.2064L105.578 63.1526" stroke="#263238" stroke-linecap="round" stroke-linejoin="round"/>
<path d="M131.927 48.5875L121.303 58.1753" stroke="#263238" stroke-linecap="round" stroke-linejoin="round"/>
<path d="M118.448 61.4972L113.955 65.5523" stroke="#263238" stroke-linecap="round" stroke-linejoin="round"/>
<path d="M57.9792 114.219L39.1875 131.184" stroke="#263238" stroke-linecap="round" stroke-linejoin="round"/>
<path d="M81.2632 103.898L59 123.991" stroke="#263238" stroke-linecap="round" stroke-linejoin="round"/>
<path d="M75.9509 24.6233L52.666 45.6377" stroke="#263238" stroke-linecap="round" stroke-linejoin="round"/>
<path d="M57.5736 60.3862L52.2617 65.1802" stroke="#263238" stroke-linecap="round" stroke-linejoin="round"/>
<path d="M139.283 131.184L133.564 136.345" stroke="#263238" stroke-linecap="round" stroke-linejoin="round"/>
<path d="M140.913 110.536L107.41 140.772" stroke="#263238" stroke-linecap="round" stroke-linejoin="round"/>
<path d="M114.361 207.138L131.319 191.839" stroke="#263238" stroke-linecap="round" stroke-linejoin="round"/>
<path d="M42.4572 189.439L34.2832 196.816" stroke="#263238" stroke-linecap="round" stroke-linejoin="round"/>
<path d="M279.001 14.2966H195.248V110.164H279.001V14.2966Z" stroke="#263238" stroke-linecap="round" stroke-linejoin="round"/>
<path d="M275.827 17.9352H198.426V106.531H275.827V17.9352Z" stroke="#263238" stroke-linecap="round" stroke-linejoin="round"/>
<path d="M257.678 38.7108H216.574V85.7558H257.678V38.7108Z" stroke="#263238" stroke-linecap="round" stroke-linejoin="round"/>
<path d="M59.3129 206.887C59.9214 204.983 60.3639 203.038 60.6362 201.071C60.7815 200.092 60.8596 199.105 60.8701 198.116C60.8979 197.146 60.832 196.176 60.6732 195.216L60.5316 194.511L60.3531 193.761L59.9715 192.261C59.7253 191.256 59.4729 190.25 59.2452 189.228C59.0174 188.206 58.8205 187.173 58.7035 186.117C58.5872 185.066 58.5481 184.008 58.5866 182.951C58.5866 182.804 58.6514 182.663 58.7669 182.558C58.8823 182.454 59.0389 182.396 59.2021 182.396C59.3653 182.396 59.5219 182.454 59.6373 182.558C59.7528 182.663 59.8176 182.804 59.8176 182.951C59.8967 184.958 60.246 186.948 60.8578 188.878C61.1471 189.856 61.4733 190.839 61.7873 191.822L62.2674 193.3L62.5074 194.044L62.729 194.85C62.9815 195.908 63.1318 196.984 63.1783 198.066C63.2491 199.132 63.2491 200.2 63.1783 201.266C63.0381 203.392 62.7088 205.504 62.1935 207.582C62.0973 207.915 61.8624 208.202 61.5376 208.383C61.2129 208.564 60.8233 208.626 60.4499 208.554C60.0765 208.482 59.7481 208.284 59.5329 207.999C59.3177 207.715 59.2323 207.366 59.2944 207.026C59.2916 206.999 59.2916 206.971 59.2944 206.943L59.3129 206.887Z" fill="#92E3A9" stroke="#263238" stroke-linecap="round" stroke-linejoin="round"/>
<path d="M60.3613 185.912C60.3613 185.912 60.3613 182.79 62.2817 181.057C64.2021 179.324 66.6765 178.924 68.3076 178.757C70.0372 178.585 78.0389 179.84 78.0389 179.84C76.5215 181.838 74.6499 183.597 72.4993 185.045C69.0093 187.301 60.3613 185.912 60.3613 185.912Z" fill="#92E3A9" stroke="#263238" stroke-linecap="round" stroke-linejoin="round"/>
<path d="M70.9961 181.496C71.8764 181.306 72.7684 181.163 73.6674 181.068" stroke="#263238" stroke-linecap="round" stroke-linejoin="round"/>
<path d="M60.3613 185.912C63.1411 184.14 66.2134 182.775 69.4648 181.868" stroke="#263238" stroke-linecap="round" stroke-linejoin="round"/>
<path d="M58.5864 182.951C58.5864 182.951 56.4875 178.418 52.9545 177.102C49.4214 175.785 44.6758 178.968 44.6758 178.968C44.6758 178.968 46.7439 183.035 51.0094 183.584C53.5551 183.916 56.1516 183.699 58.5864 182.951Z" fill="#92E3A9" stroke="#263238" stroke-linecap="round" stroke-linejoin="round"/>
<path d="M58.5887 182.951C58.5887 182.951 54.0524 180.396 50.2793 179.846L58.5887 182.951Z" fill="#92E3A9"/>
<path d="M58.5887 182.951C58.5887 182.951 54.0524 180.396 50.2793 179.846" stroke="#263238" stroke-linecap="round" stroke-linejoin="round"/>
<path d="M81.01 203.871H42.0664L46.5597 229.43H76.5168L81.01 203.871Z" fill="#263238" stroke="#263238" stroke-linecap="round" stroke-linejoin="round"/>
<path d="M167.53 178.363C167.53 178.363 151.656 176.213 144.276 174.824C138.632 173.763 130.483 171.863 130.483 171.863C130.483 171.863 112.226 164.931 110.503 165.197C108.78 165.464 103.652 169.897 103.652 169.897C103.652 169.897 113.673 181.89 114.116 181.812C114.559 181.735 127.307 179.035 127.307 179.035C127.307 179.035 156.008 194.25 161.295 195.761C166.583 197.272 169.439 197.85 169.439 197.85L167.53 178.363Z" fill="white" stroke="#263238" stroke-linecap="round" stroke-linejoin="round"/>
<path d="M96.7109 167.33C96.7109 167.33 107.31 178.94 108.683 181.935C110.055 184.929 113.059 199.016 114.746 201.96C115.693 203.627 118.808 207.487 121.344 210.543C121.805 211.098 122.385 211.565 123.049 211.914C123.714 212.264 124.449 212.489 125.212 212.578C125.975 212.666 126.75 212.614 127.491 212.427C128.232 212.24 128.923 211.92 129.524 211.487L142.056 202.449C142.664 202.01 143.167 201.464 143.534 200.844C143.901 200.224 144.125 199.543 144.191 198.843C144.258 198.143 144.167 197.438 143.922 196.77C143.678 196.103 143.286 195.487 142.77 194.961L137.021 188.756C136.399 188.087 135.688 187.49 134.904 186.978C130.386 184.04 114.272 173.502 111.342 170.458C107.926 166.908 104.614 163.053 104.614 163.053L96.7109 167.33Z" fill="white" stroke="#263238" stroke-linecap="round" stroke-linejoin="round"/>
<path d="M98.2839 168.836L105.528 164.509C105.376 164.158 105.334 163.777 105.407 163.406C105.48 163.036 105.665 162.691 105.941 162.409C106.901 161.531 108.403 159.259 107.301 157.687C106.199 156.115 98.2223 155.743 95.0647 157.832C91.9071 159.92 86.7676 165.086 86.7676 165.086L90.2637 169.058L94.3815 166.964C94.3815 166.964 96.7943 168.63 98.2839 168.836Z" fill="#999999" stroke="#263238" stroke-linecap="round" stroke-linejoin="round"/>
<path d="M87.1696 165.57L85.1445 167.225L87.4958 169.875L89.6686 168.258L87.1696 165.57Z" fill="white" stroke="#263238" stroke-linecap="round" stroke-linejoin="round"/>
<path d="M84.1042 168.642L77.0996 170.486" stroke="#263238" stroke-linecap="round" stroke-linejoin="round"/>
<path d="M81.7464 175.785L80.6016 177.335" stroke="#263238" stroke-linecap="round" stroke-linejoin="round"/>
<path d="M85.5633 170.619L82.8242 174.324" stroke="#263238" stroke-linecap="round" stroke-linejoin="round"/>
<path d="M98.6969 169.486C98.6969 169.486 96.1733 170.397 96.4811 171.997C96.7889 173.597 98.6723 174.435 98.6723 174.435C98.6723 174.435 104.674 174.113 104.827 173.397C104.981 172.68 103.806 171.558 102.685 171.213C101.697 170.94 100.692 170.717 99.6756 170.547L98.6969 169.486Z" fill="white" stroke="#263238" stroke-linecap="round" stroke-linejoin="round"/>
<path d="M98.6736 174.435C98.5957 174.888 98.6245 175.351 98.7582 175.793C98.8918 176.235 99.1272 176.647 99.4491 177.002C100.563 178.307 100.926 178.668 102.748 178.146C104.57 177.624 107.642 176.085 107.605 174.874C107.568 173.663 104.823 173.397 104.823 173.397C104.823 173.397 100.138 174.552 98.6736 174.435Z" fill="white" stroke="#263238" stroke-linecap="round" stroke-linejoin="round"/>
<path d="M101.283 178.546C101.283 178.546 101.431 180.34 102.742 180.662C104.053 180.985 105.918 180.168 106.792 179.69C107.666 179.213 109.907 177.385 109.451 175.98C108.996 174.574 107.131 175.902 107.131 175.902C107.131 175.902 103.899 178.14 101.283 178.546Z" fill="white" stroke="#263238" stroke-linecap="round" stroke-linejoin="round"/>
<path d="M104.299 180.768C104.299 180.768 104.477 182.212 105.401 182.507C106.324 182.801 108.761 181.468 109.598 180.285C110.436 179.102 108.983 178.207 108.983 178.207C108.983 178.207 105.173 180.807 104.299 180.768Z" fill="white" stroke="#263238" stroke-linecap="round" stroke-linejoin="round"/>
<path d="M129.13 172.363C129.13 172.363 114.598 163.692 112.751 162.664C110.905 161.637 108.757 162.848 108.08 163.531C106.296 164.936 104.282 166.083 102.109 166.931C100.262 167.486 98.4836 168.219 99.7701 169.041C101.056 169.864 103.038 170.152 105.236 169.797C107.169 169.402 109.063 168.865 110.899 168.192C110.899 168.192 113.262 174.669 118.383 174.458" fill="white"/>
<path d="M129.13 172.363C129.13 172.363 114.598 163.692 112.751 162.664C110.905 161.637 108.757 162.848 108.08 163.531C106.296 164.936 104.282 166.083 102.109 166.931C100.262 167.486 98.4836 168.219 99.7701 169.041C101.056 169.864 103.038 170.152 105.236 169.797C107.169 169.402 109.063 168.865 110.899 168.192C110.899 168.192 113.262 174.669 118.383 174.458" stroke="#263238" stroke-linecap="round" stroke-linejoin="round"/>
<path d="M158.114 71.1907C158.114 71.1907 156.108 77.8567 157.111 79.5232C158.114 81.1897 159.456 83.0006 159.29 84.8115C159.124 86.6224 155.941 91.9163 156.945 92.8218C157.948 93.7272 161.635 94.6327 161.635 94.6327C161.635 94.6327 167.827 105.665 169.335 105.665C170.843 105.665 175.361 103.398 176.198 103.248C177.035 103.098 178.205 103.093 179.546 105.509C180.888 107.926 182.556 110.509 182.556 111.103C182.556 111.698 177.017 116.242 177.017 116.242C177.017 116.242 164.122 122.907 163.118 125.457C162.115 128.007 158.096 146.605 157.093 149.627C156.089 152.649 152.07 153.71 153.578 155.671C154.464 156.79 155.038 158.086 155.252 159.448C155.252 159.448 150.9 162.781 152.236 164.736C153.572 166.692 156.089 169.875 156.089 169.875C156.089 169.875 154.083 169.269 153.744 171.386C153.406 173.502 151.251 176.024 151.898 176.024C152.544 176.024 158.244 175.469 163.094 177.135C167.944 178.802 166.608 179.252 166.608 179.252L159.961 229.68H238.642L236.297 183.146C236.297 183.146 232.776 133.29 232.444 125.585C232.111 117.88 232.111 117.88 228.431 116.369C224.75 114.858 207.165 110.02 204.992 109.42C203.126 108.934 201.445 107.992 200.135 106.698C199.132 105.643 195.784 98.0879 195.784 98.0879C195.784 98.0879 189.924 75.1236 186.071 67.8688C182.218 60.614 177.706 58.9531 169.994 61.5251C162.281 64.097 159.788 67.7188 158.114 71.1907Z" fill="white" stroke="#263238" stroke-linecap="round" stroke-linejoin="round"/>
<path d="M166.879 229.68H194.454C194.503 217.697 194.885 158.165 197.292 145.677C199.569 133.845 206.457 115.564 208.457 110.381L204.992 109.42C204.616 109.314 204.265 109.192 203.921 109.064C200.578 114.303 186.686 135.517 181.553 135.256C175.693 134.951 179.312 114.297 179.312 114.297C179.312 114.297 172.849 124.068 169.993 133.44C167.137 142.811 168.147 163.959 168.147 163.959V185.412L166.879 229.68Z" fill="white" stroke="#263238" stroke-linecap="round" stroke-linejoin="round"/>
<path d="M165.727 82.9617C166.164 83.8338 166.109 84.7115 165.604 84.917C165.099 85.1225 164.336 84.5837 163.899 83.706C163.462 82.8283 163.511 81.9562 164.016 81.7507C164.521 81.5451 165.29 82.1062 165.727 82.9617Z" fill="#263238"/>
<path d="M160.963 79.0732C160.963 79.0732 161.634 77.2567 164.656 78.0122" stroke="#263238" stroke-width="2" stroke-linecap="round" stroke-linejoin="round"/>
<path d="M165.314 95.3659C166.364 95.4579 167.418 95.2436 168.322 94.7547C169.226 94.2657 169.932 93.5278 170.337 92.6495" stroke="#263238" stroke-linecap="round" stroke-linejoin="round"/>
<path d="M166.653 179.218L159.962 229.68H168.838C168.881 221.997 169.238 167.325 170.173 159.881C171.047 152.915 177.615 122.185 179.314 114.297C178.113 115.336 177.036 116.219 177.036 116.219C177.036 116.219 164.141 122.885 163.138 125.435C162.135 127.985 158.115 146.583 157.112 149.605C156.109 152.627 152.089 153.688 153.597 155.649C154.483 156.768 155.057 158.064 155.272 159.426C155.272 159.426 150.92 162.759 152.256 164.714C153.591 166.67 156.109 169.853 156.109 169.853C156.109 169.853 154.102 169.247 153.764 171.364C153.425 173.48 151.271 176.002 151.917 176.002C152.563 176.002 156.509 177.857 161.347 178.224C166.548 178.607 166.653 179.218 166.653 179.218Z" fill="#92E3A9" stroke="#263238" stroke-linecap="round" stroke-linejoin="round"/>
<path d="M236.296 183.146C236.296 183.146 232.775 133.29 232.443 125.585C232.11 117.88 232.11 117.88 228.43 116.369C224.749 114.858 207.164 110.02 204.991 109.42C204.566 109.298 204.172 109.164 203.76 109.014C200.941 116.536 190.532 144.844 189.227 155.798C187.873 167.214 189.363 219.297 189.677 229.68H238.616L236.296 183.146Z" fill="#92E3A9" stroke="#263238" stroke-linecap="round" stroke-linejoin="round"/>
<path d="M217.374 204.099L198.705 205.221V207.471L223.098 205.899" fill="#92E3A9"/>
<path d="M217.374 204.099L198.705 205.221V207.471L223.098 205.899" stroke="#263238" stroke-linecap="round" stroke-linejoin="round"/>
<path d="M166.916 134.862C167.347 132.89 167.642 131.629 167.642 131.629" stroke="#263238" stroke-linecap="round" stroke-linejoin="round"/>
<path d="M166.652 179.218C166.652 179.218 166.824 170.33 166.486 168.492C166.147 166.653 162.971 161.998 163.137 156.271C163.248 152.521 165.144 143.166 166.442 137.128" stroke="#263238" stroke-linecap="round" stroke-linejoin="round"/>
<path d="M161.374 169.47C160.359 169.47 159.602 169.397 159.602 169.397" stroke="#263238" stroke-linecap="round" stroke-linejoin="round"/>
<path d="M163.135 162.753C163.135 162.753 155.601 163.509 156.943 164.264C158.285 165.02 167.659 167.131 166.484 168.492C165.89 168.982 165.127 169.272 164.323 169.314" stroke="#263238" stroke-linecap="round" stroke-linejoin="round"/>
<path d="M218.55 186.773C218.55 186.773 215.706 195.233 213.527 202.488C211.349 209.743 203.845 226.658 203.845 226.658L202.51 229.68H216.574C216.574 229.68 225.61 214.126 229.297 208.982C232.984 203.838 236.492 196.761 238.167 193.272L239.841 189.795L240.512 187.984L219.233 185.412L218.55 186.773Z" fill="white" stroke="#263238" stroke-linecap="round" stroke-linejoin="round"/>
<path d="M212.525 137.523C212.525 137.523 215.874 159.881 216.218 161.998C216.563 164.114 213.541 167.131 214.212 168.797C214.883 170.464 221.598 175.463 221.407 175.896C221.216 176.33 217.56 177.563 218.059 179.368C218.557 181.174 219.567 183.751 219.567 183.751L218.564 186.773C218.564 186.773 221.746 188.439 228.27 189.339C234.795 190.239 240.993 189.945 241.331 189.189C241.67 188.434 240.661 181.035 240.661 179.824C240.661 178.613 240.661 177.102 242.002 175.746C243.344 174.391 244.009 172.574 242.84 170.002C242.106 168.352 241.6 166.626 241.331 164.864C241.331 164.864 245.351 159.865 244.341 157.159C243.332 154.454 238.986 150.816 238.986 149.91C238.986 149.005 237.478 126.024 236.143 121.352C234.807 116.68 219.899 114.403 219.899 114.403" fill="#92E3A9"/>
<path d="M212.525 137.523C212.525 137.523 215.874 159.881 216.218 161.998C216.563 164.114 213.541 167.131 214.212 168.797C214.883 170.464 221.598 175.463 221.407 175.896C221.216 176.33 217.56 177.563 218.059 179.368C218.557 181.174 219.567 183.751 219.567 183.751L218.564 186.773C218.564 186.773 221.746 188.439 228.27 189.339C234.795 190.239 240.993 189.945 241.331 189.189C241.67 188.434 240.661 181.035 240.661 179.824C240.661 178.613 240.661 177.102 242.002 175.746C243.344 174.391 244.009 172.574 242.84 170.002C242.106 168.352 241.6 166.626 241.331 164.864C241.331 164.864 245.351 159.865 244.341 157.159C243.332 154.454 238.986 150.816 238.986 149.91C238.986 149.005 237.478 126.024 236.143 121.352C234.807 116.68 219.899 114.403 219.899 114.403" stroke="#263238" stroke-linecap="round" stroke-linejoin="round"/>
<path d="M241.651 159.881C241.651 159.881 220.557 165.925 225.389 166.075C230.221 166.225 239.786 162.448 239.786 162.448" stroke="#263238" stroke-linecap="round" stroke-linejoin="round"/>
<path d="M222.736 171.663C222.736 171.663 239.811 174.685 237.632 175.291C235.453 175.896 226.251 174.385 225.746 174.385" stroke="#263238" stroke-linecap="round" stroke-linejoin="round"/>
<path d="M220.723 184.207C220.723 184.207 241.484 185.873 240.481 186.623C239.477 187.373 234.116 186.323 234.116 186.323" stroke="#263238" stroke-linecap="round" stroke-linejoin="round"/>
<path d="M180.926 183.584C181.643 184.808 182.438 185.994 183.308 187.134" stroke="#263238" stroke-linecap="round" stroke-linejoin="round"/>
<path d="M172.518 167.175C172.518 167.175 176.112 175.085 179.627 181.346" stroke="#263238" stroke-linecap="round" stroke-linejoin="round"/>
<path d="M176.025 178.857C176.025 178.857 180.876 191.284 183.578 195.172" stroke="#263238" stroke-linecap="round" stroke-linejoin="round"/>
<path d="M160.796 52.4593C160.796 52.4593 155.601 57.1422 153.595 63.186C151.588 69.2298 152.425 72.8572 152.425 72.8572L161.658 73.0072L163.301 67.4077L164.138 72.8461L168.158 73.296L170.004 69.963C170.004 69.963 170.675 71.774 172.349 77.0623C174.024 82.3506 176.701 85.978 177.372 93.9827C177.727 99.0679 177.162 104.171 175.698 109.092C175.698 109.092 180.554 109.398 195.622 107.426C210.69 105.454 216.882 102.287 218.888 101.987C220.558 101.823 222.242 101.823 223.911 101.987C221.257 97.4274 219.18 92.6124 217.719 87.6334C215.712 80.2286 213.866 68.5965 213.029 63.6137C212.192 58.6309 208.178 52.2816 198.466 47.2932C188.753 42.3048 174.19 44.1213 169.167 46.6877C166.106 48.2691 163.291 50.2099 160.796 52.4593Z" fill="#263238" stroke="#263238" stroke-linecap="round" stroke-linejoin="round"/>
<path d="M179.518 79.1287C179.696 79.9342 179.856 80.723 179.985 81.4785" stroke="#999999" stroke-linecap="round" stroke-linejoin="round"/>
<path d="M174.555 63.0526C174.555 63.0526 177.454 70.6351 179.159 77.5955" stroke="#999999" stroke-linecap="round" stroke-linejoin="round"/>
<path d="M177.158 57.9643C177.811 57.7699 184.544 70.1186 185.412 77.7678" stroke="#999999" stroke-linecap="round" stroke-linejoin="round"/>
<path d="M190.854 67.3522C191.174 68.1965 191.469 69.0575 191.715 69.913" stroke="#999999" stroke-linecap="round" stroke-linejoin="round"/>
<path d="M184.766 56.1922C186.946 59.2821 188.801 62.5498 190.305 65.9523" stroke="#999999" stroke-linecap="round" stroke-linejoin="round"/>
<path d="M191.713 56.7811C191.713 56.7811 197.142 65.7968 197.573 70.8962" stroke="#999999" stroke-linecap="round" stroke-linejoin="round"/>
<path d="M199.963 67.5078C200.066 67.9795 200.14 68.4562 200.184 68.9354" stroke="#999999" stroke-linecap="round" stroke-linejoin="round"/>
<path d="M194.32 54.8201C194.32 54.8201 198.149 61.175 199.632 66.23" stroke="#999999" stroke-linecap="round" stroke-linejoin="round"/>
<path d="M201.385 60.1863C202.869 62.5865 203.804 65.231 204.136 67.9632" stroke="#999999" stroke-linecap="round" stroke-linejoin="round"/>
<path d="M196.461 53.8369C197.971 55.3875 199.319 57.0611 200.486 58.8364" stroke="#999999" stroke-linecap="round" stroke-linejoin="round"/>
<path d="M209.195 68.0854C209.435 69.1964 209.626 70.3574 209.743 71.485" stroke="#999999" stroke-linecap="round" stroke-linejoin="round"/>
<path d="M205.828 57.7588C207.025 60.5235 208.008 63.3596 208.77 66.2468" stroke="#999999" stroke-linecap="round" stroke-linejoin="round"/>
<path d="M160.434 54.8201C160.434 54.8201 157.172 58.9364 155.873 63.0526" stroke="#999999" stroke-linecap="round" stroke-linejoin="round"/>
<path d="M159.843 62.2027C159.478 62.8567 159.167 63.5344 158.914 64.2303" stroke="#999999" stroke-linecap="round" stroke-linejoin="round"/>
<path d="M164.558 55.0146C164.558 55.0146 162.447 57.8254 160.754 60.614" stroke="#999999" stroke-linecap="round" stroke-linejoin="round"/>
<path d="M167.6 57.1699C167.6 57.1699 164.948 62.6082 164.129 65.0135" stroke="#999999" stroke-linecap="round" stroke-linejoin="round"/>
<path d="M168.822 63.9025C168.619 64.458 168.422 65.0413 168.25 65.6023" stroke="#999999" stroke-linecap="round" stroke-linejoin="round"/>
<path d="M171.292 57.9644C171.292 57.9644 170.344 59.9641 169.402 62.3639" stroke="#999999" stroke-linecap="round" stroke-linejoin="round"/>
<path d="M282.313 229.68H5.26953" stroke="#263238" stroke-linecap="round" stroke-linejoin="round"/>
</svg>
