<svg width="369" height="213" viewBox="0 0 369 213" fill="none" xmlns="http://www.w3.org/2000/svg">
<path d="M368.152 115.962L364.838 109.307L359.657 110.187L355.389 103.982L357.592 97.8252L351.814 93.3987L347.497 98.4162L341.815 97.2711L339.515 89.5571L332.605 90.4005L332.216 97.1418L327.067 100.122L321.619 95.6704L316.091 100.319L318.962 107.454L315.675 113.173L309.704 112.804L308.141 121.306L313.823 123.83L314.314 130.972L308.445 134.881L311.262 142.269L317.361 141.173L321.4 146.553L319.266 153.264L324.852 157.814L329.212 152.371L335.262 154.261L337.146 161.464L343.869 160.941L344.733 154.471L350.501 150.654L355.218 154.994L361.183 149.866L358.158 143.832L361.098 137.756L367.149 138.267L369 130.356L363.809 127.118L363.12 119.908L368.152 115.962ZM344.728 139.24C342.397 140.783 339.721 141.495 337.04 141.284C334.358 141.074 331.791 139.95 329.662 138.056C327.534 136.162 325.94 133.582 325.083 130.643C324.225 127.704 324.142 124.537 324.844 121.544C325.546 118.55 327.002 115.864 329.028 113.825C331.053 111.786 333.557 110.486 336.222 110.089C338.888 109.692 341.596 110.215 344.004 111.594C346.411 112.973 348.411 115.144 349.749 117.834C351.542 121.441 352.02 125.722 351.079 129.736C350.137 133.75 347.853 137.168 344.728 139.24Z" fill="#F5F5F5"/>
<path d="M53.2621 194.512C63.4854 184.317 64.5099 167.541 62.7491 152.771C62.4556 150.309 62.4556 147.674 61.2444 145.624C60.0332 143.574 57.5094 142.379 55.6899 143.648C54.1745 144.7 53.673 146.923 52.942 148.794C51.9653 151.298 50.3949 153.433 48.4119 154.951C47.1153 155.93 45.4719 156.632 44.0473 155.936C42.0944 154.975 41.6142 152.057 41.3794 149.595L40.2536 135.829C40.0455 133.366 39.8267 130.861 38.957 128.601C38.0872 126.342 36.4225 124.353 34.3362 123.941C32.2499 123.528 29.8648 125.172 29.6514 127.635C29.5607 128.663 29.8328 129.679 29.8648 130.713C29.8969 131.747 29.5874 132.923 28.7977 133.305C28.008 133.686 27.0582 133.102 26.3539 132.455C23.9315 130.233 22.1547 127.21 20.4846 124.193C18.8145 121.177 17.1604 118.086 14.9194 115.611C12.6784 113.136 9.72771 111.302 6.65432 111.486C3.58093 111.671 0.52354 114.214 0.0646655 117.766C-0.394209 121.318 1.66539 124.63 3.82637 127.21C7.02873 131.04 10.6951 134.314 14.7113 136.931C15.4316 137.399 16.2107 137.91 16.5521 138.778C17.1604 140.36 15.9599 142.152 14.6046 142.86C13.0679 143.654 11.3284 143.672 9.68503 144.091C8.04162 144.51 6.31817 145.575 5.85396 147.458C5.20299 150.081 7.2626 152.494 9.21015 154.009C13.1187 157.041 17.4506 159.273 22.016 160.609C23.6167 161.083 25.3455 161.471 26.7221 162.591C28.0987 163.711 29.0591 165.829 28.4509 167.652C27.8426 169.474 25.9324 170.268 24.257 170.114C22.5815 169.96 21.0235 169.105 19.3961 168.612C16.3494 167.682 12.5877 168.366 10.9709 171.512C9.90379 173.58 10.0425 176.264 10.8696 178.481C11.6966 180.697 13.1373 182.519 14.6473 184.176C19.9083 189.975 26.3859 194.377 33.4185 196.285C40.451 198.194 46.8219 198.181 53.3208 194.531" fill="#F5F5F5"/>
<path d="M54.4088 205.477C53.2012 198.676 51.4287 192.025 49.1158 185.616C46.2621 177.799 43.0215 170.177 39.41 162.788C38.4603 160.818 37.523 158.875 36.5981 156.958C35.675 155.043 34.7573 153.147 33.7595 151.356C31.838 147.924 29.7539 144.617 27.5167 141.45C25.3824 138.409 23.2907 135.607 21.3058 133.009C19.3209 130.411 17.4161 128.035 15.6126 125.979C12.7722 122.669 9.71076 119.623 6.45644 116.867C5.30391 115.901 4.3915 115.18 3.78856 114.7C3.48976 114.472 3.25498 114.294 3.07357 114.164C2.99629 114.099 2.91416 114.041 2.82812 113.992C2.89512 114.072 2.97039 114.142 3.05223 114.201L3.74587 114.774C4.35415 115.279 5.25056 116.005 6.41375 117.015C9.63124 119.808 12.6633 122.874 15.4845 126.188C17.272 128.275 19.1555 130.664 21.1298 133.262C23.104 135.86 25.1956 138.673 27.3032 141.715C29.5242 144.878 31.594 148.178 33.5034 151.602C34.4905 153.381 35.4029 155.265 36.3313 157.18C37.2597 159.094 38.1882 161.046 39.1379 163.01C42.7412 170.387 45.9834 177.992 48.849 185.789C51.1617 192.168 52.9481 198.785 54.1847 205.551" fill="#E0E0E0"/>
<path d="M33.6432 151.356C33.7171 151.003 33.7565 150.641 33.7608 150.278C33.8142 149.589 33.8569 148.579 33.8997 147.335C33.9798 144.873 33.9905 141.419 33.9958 137.627C34.0012 133.834 34.0493 130.411 34.1668 127.936C34.2202 126.705 34.2737 125.695 34.3164 125C34.3527 124.642 34.3527 124.28 34.3164 123.922C34.2252 124.267 34.1661 124.622 34.1401 124.981C34.0493 125.671 33.9531 126.674 33.8676 127.912C33.6753 130.374 33.5791 133.834 33.5791 137.627C33.5791 141.419 33.5791 144.744 33.5791 147.329C33.5791 148.499 33.5791 149.484 33.5791 150.272C33.5678 150.635 33.5893 150.998 33.6432 151.356Z" fill="#E0E0E0"/>
<path d="M5.70508 148.702C6.07396 148.748 6.44603 148.748 6.81491 148.702C7.52457 148.702 8.54903 148.665 9.81894 148.702C12.3588 148.702 15.8644 148.881 19.7274 149.25C23.5905 149.619 27.0694 150.149 29.5772 150.604C30.8365 150.826 31.8503 151.029 32.5492 151.171C32.8998 151.266 33.2569 151.326 33.6164 151.349C33.2723 151.19 32.9146 151.072 32.5492 150.998C31.8556 150.801 30.8471 150.543 29.5932 150.284C27.0854 149.743 23.6012 149.176 19.7274 148.794C16.4223 148.46 13.1044 148.32 9.78693 148.376C8.51168 148.376 7.48188 148.474 6.77223 148.542C6.41329 148.561 6.05636 148.615 5.70508 148.702Z" fill="#E0E0E0"/>
<path d="M48.7266 185.08C48.7921 184.953 48.8441 184.816 48.8813 184.674C48.9773 184.348 49.1001 183.954 49.2441 183.474C49.5589 182.427 49.9805 180.906 50.4767 179.016C51.4798 175.236 52.7124 169.96 54.009 164.124C55.3055 158.288 56.5008 153.005 57.4292 149.207C57.8881 147.36 58.2616 145.839 58.539 144.713C58.6617 144.22 58.7578 143.814 58.8378 143.481C58.8836 143.341 58.9088 143.194 58.9125 143.044C58.85 143.175 58.7999 143.313 58.7631 143.457C58.6617 143.783 58.539 144.177 58.3949 144.657C58.0801 145.698 57.6586 147.224 57.1624 149.115C56.1646 152.895 54.9267 158.164 53.6301 164.007C52.3335 169.849 51.1383 175.126 50.2099 178.924C49.7564 180.771 49.3775 182.292 49.1001 183.418L48.8066 184.65C48.7654 184.789 48.7386 184.934 48.7266 185.08Z" fill="#E0E0E0"/>
<path d="M11.0938 175.846C11.2116 175.911 11.3377 175.955 11.4673 175.975L12.5664 176.258L16.5949 177.256C19.9991 178.093 24.6892 179.318 29.8649 180.679C35.0406 182.039 39.7521 183.209 43.1723 183.966C44.8797 184.348 46.267 184.643 47.2275 184.822L48.3373 185.019C48.4651 185.052 48.5961 185.064 48.7268 185.056C48.6057 184.995 48.4784 184.951 48.348 184.927L47.2808 184.643L43.2043 183.671C39.8001 182.827 35.11 181.608 29.929 180.248C24.7479 178.887 20.0685 177.693 16.6483 176.954C14.9408 176.572 13.5535 176.283 12.5931 176.104L11.4833 175.901C11.3556 175.866 11.225 175.848 11.0938 175.846Z" fill="#E0E0E0"/>
<path d="M295.538 92.3028C296.082 91.8698 296.599 91.3925 297.085 90.8745C297.639 90.2514 298.109 89.5353 298.478 88.7506C299.383 86.8837 299.696 84.7109 299.363 82.6062C299.03 80.5016 298.072 78.5967 296.653 77.2195C296.071 76.643 295.416 76.1736 294.711 75.8282C293.981 75.4527 293.205 75.2137 292.411 75.1202C290.732 74.8975 289.036 75.3011 287.571 76.2716C286.106 77.2421 284.948 78.7286 284.269 80.5132C283.632 82.173 283.433 84.0124 283.698 85.8016C283.942 87.419 284.555 88.9321 285.474 90.185C286.208 91.1788 287.115 91.9826 288.137 92.5439C289.159 93.1051 290.271 93.4111 291.402 93.4418C292.177 93.4709 292.95 93.365 293.697 93.1278C294.332 92.9092 294.951 92.6333 295.548 92.3028C295.548 92.3028 295.516 92.3398 295.442 92.389L295.1 92.6045C294.92 92.7273 294.731 92.8303 294.535 92.9123C294.274 93.0469 294.004 93.158 293.729 93.2448C292.975 93.509 292.19 93.6358 291.402 93.6203C290.242 93.6104 289.097 93.3141 288.044 92.7513C286.991 92.1886 286.055 91.3723 285.298 90.3574C284.343 89.0731 283.704 87.517 283.447 85.8509C283.303 84.9533 283.28 84.0355 283.377 83.1297C283.46 82.1824 283.677 81.2571 284.018 80.3901C284.718 78.5406 285.915 76.9999 287.432 75.9955C288.949 74.9912 290.706 74.5763 292.443 74.8124C294.056 75.0238 295.579 75.7822 296.818 76.9917C297.937 78.0881 298.781 79.5103 299.262 81.1104C299.636 82.3767 299.773 83.7203 299.664 85.0523C299.554 86.3842 299.201 87.6742 298.627 88.8368C298.242 89.6289 297.75 90.3457 297.17 90.9607C296.967 91.1865 296.747 91.3924 296.514 91.5764C296.349 91.7328 296.17 91.869 295.98 91.9827L295.65 92.2105C295.586 92.2844 295.543 92.309 295.538 92.3028Z" fill="#E0E0E0"/>
<path d="M309.458 78.4631L309.276 78.6171L308.743 79.0665L306.518 80.8395V80.7903C306.635 81.9538 306.779 83.3945 306.945 85.0998L306.913 85.0444L310.007 86.9652H310.055V87.0268C309.73 88.4427 309.362 90.0311 308.988 91.7303V91.8103H308.924L305.328 91.5148L305.413 91.4594L303.589 95.0732V94.9624C304.149 96.0767 304.757 97.3019 305.387 98.5639L305.435 98.6563L305.36 98.7179L301.817 101.796L301.753 101.851L301.684 101.79L298.877 99.2104H299.005L295.58 101.488L295.638 101.39C295.483 102.578 295.307 103.895 295.105 105.238V105.348H295.051L291.055 105.668H290.953L290.921 105.558L289.801 101.248L289.892 101.353L286.295 100.232L286.429 100.189L283.836 103.421L283.756 103.526L283.659 103.446L280.335 100.743L280.25 100.669L280.287 100.559C280.682 99.3274 281.109 97.9421 281.541 96.5693L281.568 96.7293L279.167 93.528L279.289 93.5834L275.666 94.236H275.56L275.517 94.119C274.984 92.7338 274.413 91.2378 273.842 89.7418L273.788 89.6063L273.9 89.5324L273.975 89.4832C275.122 88.7259 276.269 87.9687 277.401 87.2115L277.331 87.3654C277.235 85.9371 277.139 84.5211 277.043 83.1174L277.134 83.2529L273.708 81.7999L273.602 81.7507V81.6214C273.918 79.9181 274.228 78.2333 274.53 76.567V76.4377H274.647L278.196 76.6531L278.078 76.727L280.036 73.3287V73.4764C279.455 72.0358 278.889 70.626 278.329 69.2285L278.286 69.1176L278.372 69.0499L281.659 66.2918L281.733 66.2303L281.808 66.2857L285.041 68.9391H284.919L287.976 67.1476L287.912 67.2646C287.992 65.8855 288.072 64.5557 288.147 63.2505V63.1397H288.243L292.346 62.6472H292.437V62.7457L293.803 67.3323L293.723 67.2522L297.1 67.9418H297.01L299.581 64.9682L299.635 64.9066L299.699 64.9497L303.13 67.5908L303.183 67.6339V67.7078C302.687 69.0869 302.26 70.2689 301.865 71.4017V71.3155L304.4 75.0094H304.346L307.43 74.5045H307.457V74.5353L308.924 77.5458L309.276 78.2784C309.356 78.4385 309.388 78.5124 309.388 78.5124C309.388 78.5124 309.34 78.4323 309.255 78.2723C309.17 78.1122 309.047 77.8598 308.882 77.5458L307.382 74.5846H307.425L304.346 75.1202H304.314V75.0894L301.758 71.3955V71.3586V71.3093C302.153 70.2073 302.569 69.0191 303.06 67.6155L303.092 67.7263L299.651 65.1098H299.763C298.962 66.0517 298.125 67.0306 297.202 68.1018L297.17 68.1449H297.116L293.781 67.4923H293.723V67.4246C293.28 65.9594 292.826 64.4387 292.346 62.8381L292.463 62.9243L288.355 63.4291L288.462 63.306C288.387 64.6111 288.312 65.9409 288.232 67.32V67.3938L288.174 67.4308L285.116 69.2285L285.047 69.2654L284.988 69.2161L281.712 66.5319H281.861L278.58 69.2962L278.623 69.1115L280.33 73.3533L280.362 73.4333L280.319 73.501L278.366 76.9055L278.324 76.9794H278.249L274.695 76.764L274.834 76.6408C274.528 78.3031 274.221 79.9879 273.911 81.6953L273.826 81.5106L277.203 83.0128L277.283 83.0497V83.1482C277.379 84.5519 277.475 85.9678 277.571 87.3961V87.4947L277.491 87.5501L274.066 89.8156L273.991 89.871L274.05 89.6679L275.72 94.0451L275.576 93.9528L279.199 93.3063H279.273L279.327 93.3679C280.154 94.4699 280.97 95.5658 281.728 96.5693L281.781 96.6431V96.7293C281.344 98.1022 280.917 99.4628 280.522 100.713L280.474 100.534L283.793 103.243H283.617L286.21 100.011L286.263 99.943H286.343L289.94 101.07H290.009V101.15C290.393 102.64 290.777 104.105 291.124 105.459L290.996 105.355L294.993 105.047L294.881 105.17C295.062 103.828 295.238 102.51 295.414 101.322V101.254L295.462 101.224L298.893 98.958L298.957 98.9149L299.021 98.9703L301.822 101.556H301.689L305.237 98.5147V98.6686C304.608 97.4373 303.999 96.206 303.45 95.0609L303.423 95.0055L303.45 94.9501L305.2 91.3424L305.232 91.287H305.285L308.882 91.601L308.796 91.6687C309.196 89.9695 309.575 88.3873 309.911 86.9713L309.943 87.0637L306.865 85.1244V85.0875L306.47 80.778V80.7472L308.706 79.0357L309.282 78.5986L309.458 78.4631Z" fill="#E0E0E0"/>
<path d="M353.425 207.041C353.425 207.133 277.417 207.201 183.678 207.201C89.9398 207.201 13.916 207.133 13.916 207.041C13.916 206.948 89.9078 206.881 183.678 206.881C277.449 206.881 353.425 206.955 353.425 207.041Z" fill="#263238"/>
<path d="M339.076 122.217L309.73 206.911H227.287L253.486 121.054C253.578 120.75 253.75 120.487 253.977 120.301C254.205 120.114 254.477 120.014 254.756 120.013L337.823 120.075C338.044 120.074 338.262 120.137 338.458 120.256C338.653 120.376 338.82 120.549 338.944 120.761C339.068 120.972 339.145 121.216 339.168 121.47C339.191 121.724 339.16 121.981 339.076 122.217Z" fill="#263238"/>
<path d="M334.536 124.661L307.595 200.539C307.537 200.703 307.438 200.842 307.31 200.939C307.183 201.037 307.033 201.089 306.88 201.087H231.812C231.69 201.09 231.569 201.059 231.46 200.997C231.351 200.934 231.257 200.842 231.186 200.728C231.114 200.615 231.068 200.482 231.051 200.343C231.033 200.204 231.045 200.062 231.086 199.93L254.974 124.052C255.028 123.881 255.126 123.734 255.255 123.631C255.384 123.527 255.537 123.472 255.695 123.473H333.842C333.964 123.474 334.085 123.51 334.192 123.576C334.3 123.643 334.392 123.739 334.46 123.856C334.529 123.973 334.571 124.108 334.584 124.248C334.597 124.388 334.581 124.53 334.536 124.661Z" fill="#455A64"/>
<path d="M309.714 207.047H308.983H197.717V201.088H306.673L309.714 207.047Z" fill="#263238"/>
<path d="M224.679 125.505C224.679 125.505 222.422 156.459 217.561 157.968C204.328 162.068 189.191 159.033 183.876 157.826C183.279 157.21 182.59 156.521 181.811 155.634C181.151 154.863 180.61 153.968 180.21 152.987C179.658 151.787 179.25 150.505 178.999 149.176C178.871 147.945 177.532 147.514 177.057 148.505C176.582 149.496 176.385 153.283 178.167 156.73C178.245 156.947 178.281 157.181 178.274 157.416C178.266 157.651 178.214 157.881 178.122 158.091C178.029 158.3 177.899 158.484 177.739 158.63C177.579 158.775 177.394 158.879 177.196 158.934C174.949 159.895 167.031 162.733 165.751 163.428C164.614 164.044 163.515 165.165 164.71 165.392C165.905 165.62 172.447 164.53 172.447 164.53C172.447 164.53 163.851 165.762 164.064 167.19C164.209 168.181 166.524 168.655 172.137 167.19C172.137 167.19 165.062 168.255 164.326 169.111C162.656 171.044 171.177 169.856 171.177 169.856C165.212 170.749 165.276 170.391 165.212 171.333C165.164 172.041 166.514 172.325 169.79 172.368C172.458 172.405 175.189 173.057 179.234 173.371C179.234 173.371 230.377 190.061 237.394 164.093C241.187 150.094 241.209 144.768 242.521 135.595" fill="#FFBE9D"/>
<path d="M174.757 169.419C174.757 169.591 172.959 169.954 170.691 170.225C168.424 170.496 166.578 170.582 166.572 170.404C166.567 170.225 168.381 169.868 170.638 169.597C172.895 169.326 174.736 169.246 174.757 169.419Z" fill="#A36957"/>
<path d="M174.704 166.741C174.704 166.913 172.805 167.424 170.436 167.88C168.067 168.335 166.082 168.569 166.055 168.403C166.028 168.237 167.949 167.719 170.324 167.258C172.698 166.796 174.678 166.568 174.704 166.741Z" fill="#A36957"/>
<path d="M174.629 163.958C174.656 164.13 172.847 164.647 170.59 165.115C168.333 165.583 166.476 165.823 166.45 165.657C166.423 165.491 168.232 164.961 170.489 164.493C172.746 164.026 174.603 163.785 174.629 163.958Z" fill="#A36957"/>
<path d="M291.05 178.339L294.374 200.681H242.516L244.501 183.32L291.05 178.339Z" fill="#263238"/>
<path d="M229.955 101.605C229.955 101.605 222.416 127.727 222.901 128.768L239.49 133.206L229.955 101.605Z" fill="#FF725E"/>
<path opacity="0.2" d="M229.955 101.605C229.955 101.605 222.416 127.727 222.901 128.768L239.49 133.206L229.955 101.605Z" fill="black"/>
<path d="M244.144 150.672L242.544 188.06L292.641 181.516L284.803 145.378C284.803 145.378 279.414 103.477 269.591 98.835C266.186 97.31 262.706 96.0169 259.17 94.9626C252.912 92.913 246.359 92.3517 239.908 93.3127L238.899 93.4666C236.898 93.7208 234.998 94.6185 233.417 96.0574C231.836 97.4963 230.637 99.4186 229.957 101.605C229.957 101.605 229.781 114.472 233.206 122.993L244.144 150.672Z" fill="#FF725E"/>
<path d="M256.005 199.973C255.93 199.973 255.818 196.938 255.759 193.201C255.7 189.464 255.711 186.429 255.759 186.429C255.807 186.429 255.951 189.47 256.01 193.201C256.069 196.932 256.101 199.973 256.005 199.973Z" fill="#455A64"/>
<path d="M258.769 188.103C258.769 188.103 258.822 188.005 258.987 187.937C259.137 187.889 259.294 187.882 259.446 187.916C259.598 187.951 259.741 188.027 259.863 188.137C259.985 188.247 260.083 188.389 260.149 188.551C260.215 188.713 260.246 188.891 260.241 189.07C260.235 189.341 260.158 189.604 260.02 189.824C259.882 190.044 259.689 190.21 259.468 190.301C259.246 190.375 259.011 190.375 258.788 190.304C258.566 190.232 258.365 190.09 258.208 189.895C258.084 189.739 257.992 189.553 257.94 189.35C257.887 189.148 257.875 188.934 257.904 188.725C258.016 188.011 258.395 187.771 258.401 187.808C258.246 188.095 258.144 188.416 258.102 188.75C258.088 188.938 258.114 189.127 258.178 189.301C258.241 189.475 258.339 189.628 258.465 189.749C258.591 189.87 258.739 189.954 258.899 189.994C259.059 190.035 259.224 190.03 259.382 189.981C259.548 189.91 259.694 189.786 259.801 189.624C259.909 189.462 259.974 189.267 259.991 189.064C260 188.896 259.968 188.729 259.9 188.581C259.831 188.433 259.727 188.31 259.601 188.227C259.348 188.064 259.05 188.02 258.769 188.103Z" fill="#455A64"/>
<path d="M291.878 191.76C291.817 191.829 291.749 191.889 291.676 191.939C291.482 192.106 291.281 192.26 291.073 192.401C290.308 192.932 289.496 193.368 288.65 193.7C285.846 194.832 282.798 194.875 279.97 193.823C277.143 192.77 274.692 190.679 272.99 187.87C272.474 187.033 272.038 186.135 271.688 185.191C271.555 184.859 271.485 184.576 271.426 184.41C271.368 184.243 271.352 184.133 271.362 184.126C271.373 184.12 271.517 184.49 271.784 185.136C272.742 187.409 274.136 189.401 275.861 190.96C278.382 193.266 281.541 194.442 284.755 194.272C286.059 194.214 287.35 193.949 288.592 193.484C289.43 193.175 290.241 192.775 291.014 192.29C291.292 192.093 291.581 191.916 291.878 191.76Z" fill="#455A64"/>
<path d="M251.427 118.222C251.245 118.465 251.045 118.69 250.829 118.893C250.267 119.48 249.67 120.021 249.042 120.512C248.106 121.271 247.027 121.763 245.894 121.946C244.494 122.039 243.098 121.715 241.838 121.004C240.488 120.321 239.277 119.527 238.103 119.034C237.076 118.552 235.962 118.37 234.859 118.505C234.117 118.6 233.409 118.917 232.805 119.422C232.389 119.791 232.213 120.075 232.191 120.038C232.22 119.961 232.26 119.89 232.309 119.828C232.436 119.639 232.581 119.465 232.741 119.311C233.341 118.748 234.065 118.388 234.833 118.271C235.968 118.099 237.123 118.262 238.189 118.745C239.4 119.231 240.622 120.025 241.951 120.696C243.167 121.389 244.517 121.713 245.872 121.638C246.971 121.477 248.021 121.022 248.94 120.309C249.572 119.838 250.181 119.328 250.765 118.782C250.973 118.576 251.194 118.388 251.427 118.222Z" fill="#FAFAFA"/>
<path d="M238.285 103.6C238.02 103.992 237.694 104.324 237.324 104.579C235.585 105.942 233.458 106.477 231.385 106.075C230.956 106.022 230.54 105.876 230.158 105.644C230.158 105.595 230.644 105.749 231.412 105.853C233.434 106.117 235.475 105.602 237.217 104.388C237.884 103.926 238.253 103.557 238.285 103.6Z" fill="#FAFAFA"/>
<path d="M283.581 138.821C283.473 138.944 283.357 139.057 283.234 139.16C282.877 139.455 282.492 139.703 282.087 139.898C280.562 140.534 278.921 140.706 277.322 140.397C276.226 140.208 275.139 139.949 274.067 139.621C272.842 139.239 271.593 138.961 270.332 138.79C268.949 138.654 267.555 138.77 266.202 139.135C264.742 139.54 263.314 140.087 261.934 140.773C259.09 142.133 256.401 143.617 253.743 144.251C251.394 144.818 248.963 144.746 246.642 144.042C245.087 143.593 243.559 143.028 242.069 142.349L240.852 141.789C240.711 141.729 240.573 141.657 240.441 141.573C240.589 141.611 240.733 141.662 240.874 141.727L242.106 142.232C243.604 142.864 245.133 143.394 246.684 143.82C248.98 144.482 251.376 144.531 253.69 143.962C256.305 143.346 258.972 141.844 261.827 140.471C263.217 139.781 264.656 139.231 266.128 138.827C267.509 138.46 268.931 138.348 270.343 138.495C271.605 138.677 272.853 138.967 274.078 139.363C275.132 139.697 276.201 139.968 277.279 140.176C278.85 140.499 280.466 140.364 281.98 139.782C282.545 139.536 283.082 139.213 283.581 138.821Z" fill="#FAFAFA"/>
<path d="M243.877 161.686C243.877 161.686 243.877 161.643 243.946 161.569L244.176 161.231C244.492 160.824 244.85 160.464 245.243 160.159C245.867 159.674 246.553 159.304 247.276 159.063C248.235 158.748 249.23 158.607 250.226 158.645C252.457 158.682 254.97 159.747 257.606 161.107C258.978 161.836 260.383 162.477 261.816 163.028C263.342 163.63 264.954 163.891 266.565 163.798C268.166 163.599 269.713 163.007 271.1 162.062C272.482 161.2 273.741 160.215 275.016 159.408C276.214 158.6 277.514 158.014 278.869 157.672C280.326 157.374 281.822 157.454 283.249 157.907C284.676 158.359 285.998 159.173 287.118 160.289C287.606 160.763 288.038 161.31 288.404 161.914C288.369 161.885 288.338 161.85 288.313 161.809C288.244 161.729 288.164 161.625 288.068 161.501C287.939 161.326 287.8 161.162 287.651 161.009C287.462 160.789 287.261 160.584 287.049 160.393C285.716 159.133 284.128 158.286 282.433 157.931C281.269 157.688 280.076 157.688 278.912 157.931C277.585 158.275 276.313 158.859 275.144 159.661C273.88 160.467 272.626 161.458 271.233 162.333C269.813 163.304 268.228 163.911 266.586 164.112C264.941 164.205 263.295 163.938 261.736 163.324C260.296 162.762 258.883 162.111 257.504 161.372C254.879 160.005 252.403 158.94 250.216 158.866C249.239 158.821 248.263 158.945 247.319 159.236C246.606 159.457 245.928 159.804 245.307 160.264C244.779 160.665 244.299 161.143 243.877 161.686Z" fill="#FAFAFA"/>
<path d="M289.124 181.436C288.873 180.736 288.556 180.069 288.179 179.448C287.082 177.803 285.562 176.601 283.836 176.012C282.662 175.577 281.429 175.388 280.197 175.452C278.781 175.529 277.38 175.821 276.03 176.32C274.533 176.87 273.071 177.541 271.655 178.327C270.171 179.121 268.656 180.014 267.055 180.82C265.514 181.633 263.905 182.262 262.253 182.698C260.694 183.055 259.101 183.175 257.515 183.055C254.835 182.799 252.201 182.091 249.698 180.956C247.564 180.026 245.888 179.109 244.73 178.493L243.413 177.755L243.071 177.551L242.959 177.471C243.004 177.479 243.047 177.496 243.087 177.521L243.434 177.693L244.778 178.382C245.942 178.998 247.628 179.842 249.767 180.747C252.256 181.839 254.866 182.517 257.52 182.76C259.082 182.872 260.65 182.748 262.184 182.39C263.835 181.965 265.444 181.346 266.986 180.543C268.587 179.743 270.091 178.857 271.585 178.081C273.013 177.292 274.488 176.621 275.998 176.074C277.369 175.574 278.792 175.289 280.229 175.224C281.496 175.17 282.761 175.378 283.964 175.84C285.716 176.46 287.248 177.714 288.334 179.417C288.615 179.884 288.849 180.386 289.033 180.913C289.081 181.085 289.124 181.221 289.156 181.331C289.148 181.367 289.137 181.402 289.124 181.436Z" fill="#FAFAFA"/>
<g opacity="0.2">
<path d="M250.942 186.823C256.027 186.589 261.117 184.631 265.007 180.845C270.343 175.661 272.963 167.522 273.544 159.507C274.126 151.491 272.888 143.5 271.655 135.558C266.894 143.255 263.024 151.637 260.146 160.492C258.257 166.303 256.598 172.651 252.415 176.548C250.921 177.939 249.138 178.98 247.97 180.734C246.801 182.489 246.551 185.382 248.103 186.687L249.48 187.205" fill="black"/>
</g>
<path d="M214.199 187.131C215.213 187.698 216.29 188.098 217.4 188.319C218.277 188.538 219.179 188.584 220.068 188.454C220.484 188.393 220.874 188.325 221.247 188.257C222.965 187.937 224.571 187.069 225.884 185.752C231.663 179.959 247.307 161.649 250.098 157.506C253.459 152.525 254.404 119.601 254.404 119.601L273.175 123.147C273.175 123.147 272.839 146.874 268.223 165.337C265.283 177.077 229.806 201.229 229.763 201.254C227.133 204.578 224.177 208.18 222.357 209.934C218.574 213.591 218.286 213.21 217.993 212.625C217.203 211.067 224.433 205.902 222.32 205.97C220.207 206.037 214.114 213.474 213.345 211.806C212.342 209.626 220.004 204.381 220.623 203.883C221.242 203.384 220.623 202.331 220.09 202.817C219.316 203.513 211.019 210.612 210.026 208.488C209.493 207.305 211.398 206.351 211.398 206.351C211.398 206.351 219.577 200.373 219.076 199.388C218.574 198.403 213.665 201.709 212.075 202.965C210.485 204.221 209.365 203.852 209.461 202.596C209.53 201.74 214.306 197.757 215.901 196.556C217.496 195.356 221.909 192.154 218.617 191.693C215.325 191.231 212.95 189.433 212.598 188.436C212.246 187.439 213.319 186.503 214.199 187.131Z" fill="#FFBE9D"/>
<path d="M261.475 98.1455C263.242 97.7276 265.072 97.8294 266.796 98.4415C268.521 99.0537 270.083 100.157 271.341 101.648C273.529 104.277 275.727 108.679 275.54 115.654C275.172 129.266 274.244 133.908 274.244 133.908L251.113 132.985L252.02 110.114C252.02 110.114 253.808 100.011 261.475 98.1455Z" fill="#FF725E"/>
<path opacity="0.2" d="M261.475 98.1455C263.242 97.7276 265.072 97.8294 266.796 98.4415C268.521 99.0537 270.083 100.157 271.341 101.648C273.529 104.277 275.759 109.036 275.572 115.999C275.21 129.611 274.244 133.908 274.244 133.908L251.113 132.985L252.052 110.465C252.052 110.465 253.808 100.011 261.475 98.1455Z" fill="black"/>
<path d="M275.118 125.979C275.118 126.01 274.852 125.708 274.339 125.289C273.599 124.718 272.777 124.301 271.912 124.058C270.629 123.688 269.292 123.635 267.99 123.904C266.41 124.332 264.876 124.962 263.417 125.782C261.937 126.606 260.396 127.276 258.812 127.783C257.498 128.139 256.138 128.215 254.8 128.004C253.896 127.868 253.023 127.534 252.228 127.019C252.014 126.877 251.811 126.714 251.62 126.533C251.549 126.477 251.484 126.411 251.428 126.336C251.428 126.305 251.716 126.57 252.276 126.908C253.077 127.365 253.939 127.661 254.827 127.783C256.14 127.955 257.47 127.857 258.754 127.493C260.318 126.976 261.841 126.305 263.305 125.486C264.786 124.66 266.343 124.03 267.947 123.609C269.284 123.35 270.653 123.43 271.96 123.842C272.84 124.113 273.668 124.575 274.398 125.203C274.59 125.376 274.768 125.568 274.932 125.776C275 125.836 275.063 125.904 275.118 125.979Z" fill="#FAFAFA"/>
<path d="M274.173 106.709C273.928 106.858 273.673 106.984 273.41 107.085C273.164 107.202 272.876 107.319 272.492 107.448C272.108 107.577 271.718 107.725 271.254 107.842C270.169 108.148 269.067 108.373 267.957 108.513C266.594 108.67 265.223 108.727 263.854 108.685C262.486 108.624 261.124 108.451 259.777 108.168C258.678 107.929 257.597 107.591 256.544 107.158C256.136 107.002 255.737 106.817 255.348 106.604C255.048 106.462 254.755 106.298 254.473 106.112C254.223 105.976 253.985 105.811 253.764 105.619C254.025 105.723 254.278 105.851 254.521 106.001C254.809 106.166 255.105 106.312 255.407 106.438C255.799 106.632 256.2 106.8 256.608 106.943C257.655 107.341 258.724 107.653 259.809 107.879C261.145 108.142 262.494 108.304 263.848 108.365C265.205 108.409 266.563 108.359 267.914 108.217C269.016 108.086 270.11 107.881 271.19 107.602C271.66 107.497 272.071 107.374 272.433 107.257C272.796 107.14 273.111 107.048 273.362 106.949C273.625 106.839 273.897 106.759 274.173 106.709Z" fill="#FAFAFA"/>
<path d="M249.271 68.5267C249.239 68.8758 249.294 69.2281 249.429 69.5425C249.564 69.8568 249.774 70.1202 250.035 70.3017C250.295 70.4832 250.595 70.5754 250.899 70.5674C251.203 70.5595 251.499 70.4517 251.752 70.2567C252.702 69.4687 252.606 67.7941 252.227 66.5628C251.848 65.3315 251.272 63.9648 251.581 62.6658C251.821 61.6746 252.531 60.942 253.048 60.1047C253.503 59.3731 253.805 58.5299 253.93 57.6412C254.055 56.7525 254 55.8425 253.769 54.9825C253.516 54.131 253.067 53.3755 252.468 52.7981C251.87 52.2206 251.146 51.8434 250.375 51.7073C248.801 51.498 247.008 52.366 245.717 51.3071C244.778 50.5437 244.522 49.0539 243.743 48.075C242.537 46.5605 240.429 46.6652 238.717 47.2562C237.004 47.8472 235.318 48.8199 233.536 48.6352C232.052 48.4875 230.718 47.5455 229.267 47.0777C227.701 46.5788 226.04 46.655 224.514 47.2956C222.987 47.9363 221.672 49.1096 220.75 50.6525C219.828 52.1954 219.346 54.0313 219.37 55.9051C219.394 57.7789 219.923 59.5975 220.884 61.1082C221.544 62.2283 222.524 63.0437 223.654 63.4107" fill="#263238"/>
<path d="M246.657 107.152C244.345 107.641 241.96 107.053 240.023 105.516C238.087 103.978 236.758 101.618 236.327 98.9519C235.794 95.7813 235.388 93.1033 235.388 93.1033C235.388 93.1033 228.244 93.2264 226.968 85.2107C225.693 77.195 224.268 59.5876 224.268 59.5876L224.178 58.5225C231.648 52.9386 241.252 53.3388 249.128 58.147L249.362 59.803L253.882 95.9291C254.134 98.5077 253.528 101.1 252.187 103.184C250.846 105.267 248.869 106.685 246.657 107.152Z" fill="#FFBE9D"/>
<path d="M238.857 79.1158L234.391 81.6154C234.798 82.1372 235.347 82.4828 235.948 82.5948C236.549 82.7067 237.165 82.5784 237.693 82.231C239.646 80.9258 238.857 79.1158 238.857 79.1158Z" fill="white"/>
<path d="M235.355 92.9925C238.58 92.4283 241.587 90.772 243.994 88.2336C243.994 88.2336 242.703 94.4331 235.649 95.0734L235.355 92.9925Z" fill="#EB996E"/>
<path d="M249.698 65.2084C249.842 65.1222 254.821 63.7431 254.986 70.6753C255.151 77.6074 249.026 75.5081 249.01 75.3111C248.994 75.1141 249.698 65.2084 249.698 65.2084Z" fill="#FFBE9D"/>
<path d="M250.814 72.8178C250.841 72.8178 250.921 72.8979 251.102 72.9902C251.354 73.1051 251.634 73.1051 251.886 72.9902C252.511 72.7009 253.018 71.5188 253.018 70.2691C253.018 69.6734 252.905 69.0849 252.687 68.5453C252.624 68.3312 252.518 68.1377 252.377 67.9812C252.235 67.8247 252.064 67.7099 251.876 67.6464C251.755 67.6141 251.628 67.6315 251.517 67.6956C251.406 67.7596 251.318 67.8663 251.267 67.9973C251.187 68.1944 251.23 68.3298 251.198 68.3421C251.166 68.3544 251.065 68.2313 251.107 67.9419C251.139 67.769 251.22 67.6131 251.337 67.4987C251.498 67.3511 251.703 67.2825 251.908 67.3078C252.156 67.3551 252.39 67.4758 252.587 67.6581C252.783 67.8404 252.935 68.0781 253.028 68.3483C253.298 68.9406 253.439 69.5998 253.439 70.2691C253.439 71.6666 252.842 72.9964 251.982 73.3104C251.823 73.3707 251.653 73.3882 251.487 73.3615C251.32 73.3348 251.161 73.2647 251.022 73.1564C250.83 72.9841 250.793 72.8301 250.814 72.8178Z" fill="#EB996E"/>
<path d="M223.063 63.1829C223.063 63.1829 227.561 64.8698 232.667 60.8435C236.024 58.1962 240.105 56.534 241.13 57.2112C242.154 57.8884 242.859 62.1363 246.578 62.8382C246.578 62.8382 247.298 71.0509 250.089 70.3121C252.879 69.5733 249.614 57.1989 249.614 57.1989L242.512 52.8401L234.775 52.3907L226.585 54.7732L222.252 58.8242L223.063 63.1829Z" fill="#263238"/>
<path d="M249.314 50.2545C248.251 50.4789 247.284 51.1074 246.566 52.0398C246.788 51.4332 247.179 50.9287 247.676 50.6056C248.173 50.2825 248.75 50.159 249.314 50.2545Z" fill="#263238"/>
<path d="M246.026 47.5271C246.365 48.314 246.531 49.1853 246.507 50.0636C246.517 50.6929 246.427 51.319 246.24 51.9105C246.18 52.1613 246.068 52.3915 245.914 52.5815C246.088 51.762 246.194 50.9249 246.229 50.082C246.208 48.6784 245.962 47.5517 246.026 47.5271Z" fill="#263238"/>
<path d="M226.402 71.2603C226.415 71.5733 226.534 71.868 226.734 72.0801C226.934 72.2923 227.198 72.4048 227.469 72.3931C227.6 72.3963 227.729 72.3696 227.851 72.3146C227.972 72.2595 228.082 72.1771 228.176 72.0723C228.269 71.9674 228.343 71.8421 228.394 71.7038C228.445 71.5654 228.472 71.4168 228.473 71.2664C228.462 70.96 228.347 70.6706 228.154 70.4601C227.96 70.2497 227.703 70.1347 227.437 70.1398C227.305 70.1306 227.172 70.1527 227.047 70.2048C226.922 70.2569 226.808 70.3378 226.711 70.4427C226.614 70.5476 226.536 70.6742 226.483 70.8148C226.43 70.9554 226.403 71.107 226.402 71.2603Z" fill="#263238"/>
<path d="M226.376 70.3552C226.509 70.503 227.251 69.795 228.35 69.7396C229.449 69.6842 230.281 70.269 230.393 70.1028C230.447 70.0351 230.308 69.7642 229.945 69.4872C229.453 69.1362 228.879 68.9686 228.302 69.007C227.731 69.0356 227.183 69.2752 226.738 69.6903C226.413 70.0043 226.312 70.2875 226.376 70.3552Z" fill="#263238"/>
<path d="M237.212 70.6076C237.235 70.9108 237.359 71.1918 237.558 71.3916C237.757 71.5914 238.016 71.6943 238.279 71.6788C238.41 71.6765 238.539 71.644 238.658 71.5832C238.778 71.5224 238.885 71.4346 238.975 71.325C239.064 71.2154 239.134 71.0861 239.179 70.9449C239.225 70.8037 239.245 70.6534 239.24 70.5029C239.217 70.1997 239.092 69.9187 238.893 69.7189C238.694 69.5192 238.436 69.4162 238.173 69.4317C238.042 69.4332 237.913 69.4651 237.793 69.5256C237.673 69.5861 237.565 69.6738 237.475 69.7837C237.386 69.8935 237.316 70.0231 237.271 70.1646C237.226 70.3062 237.206 70.4569 237.212 70.6076Z" fill="#263238"/>
<path d="M236.893 69.6903C237.032 69.8257 237.747 69.0746 238.84 68.9638C239.934 68.853 240.793 69.3824 240.9 69.2162C241.007 69.05 240.799 68.8776 240.425 68.6006C239.919 68.2746 239.337 68.137 238.76 68.2065C238.193 68.2719 237.657 68.5411 237.229 68.9761C236.936 69.3393 236.84 69.6287 236.893 69.6903Z" fill="#263238"/>
<path d="M233.728 79.4975C233.133 79.3546 232.525 79.2988 231.919 79.3312C231.636 79.3312 231.385 79.2943 231.3 79.0788C231.25 78.7476 231.287 78.4066 231.407 78.1C231.604 77.2935 231.812 76.4439 232.026 75.5512C232.879 71.9312 233.466 68.9638 233.338 68.9207C233.21 68.8776 232.42 71.8019 231.556 75.4157C231.353 76.3084 231.156 77.158 230.974 77.9768C230.83 78.3849 230.817 78.8391 230.937 79.2574C230.988 79.3651 231.059 79.4585 231.144 79.5308C231.23 79.6032 231.329 79.6528 231.433 79.676C231.593 79.6994 231.754 79.6994 231.913 79.676C232.522 79.708 233.132 79.648 233.728 79.4975Z" fill="#263238"/>
<path d="M236.23 65.9164C236.369 66.2489 237.447 65.9657 238.743 65.9965C240.04 66.0272 241.118 66.3228 241.262 65.9965C241.326 65.8426 241.118 65.5409 240.67 65.2577C240.077 64.9119 239.424 64.7266 238.76 64.7159C238.096 64.7053 237.439 64.8695 236.839 65.1961C236.385 65.467 236.172 65.7625 236.23 65.9164Z" fill="#263238"/>
<path d="M226.221 66.963C226.44 67.2277 227.166 66.846 228.073 66.729C228.98 66.612 229.764 66.729 229.914 66.415C229.978 66.2611 229.834 65.9841 229.476 65.7501C228.997 65.4782 228.459 65.3752 227.93 65.454C227.4 65.5328 226.902 65.79 226.499 66.1934C226.221 66.5259 226.131 66.8337 226.221 66.963Z" fill="#263238"/>
<path d="M32.6866 124.557L61.2809 207.053H141.541L116.042 123.449C115.953 123.152 115.786 122.894 115.564 122.712C115.342 122.53 115.076 122.432 114.804 122.433L33.9031 122.494C33.6904 122.496 33.4811 122.557 33.2933 122.672C33.1055 122.787 32.9448 122.954 32.8251 123.157C32.7054 123.36 32.6303 123.593 32.6061 123.837C32.582 124.081 32.6096 124.328 32.6866 124.557Z" fill="#263238"/>
<path d="M37.0897 126.81L63.347 200.687C63.4041 200.845 63.5005 200.979 63.624 201.074C63.7475 201.168 63.8925 201.218 64.0406 201.217H137.14C137.258 201.218 137.375 201.187 137.48 201.126C137.586 201.064 137.677 200.975 137.746 200.864C137.815 200.754 137.86 200.626 137.877 200.491C137.894 200.356 137.883 200.219 137.845 200.09L114.581 126.213C114.527 126.048 114.43 125.906 114.304 125.806C114.179 125.706 114.029 125.652 113.877 125.653H37.7834C37.6626 125.65 37.543 125.681 37.4354 125.745C37.3279 125.808 37.2356 125.901 37.1669 126.016C37.0981 126.131 37.0551 126.263 37.0417 126.402C37.0282 126.54 37.0447 126.681 37.0897 126.81Z" fill="#455A64"/>
<path d="M61.2812 207.047H61.9962H170.355V201.241H64.2479L61.2812 207.047Z" fill="#263238"/>
<path d="M186.735 126.705C186.735 126.705 188.736 123.707 187.386 120.253C186.036 116.8 182.403 112.866 182.403 112.866C181.335 112.552 182.744 105.595 183.358 103.286C183.971 100.977 183.283 99.7277 182.189 100.208C181.448 100.553 179.425 107.553 178.865 109.843C178.561 111.074 177.99 113.537 177.296 114.903C176.72 116.018 176.058 116.369 175.391 114.62C173.924 110.766 171.566 108.427 170.589 108.297C169.613 108.168 169.101 109.769 169.938 110.643C170.765 111.694 171.464 112.87 172.014 114.14C172.495 115.138 172.827 116.222 172.996 117.347C173.14 118.32 173.241 119.194 173.321 119.97C173.504 121.905 173.489 123.857 173.278 125.788L153.12 153.184L148.734 134.635L148.329 133.206L131.03 140.631C130.496 140.785 134.765 155.314 137.433 164.34C138.088 166.549 139.146 168.571 140.535 170.27C141.923 171.969 143.611 173.306 145.485 174.19C148.428 175.58 151.691 175.79 154.751 174.785C157.81 173.781 160.488 171.62 162.356 168.649L183.875 132.603L183.411 132.24L183.849 132.468L186.735 126.705Z" fill="#B78876"/>
<path d="M184.035 114.657C184.002 114.89 183.945 115.117 183.865 115.334L183.294 117.138L182.424 119.822C182.279 120.375 182.057 120.897 181.768 121.368C181.578 121.626 181.315 121.798 181.026 121.854C180.871 121.877 180.714 121.854 180.569 121.787C180.424 121.721 180.297 121.612 180.199 121.472C180.01 121.207 179.902 120.879 179.889 120.537C179.883 120.225 179.914 119.915 179.98 119.613C180.103 119.04 180.231 118.499 180.359 117.982C180.62 116.947 180.893 116.036 181.143 115.279C181.394 114.522 181.618 113.912 181.784 113.5C181.856 113.281 181.952 113.074 182.072 112.884C182.029 113.114 181.966 113.339 181.885 113.555C181.752 113.98 181.554 114.596 181.351 115.359C181.149 116.122 180.871 117.04 180.626 118.068C180.503 118.585 180.38 119.127 180.268 119.687C180.186 119.947 180.158 120.226 180.186 120.501C180.215 120.776 180.3 121.039 180.434 121.269C180.501 121.368 180.59 121.446 180.691 121.494C180.791 121.543 180.901 121.561 181.01 121.546C181.233 121.5 181.437 121.368 181.586 121.171C181.856 120.726 182.065 120.236 182.205 119.718L183.134 117.083L183.784 115.316C183.848 115.087 183.932 114.866 184.035 114.657Z" fill="#AA6550"/>
<path d="M186.074 117.36C186.051 117.572 186 117.78 185.925 117.975C185.813 118.351 185.637 118.887 185.391 119.551C185.146 120.216 184.911 121.004 184.601 121.879C184.45 122.374 184.171 122.804 183.801 123.11C183.591 123.276 183.341 123.362 183.086 123.356C182.818 123.34 182.564 123.209 182.376 122.987C182.206 122.776 182.079 122.524 182.003 122.249C181.928 121.975 181.906 121.684 181.939 121.398C181.986 120.9 182.074 120.407 182.2 119.927C182.392 119.119 182.631 118.327 182.915 117.557C183.155 116.904 183.38 116.387 183.54 116.03C183.611 115.84 183.705 115.662 183.817 115.5C183.86 115.5 183.534 116.319 183.097 117.643C182.842 118.417 182.625 119.206 182.446 120.007C182.334 120.471 182.255 120.944 182.211 121.423C182.183 121.662 182.2 121.906 182.262 122.136C182.324 122.367 182.428 122.58 182.568 122.759C182.71 122.915 182.894 123.008 183.089 123.024C183.283 123.04 183.477 122.977 183.636 122.845C183.961 122.574 184.208 122.196 184.345 121.762L185.188 119.465C185.428 118.813 185.631 118.289 185.775 117.926C185.851 117.722 185.952 117.531 186.074 117.36Z" fill="#AA6550"/>
<path d="M187.195 120.099C187.109 120.698 186.973 121.285 186.79 121.854C186.645 122.396 186.485 123.024 186.256 123.732C186.15 124.146 185.906 124.496 185.578 124.704C185.48 124.753 185.374 124.779 185.266 124.779C185.159 124.779 185.053 124.753 184.954 124.704C184.756 124.613 184.587 124.451 184.474 124.243C184.287 123.846 184.212 123.392 184.26 122.944C184.301 121.872 184.539 120.823 184.959 119.866C185.134 119.467 185.344 119.089 185.584 118.739C185.754 118.493 185.866 118.37 185.882 118.382C185.898 118.394 185.53 118.954 185.135 119.964C184.91 120.556 184.744 121.176 184.639 121.811C184.581 122.183 184.545 122.56 184.533 122.938C184.496 123.321 184.558 123.708 184.709 124.052C184.777 124.205 184.893 124.323 185.034 124.382C185.174 124.441 185.328 124.438 185.466 124.372C185.725 124.198 185.916 123.916 186 123.584C186.203 122.913 186.395 122.297 186.571 121.737C186.738 121.172 186.947 120.624 187.195 120.099Z" fill="#AA6550"/>
<path d="M180.333 126.04C180.285 126.04 180.333 125.554 180.28 124.809C180.138 122.803 179.324 120.939 178.012 119.613C177.51 119.108 177.148 118.868 177.169 118.825C177.526 118.946 177.856 119.156 178.135 119.441C178.847 120.075 179.427 120.886 179.832 121.812C180.237 122.739 180.458 123.759 180.477 124.797C180.504 125.218 180.455 125.642 180.333 126.04Z" fill="#AA6550"/>
<path d="M68.2812 200.687L120.454 200.995L121.105 190.375L80.4041 169.48C76.8784 174.406 74.5377 180.315 73.617 186.614L68.2812 200.687Z" fill="#263238"/>
<path d="M92.9174 180.248C92.7811 180.473 92.6236 180.679 92.4478 180.864C92.2575 181.1 92.0543 181.322 91.8395 181.528C91.5684 181.818 91.2833 182.089 90.9858 182.341C90.6339 182.661 90.265 182.955 89.8813 183.221C89.4485 183.542 89.0014 183.835 88.542 184.102C86.4263 185.336 84.1029 186.023 81.7336 186.115C81.22 186.146 80.7052 186.146 80.1916 186.115C79.7447 186.091 79.2993 186.037 78.8577 185.955C78.4982 185.899 78.1418 185.819 77.7905 185.715C77.5152 185.656 77.2441 185.574 76.9795 185.469C76.7482 185.408 76.5242 185.315 76.3125 185.192C76.3125 185.124 77.2889 185.499 78.9057 185.733C79.3059 185.783 79.7487 185.844 80.2236 185.85C80.6985 185.856 81.2107 185.85 81.7443 185.85C84.0668 185.709 86.3407 185.028 88.43 183.849C88.9049 183.566 89.3584 183.308 89.7639 183.012C90.1441 182.752 90.5127 182.471 90.8684 182.169C92.1864 181.061 92.8747 180.199 92.9174 180.248Z" fill="#455A64"/>
<path d="M107.105 199.795C107.277 199.098 107.488 198.416 107.735 197.751C108.178 196.421 108.733 194.728 109.336 192.862C109.939 190.997 110.531 189.316 110.985 187.987C111.19 187.301 111.44 186.634 111.732 185.992C111.59 186.699 111.401 187.393 111.166 188.067C110.782 189.298 110.232 191.065 109.597 192.992C108.962 194.919 108.359 196.618 107.9 197.849C107.671 198.465 107.479 198.957 107.335 199.296C107.278 199.473 107.201 199.641 107.105 199.795Z" fill="#455A64"/>
<path d="M107.398 185.499C107.099 185.661 106.853 185.931 106.699 186.269C106.626 186.442 106.592 186.634 106.6 186.827C106.608 187.02 106.659 187.207 106.747 187.371C106.849 187.577 107.003 187.743 107.188 187.846C107.374 187.948 107.582 187.984 107.785 187.947C107.988 187.91 108.177 187.803 108.326 187.64C108.475 187.476 108.578 187.264 108.62 187.032C108.661 186.845 108.659 186.649 108.617 186.463C108.574 186.277 108.49 186.106 108.375 185.967C108.137 185.704 107.835 185.532 107.51 185.475C107.51 185.475 107.606 185.413 107.793 185.425C108.064 185.455 108.317 185.59 108.513 185.807C108.667 185.968 108.781 186.173 108.843 186.401C108.905 186.63 108.913 186.873 108.866 187.106C108.818 187.4 108.692 187.67 108.506 187.879C108.32 188.087 108.082 188.224 107.825 188.27C107.569 188.316 107.307 188.269 107.074 188.135C106.842 188.002 106.651 187.788 106.529 187.525C106.423 187.319 106.367 187.084 106.367 186.844C106.367 186.605 106.423 186.37 106.529 186.164C106.657 185.889 106.862 185.673 107.11 185.549C107.286 185.468 107.393 185.481 107.398 185.499Z" fill="#455A64"/>
<path d="M142.684 110.828C142.684 110.828 150.314 136.722 149.882 137.781L134.445 142.663L142.684 110.828Z" fill="#FF725E"/>
<path opacity="0.2" d="M142.684 110.828C142.684 110.828 150.314 136.722 149.882 137.781L134.445 142.663L142.684 110.828Z" fill="black"/>
<path d="M130.177 153.732L125.305 177.576L122.141 190.917L80.3887 169.48L93.6427 144.854C93.6427 144.854 100.899 110.606 111.139 104.277C118.582 99.6723 124.905 101.273 125.849 101.273L134.744 102.695C134.941 102.726 135.133 102.763 135.326 102.806C140.069 103.883 143.287 108.999 143.041 114.565C142.849 119.022 142.203 126.564 140.074 132.203C137.22 139.782 130.177 153.732 130.177 153.732Z" fill="#FF725E"/>
<path d="M123.689 185.567L123.384 185.407C123.087 185.248 122.798 185.067 122.52 184.865C121.448 184.092 120.51 183.094 119.756 181.922C118.542 180.067 117.829 177.84 117.707 175.52C117.631 174.065 117.875 172.612 118.417 171.296C118.712 170.575 119.125 169.927 119.633 169.388C120.179 168.818 120.852 168.436 121.576 168.286C122.173 168.216 122.776 168.283 123.351 168.483C123.925 168.683 124.46 169.011 124.925 169.45C125.389 169.888 125.774 170.429 126.057 171.039C126.341 171.65 126.517 172.319 126.575 173.008C126.641 174.008 126.483 175.011 126.116 175.92C125.738 176.874 125.18 177.719 124.485 178.395C123.789 179.071 122.972 179.561 122.093 179.829C120.22 180.373 118.242 180.155 116.491 179.214C114.679 178.21 113.093 176.735 111.859 174.904C111.207 173.984 110.619 173.006 110.098 171.98C109.555 170.932 109.148 169.797 108.893 168.612C108.632 167.401 108.619 166.136 108.855 164.918C109.094 163.657 109.68 162.519 110.525 161.674C110.969 161.257 111.482 160.947 112.032 160.763C112.582 160.579 113.158 160.524 113.727 160.603C114.302 160.676 114.853 160.915 115.328 161.298C115.791 161.698 116.159 162.228 116.395 162.837C116.843 164.072 116.864 165.458 116.453 166.71C116.031 167.917 115.323 168.963 114.41 169.727C112.654 171.132 110.624 172.013 108.501 172.292C106.378 172.57 104.228 172.236 102.244 171.321C100.393 170.405 98.7986 168.913 97.6395 167.012C96.5228 165.211 95.8934 163.068 95.8307 160.855C95.8056 159.792 95.954 158.733 96.2682 157.734C96.5738 156.756 97.1029 155.893 97.7996 155.234C98.4881 154.613 99.3272 154.253 100.201 154.206C100.623 154.175 101.047 154.242 101.447 154.401C101.847 154.561 102.216 154.811 102.532 155.136C103.119 155.788 103.483 156.662 103.557 157.598C103.64 158.481 103.526 159.373 103.226 160.19C102.607 161.684 101.5 162.833 100.147 163.385C98.9741 163.897 97.7305 164.16 96.4763 164.161C94.4717 164.191 92.4849 163.725 90.6496 162.794C89.4959 162.21 88.4184 161.444 87.4482 160.517C87.112 160.196 86.8719 159.938 86.7172 159.759C86.5625 159.581 86.4824 159.482 86.4824 159.482C86.4824 159.482 86.5731 159.562 86.7385 159.735C86.9039 159.907 87.1441 160.159 87.4802 160.467C90.0374 162.806 93.2189 164.049 96.4816 163.983C97.7154 163.974 98.9376 163.707 100.089 163.195C100.711 162.908 101.291 162.511 101.807 162.019C102.349 161.506 102.776 160.849 103.05 160.104C103.334 159.327 103.441 158.479 103.359 157.641C103.287 156.764 102.944 155.945 102.394 155.333C102.097 155.033 101.752 154.803 101.379 154.657C101.005 154.512 100.61 154.452 100.217 154.483C99.3889 154.527 98.594 154.87 97.9436 155.462C97.2836 156.094 96.7825 156.919 96.4923 157.851C96.1912 158.817 96.0518 159.841 96.0814 160.867C96.1447 163.028 96.7611 165.119 97.8529 166.876C98.9848 168.736 100.545 170.195 102.356 171.087C104.295 171.982 106.396 172.307 108.471 172.034C110.546 171.761 112.53 170.899 114.244 169.523C115.116 168.796 115.793 167.799 116.197 166.648C116.583 165.476 116.564 164.178 116.144 163.022C115.928 162.457 115.585 161.968 115.151 161.606C114.711 161.265 114.206 161.054 113.679 160.991C113.152 160.924 112.619 160.979 112.111 161.151C111.603 161.323 111.129 161.61 110.717 161.994C109.91 162.794 109.348 163.874 109.117 165.072C108.887 166.247 108.898 167.468 109.149 168.637C109.64 170.976 110.819 173.002 112.062 174.793C113.27 176.588 114.82 178.038 116.592 179.029C118.288 179.945 120.206 180.162 122.024 179.645C122.87 179.39 123.656 178.921 124.326 178.273C124.996 177.624 125.533 176.812 125.898 175.895C126.255 175.031 126.409 174.074 126.346 173.119C126.292 172.462 126.127 171.824 125.86 171.241C125.592 170.658 125.228 170.142 124.787 169.721C124.347 169.301 123.839 168.985 123.292 168.792C122.746 168.598 122.171 168.531 121.602 168.594C120.913 168.734 120.271 169.094 119.751 169.634C119.258 170.157 118.856 170.784 118.566 171.481C118.035 172.764 117.791 174.18 117.857 175.6C117.965 177.892 118.655 180.098 119.842 181.941C120.58 183.111 121.497 184.117 122.547 184.908C122.819 185.112 123.101 185.299 123.39 185.469L123.689 185.567Z" fill="#FAFAFA"/>
<path d="M136.215 139.572C136.215 139.572 136.178 139.529 136.114 139.437L135.831 139.03C135.486 138.491 135.188 137.913 134.94 137.307C134.047 135.035 133.811 132.492 134.268 130.054C134.563 128.36 135.243 126.786 136.237 125.492C136.534 125.14 136.9 124.874 137.304 124.717C137.518 124.637 137.744 124.609 137.967 124.633C138.191 124.658 138.408 124.734 138.606 124.858C139.003 125.12 139.321 125.518 139.513 125.997C139.697 126.483 139.793 127.006 139.796 127.536C139.779 129.741 139.111 131.874 137.901 133.582C137.275 134.489 136.51 135.257 135.644 135.848C134.75 136.471 133.732 136.819 132.688 136.857C131.63 136.867 130.605 136.429 129.807 135.626C129.036 134.862 128.454 133.877 128.121 132.769C127.806 131.712 127.653 130.6 127.667 129.482C127.651 128.414 127.766 127.348 128.009 126.317C128.138 125.813 128.344 125.34 128.617 124.92C128.889 124.49 129.287 124.188 129.738 124.07C130.18 123.971 130.638 124.066 131.024 124.335C131.382 124.593 131.688 124.937 131.92 125.345C132.137 125.723 132.301 126.139 132.406 126.576C132.508 127.003 132.563 127.444 132.571 127.887C132.586 128.716 132.466 129.541 132.219 130.319C131.792 131.654 131.088 132.848 130.17 133.797C129.487 134.508 128.745 135.138 127.956 135.681C127.305 136.131 126.787 136.445 126.435 136.654L126.035 136.888C125.99 136.92 125.941 136.944 125.891 136.962L126.019 136.863L126.408 136.599C126.75 136.371 127.262 136.038 127.897 135.577C128.671 135.02 129.396 134.379 130.063 133.662C130.948 132.723 131.624 131.55 132.032 130.245C132.264 129.491 132.375 128.694 132.358 127.893C132.349 127.476 132.291 127.062 132.187 126.662C132.092 126.241 131.937 125.842 131.728 125.48C131.517 125.105 131.234 124.791 130.901 124.563C130.57 124.326 130.173 124.245 129.791 124.335C129.001 124.52 128.5 125.455 128.249 126.391C128.022 127.396 127.914 128.431 127.929 129.469C127.92 130.552 128.071 131.629 128.377 132.652C128.694 133.704 129.246 134.641 129.978 135.367C130.727 136.12 131.69 136.53 132.683 136.519C133.678 136.477 134.647 136.145 135.5 135.552C136.338 134.982 137.079 134.242 137.688 133.366C138.857 131.715 139.507 129.656 139.534 127.524C139.535 127.035 139.448 126.55 139.278 126.102C139.11 125.677 138.832 125.322 138.483 125.086C138.314 124.98 138.128 124.914 137.937 124.892C137.745 124.87 137.552 124.892 137.368 124.957C137.005 125.105 136.676 125.347 136.407 125.665C135.428 126.921 134.751 128.452 134.444 130.104C134.175 131.458 134.125 132.859 134.294 134.235C134.418 135.275 134.662 136.292 135.02 137.257C135.26 137.86 135.54 138.441 135.858 138.993L136.119 139.418C136.194 139.523 136.221 139.566 136.215 139.572Z" fill="#FAFAFA"/>
<path d="M123.437 132.326C123.437 132.326 123.437 154.218 128.185 156.293C141.103 161.932 156.556 160.633 161.993 160.042C162.644 159.519 163.396 158.879 164.25 158.078L166.048 156.349C166.048 156.349 174.585 158.226 174.457 158.743C174.329 159.261 171.128 160.455 167.83 159.599C167.733 159.809 167.677 160.04 167.665 160.277C167.653 160.514 167.685 160.751 167.76 160.973C167.835 161.194 167.951 161.394 168.099 161.558C168.248 161.723 168.425 161.848 168.62 161.926C170.791 163.158 178.486 166.907 179.707 167.756C180.775 168.514 181.799 169.757 180.583 169.843C179.366 169.93 172.894 168.089 172.894 168.089C172.894 168.089 181.431 170.305 181.079 171.721C180.844 172.7 178.48 172.909 172.974 170.798C172.974 170.798 179.98 172.682 180.647 173.63C182.157 175.76 173.71 173.58 173.71 173.58C179.617 175.169 179.579 174.812 179.579 175.754C179.579 176.468 178.187 176.597 174.9 176.265C172.232 175.994 169.42 176.332 165.333 176.178C165.333 176.178 112.568 187.02 107.766 160.159C105.172 145.673 105.631 140.329 105.098 130.972" fill="#B78876"/>
<path d="M170.129 172.725C170.092 172.891 171.89 173.463 174.142 174.005C176.394 174.547 178.234 174.83 178.261 174.658C178.288 174.485 176.49 173.913 174.254 173.377C172.018 172.842 170.194 172.552 170.129 172.725Z" fill="#AA6550"/>
<path d="M170.419 170.041C170.381 170.213 172.265 170.946 174.623 171.684C176.981 172.423 178.934 172.879 178.972 172.706C179.009 172.534 177.131 171.801 174.767 171.069C172.403 170.336 170.461 169.874 170.419 170.041Z" fill="#AA6550"/>
<path d="M170.727 167.258C170.685 167.43 172.456 168.157 174.681 168.889C176.906 169.622 178.747 170.078 178.79 169.905C178.832 169.733 177.061 169.006 174.836 168.274C172.611 167.541 170.775 167.092 170.727 167.258Z" fill="#AA6550"/>
<path d="M113.704 110.908C111.995 110.736 110.276 111.085 108.721 111.92C107.165 112.755 105.827 114.047 104.841 115.667C103.048 118.56 101.399 123.215 102.21 130.116C103.811 143.586 105.086 148.08 105.086 148.08L126.541 144.159L123.607 121.565C123.607 121.565 121.019 111.757 113.704 110.908Z" fill="#FF725E"/>
<path opacity="0.2" d="M113.704 110.908C111.995 110.736 110.276 111.085 108.721 111.92C107.165 112.755 105.827 114.047 104.841 115.667C103.048 118.56 101.399 123.215 102.21 130.116C103.811 143.586 105.086 148.08 105.086 148.08L126.541 144.159L123.607 121.565C123.607 121.565 121.019 111.757 113.704 110.908Z" fill="black"/>
<path d="M167.761 156.761C167.607 156.754 167.453 156.731 167.302 156.693C167.003 156.638 166.555 156.533 165.995 156.441C165.691 156.47 165.401 156.603 165.163 156.823C164.854 157.065 164.56 157.33 164.282 157.617C163.603 158.323 162.96 159.073 162.356 159.864C160.695 160.427 158.975 160.729 157.244 160.763C155.207 160.79 153.169 160.693 151.14 160.473C146.221 160.073 141.749 159.759 138.537 159.242C136.936 158.996 135.64 158.737 134.754 158.522C134.306 158.423 133.97 158.319 133.735 158.257C133.615 158.231 133.497 158.191 133.383 158.14C133.505 158.142 133.627 158.16 133.746 158.196L134.77 158.399C135.661 158.577 136.958 158.799 138.564 159.014C141.765 159.47 146.231 159.753 151.162 160.153C153.296 160.344 155.35 160.517 157.239 160.461C158.948 160.438 160.646 160.156 162.292 159.624L162.244 159.661C162.861 158.871 163.52 158.127 164.218 157.432C164.505 157.142 164.812 156.878 165.136 156.644C165.401 156.409 165.724 156.275 166.059 156.262C166.635 156.386 167.062 156.509 167.361 156.583C167.499 156.627 167.633 156.687 167.761 156.761Z" fill="#AA6550"/>
<path d="M125.07 131.55C125.017 131.577 124.962 131.595 124.905 131.606L124.408 131.729L123.592 131.821C123.216 131.831 122.84 131.813 122.466 131.766C120.791 131.548 119.212 130.752 117.936 129.482C117.38 128.949 116.893 128.327 116.49 127.635C116.03 126.878 115.692 126.031 115.492 125.135C115.389 124.653 115.355 124.153 115.391 123.658C115.424 123.125 115.599 122.618 115.893 122.205C116.056 121.999 116.254 121.834 116.474 121.719C116.694 121.604 116.932 121.541 117.173 121.534C117.659 121.533 118.137 121.671 118.566 121.934C119.448 122.492 120.158 123.353 120.599 124.397C121.068 125.477 121.278 126.682 121.207 127.887C121.145 129.149 120.752 130.36 120.081 131.36C119.372 132.397 118.446 133.21 117.391 133.723C116.336 134.237 115.185 134.434 114.046 134.296C112.914 134.123 111.826 133.677 110.854 132.986C109.881 132.295 109.045 131.376 108.401 130.288C107.749 129.28 107.338 128.091 107.211 126.841C107.153 126.217 107.214 125.586 107.393 124.994C107.574 124.423 107.87 123.91 108.257 123.498C108.631 123.082 109.106 122.808 109.618 122.71C110.118 122.619 110.631 122.716 111.08 122.987C111.5 123.245 111.867 123.605 112.154 124.043C112.442 124.481 112.643 124.986 112.744 125.523C112.942 126.505 112.942 127.527 112.744 128.509C112.565 129.409 112.257 130.269 111.832 131.052C111.195 132.235 110.296 133.2 109.227 133.849C108.159 134.499 106.961 134.808 105.755 134.746C105.103 134.722 104.457 134.587 103.839 134.345C103.624 134.266 103.415 134.165 103.215 134.044C103.215 134.044 103.434 134.142 103.86 134.284C104.475 134.495 105.113 134.607 105.755 134.616C106.77 134.644 107.778 134.41 108.705 133.933C109.931 133.292 110.961 132.241 111.661 130.916C112.072 130.158 112.368 129.326 112.536 128.454C112.723 127.509 112.723 126.529 112.536 125.585C112.442 125.088 112.254 124.62 111.987 124.215C111.72 123.81 111.379 123.477 110.989 123.239C110.584 122.997 110.122 122.91 109.671 122.993C109.209 123.088 108.782 123.339 108.444 123.713C108.09 124.095 107.82 124.567 107.654 125.092C107.495 125.636 107.438 126.214 107.489 126.785C107.62 127.98 108.015 129.116 108.636 130.085C109.255 131.138 110.059 132.028 110.996 132.7C111.933 133.371 112.981 133.808 114.073 133.982C115.165 134.116 116.268 133.928 117.281 133.437C118.293 132.946 119.181 132.168 119.862 131.175C120.476 130.232 120.848 129.111 120.937 127.937C121.027 126.763 120.83 125.584 120.369 124.532C120.153 124.039 119.878 123.583 119.553 123.178C119.234 122.788 118.863 122.46 118.454 122.205C118.063 121.959 117.624 121.83 117.179 121.829C116.969 121.832 116.763 121.884 116.572 121.982C116.381 122.081 116.21 122.223 116.069 122.402C115.804 122.77 115.645 123.224 115.615 123.701C115.579 124.169 115.608 124.641 115.701 125.098C115.89 125.965 116.212 126.787 116.65 127.524C117.039 128.212 117.51 128.833 118.048 129.371C118.525 129.849 119.048 130.262 119.606 130.602C120.502 131.155 121.476 131.518 122.482 131.673C123.345 131.787 124.218 131.746 125.07 131.55Z" fill="#FAFAFA"/>
<path d="M113.784 63.2568C113.395 61.9917 112.709 60.8767 111.801 60.0371C110.894 59.1975 109.801 58.6666 108.646 58.5042C107.492 58.3417 106.32 58.5541 105.265 59.1174C104.209 59.6808 103.31 60.5728 102.669 61.6931C101.858 63.1091 101.512 64.7713 100.999 66.4028C100.487 68.0343 99.7348 69.6165 98.4382 70.423C96.9228 71.371 94.9272 71.0386 93.5506 72.2699C92.0139 73.5935 91.9499 76.5178 93.2625 78.1555C94.5751 79.7931 96.7894 80.1501 98.5982 79.3313C98.1612 80.6254 97.9141 81.9945 97.8672 83.3823C97.8493 84.0782 97.9801 84.7686 98.2481 85.3924C98.5161 86.0162 98.913 86.5543 99.4039 86.9592C99.9418 87.2914 100.544 87.4591 101.154 87.4462C101.764 87.4332 102.361 87.2401 102.888 86.8853C103.938 86.1632 104.839 85.1864 105.529 84.0226C105.702 85.0011 105.999 85.9449 106.41 86.8237C106.618 87.2612 106.905 87.6417 107.252 87.9392C107.6 88.2367 107.998 88.4442 108.421 88.5475C108.95 88.6002 109.482 88.4853 109.959 88.2151C110.435 87.945 110.839 87.5299 111.127 87.0146C111.689 85.971 112.024 84.7861 112.103 83.5608C112.412 80.5524 112.242 77.5042 111.601 74.5663C111.201 72.6824 110.636 70.7554 110.951 68.8531C111.265 66.9507 112.887 65.1592 114.493 65.7379" fill="#263238"/>
<path d="M92.75 76.2408C92.8327 76.3077 92.9247 76.3577 93.0221 76.3885C93.2923 76.5016 93.5685 76.5942 93.8492 76.6656C95.1491 76.9836 96.4966 76.9311 97.775 76.5127C99.0534 76.0943 100.224 75.3227 101.186 74.2646C101.866 73.5145 102.432 72.6385 102.861 71.6727C103.298 70.6312 103.614 69.528 103.8 68.3913C103.974 67.2888 104.235 66.2069 104.579 65.1592C104.91 64.2114 105.464 63.39 106.18 62.7889C106.789 62.2829 107.487 61.9355 108.224 61.7708C108.961 61.606 109.72 61.6278 110.449 61.8347C111.442 62.132 112.358 62.7047 113.117 63.5031C113.65 64.0695 113.896 64.4635 113.928 64.4327C113.96 64.4019 113.89 64.3157 113.784 64.1249C113.624 63.8539 113.446 63.5986 113.25 63.3615C112.501 62.4807 111.565 61.8436 110.534 61.5146C109.758 61.2675 108.944 61.2216 108.151 61.3802C107.357 61.5388 106.604 61.8979 105.945 62.4319C105.165 63.0764 104.558 63.962 104.195 64.9868C103.832 66.0605 103.559 67.1716 103.379 68.3051C103.201 69.3997 102.901 70.4632 102.488 71.4695C101.94 72.7114 101.16 73.7974 100.204 74.6491C99.2478 75.5009 98.1398 76.0971 96.9599 76.3947C95.9495 76.6437 94.9085 76.6812 93.8865 76.5055C93.1555 76.3455 92.7607 76.1977 92.75 76.2408Z" fill="#455A64"/>
<path d="M106.823 87.6119C106.823 87.6119 106.903 87.5688 107.036 87.4456C107.238 87.2706 107.418 87.0633 107.57 86.83C108.113 85.9788 108.441 84.9711 108.519 83.918C108.639 82.3735 108.485 80.8172 108.066 79.3437C107.66 77.6815 107.036 75.9208 106.796 74C106.553 72.1992 106.862 70.357 107.671 68.7916C108.326 67.5079 109.295 66.4756 110.456 65.8242C111.243 65.3822 112.093 65.1089 112.964 65.0177C113.289 65.0116 113.613 64.9849 113.935 64.9377C113.617 64.8294 113.284 64.7897 112.953 64.8207C112.047 64.8393 111.154 65.0718 110.328 65.504C109.083 66.1427 108.035 67.2034 107.324 68.5453C106.445 70.2027 106.105 72.1662 106.364 74.0861C106.615 76.0993 107.26 77.8662 107.682 79.4915C108.106 80.907 108.287 82.4042 108.215 83.8995C108.174 84.9057 107.906 85.8821 107.436 86.7315C107.068 87.3163 106.791 87.5749 106.823 87.6119Z" fill="#455A64"/>
<path d="M142.448 75.9453C146.631 64.7837 140.895 57.9869 137.16 55.549C134.935 54.0961 132.289 53.7882 129.738 53.7021C127.213 53.5614 124.682 53.8287 122.22 54.4962C119.749 55.1721 117.493 56.6379 115.711 58.7257C112.653 62.5058 111.976 68.102 112.242 73.2611C112.573 79.3619 114.096 85.2973 116.698 90.6223C116.986 91.336 117.438 91.9449 118.005 92.383C118.294 92.5879 118.639 92.6622 118.973 92.5917C119.307 92.5213 119.606 92.311 119.814 92.0013" fill="#263238"/>
<path d="M135.278 103.816L135.123 97.9424C135.123 97.9424 141.072 96.8034 142.305 87.8458C142.919 83.3885 142.727 76.087 142.401 70.1152C142.332 68.8387 142.039 67.5916 141.54 66.4493C141.042 65.307 140.347 64.2932 139.5 63.4692C138.652 62.6452 137.668 62.0281 136.608 61.6551C135.547 61.2821 134.432 61.161 133.33 61.2992L119.868 62.943C119.188 63.0247 118.559 63.3986 118.106 63.9904C117.653 64.5823 117.41 65.3489 117.424 66.1382L119.212 104.585C119.316 106.952 120.205 109.183 121.695 110.815C123.185 112.447 125.161 113.355 127.216 113.352C128.294 113.362 129.363 113.12 130.358 112.641C131.354 112.162 132.255 111.457 133.008 110.566C133.761 109.675 134.35 108.618 134.74 107.458C135.13 106.298 135.313 105.059 135.278 103.816Z" fill="#B78876"/>
<path d="M141.057 75.1757C141.058 75.4754 140.959 75.7642 140.78 75.9812C140.601 76.1982 140.356 76.3266 140.096 76.3393C139.969 76.3502 139.842 76.3318 139.721 76.2852C139.6 76.2386 139.488 76.1647 139.393 76.0679C139.297 75.9711 139.218 75.8532 139.162 75.7212C139.107 75.5892 139.074 75.4456 139.066 75.2989C139.065 74.9998 139.164 74.7118 139.343 74.4957C139.523 74.2797 139.768 74.1527 140.027 74.1415C140.154 74.1297 140.281 74.1473 140.402 74.1932C140.523 74.2391 140.634 74.3124 140.73 74.4087C140.826 74.5051 140.904 74.6225 140.961 74.7543C141.017 74.886 141.049 75.0293 141.057 75.1757Z" fill="#263238"/>
<path d="M141.03 73.889C140.902 74.0368 140.149 73.3904 139.077 73.3965C138.004 73.4027 137.22 74.0122 137.108 73.8644C136.996 73.7167 137.172 73.5258 137.519 73.2488C137.988 72.8713 138.548 72.6732 139.119 72.6824C139.675 72.681 140.217 72.8836 140.667 73.2611C140.976 73.5504 141.088 73.8213 141.03 73.889Z" fill="#263238"/>
<path d="M130.32 75.4959C130.322 75.7956 130.223 76.0843 130.044 76.3013C129.864 76.5183 129.619 76.6467 129.36 76.6595C129.233 76.6703 129.105 76.6519 128.984 76.6053C128.864 76.5587 128.752 76.4849 128.656 76.388C128.56 76.2912 128.482 76.1734 128.426 76.0413C128.37 75.9093 128.338 75.7658 128.33 75.619C128.329 75.32 128.428 75.0319 128.607 74.8159C128.786 74.5999 129.031 74.4728 129.291 74.4616C129.417 74.4507 129.544 74.4689 129.665 74.5151C129.785 74.5614 129.897 74.6347 129.992 74.7309C130.088 74.827 130.167 74.9442 130.223 75.0755C130.279 75.2068 130.312 75.3497 130.32 75.4959Z" fill="#263238"/>
<path d="M130.496 74.1168C130.373 74.2645 129.616 73.6243 128.548 73.6243C127.481 73.6243 126.692 74.2399 126.574 74.0983C126.457 73.9567 126.644 73.7597 126.985 73.4827C127.455 73.1074 128.015 72.9115 128.586 72.9224C129.143 72.9235 129.686 73.1259 130.138 73.5011C130.443 73.7782 130.555 74.0491 130.496 74.1168Z" fill="#263238"/>
<path d="M134.386 83.2839C134.95 83.0777 135.534 82.9556 136.125 82.9206C136.397 82.8898 136.659 82.8283 136.702 82.6128C136.726 82.2868 136.662 81.9601 136.52 81.677L135.709 79.2699C134.589 75.8469 133.772 73.0334 133.895 72.9841C134.018 72.9349 135.021 75.6683 136.147 79.0852C136.414 79.9347 136.68 80.7351 136.92 81.5046C137.09 81.8836 137.141 82.3186 137.064 82.7359C137.025 82.8484 136.964 82.9488 136.885 83.029C136.806 83.1092 136.713 83.1669 136.611 83.1977C136.46 83.2466 136.304 83.2714 136.147 83.2715C135.562 83.3592 134.971 83.3633 134.386 83.2839Z" fill="#263238"/>
<path d="M135.123 97.9115C131.468 97.9751 127.87 96.8669 124.729 94.7101C124.729 94.7101 127.252 100.867 135.021 100.023L135.123 97.9115Z" fill="#AA6550"/>
<path d="M133.912 86.2634C133.707 85.9666 133.441 85.7346 133.138 85.5892C132.834 85.4438 132.504 85.3898 132.177 85.4323C131.941 85.4583 131.712 85.5388 131.503 85.6688C131.294 85.7989 131.109 85.976 130.961 86.1895C130.818 86.3951 130.733 86.6466 130.717 86.9097C130.702 87.1729 130.757 87.4352 130.875 87.6609C131.049 87.8828 131.275 88.0404 131.526 88.1139C131.776 88.1873 132.04 88.1732 132.284 88.0734C132.789 87.864 133.253 87.5419 133.65 87.1253C133.772 87.0283 133.878 86.905 133.96 86.7621C133.999 86.6936 134.02 86.6133 134.02 86.5312C134.02 86.4491 133.999 86.3689 133.96 86.3004" fill="#AA6550"/>
<path d="M131.242 84.1149C131.413 84.1149 131.419 85.4447 132.411 86.3928C133.403 87.3409 134.647 87.1993 134.657 87.3902C134.657 87.4702 134.38 87.6487 133.857 87.6672C133.175 87.6765 132.512 87.4084 131.984 86.91C131.477 86.4355 131.151 85.7502 131.077 85.0015C131.024 84.4658 131.152 84.1149 131.242 84.1149Z" fill="#263238"/>
<path d="M130.976 71.9498C130.875 72.2884 129.802 72.1283 128.548 72.3069C127.294 72.4854 126.27 72.8733 126.105 72.5716C126.03 72.43 126.206 72.1098 126.638 71.7897C127.182 71.3833 127.802 71.1322 128.447 71.0571C129.091 70.9653 129.744 71.054 130.352 71.3157C130.789 71.5311 131.024 71.802 130.976 71.9498Z" fill="#263238"/>
<path d="M140.634 70.3061C140.442 70.5893 139.706 70.3061 138.82 70.3061C137.934 70.3061 137.182 70.4907 137.006 70.1952C136.931 70.0536 137.049 69.7766 137.38 69.5057C137.817 69.1793 138.332 69.0199 138.852 69.0501C139.373 69.0595 139.878 69.2553 140.298 69.6104C140.613 69.8813 140.714 70.1706 140.634 70.3061Z" fill="#263238"/>
<path d="M142.4 70.0844C141.045 62.4504 139.199 65.4732 137.113 61.8286C134.093 65.3562 127.14 69.4194 122.898 70.2198C122.458 70.2576 122.032 70.4159 121.655 70.6815C121.004 71.2418 120.951 72.3253 120.951 73.2672C121.035 75.9208 120.846 78.5766 120.385 81.1783C119.921 83.7955 118.763 86.1815 117.072 88.0058C114.51 81.7816 114.254 74.5416 115.401 67.7757C115.871 65.0114 116.661 62.1179 118.571 60.3879C119.937 59.1567 121.698 58.6272 123.416 58.264C127.658 57.3651 132.145 57.1496 136.184 58.8796C140.223 60.6096 143.361 62.7766 143.9 67.7141" fill="#263238"/>
<path d="M113.064 64.7221C113.335 64.9431 113.627 65.127 113.934 65.2701C114.278 65.4681 114.635 65.6348 115.001 65.7687L115.684 66.0458L116.474 66.2736C117.776 66.6304 119.106 66.8366 120.444 66.8892C123.729 67.0312 127.006 66.4029 130.075 65.0423C130.768 64.6852 131.441 64.3958 132.028 64.008L132.881 63.4785L133.639 62.9183C134.072 62.5987 134.486 62.2449 134.877 61.8594L135.368 61.4038L135.741 60.9667C135.985 60.7102 136.205 60.4255 136.398 60.1171C136.328 60.0309 135.384 61.2499 133.468 62.6166L132.716 63.1399L131.862 63.6324C131.281 64.0018 130.614 64.2481 129.931 64.6052C128.416 65.2411 126.856 65.7192 125.267 66.0335C123.68 66.3263 122.073 66.4601 120.465 66.4336C119.149 66.3988 117.838 66.2278 116.549 65.9226C114.35 65.3932 113.102 64.6236 113.064 64.7221Z" fill="#455A64"/>
<path d="M115.264 58.6888C115.464 58.9243 115.688 59.131 115.931 59.3044C116.203 59.5381 116.492 59.7441 116.795 59.9201L117.355 60.271L118.012 60.5911C120.442 61.6749 123.031 62.2079 125.636 62.161C128.227 62.1672 130.81 61.8347 133.336 61.1698C134.307 60.9174 135.081 60.665 135.604 60.4618C135.885 60.3845 136.156 60.2645 136.409 60.1048C136.409 60.0247 135.209 60.4003 133.277 60.8189C130.759 61.3744 128.2 61.6547 125.636 61.6562C123.081 61.6982 120.538 61.2252 118.124 60.2587C117.148 59.7918 116.193 59.2678 115.264 58.6888Z" fill="#455A64"/>
<path d="M139.118 56.7433C139.118 56.6879 138.852 56.6263 138.435 56.7433C137.895 56.9275 137.414 57.2937 137.055 57.7949C136.695 58.2961 136.474 58.9095 136.418 59.5568C136.392 60.0493 136.493 60.3387 136.547 60.3325C136.6 60.3263 136.621 59.1505 137.39 58.1162C138.158 57.0819 139.14 56.8849 139.118 56.7433Z" fill="#455A64"/>
<path d="M99.0148 66.3906C98.9586 66.2666 98.8804 66.1575 98.7854 66.0704C98.5157 65.7992 98.1806 65.6295 97.825 65.5841C97.2648 65.5068 96.6988 65.657 96.2242 66.0089C95.899 66.2468 95.638 66.5853 95.4711 66.9857C95.3042 67.3862 95.2379 67.8327 95.2798 68.2744C95.3309 68.8057 95.4931 69.3146 95.7524 69.7575C96.0118 70.2004 96.3604 70.564 96.7685 70.817C97.2531 71.078 97.7902 71.182 98.3221 71.118C98.8541 71.0541 99.3609 70.8245 99.7885 70.4538C100.262 70.075 100.646 69.5648 100.904 68.9701C101.149 68.3501 101.289 67.6812 101.315 67C101.395 65.6456 101.192 64.2789 101.405 62.9491C101.632 61.6954 102.131 60.5288 102.857 59.5594C103.582 58.59 104.509 57.8497 105.551 57.4083C106.409 57.0696 107.323 56.96 108.223 57.088C109.124 57.216 109.987 57.5781 110.748 58.1471C111.799 58.9048 112.649 59.9828 113.203 61.2622C113.587 62.1734 113.667 62.7459 113.736 62.7336C113.742 62.5943 113.728 62.4549 113.693 62.3211C113.625 61.9294 113.519 61.5475 113.379 61.1822C112.863 59.8209 112.013 58.6632 110.935 57.8516C110.191 57.2829 109.357 56.8915 108.48 56.7003C107.463 56.4864 106.416 56.5797 105.439 56.9712C104.323 57.426 103.327 58.2056 102.548 59.2345C101.77 60.2635 101.235 61.5069 100.994 62.8444C100.77 64.2974 100.994 65.6764 100.909 66.957C100.89 67.5737 100.767 68.1803 100.546 68.7423C100.326 69.2684 99.9935 69.7216 99.5804 70.0598C99.2118 70.3873 98.7739 70.5948 98.3122 70.6609C97.8506 70.7269 97.382 70.649 96.9552 70.4353C96.5942 70.2179 96.2837 69.9037 96.0497 69.5192C95.8157 69.1346 95.6652 68.6908 95.6106 68.2252C95.566 67.8432 95.6143 67.4545 95.7499 67.1023C95.8856 66.7501 96.1034 66.4483 96.379 66.2305C96.8078 65.8872 97.3258 65.7242 97.8463 65.7688C98.282 65.8324 98.6901 66.0495 99.0148 66.3906Z" fill="#263238"/>
<path d="M119.402 70.4292C119.666 70.5 119.938 70.5249 120.208 70.5031C120.742 70.5031 121.483 70.5031 122.417 70.5031C124.86 70.4561 127.283 69.9743 129.599 69.0748C131.94 68.1355 133.984 66.4095 135.468 64.1189C135.903 63.4217 136.253 62.6595 136.509 61.8533C136.616 61.5634 136.685 61.256 136.712 60.9421C136.295 61.9829 135.795 62.9764 135.218 63.9095C133.712 66.0633 131.714 67.6882 129.45 68.6008C127.171 69.4801 124.8 70.0019 122.401 70.1522C121.398 70.1809 120.397 70.2734 119.402 70.4292Z" fill="#263238"/>
<path d="M108.385 92.3092C108.385 92.3092 108.411 92.6724 108.753 93.1588C109.004 93.4953 109.312 93.7693 109.658 93.9641C110.004 94.1589 110.38 94.2703 110.765 94.2916C111.915 94.3273 113.032 93.841 113.875 92.9372C114.408 92.4088 114.747 91.6676 114.825 90.8624C114.867 90.4142 114.793 89.9617 114.613 89.5618C114.432 89.162 114.154 88.8326 113.811 88.6153C113.442 88.4175 113.02 88.3943 112.636 88.5508C112.252 88.7073 111.937 89.031 111.757 89.4526C111.686 89.6634 111.656 89.8899 111.67 90.1156C111.684 90.3413 111.741 90.5607 111.837 90.7578C112.005 91.1273 112.273 91.4235 112.6 91.6012C113.188 91.8865 113.849 91.8997 114.446 91.6381C114.952 91.4355 115.407 91.0955 115.775 90.647C116.314 90.0179 116.661 89.203 116.762 88.326C116.819 88.0127 116.803 87.6874 116.714 87.384C116.677 87.384 116.714 87.7226 116.596 88.2952C116.438 89.0974 116.078 89.8277 115.561 90.3945C115.214 90.7848 114.792 91.0739 114.329 91.238C113.824 91.4452 113.269 91.4254 112.776 91.1826C112.528 91.0574 112.327 90.8321 112.212 90.5488C112.098 90.2656 112.076 89.9437 112.152 89.6434C112.29 89.3507 112.52 89.1291 112.794 89.023C113.068 88.9168 113.366 88.9339 113.63 89.0709C113.892 89.2473 114.104 89.5075 114.24 89.82C114.376 90.1325 114.431 90.4839 114.398 90.8316C114.328 91.5154 114.043 92.1459 113.598 92.6047C112.836 93.4424 111.828 93.9173 110.775 93.9345C110.066 93.9214 109.387 93.5979 108.876 93.0295C108.523 92.6109 108.422 92.2907 108.385 92.3092Z" fill="#263238"/>
<path d="M152.902 201.241C152.902 201.328 133.533 201.401 109.645 201.401C85.7569 201.401 66.3828 201.328 66.3828 201.241C66.3828 201.155 85.7463 201.081 109.645 201.081C133.544 201.081 152.902 201.155 152.902 201.241Z" fill="#455A64"/>
<path d="M39.5873 165.503C40.5153 165.678 41.4031 166.067 42.1972 166.648C42.9913 167.229 43.6753 167.989 44.2081 168.883C45.265 170.679 45.9513 172.73 46.2143 174.879C46.8226 179.004 45.8675 183.695 44.5549 187.593C40.8999 185.635 38.9364 180.771 38.088 178.179C36.7327 174.141 36.4125 165.866 39.5873 165.503Z" fill="#FF725E"/>
<path d="M49.6075 193.084C49.1211 192.009 48.89 190.805 48.9378 189.594C48.9856 188.383 49.3106 187.208 49.8796 186.189C50.4636 185.183 51.2147 184.321 52.0893 183.652C52.964 182.983 53.9448 182.521 54.9753 182.292C55.925 182.064 57.0028 182.046 57.7552 182.747C58.091 183.101 58.3384 183.552 58.4717 184.053C58.605 184.555 58.6192 185.088 58.5129 185.598C58.291 186.615 57.8379 187.546 57.2003 188.294C55.1247 190.936 52.7022 193.084 49.6075 193.084Z" fill="#FF725E"/>
<path d="M48.9351 206.548C48.8765 206.268 48.8425 205.981 48.8337 205.693C48.7803 205.077 48.711 204.301 48.6256 203.359C48.3313 200.78 48.4016 198.162 48.8337 195.608C49.3029 193.045 50.3544 190.672 51.8804 188.732C52.3494 188.157 52.876 187.648 53.4491 187.217C53.6036 187.098 53.7639 186.989 53.9293 186.891C53.9839 186.85 54.0432 186.819 54.1054 186.798C53.3513 187.41 52.6524 188.107 52.0191 188.879C50.5648 190.817 49.5573 193.146 49.0898 195.651C48.4975 198.588 48.7163 201.352 48.8123 203.316C48.871 204.301 48.9137 205.108 48.9351 205.662C48.9571 205.957 48.9571 206.253 48.9351 206.548Z" fill="#263238"/>
<path d="M40.3184 171.758C40.3671 171.869 40.4081 171.984 40.4411 172.103C40.5211 172.368 40.6278 172.719 40.7559 173.113C41.0173 173.993 41.3908 175.274 41.823 176.862C42.7141 180.032 43.8933 184.428 45.1045 189.323C46.3157 194.217 47.3189 198.674 48.0072 201.906C48.354 203.525 48.6208 204.837 48.7969 205.748C48.8822 206.179 48.9463 206.524 48.9943 206.795C49.0243 206.917 49.0422 207.043 49.0477 207.17C49.0062 207.054 48.9723 206.935 48.9463 206.813L48.7008 205.779C48.4874 204.837 48.1673 203.544 47.8258 201.962C47.0948 198.742 46.0596 194.297 44.8537 189.403C43.6479 184.508 42.49 180.112 41.6523 176.923C41.2361 175.36 40.9 174.079 40.6492 173.15C40.5425 172.731 40.4571 172.386 40.3877 172.121C40.3514 172.004 40.3281 171.882 40.3184 171.758Z" fill="#263238"/>
<path d="M45.1632 197.172C44.2054 194.871 42.7863 192.866 41.0233 191.323C39.2604 189.78 37.2043 188.744 35.0253 188.301C33.9155 188.085 32.5549 188.159 31.9626 189.261C31.3703 190.363 31.9306 191.81 32.6136 192.844C34.0757 194.969 36.0501 196.547 38.2881 197.379C40.526 198.212 42.9274 198.262 45.1899 197.523" fill="#FF725E"/>
<path d="M36.4395 191.927C36.673 191.937 36.9052 191.972 37.1332 192.031C37.4046 192.08 37.6736 192.146 37.9389 192.228C38.2484 192.333 38.6112 192.407 39.006 192.573C39.4287 192.73 39.8437 192.913 40.2493 193.121C40.7164 193.349 41.1724 193.605 41.6152 193.891C42.6313 194.555 43.5798 195.347 44.4432 196.255C45.2889 197.179 46.0408 198.212 46.6842 199.333C46.9622 199.827 47.2151 200.338 47.4419 200.866C47.646 201.318 47.8242 201.785 47.9754 202.263C48.1117 202.654 48.2293 203.052 48.3276 203.458C48.414 203.758 48.4835 204.064 48.5357 204.375C48.5953 204.637 48.6346 204.905 48.6531 205.175C48.5944 205.175 48.4183 204.049 47.8047 202.343C47.6385 201.876 47.4496 201.42 47.2391 200.977C47.0088 200.464 46.7541 199.967 46.4761 199.487C45.2015 197.276 43.4944 195.441 41.4925 194.131C41.0588 193.84 40.6117 193.577 40.1532 193.343C39.7317 193.103 39.3155 192.936 38.942 192.77C37.4213 192.161 36.4289 191.994 36.4395 191.927Z" fill="#263238"/>
<path d="M169.346 5.92796C165.277 5.61154 161.205 6.51307 157.526 8.54523C153.847 10.5774 150.686 13.6713 148.347 17.5273C146.009 21.3834 144.573 25.8708 144.179 30.555C143.785 35.2391 144.446 39.9614 146.098 44.2642C148.852 51.4488 154.187 57.0265 156.54 64.4142C158.141 69.4502 158.28 75.0033 159.929 80.0208C163.317 90.3391 173.663 96.9018 183.027 94.6794C188.651 93.3496 193.699 89.2925 199.44 88.88C205.587 88.4367 212.587 92.0444 217.459 87.6856C220.863 84.6382 221.439 78.7896 220.207 74.0306C218.974 69.2717 216.317 65.2084 214.135 60.9235C211.952 56.6386 210.175 51.6889 210.987 46.8068C211.718 42.3803 214.439 38.8034 216.146 34.7463C217.757 30.9317 218.468 26.6951 218.209 22.4626C217.95 18.23 216.73 14.1508 214.671 10.635C212.612 7.11934 209.787 4.29116 206.48 2.43494C203.173 0.578716 199.501 -0.240089 195.833 0.0608668C190.945 0.461036 186.362 2.8128 181.661 4.37038C176.96 5.92796 174.607 6.13728 169.346 5.92796Z" fill="#F5F5F5"/>
<path d="M181.069 24.0217C181.069 24.0217 172.025 23.9171 168.914 32.9855C165.803 42.054 169.367 46.4312 170.76 49.0969C172.153 51.7627 175.893 57.5621 175.925 63.029L188.075 62.9366C188.705 58.0975 190.155 53.449 192.343 49.257C195.977 42.2756 195.545 37.1842 194.552 34.1429C193.56 31.1016 190.321 23.5723 181.069 24.0217Z" fill="#FF725E"/>
<path d="M183.827 62.5673L183.795 62.3457C183.795 62.1918 183.747 61.9825 183.71 61.73C183.635 61.1513 183.534 60.3202 183.401 59.2675C183.15 57.1189 182.776 53.9975 182.542 50.119C182.483 49.1463 182.435 48.1304 182.408 47.0408C182.381 45.9511 182.36 44.8737 182.408 43.7286C182.45 42.5334 182.691 41.3587 183.118 40.2687C183.583 39.097 184.405 38.1635 185.428 37.646C185.978 37.396 186.578 37.3345 187.158 37.4688C187.737 37.6032 188.27 37.9276 188.694 38.4033C188.913 38.6508 189.086 38.9469 189.204 39.2739C189.321 39.6008 189.38 39.9517 189.377 40.3056C189.357 41.0256 189.137 41.719 188.747 42.2818C188.363 42.8557 187.863 43.3123 187.29 43.6116C186.721 43.9185 186.12 44.1419 185.503 44.2765C184.251 44.5632 182.98 44.7198 181.704 44.7444C180.43 44.7844 179.156 44.6999 177.894 44.492C177.272 44.3787 176.666 44.1717 176.091 43.8763C175.523 43.5865 175.011 43.1677 174.586 42.6451C174.165 42.1275 173.87 41.4901 173.732 40.7981C173.606 40.1045 173.686 39.3818 173.962 38.748C174.222 38.1182 174.674 37.6208 175.232 37.3505C175.508 37.2354 175.802 37.1859 176.095 37.2049C176.388 37.2239 176.676 37.3112 176.939 37.4613C177.449 37.7507 177.884 38.1877 178.204 38.7295C178.5 39.2396 178.715 39.8067 178.839 40.4041C179.016 41.5709 179.107 42.7532 179.111 43.9379C179.196 46.222 179.276 48.3459 179.345 50.2914C179.484 54.1638 179.591 57.3036 179.671 59.4829C179.703 60.5665 179.73 61.4038 179.751 61.9825C179.751 62.2657 179.751 62.4811 179.751 62.635C179.751 62.789 179.751 62.8567 179.751 62.8567V62.635C179.751 62.4811 179.751 62.2657 179.719 62.0194C179.719 61.4407 179.65 60.5973 179.602 59.5199C179.511 57.3405 179.383 54.2007 179.217 50.3283C179.143 48.389 179.052 46.2589 178.961 43.981C178.955 42.8064 178.862 41.6345 178.684 40.478C178.574 39.8837 178.369 39.318 178.081 38.8096C177.779 38.2964 177.365 37.8844 176.88 37.6152C176.638 37.4754 176.373 37.3939 176.103 37.3759C175.832 37.3579 175.561 37.4038 175.306 37.5106C174.791 37.7625 174.375 38.2251 174.138 38.8096C173.879 39.4009 173.804 40.0766 173.924 40.7242C174.055 41.3867 174.337 41.9968 174.741 42.4911C175.6 43.4937 176.729 44.1315 177.942 44.3011C179.191 44.5096 180.453 44.5941 181.714 44.5536C182.978 44.5286 184.237 44.3741 185.476 44.0918C186.08 43.9603 186.668 43.7432 187.226 43.4454C187.767 43.166 188.244 42.7443 188.619 42.2141C188.982 41.6868 189.189 41.0398 189.211 40.3672C189.215 40.0398 189.161 39.7149 189.053 39.4123C188.945 39.1096 188.784 38.8355 188.582 38.6064C188.183 38.1591 187.681 37.8538 187.136 37.7271C186.591 37.6005 186.026 37.6578 185.508 37.8923C184.523 38.3892 183.73 39.2849 183.278 40.4103C182.86 41.4795 182.623 42.6308 182.579 43.8025C182.515 44.9353 182.542 46.0373 182.579 47.0962C182.616 48.1551 182.648 49.1709 182.696 50.1375C182.915 54.016 183.273 57.1312 183.502 59.2921L183.774 61.7547C183.803 62.0297 183.824 62.2451 183.838 62.4011C183.837 62.4567 183.833 62.5121 183.827 62.5673Z" fill="#263238"/>
<path d="M175.92 62.8259L188.112 62.6043L188.245 71.4942L184.703 76.3701L180.028 76.5979L176.069 71.1433L175.92 62.8259Z" fill="#E0E0E0"/>
<path d="M184.701 76.37C184.384 75.9957 184.003 75.7008 183.583 75.5038C183.162 75.3068 182.711 75.2119 182.258 75.2249C181.81 75.257 181.372 75.3974 180.974 75.6371C180.576 75.8768 180.226 76.2104 179.947 76.6163L184.701 76.37Z" fill="#455A64"/>
<path d="M187.919 70.7615C187.765 70.7097 187.616 70.6374 187.476 70.546C187.199 70.3921 186.788 70.1889 186.271 69.9735C183.542 68.8524 180.552 68.9247 177.867 70.1766C177.36 70.4167 176.954 70.6384 176.682 70.7923C176.543 70.8835 176.399 70.9637 176.25 71.0324C176.371 70.9106 176.503 70.8053 176.645 70.7184C177.022 70.4554 177.414 70.223 177.819 70.0227C180.517 68.671 183.568 68.598 186.313 69.8196C186.722 69.9958 187.122 70.2014 187.508 70.4352C187.653 70.5306 187.79 70.6397 187.919 70.7615Z" fill="#263238"/>
<path d="M187.937 68.6068C187.785 68.5446 187.637 68.4706 187.494 68.3851C187.217 68.2374 186.806 68.0281 186.288 67.8188C184.935 67.2691 183.507 67.0022 182.073 67.0307C180.636 67.0677 179.217 67.4035 177.884 68.0219C177.351 68.2559 176.972 68.4836 176.7 68.6376C176.564 68.7366 176.419 68.8172 176.268 68.8777C176.392 68.761 176.524 68.656 176.662 68.5637C177.041 68.3056 177.433 68.0753 177.836 67.8742C180.535 66.5224 183.586 66.4494 186.331 67.671C186.742 67.842 187.141 68.0478 187.526 68.2866C187.674 68.3741 187.811 68.4816 187.937 68.6068Z" fill="#263238"/>
<path d="M187.839 66.5506C187.687 66.4967 187.541 66.4245 187.402 66.3351C187.119 66.1812 186.708 65.978 186.19 65.7625C184.837 65.2117 183.41 64.9448 181.975 64.9745C180.541 65.0175 179.125 65.353 177.792 65.9657C177.258 66.2058 176.88 66.4274 176.607 66.5813C176.467 66.6749 176.321 66.7552 176.17 66.8214C176.292 66.6989 176.426 66.5935 176.57 66.5075C176.946 66.2455 177.336 66.0131 177.739 65.8118C180.44 64.4623 183.491 64.3894 186.238 65.6086C186.648 65.7849 187.047 65.9905 187.434 66.2243C187.577 66.3183 187.713 66.4275 187.839 66.5506Z" fill="#263238"/>
<g opacity="0.2">
<path d="M174.463 49.1154C174.297 49.3309 173.876 49.2939 173.267 48.9307C172.433 48.3843 171.707 47.6443 171.133 46.7575C170.257 45.4426 169.62 43.937 169.26 42.331C168.793 40.3185 168.75 38.206 169.136 36.1707C169.522 34.1353 170.326 32.2366 171.48 30.6337C172.386 29.3453 173.51 28.2832 174.783 27.5124C175.621 26.9823 176.546 26.6595 177.499 26.5643C178.176 26.5274 178.566 26.6936 178.651 26.9706C178.806 27.5863 177.669 28.4112 176.314 29.9996C175.532 30.8985 174.843 31.8984 174.26 32.9793C173.573 34.2457 173.076 35.6357 172.787 37.0918C172.525 38.5537 172.473 40.0554 172.632 41.5368C172.774 42.7985 173.039 44.0376 173.422 45.2307C174.084 47.33 174.815 48.6475 174.463 49.1154Z" fill="white"/>
</g>
<g opacity="0.2">
<path d="M178.358 54.0899C178.323 54.4695 178.193 54.8292 177.984 55.1251C177.775 55.4211 177.496 55.6405 177.181 55.7568C176.865 55.8731 176.528 55.8813 176.209 55.7802C175.89 55.6792 175.603 55.4733 175.383 55.1877C175.164 54.9021 175.021 54.549 174.972 54.1713C174.923 53.7937 174.97 53.4079 175.108 53.0607C175.246 52.7135 175.468 52.42 175.747 52.2158C176.027 52.0116 176.352 51.9055 176.683 51.9105C177.154 51.947 177.594 52.196 177.908 52.6039C178.221 53.0117 178.383 53.5455 178.358 54.0899Z" fill="white"/>
</g>
<path d="M166.487 27.3093C166.455 27.3524 164.886 26.078 163.029 24.428C161.173 22.7781 159.657 21.4175 159.684 21.3498C159.711 21.2821 161.285 22.5811 163.142 24.231C164.998 25.881 166.519 27.26 166.487 27.3093Z" fill="#263238"/>
<path d="M169.042 23.3999C168.515 22.814 168.031 22.1776 167.596 21.4976C167.113 20.8649 166.676 20.1874 166.289 19.4721C166.819 20.0571 167.305 20.6935 167.74 21.3744C168.224 22.0048 168.66 22.6825 169.042 23.3999Z" fill="#263238"/>
<path d="M174.606 22.5011C174.558 22.5011 173.939 20.5372 173.224 18.0746C172.509 15.612 171.971 13.5927 172.019 13.5742C172.067 13.5558 172.686 15.5381 173.401 18.0007C174.116 20.4633 174.654 22.4826 174.606 22.5011Z" fill="#263238"/>
<path d="M181.442 20.7958C181.263 20.063 181.141 19.3129 181.079 18.5548C180.957 17.8059 180.898 17.0451 180.903 16.2831C181.083 17.0157 181.205 17.7658 181.266 18.524C181.388 19.2729 181.447 20.0337 181.442 20.7958Z" fill="#263238"/>
<path d="M188.148 23.4676C188.095 23.4676 188.613 21.1097 189.301 18.2346C189.989 15.3596 190.592 13.0386 190.64 13.0571C190.688 13.0755 190.171 15.415 189.482 18.29C188.794 21.1651 188.196 23.4861 188.148 23.4676Z" fill="#263238"/>
<path d="M193.801 26.6874C194.127 25.9219 194.507 25.1889 194.937 24.4958C195.314 23.7638 195.746 23.0716 196.229 22.4272C195.903 23.1927 195.523 23.9258 195.092 24.6189C194.715 25.3509 194.283 26.0431 193.801 26.6874Z" fill="#263238"/>
<path d="M202.742 25.3393C202.769 25.3885 201.2 26.7553 199.231 28.4175C197.263 30.0797 195.646 31.348 195.614 31.2987C195.582 31.2495 197.156 29.8827 199.125 28.2205C201.094 26.5583 202.742 25.29 202.742 25.3393Z" fill="#263238"/>
</svg>
