<svg width="288" height="260" viewBox="0 0 288 260" fill="none" xmlns="http://www.w3.org/2000/svg">
<path d="M275.944 21.1629C272.246 19.218 270.564 20.8388 269.216 19.218C267.867 17.5971 272.914 13.4543 262.827 9.29203C262.827 9.29203 262.146 0.325625 248.368 0.00794384C234.59 -0.309738 238.282 8.99379 234.577 11.237C230.872 13.4802 229.871 9.94036 226.173 12.1965C222.474 14.4527 224.129 18.9197 221.126 19.5616C218.122 20.2034 214.063 16.683 210.365 18.9132C206.667 21.1435 206.667 23.0755 204.985 23.0755C203.303 23.0755 199.938 21.7789 197.922 23.0755C195.906 24.3722 193.55 25.9606 193.55 25.9606H278.635C278.635 25.9606 279.643 23.082 275.944 21.1629Z" fill="#92E3A9"/>
<g opacity="0.5">
<path d="M275.944 21.1629C272.246 19.218 270.564 20.8388 269.216 19.218C267.867 17.5971 272.914 13.4543 262.827 9.29203C262.827 9.29203 262.146 0.325625 248.368 0.00794384C234.59 -0.309738 238.282 8.99379 234.577 11.237C230.872 13.4802 229.871 9.94036 226.173 12.1965C222.474 14.4527 224.129 18.9197 221.126 19.5616C218.122 20.2034 214.063 16.683 210.365 18.9132C206.667 21.1435 206.667 23.0755 204.985 23.0755C203.303 23.0755 199.938 21.7789 197.922 23.0755C195.906 24.3722 193.55 25.9606 193.55 25.9606H278.635C278.635 25.9606 279.643 23.082 275.944 21.1629Z" fill="white"/>
</g>
<path d="M228.809 61.5149C226.541 60.3414 225.512 61.3204 224.722 60.3414C223.932 59.3624 226.99 56.8145 220.813 54.2666C220.813 54.2666 220.404 48.7817 211.959 48.5872C203.514 48.3927 205.789 54.072 203.521 55.4465C201.253 56.821 200.64 54.662 198.379 56.03C196.118 57.398 197.146 60.1469 195.294 60.5359C193.441 60.9249 190.969 58.7724 188.708 60.1469C186.447 61.5214 186.44 62.6884 185.411 62.6884C184.383 62.6884 182.326 61.9104 181.094 62.6884C179.861 63.4664 178.417 64.4518 178.417 64.4518H230.45C230.45 64.4518 231.07 62.6884 228.809 61.5149Z" fill="#92E3A9"/>
<g opacity="0.5">
<path d="M228.809 61.5149C226.541 60.3414 225.512 61.3204 224.722 60.3414C223.932 59.3624 226.99 56.8145 220.813 54.2666C220.813 54.2666 220.404 48.7817 211.959 48.5872C203.514 48.3927 205.789 54.072 203.521 55.4465C201.253 56.821 200.64 54.662 198.379 56.03C196.118 57.398 197.146 60.1469 195.294 60.5359C193.441 60.9249 190.969 58.7724 188.708 60.1469C186.447 61.5214 186.44 62.6884 185.411 62.6884C184.383 62.6884 182.326 61.9104 181.094 62.6884C179.861 63.4664 178.417 64.4518 178.417 64.4518H230.45C230.45 64.4518 231.07 62.6884 228.809 61.5149Z" fill="white"/>
</g>
<path d="M126.384 125.233C126.384 125.233 144.255 126.912 153.313 137.46C153.313 137.46 162.882 125.239 180.072 125.492C184.27 120.669 186.942 114.81 187.778 108.597C188.613 102.384 187.578 96.0726 184.792 90.3981C182.007 84.7235 177.585 79.9189 172.042 76.5436C166.499 73.1683 160.063 71.3612 153.484 71.3326C146.904 71.304 140.451 73.0551 134.876 76.382C129.301 79.709 124.833 84.475 121.993 90.1251C119.153 95.7752 118.057 102.077 118.833 108.297C119.609 114.517 122.225 120.399 126.377 125.259L126.384 125.233Z" fill="#92E3A9"/>
<path opacity="0.5" d="M126.384 125.233C126.384 125.233 144.255 126.912 153.313 137.46C153.313 137.46 162.882 125.239 180.072 125.492C184.27 120.669 186.942 114.81 187.778 108.597C188.613 102.384 187.578 96.0726 184.792 90.3981C182.007 84.7235 177.585 79.9189 172.042 76.5436C166.499 73.1683 160.063 71.3612 153.484 71.3326C146.904 71.304 140.451 73.0551 134.876 76.382C129.301 79.709 124.833 84.475 121.993 90.1251C119.153 95.7752 118.057 102.077 118.833 108.297C119.609 114.517 122.225 120.399 126.377 125.259L126.384 125.233Z" fill="white"/>
<path d="M152.72 73.6516L152.121 246.263H155.138L152.72 73.6516Z" fill="#828282"/>
<path d="M153.627 134.245C153.627 134.245 159.661 123.904 170.524 120.746C170.524 120.746 159.055 123.34 153.327 132.235L153.627 134.245Z" fill="#828282"/>
<path d="M152.973 105.232C152.973 105.232 159.661 94.6122 170.524 91.4548C170.524 91.4548 158.7 94.6964 152.973 103.598V105.232Z" fill="#828282"/>
<path d="M153.204 120.338C153.204 120.338 159.661 109.258 170.524 106.075C170.524 106.075 158.782 109.174 153.048 118.075L153.204 120.338Z" fill="#828282"/>
<path d="M152.734 112.422C152.734 112.422 146.911 102.081 136.43 98.9235C136.43 98.9235 147.49 101.517 153.027 110.412L152.734 112.422Z" fill="#828282"/>
<path d="M152.734 126.776C152.734 126.776 146.911 116.442 136.43 113.284C136.43 113.284 147.49 115.878 153.027 124.766L152.734 126.776Z" fill="#828282"/>
<path d="M23.8028 100.064C23.8028 100.064 55.0158 103.001 70.8368 121.42C70.8368 121.42 87.5501 100.084 117.571 100.525C124.907 92.0998 129.578 81.8645 131.039 71.0106C132.501 60.1567 130.694 49.1308 125.828 39.2167C120.963 29.3026 113.239 20.9082 103.556 15.011C93.8727 9.11373 82.629 5.95625 71.134 5.90618C59.6389 5.85612 48.3654 8.91553 38.6261 14.7282C28.8868 20.5409 21.0824 28.8676 16.1216 38.7389C11.1608 48.6102 9.24779 59.6199 10.6053 70.4861C11.9627 81.3523 16.5348 91.6278 23.7892 100.116L23.8028 100.064Z" fill="#92E3A9"/>
<path opacity="0.3" d="M23.8028 100.064C23.8028 100.064 55.0158 103.001 70.8368 121.42C70.8368 121.42 87.5501 100.084 117.571 100.525C124.907 92.0998 129.578 81.8645 131.039 71.0106C132.501 60.1567 130.694 49.1308 125.828 39.2167C120.963 29.3026 113.239 20.9082 103.556 15.011C93.8727 9.11373 82.629 5.95625 71.134 5.90618C59.6389 5.85612 48.3654 8.91553 38.6261 14.7282C28.8868 20.5409 21.0824 28.8676 16.1216 38.7389C11.1608 48.6102 9.24779 59.6199 10.6053 70.4861C11.9627 81.3523 16.5348 91.6278 23.7892 100.116L23.8028 100.064Z" fill="white"/>
<path d="M69.8017 9.98563L68.7461 246.263H74.0175L69.8017 9.98563Z" fill="#828282"/>
<path d="M71.3818 115.813C71.3818 115.813 81.9178 97.7568 100.885 92.2395C100.885 92.2395 80.869 96.7778 70.8574 112.299L71.3818 115.813Z" fill="#828282"/>
<path d="M70.5918 65.6576C70.5918 65.6576 81.9178 46.5967 100.885 41.0794C100.885 41.0794 80.6783 46.3114 70.6667 61.8584L70.5918 65.6576Z" fill="#828282"/>
<path d="M70.9051 90.8778C70.9051 90.8778 81.9178 72.1735 100.872 66.6562C100.872 66.6562 80.8553 71.1945 70.8438 86.722L70.9051 90.8778Z" fill="#828282"/>
<path d="M69.8218 77.6909C69.8218 77.6909 59.6536 59.6349 41.3535 54.1176C41.3535 54.1176 60.6684 58.6559 70.3258 74.1834L69.8218 77.6909Z" fill="#828282"/>
<path d="M69.8218 102.768C69.8218 102.768 59.6536 84.7121 41.3535 79.1948C41.3535 79.1948 60.6684 83.7331 70.3258 99.293L69.8218 102.768Z" fill="#828282"/>
<path d="M248.124 158.648C248.09 158.648 248.526 156.58 248.573 156.456C249.077 154.972 250.964 152.398 252.789 152.404C253.093 152.413 253.391 152.482 253.665 152.607C253.939 152.733 254.182 152.912 254.378 153.132C254.574 153.353 254.719 153.611 254.803 153.889C254.887 154.167 254.909 154.459 254.866 154.745C254.737 155.964 253.586 157.008 252.537 157.611C251.318 158.317 248.124 158.648 248.124 158.648Z" fill="#92E3A9"/>
<path d="M244.582 144.709C246.305 145.292 247.157 148.326 247.102 149.895C247.102 150.025 246.775 152.119 246.741 152.106H246.707C246.85 152.586 246.993 153.098 247.136 153.662C247.395 154.706 247.674 155.892 247.892 157.196C248.139 158.601 248.301 160.019 248.376 161.442C248.473 163.034 248.416 164.632 248.205 166.214C248.205 166.214 248.205 166.253 248.205 166.272C248.43 165.805 249.104 164.535 249.173 164.444C250.065 163.147 252.578 161.131 254.362 161.591C254.653 161.675 254.922 161.817 255.152 162.007C255.382 162.197 255.567 162.43 255.695 162.693C255.824 162.955 255.893 163.24 255.898 163.53C255.903 163.819 255.844 164.106 255.724 164.373C255.261 165.52 253.858 166.233 252.687 166.551C251.359 166.914 248.41 166.486 248.178 166.454C247.927 168.059 247.563 169.647 247.088 171.206C246.823 172.12 246.516 173.028 246.203 173.935L246.632 173.144C247.531 171.848 250.038 169.831 251.829 170.298C252.12 170.382 252.389 170.524 252.618 170.714C252.848 170.904 253.033 171.137 253.162 171.4C253.29 171.662 253.359 171.947 253.364 172.237C253.369 172.526 253.31 172.813 253.191 173.08C252.721 174.221 251.325 174.94 250.146 175.258C248.968 175.576 246.435 175.258 245.767 175.174L245.399 176.218C244.793 177.877 244.187 179.537 243.636 181.177C243.445 181.754 243.281 182.331 243.111 182.908C243.295 182.558 243.452 182.26 243.486 182.26C244.378 180.963 246.891 178.947 248.675 179.407C248.966 179.492 249.235 179.633 249.465 179.823C249.695 180.013 249.88 180.246 250.008 180.509C250.137 180.771 250.206 181.056 250.211 181.346C250.216 181.635 250.157 181.922 250.037 182.189C249.574 183.336 248.171 184.049 247 184.367C245.829 184.685 243.533 184.406 242.737 184.302C242.58 184.899 242.423 185.495 242.307 186.079C242.233 186.481 242.13 186.857 242.076 187.265C242.021 187.673 241.96 188.062 241.906 188.458C241.824 189.217 241.729 190.001 241.667 190.747C241.626 191.265 241.592 191.758 241.551 192.251C241.735 191.674 242.124 190.552 242.171 190.461C242.816 189.24 243.777 188.196 244.964 187.427C245.032 187.29 245.112 187.157 245.202 187.032C245.367 186.789 245.584 186.582 245.839 186.424C246.094 186.267 246.381 186.162 246.681 186.118C246.981 186.073 247.288 186.089 247.581 186.165C247.874 186.241 248.147 186.375 248.383 186.558C249.745 187.693 249.425 190.818 248.784 192.251C248.75 192.335 248.233 193.204 247.899 193.748C248.144 193.457 248.383 193.171 248.641 192.873C249.152 192.283 249.677 191.706 250.242 191.084L251.093 190.202C251.372 189.897 251.713 189.612 252.019 189.32C252.755 188.672 253.525 188.024 254.321 187.375C253.783 186.947 251.87 185.43 251.325 184.373C250.78 183.317 250.385 181.864 250.957 180.762C251.083 180.499 251.265 180.264 251.493 180.073C251.72 179.881 251.988 179.738 252.277 179.651C252.567 179.564 252.873 179.536 253.174 179.569C253.476 179.602 253.767 179.695 254.029 179.842C255.575 180.762 255.731 183.9 255.329 185.404C255.329 185.502 254.887 186.552 254.648 187.122C255.132 186.746 255.609 186.364 256.113 185.994C257.556 184.931 259.055 183.9 260.546 182.856C261.003 182.545 261.452 182.208 261.908 181.897C261.711 181.748 259.402 179.952 258.789 178.804C258.244 177.767 257.849 176.302 258.421 175.2C258.54 174.936 258.714 174.7 258.934 174.504C259.153 174.309 259.414 174.159 259.697 174.064C259.981 173.97 260.283 173.933 260.582 173.955C260.882 173.978 261.174 174.059 261.438 174.195C262.984 175.122 263.141 178.253 262.739 179.764C262.739 179.874 262.113 181.385 261.936 181.761C262.937 181.061 263.917 180.347 264.864 179.608C266.141 178.614 267.349 177.542 268.481 176.399C268.392 176.328 265.968 174.454 265.341 173.287C264.796 172.25 264.401 170.785 264.973 169.682C265.099 169.419 265.282 169.185 265.509 168.993C265.736 168.801 266.003 168.657 266.293 168.57C266.582 168.483 266.888 168.454 267.189 168.486C267.491 168.518 267.783 168.61 268.045 168.755C269.591 169.682 269.747 172.82 269.346 174.324C269.346 174.422 268.862 175.576 268.63 176.12L268.719 176.172C269.827 174.993 270.821 173.722 271.688 172.373C272.179 171.64 272.601 170.908 272.996 170.195C272.512 169.89 270.272 168.502 269.591 167.485C268.91 166.467 268.372 165.092 268.808 163.938C268.904 163.661 269.062 163.407 269.269 163.192C269.477 162.977 269.73 162.807 270.012 162.692C270.294 162.576 270.598 162.519 270.904 162.524C271.211 162.529 271.513 162.595 271.791 162.719C273.439 163.478 273.95 166.609 273.725 168.12C273.725 168.204 273.493 169.041 273.316 169.65C273.493 169.326 273.677 169.002 273.834 168.671C274.44 167.485 274.91 166.369 275.325 165.371C275.55 164.8 275.748 164.282 275.925 163.796C275.611 163.264 274.358 161.111 274.236 159.906C274.113 158.7 274.31 157.247 275.264 156.418C275.48 156.214 275.739 156.056 276.023 155.954C276.308 155.852 276.612 155.809 276.915 155.827C277.219 155.844 277.515 155.923 277.784 156.057C278.054 156.191 278.29 156.378 278.479 156.606C279.568 157.999 278.526 160.975 277.58 162.246C277.498 162.356 276.013 163.932 276 163.899V163.867C275.843 164.34 275.659 164.846 275.455 165.39C275.066 166.395 274.617 167.53 274.038 168.736C273.432 170.036 272.75 171.302 271.995 172.529C271.149 173.905 270.176 175.207 269.087 176.418L269.046 176.464C269.502 176.198 270.803 175.485 270.905 175.446C272.41 174.83 275.673 174.486 276.885 175.796C277.079 176.019 277.221 176.279 277.302 176.557C277.383 176.836 277.402 177.128 277.357 177.414C277.312 177.701 277.205 177.975 277.041 178.219C276.878 178.462 276.662 178.671 276.408 178.83C275.353 179.537 273.772 179.401 272.608 179.051C271.3 178.649 269.08 176.749 268.91 176.6C267.77 177.808 266.546 178.94 265.246 179.991C264.496 180.639 263.713 181.21 262.923 181.8L263.74 181.365C265.246 180.756 268.508 180.406 269.727 181.722C269.92 181.945 270.062 182.204 270.143 182.483C270.223 182.761 270.242 183.053 270.196 183.339C270.15 183.624 270.042 183.898 269.878 184.141C269.714 184.384 269.497 184.591 269.243 184.75C268.188 185.463 266.608 185.32 265.443 184.97C264.278 184.62 262.344 183.025 261.84 182.604L260.928 183.252C259.463 184.322 257.992 185.385 256.582 186.494C256.085 186.876 255.615 187.265 255.139 187.661L255.82 187.285C257.318 186.669 260.587 186.325 261.799 187.635C261.992 187.858 262.133 188.118 262.214 188.396C262.295 188.675 262.313 188.967 262.269 189.252C262.224 189.538 262.116 189.812 261.953 190.056C261.79 190.3 261.576 190.509 261.323 190.669C260.267 191.375 258.687 191.239 257.522 190.889C256.358 190.539 254.607 189.1 254.008 188.594C253.531 189.009 253.055 189.424 252.646 189.845C252.353 190.144 252.047 190.409 251.767 190.721L250.93 191.622C250.426 192.212 249.894 192.821 249.411 193.405C249.07 193.813 248.73 194.209 248.437 194.604C248.927 194.215 249.901 193.483 249.99 193.431C251.352 192.607 254.56 191.79 255.956 192.918C256.182 193.112 256.363 193.348 256.486 193.612C256.61 193.877 256.674 194.163 256.674 194.452C256.674 194.741 256.61 195.027 256.486 195.291C256.363 195.555 256.182 195.792 255.956 195.985C255.023 196.834 253.436 196.925 252.231 196.75C250.909 196.549 248.505 195.058 248.205 194.87C247.681 195.518 247.177 196.167 246.714 196.815C245.1 198.941 243.84 200.77 242.975 202.06L242.886 202.19L241.756 201.619L241.933 201.366C242.832 200.07 244.146 198.254 245.829 196.141C246.36 195.492 246.939 194.766 247.538 194.053C246.922 193.401 246.344 192.717 245.808 192.004C244.521 192.484 241.844 192.504 241.497 192.504C241.443 193.327 241.395 194.124 241.368 194.883C241.252 197.476 241.259 199.694 241.286 201.224V201.399L240.06 200.835C240.06 199.311 240.121 197.256 240.285 194.831C240.339 193.995 240.414 193.1 240.496 192.186C240.155 192.102 237.377 191.421 236.328 190.623C235.279 189.826 234.366 188.724 234.4 187.498C234.399 187.209 234.461 186.923 234.583 186.658C234.706 186.393 234.885 186.155 235.109 185.96C235.334 185.765 235.599 185.617 235.888 185.526C236.176 185.435 236.482 185.402 236.784 185.43C238.596 185.651 240.121 188.439 240.414 189.969C240.414 190.059 240.509 191.058 240.55 191.687C240.584 191.311 240.618 190.948 240.659 190.565C240.741 189.807 240.843 189.048 240.952 188.231L241.156 187.045C241.218 186.649 241.327 186.234 241.415 185.826C241.633 184.879 241.906 183.933 242.205 182.98C241.524 182.915 239.025 182.636 237.962 182.052C236.9 181.469 235.728 180.458 235.565 179.239C235.517 178.952 235.533 178.658 235.612 178.377C235.691 178.097 235.832 177.835 236.025 177.61C236.218 177.385 236.459 177.201 236.731 177.07C237.004 176.94 237.303 176.866 237.608 176.853C239.433 176.814 241.381 179.349 241.919 180.814C241.953 180.905 242.219 182.001 242.348 182.604C242.532 182.033 242.709 181.462 242.914 180.892C243.506 179.245 244.153 177.598 244.793 175.952C244.991 175.446 245.182 174.94 245.372 174.435C245.12 174.435 242.164 174.143 240.979 173.495C239.917 172.918 238.746 171.9 238.582 170.681C238.534 170.394 238.55 170.1 238.629 169.82C238.708 169.539 238.849 169.277 239.042 169.052C239.235 168.827 239.476 168.643 239.749 168.512C240.021 168.382 240.32 168.308 240.625 168.295C242.45 168.25 244.398 170.785 244.936 172.256C244.977 172.366 245.352 173.942 245.427 174.344C245.849 173.235 246.258 172.12 246.619 171.011C247.107 169.511 247.494 167.982 247.776 166.434C247.661 166.434 244.575 166.155 243.356 165.488C242.301 164.911 241.122 163.893 240.959 162.674C240.911 162.387 240.927 162.093 241.006 161.813C241.085 161.532 241.226 161.27 241.419 161.045C241.612 160.82 241.853 160.636 242.125 160.505C242.398 160.375 242.697 160.301 243.002 160.288C244.834 160.249 246.775 162.784 247.313 164.249C247.354 164.347 247.64 165.546 247.763 166.117H247.817C248.056 164.552 248.15 162.97 248.096 161.39C248.096 160.521 248.008 159.692 247.919 158.888C247.34 158.888 244.684 158.888 243.52 158.408C242.355 157.928 241.116 157.053 240.796 155.86C240.712 155.58 240.691 155.287 240.735 155C240.779 154.712 240.887 154.437 241.051 154.191C241.215 153.946 241.432 153.737 241.687 153.578C241.943 153.418 242.231 153.312 242.532 153.267C244.344 153.033 246.571 155.348 247.3 156.748C247.34 156.826 247.64 157.643 247.851 158.239C247.804 157.876 247.763 157.5 247.715 157.15C247.531 155.853 247.272 154.667 247.034 153.617C246.898 153.027 246.762 152.489 246.625 151.989C246.053 151.717 243.758 150.57 242.975 149.649C242.192 148.728 241.49 147.393 241.803 146.2C241.872 145.922 242 145.66 242.18 145.432C242.36 145.204 242.588 145.013 242.849 144.873C243.11 144.733 243.399 144.646 243.697 144.618C243.996 144.589 244.297 144.62 244.582 144.709Z" fill="#92E3A9"/>
<path d="M277.641 171.536C276.204 171.485 273.351 170.091 273.351 170.091C273.351 170.091 274.89 168.574 274.999 168.489C276.272 167.523 279.337 166.363 280.863 167.329C281.11 167.495 281.319 167.709 281.474 167.957C281.629 168.205 281.728 168.482 281.764 168.768C281.8 169.055 281.772 169.346 281.683 169.621C281.593 169.897 281.444 170.152 281.244 170.369C280.42 171.322 278.854 171.588 277.641 171.536Z" fill="#92E3A9"/>
<g opacity="0.5">
<path d="M248.124 158.648C248.09 158.648 248.526 156.58 248.573 156.456C249.077 154.972 250.964 152.398 252.789 152.404C253.093 152.413 253.391 152.482 253.665 152.607C253.939 152.733 254.182 152.912 254.378 153.132C254.574 153.353 254.719 153.611 254.803 153.889C254.887 154.167 254.909 154.459 254.866 154.745C254.737 155.964 253.586 157.008 252.537 157.611C251.318 158.317 248.124 158.648 248.124 158.648Z" fill="white"/>
<path d="M244.582 144.709C246.305 145.292 247.157 148.326 247.102 149.895C247.102 150.025 246.775 152.119 246.741 152.106H246.707C246.85 152.586 246.993 153.098 247.136 153.662C247.395 154.706 247.674 155.892 247.892 157.196C248.139 158.601 248.301 160.019 248.376 161.442C248.473 163.034 248.416 164.632 248.205 166.214C248.205 166.214 248.205 166.253 248.205 166.272C248.43 165.805 249.104 164.535 249.173 164.444C250.065 163.147 252.578 161.131 254.362 161.591C254.653 161.675 254.922 161.817 255.152 162.007C255.382 162.197 255.567 162.43 255.695 162.693C255.824 162.955 255.893 163.24 255.898 163.53C255.903 163.819 255.844 164.106 255.724 164.373C255.261 165.52 253.858 166.233 252.687 166.551C251.359 166.914 248.41 166.486 248.178 166.454C247.927 168.059 247.563 169.647 247.088 171.206C246.823 172.12 246.516 173.028 246.203 173.935L246.632 173.144C247.531 171.848 250.038 169.831 251.829 170.298C252.12 170.382 252.389 170.524 252.618 170.714C252.848 170.904 253.033 171.137 253.162 171.4C253.29 171.662 253.359 171.947 253.364 172.237C253.369 172.526 253.31 172.813 253.191 173.08C252.721 174.221 251.325 174.94 250.146 175.258C248.968 175.576 246.435 175.258 245.767 175.174L245.399 176.218C244.793 177.877 244.187 179.537 243.636 181.177C243.445 181.754 243.281 182.331 243.111 182.908C243.295 182.558 243.452 182.26 243.486 182.26C244.378 180.963 246.891 178.947 248.675 179.407C248.966 179.492 249.235 179.633 249.465 179.823C249.695 180.013 249.88 180.246 250.008 180.509C250.137 180.771 250.206 181.056 250.211 181.346C250.216 181.635 250.157 181.922 250.037 182.189C249.574 183.336 248.171 184.049 247 184.367C245.829 184.685 243.533 184.406 242.737 184.302C242.58 184.899 242.423 185.495 242.307 186.079C242.233 186.481 242.13 186.857 242.076 187.265C242.021 187.673 241.96 188.062 241.906 188.458C241.824 189.217 241.729 190.001 241.667 190.747C241.626 191.265 241.592 191.758 241.551 192.251C241.735 191.674 242.124 190.552 242.171 190.461C242.816 189.24 243.777 188.196 244.964 187.427C245.032 187.29 245.112 187.157 245.202 187.032C245.367 186.789 245.584 186.582 245.839 186.424C246.094 186.267 246.381 186.162 246.681 186.118C246.981 186.073 247.288 186.089 247.581 186.165C247.874 186.241 248.147 186.375 248.383 186.558C249.745 187.693 249.425 190.818 248.784 192.251C248.75 192.335 248.233 193.204 247.899 193.748C248.144 193.457 248.383 193.171 248.641 192.873C249.152 192.283 249.677 191.706 250.242 191.084L251.093 190.202C251.372 189.897 251.713 189.612 252.019 189.32C252.755 188.672 253.525 188.024 254.321 187.375C253.783 186.947 251.87 185.43 251.325 184.373C250.78 183.317 250.385 181.864 250.957 180.762C251.083 180.499 251.265 180.264 251.493 180.073C251.72 179.881 251.988 179.738 252.277 179.651C252.567 179.564 252.873 179.536 253.174 179.569C253.476 179.602 253.767 179.695 254.029 179.842C255.575 180.762 255.731 183.9 255.329 185.404C255.329 185.502 254.887 186.552 254.648 187.122C255.132 186.746 255.609 186.364 256.113 185.994C257.556 184.931 259.055 183.9 260.546 182.856C261.003 182.545 261.452 182.208 261.908 181.897C261.711 181.748 259.402 179.952 258.789 178.804C258.244 177.767 257.849 176.302 258.421 175.2C258.54 174.936 258.714 174.7 258.934 174.504C259.153 174.309 259.414 174.159 259.697 174.064C259.981 173.97 260.283 173.933 260.582 173.955C260.882 173.978 261.174 174.059 261.438 174.195C262.984 175.122 263.141 178.253 262.739 179.764C262.739 179.874 262.113 181.385 261.936 181.761C262.937 181.061 263.917 180.347 264.864 179.608C266.141 178.614 267.349 177.542 268.481 176.399C268.392 176.328 265.968 174.454 265.341 173.287C264.796 172.25 264.401 170.785 264.973 169.682C265.099 169.419 265.282 169.185 265.509 168.993C265.736 168.801 266.003 168.657 266.293 168.57C266.582 168.483 266.888 168.454 267.189 168.486C267.491 168.518 267.783 168.61 268.045 168.755C269.591 169.682 269.747 172.82 269.346 174.324C269.346 174.422 268.862 175.576 268.63 176.12L268.719 176.172C269.827 174.993 270.821 173.722 271.688 172.373C272.179 171.64 272.601 170.908 272.996 170.195C272.512 169.89 270.272 168.502 269.591 167.485C268.91 166.467 268.372 165.092 268.808 163.938C268.904 163.661 269.062 163.407 269.269 163.192C269.477 162.977 269.73 162.807 270.012 162.692C270.294 162.576 270.598 162.519 270.904 162.524C271.211 162.529 271.513 162.595 271.791 162.719C273.439 163.478 273.95 166.609 273.725 168.12C273.725 168.204 273.493 169.041 273.316 169.65C273.493 169.326 273.677 169.002 273.834 168.671C274.44 167.485 274.91 166.369 275.325 165.371C275.55 164.8 275.748 164.282 275.925 163.796C275.611 163.264 274.358 161.111 274.236 159.906C274.113 158.7 274.31 157.247 275.264 156.418C275.48 156.214 275.739 156.056 276.023 155.954C276.308 155.852 276.612 155.809 276.915 155.827C277.219 155.844 277.515 155.923 277.784 156.057C278.054 156.191 278.29 156.378 278.479 156.606C279.568 157.999 278.526 160.975 277.58 162.246C277.498 162.356 276.013 163.932 276 163.899V163.867C275.843 164.34 275.659 164.846 275.455 165.39C275.066 166.395 274.617 167.53 274.038 168.736C273.432 170.036 272.75 171.302 271.995 172.529C271.149 173.905 270.176 175.207 269.087 176.418L269.046 176.464C269.502 176.198 270.803 175.485 270.905 175.446C272.41 174.83 275.673 174.486 276.885 175.796C277.079 176.019 277.221 176.279 277.302 176.557C277.383 176.836 277.402 177.128 277.357 177.414C277.312 177.701 277.205 177.975 277.041 178.219C276.878 178.462 276.662 178.671 276.408 178.83C275.353 179.537 273.772 179.401 272.608 179.051C271.3 178.649 269.08 176.749 268.91 176.6C267.77 177.808 266.546 178.94 265.246 179.991C264.496 180.639 263.713 181.21 262.923 181.8L263.74 181.365C265.246 180.756 268.508 180.406 269.727 181.722C269.92 181.945 270.062 182.204 270.143 182.483C270.223 182.761 270.242 183.053 270.196 183.339C270.15 183.624 270.042 183.898 269.878 184.141C269.714 184.384 269.497 184.591 269.243 184.75C268.188 185.463 266.608 185.32 265.443 184.97C264.278 184.62 262.344 183.025 261.84 182.604L260.928 183.252C259.463 184.322 257.992 185.385 256.582 186.494C256.085 186.876 255.615 187.265 255.139 187.661L255.82 187.285C257.318 186.669 260.587 186.325 261.799 187.635C261.992 187.858 262.133 188.118 262.214 188.396C262.295 188.675 262.313 188.967 262.269 189.252C262.224 189.538 262.116 189.812 261.953 190.056C261.79 190.3 261.576 190.509 261.323 190.669C260.267 191.375 258.687 191.239 257.522 190.889C256.358 190.539 254.607 189.1 254.008 188.594C253.531 189.009 253.055 189.424 252.646 189.845C252.353 190.144 252.047 190.409 251.767 190.721L250.93 191.622C250.426 192.212 249.894 192.821 249.411 193.405C249.07 193.813 248.73 194.209 248.437 194.604C248.927 194.215 249.901 193.483 249.99 193.431C251.352 192.607 254.56 191.79 255.956 192.918C256.182 193.112 256.363 193.348 256.486 193.612C256.61 193.877 256.674 194.163 256.674 194.452C256.674 194.741 256.61 195.027 256.486 195.291C256.363 195.555 256.182 195.792 255.956 195.985C255.023 196.834 253.436 196.925 252.231 196.75C250.909 196.549 248.505 195.058 248.205 194.87C247.681 195.518 247.177 196.167 246.714 196.815C245.1 198.941 243.84 200.77 242.975 202.06L242.886 202.19L241.756 201.619L241.933 201.366C242.832 200.07 244.146 198.254 245.829 196.141C246.36 195.492 246.939 194.766 247.538 194.053C246.922 193.401 246.344 192.717 245.808 192.004C244.521 192.484 241.844 192.504 241.497 192.504C241.443 193.327 241.395 194.124 241.368 194.883C241.252 197.476 241.259 199.694 241.286 201.224V201.399L240.06 200.835C240.06 199.311 240.121 197.256 240.285 194.831C240.339 193.995 240.414 193.1 240.496 192.186C240.155 192.102 237.377 191.421 236.328 190.623C235.279 189.826 234.366 188.724 234.4 187.498C234.399 187.209 234.461 186.923 234.583 186.658C234.706 186.393 234.885 186.155 235.109 185.96C235.334 185.765 235.599 185.617 235.888 185.526C236.176 185.435 236.482 185.402 236.784 185.43C238.596 185.651 240.121 188.439 240.414 189.969C240.414 190.059 240.509 191.058 240.55 191.687C240.584 191.311 240.618 190.948 240.659 190.565C240.741 189.807 240.843 189.048 240.952 188.231L241.156 187.045C241.218 186.649 241.327 186.234 241.415 185.826C241.633 184.879 241.906 183.933 242.205 182.98C241.524 182.915 239.025 182.636 237.962 182.052C236.9 181.469 235.728 180.458 235.565 179.239C235.517 178.952 235.533 178.658 235.612 178.377C235.691 178.097 235.832 177.835 236.025 177.61C236.218 177.385 236.459 177.201 236.731 177.07C237.004 176.94 237.303 176.866 237.608 176.853C239.433 176.814 241.381 179.349 241.919 180.814C241.953 180.905 242.219 182.001 242.348 182.604C242.532 182.033 242.709 181.462 242.914 180.892C243.506 179.245 244.153 177.598 244.793 175.952C244.991 175.446 245.182 174.94 245.372 174.435C245.12 174.435 242.164 174.143 240.979 173.495C239.917 172.918 238.746 171.9 238.582 170.681C238.534 170.394 238.55 170.1 238.629 169.82C238.708 169.539 238.849 169.277 239.042 169.052C239.235 168.827 239.476 168.643 239.749 168.512C240.021 168.382 240.32 168.308 240.625 168.295C242.45 168.25 244.398 170.785 244.936 172.256C244.977 172.366 245.352 173.942 245.427 174.344C245.849 173.235 246.258 172.12 246.619 171.011C247.107 169.511 247.494 167.982 247.776 166.434C247.661 166.434 244.575 166.155 243.356 165.488C242.301 164.911 241.122 163.893 240.959 162.674C240.911 162.387 240.927 162.093 241.006 161.813C241.085 161.532 241.226 161.27 241.419 161.045C241.612 160.82 241.853 160.636 242.125 160.505C242.398 160.375 242.697 160.301 243.002 160.288C244.834 160.249 246.775 162.784 247.313 164.249C247.354 164.347 247.64 165.546 247.763 166.117H247.817C248.056 164.552 248.15 162.97 248.096 161.39C248.096 160.521 248.008 159.692 247.919 158.888C247.34 158.888 244.684 158.888 243.52 158.408C242.355 157.928 241.116 157.053 240.796 155.86C240.712 155.58 240.691 155.287 240.735 155C240.779 154.712 240.887 154.437 241.051 154.191C241.215 153.946 241.432 153.737 241.687 153.578C241.943 153.418 242.231 153.312 242.532 153.267C244.344 153.033 246.571 155.348 247.3 156.748C247.34 156.826 247.64 157.643 247.851 158.239C247.804 157.876 247.763 157.5 247.715 157.15C247.531 155.853 247.272 154.667 247.034 153.617C246.898 153.027 246.762 152.489 246.625 151.989C246.053 151.717 243.758 150.57 242.975 149.649C242.192 148.728 241.49 147.393 241.803 146.2C241.872 145.922 242 145.66 242.18 145.432C242.36 145.204 242.588 145.013 242.849 144.873C243.11 144.733 243.399 144.646 243.697 144.618C243.996 144.589 244.297 144.62 244.582 144.709Z" fill="white"/>
<path d="M277.641 171.536C276.204 171.485 273.351 170.091 273.351 170.091C273.351 170.091 274.89 168.574 274.999 168.489C276.272 167.523 279.337 166.363 280.863 167.329C281.11 167.495 281.319 167.709 281.474 167.957C281.629 168.205 281.728 168.482 281.764 168.768C281.8 169.055 281.772 169.346 281.683 169.621C281.593 169.897 281.444 170.152 281.244 170.369C280.42 171.322 278.854 171.588 277.641 171.536Z" fill="white"/>
</g>
<path d="M260.955 205.6C260.955 205.6 252.285 185.702 247.429 186.571C242.573 187.44 255.752 218.287 255.752 218.287C255.752 218.287 240.496 190.896 230.089 190.896C219.683 190.896 233.903 221.173 247.082 231.267C247.082 231.267 226.275 209.924 214.139 214.54C202.002 219.156 238.412 240.785 238.412 240.785C238.412 240.785 217.258 234.437 219.69 239.339C222.121 244.24 228.7 245.109 228.7 245.109L204.774 246.263H288L269.278 244.532C269.278 244.532 288.695 235.306 283.491 231.565C278.288 227.824 266.846 235.896 266.846 235.896C266.846 235.896 286.597 215.15 282.797 207.37C278.996 199.59 261.99 221.503 261.99 221.503C261.99 221.503 275.863 193.528 273.092 188.626C270.32 183.725 260.955 205.6 260.955 205.6Z" fill="#92E3A9"/>
<path opacity="0.4" d="M260.955 205.6C260.955 205.6 252.285 185.702 247.429 186.571C242.573 187.44 255.752 218.287 255.752 218.287C255.752 218.287 240.496 190.896 230.089 190.896C219.683 190.896 233.903 221.173 247.082 231.267C247.082 231.267 226.275 209.924 214.139 214.54C202.002 219.156 238.412 240.785 238.412 240.785C238.412 240.785 217.258 234.437 219.69 239.339C222.121 244.24 228.7 245.109 228.7 245.109L204.774 246.263H288L269.278 244.532C269.278 244.532 288.695 235.306 283.491 231.565C278.288 227.824 266.846 235.896 266.846 235.896C266.846 235.896 286.597 215.15 282.797 207.37C278.996 199.59 261.99 221.503 261.99 221.503C261.99 221.503 275.863 193.528 273.092 188.626C270.32 183.725 260.955 205.6 260.955 205.6Z" fill="white"/>
<path d="M263.727 206.65C256.1 228.11 256.1 243.294 256.1 243.294C256.1 243.294 265.117 243.624 274.488 237.018" stroke="#787878" stroke-width="1.15613" stroke-linecap="round" stroke-linejoin="round"/>
<path d="M259.913 218.203C258.339 211.793 256.252 205.508 253.668 199.402" stroke="#787878" stroke-width="1.15613" stroke-linecap="round" stroke-linejoin="round"/>
<path d="M237.37 205.658L256.794 233.057C256.794 233.057 269.966 222.495 274.502 216.55" stroke="#787878" stroke-width="1.15613" stroke-linecap="round" stroke-linejoin="round"/>
<path d="M256.447 239.663C256.447 239.663 236.015 230.418 227.665 225.134" stroke="#787878" stroke-width="1.15613" stroke-linecap="round" stroke-linejoin="round"/>
<path d="M237.533 185.618C237.533 185.618 237.077 200.757 239.052 207.661C241.027 214.566 245.257 229.86 246.013 233.031C246.768 236.201 245.713 241.245 245.713 241.245C245.713 241.245 238.289 244.422 237.383 244.707C236.478 244.992 237.533 245.861 239.202 246.146C240.871 246.432 252.823 247.015 253.436 245.569C254.049 244.124 253.886 239.086 254.492 236.493C255.098 233.899 259.191 224.823 257.216 218.339C255.241 211.856 254.492 206.086 255.091 203.493C255.69 200.899 257.665 194.267 258.272 193.547C258.878 192.828 262.058 190.811 263.271 188.789C264.046 187.355 264.509 185.787 264.633 184.179C264.633 184.179 246.925 187.492 237.533 185.618Z" fill="white" stroke="#263238" stroke-width="1.15613" stroke-linecap="round" stroke-linejoin="round"/>
<path d="M263.277 188.789C264.052 187.355 264.516 185.787 264.639 184.179C264.639 184.179 246.932 187.492 237.533 185.618C237.533 185.618 237.077 200.757 239.052 207.661C241.027 214.566 245.256 229.86 246.012 233.031C246.168 233.737 246.255 234.455 246.271 235.177C248.957 236.132 251.869 236.356 254.682 235.825C255.663 232.583 259.048 224.349 257.222 218.32C255.254 211.837 254.498 206.067 255.097 203.473C255.697 200.88 257.672 194.248 258.278 193.528C258.884 192.808 262.065 190.811 263.277 188.789Z" fill="#263238" stroke="#263238" stroke-width="1.15613" stroke-linecap="round" stroke-linejoin="round"/>
<path d="M248.137 243.28L245.713 241.258C245.713 241.258 238.289 244.434 237.383 244.72C236.478 245.005 237.533 245.874 239.202 246.159C240.871 246.444 252.823 247.028 253.436 245.582C253.738 244.47 253.901 243.327 253.92 242.178L248.137 243.28Z" fill="#92E3A9" stroke="#263238" stroke-width="1.15613" stroke-linecap="round" stroke-linejoin="round"/>
<path d="M240.863 129.544C242.026 131.356 242.456 133.508 242.076 135.599C241.47 139.204 237.077 144.968 233.746 147.853C230.416 150.738 230.566 155.633 232.384 158.084C234.203 160.534 235.109 160.534 235.109 160.534L229.36 185.91C229.36 185.91 239.352 187.784 246.618 187.784C253.885 187.784 256.01 187.634 259.64 186.772C263.27 185.91 269.611 184.464 269.611 184.464C269.611 184.464 264.163 163.996 264.163 158.531C264.163 153.065 264.769 147.432 264.769 147.432C264.769 147.432 265.831 141.953 260.832 133.881C255.833 125.81 247.817 125.077 244.65 125.797C243.719 126.031 242.873 126.505 242.206 127.166C241.538 127.826 241.074 128.649 240.863 129.544Z" fill="#92E3A9" stroke="#263238" stroke-width="1.15613" stroke-linecap="round" stroke-linejoin="round"/>
<path d="M235.108 160.534C235.108 160.534 239.052 162.265 242.988 160.683" stroke="#263238" stroke-width="1.15613" stroke-linecap="round" stroke-linejoin="round"/>
<path d="M239.352 161.831V168.036" stroke="#263238" stroke-width="1.15613" stroke-linecap="round" stroke-linejoin="round"/>
<path d="M237.683 161.403L236.478 176.97" stroke="#263238" stroke-width="1.15613" stroke-linecap="round" stroke-linejoin="round"/>
<path d="M260.853 133.869C255.86 125.797 247.831 125.077 244.65 125.797C243.719 126.031 242.873 126.505 242.205 127.166C241.538 127.827 241.073 128.649 240.863 129.544C242.026 131.356 242.456 133.508 242.076 135.6C241.565 138.634 238.371 143.198 235.381 146.291C236.471 146.518 238.398 146.291 241.02 143.529C245.256 139.055 248.587 136.462 252.523 135.308C255.384 134.472 259.041 135.84 261.377 134.718C261.186 134.433 261.03 134.193 260.853 133.869Z" fill="white" stroke="#263238" stroke-width="1.15613" stroke-linecap="round" stroke-linejoin="round"/>
<path d="M235.265 111.501C235.265 111.501 234.202 114.38 234.352 116.111C234.502 117.842 235.108 118.704 234.202 120.292C233.297 121.881 231.628 122.886 232.084 123.605C232.541 124.325 234.809 124.902 234.809 124.902C234.809 124.902 235.714 130.231 236.777 130.808C237.839 131.385 244.5 128.5 245.862 128.072C247.224 127.645 249.043 123.891 247.98 118.121C246.918 112.35 239.644 109.076 235.265 111.501Z" fill="white" stroke="#263238" stroke-width="1.15613" stroke-linecap="round" stroke-linejoin="round"/>
<path d="M237.383 119.929C237.383 120.448 237.144 120.869 236.852 120.869C236.559 120.869 236.32 120.448 236.32 119.929C236.32 119.411 236.559 118.996 236.852 118.996C237.144 118.996 237.383 119.443 237.383 119.929Z" fill="#263238"/>
<path d="M235.871 117.583C235.871 117.583 237.683 116.428 238.595 118.302" stroke="#263238" stroke-width="1.15613" stroke-linecap="round" stroke-linejoin="round"/>
<path d="M232.752 109.822C232.553 110.051 232.45 110.342 232.463 110.638C232.476 110.935 232.603 111.217 232.82 111.43C234.008 112.621 235.387 113.626 236.906 114.406C239.631 115.702 243.267 117.868 243.267 120.318C243.267 122.769 241.755 129.829 243.267 132.28C244.779 134.731 248.873 137.039 251.297 137.331C253.722 137.622 257.202 140.067 258.108 144.106C259.013 148.145 260.403 153.331 265.524 152.346C270.646 151.36 271.729 144.417 269.611 141.247C267.493 138.076 265.524 137.934 267.186 134.471C268.848 131.009 267.792 126.4 264.156 123.515C260.519 120.63 257.645 122.218 257.345 118.756C257.045 115.294 255.778 110.477 253.102 107.086C250.058 103.157 239.222 102.217 232.752 109.822Z" fill="#263238" stroke="#263238" stroke-width="1.15613" stroke-linecap="round" stroke-linejoin="round"/>
<path d="M246.769 179.998C246.769 179.998 246.013 188.069 245.407 188.932C244.801 189.794 242.226 191.959 241.777 192.971C241.327 193.982 242.369 197.729 242.369 197.729C242.369 197.729 243.275 198.592 244.031 198.306C244.787 198.021 244.487 197.438 244.487 197.438C244.487 197.438 244.031 196.575 244.487 196.284C244.944 195.992 246.755 195.564 247.361 194.125C247.767 193.097 248.072 192.035 248.274 190.954L252.061 181.294L246.769 179.998Z" fill="white" stroke="#263238" stroke-width="1.15613" stroke-linecap="round" stroke-linejoin="round"/>
<path d="M244.044 147.159C244.044 147.159 243.744 154.505 244.194 157.532C244.643 160.56 244.957 169.501 244.044 172.956C243.131 176.412 243.744 181.034 243.744 181.034C243.744 181.034 248.587 183.193 251.011 182.908C253.436 182.623 255.098 182.331 255.098 182.331C255.098 182.331 257.822 171.083 258.278 166.039C258.735 160.995 257.672 145.136 257.672 145.136" fill="#92E3A9"/>
<path d="M244.044 147.159C244.044 147.159 243.744 154.505 244.194 157.532C244.643 160.56 244.957 169.501 244.044 172.956C243.131 176.412 243.744 181.034 243.744 181.034C243.744 181.034 248.587 183.193 251.011 182.908C253.436 182.623 255.098 182.331 255.098 182.331C255.098 182.331 257.822 171.083 258.278 166.039C258.735 160.995 257.672 145.136 257.672 145.136" stroke="#263238" stroke-width="1.15613" stroke-linecap="round" stroke-linejoin="round"/>
<path d="M182.919 141.376H165.034V160.132H182.919V141.376Z" fill="#92E3A9" stroke="#263238" stroke-width="1.15613" stroke-linecap="round" stroke-linejoin="round"/>
<path d="M175.602 157.36C179.107 156.575 181.279 153.236 180.456 149.9C179.632 146.564 176.123 144.496 172.619 145.28C169.115 146.064 166.942 149.404 167.766 152.74C168.59 156.075 172.098 158.144 175.602 157.36Z" fill="white"/>
<path d="M169.911 148.171C171.412 148.864 173.023 149.316 174.679 149.506C177.403 149.811 178.642 149.448 178.642 149.448C178.317 150.915 178.15 152.409 178.145 153.909C178.2 155.108 174.059 155.354 171.866 154.557C170.894 154.213 169.977 153.741 169.142 153.157C169.142 153.157 169.271 149.63 169.911 148.171Z" fill="white" stroke="#263238" stroke-width="1.15613" stroke-linecap="round" stroke-linejoin="round"/>
<path d="M169.721 149.506C169.721 149.506 172.915 151.821 178.288 150.907" stroke="#263238" stroke-width="1.15613" stroke-linecap="round" stroke-linejoin="round"/>
<path d="M169.4 150.848C169.4 150.848 171.982 153.539 178.016 152.288" stroke="#263238" stroke-width="1.15613" stroke-linecap="round" stroke-linejoin="round"/>
<path d="M169.209 152.307C169.209 152.307 174.324 155.289 178.097 153.604" stroke="#263238" stroke-width="1.15613" stroke-linecap="round" stroke-linejoin="round"/>
<path d="M178.669 149.448C178.669 149.448 180.713 147.315 181.292 148.657C181.87 149.999 181.04 153.195 178.288 154.135" stroke="#263238" stroke-width="1.15613" stroke-linecap="round" stroke-linejoin="round"/>
<path d="M169.911 148.171C169.911 148.171 169.979 146.401 168.889 146.096C167.799 145.791 168.119 150.543 169.141 152.858" stroke="#263238" stroke-width="1.15613" stroke-linecap="round" stroke-linejoin="round"/>
<path d="M135.231 123.566C134.167 125.181 133.227 126.867 132.419 128.61C131.737 130.341 131.09 133.181 131.09 133.181L124.961 130.186L128.932 120.253L135.231 123.566Z" fill="white" stroke="#263238" stroke-width="1.15613" stroke-linecap="round" stroke-linejoin="round"/>
<path d="M141.027 108.434C141.027 108.434 143.513 109.225 144.507 106.386C145.502 103.546 141.688 100.868 136.389 99.4486C131.091 98.0287 122.502 102.917 120.827 106.703C119.152 110.49 120.663 114.581 118.511 117.42C116.359 120.26 108.575 120.889 107.744 128.442C106.913 135.995 111.885 138.815 110.727 141.519C109.569 144.222 104.768 145.778 105.592 151.769C106.416 157.759 115.692 160.91 119.833 158.544C123.973 156.177 125.465 151.133 124.137 144.987C122.809 138.841 122.155 132.539 125.628 130.173C129.102 127.807 133.079 123.236 133.413 121.031C133.747 118.827 132.916 118.354 134.904 117.718C136.893 117.083 140.53 112.85 141.027 108.434Z" fill="#263238" stroke="#263238" stroke-width="1.15613" stroke-linecap="round" stroke-linejoin="round"/>
<path d="M128.864 173.3C128.864 173.3 131.227 187.563 132.017 197.1C132.807 206.637 131.731 213.594 132.017 219.396C132.334 226.373 133.123 233.322 134.38 240.201C134.38 240.201 141.872 243.197 142.839 243.761C143.806 244.325 145.203 244.325 145.203 245.057C145.203 245.79 139.529 247.132 136.124 245.822C134.442 245.174 130.417 246.01 128.632 245.258C127.495 244.778 128.632 241.887 128.632 240.013C128.632 238.14 125.322 228.201 124.546 223.52C123.77 218.839 122.973 217.341 123.565 213.963C123.957 211.542 124.22 209.103 124.355 206.657C124.355 206.657 118.58 185.8 117.545 182.831C116.881 180.935 116.333 179.004 115.903 177.047" fill="#263238"/>
<path d="M128.864 173.3C128.864 173.3 131.227 187.563 132.017 197.1C132.807 206.637 131.731 213.594 132.017 219.396C132.334 226.373 133.123 233.322 134.38 240.201C134.38 240.201 141.872 243.197 142.839 243.761C143.806 244.325 145.203 244.325 145.203 245.057C145.203 245.79 139.529 247.132 136.124 245.822C134.442 245.174 130.417 246.01 128.632 245.258C127.495 244.778 128.632 241.887 128.632 240.013C128.632 238.14 125.322 228.201 124.546 223.52C123.77 218.839 122.973 217.341 123.565 213.963C123.957 211.542 124.22 209.103 124.355 206.657C124.355 206.657 118.58 185.8 117.545 182.831C116.881 180.935 116.333 179.004 115.903 177.047" stroke="#263238" stroke-width="1.15613" stroke-linecap="round" stroke-linejoin="round"/>
<path d="M142.839 243.76C141.858 243.196 134.38 240.201 134.38 240.201C134.38 240.201 133.645 236.551 132.964 230.748C131.03 231.77 128.791 232.138 126.609 231.792C127.651 235.494 128.653 238.976 128.653 240.013C128.653 241.887 127.515 244.778 128.653 245.258C130.43 246.01 134.455 245.161 136.144 245.822C139.488 247.119 145.196 245.822 145.196 245.07C145.196 244.318 143.827 244.324 142.839 243.76Z" fill="white" stroke="#263238" stroke-width="1.15613" stroke-linecap="round" stroke-linejoin="round"/>
<path d="M128.523 241.485C128.258 243.131 127.801 244.895 128.666 245.258C130.444 246.01 134.469 245.161 136.158 245.822C139.502 247.119 145.209 245.822 145.209 245.07C145.209 244.318 143.847 244.324 142.846 243.773C141.845 243.222 134.387 240.214 134.387 240.214L133.59 242.464L128.523 241.485Z" fill="white" stroke="#263238" stroke-width="1.15613" stroke-linecap="round" stroke-linejoin="round"/>
<path d="M124.307 127.346C125.412 127.154 126.548 127.196 127.634 127.468C128.721 127.74 129.731 128.237 130.593 128.922C133.74 131.288 134.407 135.23 137.056 139.172C139.706 143.114 140.033 146.576 139.038 148.787C138.044 150.997 134.904 158.084 133.243 162.499C131.581 166.914 130.927 174.007 129.933 178.707C128.938 183.407 120.663 183.751 117.517 182.804C114.37 181.858 111.088 177.916 110.754 172.716C110.42 167.517 113.24 165.17 113.907 163.906C114.575 162.641 121.487 152.54 119.832 147.496C118.177 142.452 118.838 136.475 120.003 133.473C121.167 130.471 123.313 127.82 124.307 127.346Z" fill="#263238" stroke="#263238" stroke-width="1.15613" stroke-linecap="round" stroke-linejoin="round"/>
<path d="M130.593 128.922C129.731 128.237 128.721 127.74 127.634 127.468C126.548 127.196 125.412 127.154 124.307 127.346C123.313 127.82 121.161 130.504 120.003 133.499C118.845 136.494 118.177 142.478 119.832 147.522C121.487 152.566 114.568 162.674 113.907 163.932C113.907 163.932 118.784 169.008 131.615 169.027C131.977 166.813 132.526 164.63 133.256 162.499C134.918 158.084 138.024 150.991 139.052 148.787C140.08 146.582 139.733 143.107 137.07 139.172C134.407 135.236 133.74 131.288 130.593 128.922Z" fill="#92E3A9" stroke="#263238" stroke-width="1.15613" stroke-linecap="round" stroke-linejoin="round"/>
<path d="M162.719 154.459L137.88 156.826C137.88 156.826 135.892 156.353 135.395 155.406C134.986 154.621 127.14 141.973 124.498 137.72C123.622 136.362 123.253 134.763 123.449 133.181C123.674 131.606 124.545 130.03 127.113 130.03C131.281 130.03 134.421 136.001 135.449 138.238C135.81 139.023 136.205 139.788 136.621 140.546L140.707 147.996L163.727 150.673C163.727 150.673 167.534 148.469 168.194 148.151C168.855 147.833 171.007 147.684 172.172 147.503C173.336 147.321 174.154 146.401 174.154 147.347C174.154 148.294 173.33 148.449 172.832 148.605L170.347 149.396L176.476 150.822C176.652 150.857 176.806 150.956 176.905 151.098C177.005 151.24 177.042 151.413 177.007 151.581C176.996 151.666 176.968 151.748 176.924 151.822C176.879 151.896 176.82 151.961 176.749 152.014C176.678 152.066 176.597 152.105 176.511 152.127C176.424 152.15 176.334 152.156 176.245 152.145L171.838 151.743L175.999 153.655C176.149 153.732 176.264 153.858 176.32 154.011C176.377 154.163 176.372 154.33 176.306 154.479C176.24 154.606 176.133 154.708 176 154.772C175.867 154.835 175.716 154.855 175.57 154.829L171.178 153.921L174.453 155.711L175.189 156.359C174.944 157.37 173.868 156.793 173.282 156.534L170.605 155.348L172.901 157.759C172.166 157.747 171.453 157.521 170.857 157.111L168.351 155.406L164.183 154.239L162.719 154.459Z" fill="white" stroke="#263238" stroke-width="1.15613" stroke-linecap="round" stroke-linejoin="round"/>
<path d="M137.029 141.285L136.627 140.546C136.212 139.788 135.817 139.023 135.456 138.238C134.428 135.995 131.288 130.03 127.12 130.03C124.552 130.03 123.68 131.606 123.456 133.181C123.259 134.763 123.629 136.362 124.504 137.72L129.149 145.214L137.029 141.285Z" fill="#92E3A9" stroke="#263238" stroke-width="1.15613" stroke-linecap="round" stroke-linejoin="round"/>
<path d="M113.908 176.114C113.908 176.114 113.908 184.73 114.691 192.225C115.474 199.72 115.678 208.154 114.888 209.471C114.098 210.787 110.169 217.341 109.378 220.525C108.588 223.708 108.016 237.012 106.818 240.013C105.619 243.015 105.244 245.07 106.034 245.446C106.825 245.822 116.325 246.237 118.368 246.471C120.412 246.704 122.898 246.101 122.952 245.33C123.007 244.558 119.376 243.262 116.421 241.278C113.465 239.294 113.696 236.824 113.696 234.95C113.696 233.076 118.225 221.458 121.964 213.03C125.704 204.602 129.048 183.609 129.048 180.237V174.616" fill="#263238"/>
<path d="M113.908 176.114C113.908 176.114 113.908 184.73 114.691 192.225C115.474 199.72 115.678 208.154 114.888 209.471C114.098 210.787 110.169 217.341 109.378 220.525C108.588 223.708 108.016 237.012 106.818 240.013C105.619 243.015 105.244 245.07 106.034 245.446C106.825 245.822 116.325 246.237 118.368 246.471C120.412 246.704 122.898 246.101 122.952 245.33C123.007 244.558 119.376 243.262 116.421 241.278C113.465 239.294 113.696 236.824 113.696 234.95C113.696 233.076 118.225 221.458 121.964 213.03C125.704 204.602 129.048 183.609 129.048 180.237V174.616" stroke="#263238" stroke-width="1.15613" stroke-linecap="round" stroke-linejoin="round"/>
<path d="M116.42 241.277C113.458 239.293 113.696 236.823 113.696 234.95C113.745 234.411 113.852 233.879 114.016 233.361C111.966 233.369 109.934 232.983 108.043 232.227C107.696 235.63 107.301 238.742 106.804 240.007C105.626 243.002 105.231 245.064 106.021 245.44C106.811 245.816 116.312 246.231 118.355 246.464C120.398 246.697 122.884 246.094 122.938 245.323C122.993 244.551 119.376 243.261 116.42 241.277Z" fill="white" stroke="#263238" stroke-width="1.15613" stroke-linecap="round" stroke-linejoin="round"/>
<path d="M122.952 245.329C123.013 244.558 119.376 243.261 116.421 241.277C115.37 240.627 114.564 239.675 114.119 238.561C113.755 238.553 113.4 238.668 113.117 238.885C112.327 239.637 112.137 241.887 112.137 241.887L106.579 240.655C105.592 243.3 105.306 245.096 106.034 245.446C106.763 245.796 116.325 246.237 118.368 246.47C120.412 246.704 122.897 246.101 122.952 245.329Z" fill="white" stroke="#263238" stroke-width="1.15613" stroke-linecap="round" stroke-linejoin="round"/>
<path d="M140.033 105.757C140.033 105.757 142.185 108.908 142.185 110.639C142.185 112.37 141.688 113.796 141.688 114.899C141.688 116.001 142.682 117.258 142.682 118.205C142.682 119.152 141.191 123.249 140.203 124.351C139.216 125.453 138.215 126.562 136.389 126.4C134.564 126.238 129.579 121.674 129.579 121.674C129.579 121.674 127.093 123.411 126.262 120.571C125.431 117.732 125.438 116.318 126.759 116.001C127.146 115.914 127.55 115.928 127.929 116.042C128.308 116.156 128.648 116.366 128.911 116.649C128.911 116.649 135.368 116.338 137.527 112.869C138.857 110.684 139.71 108.264 140.033 105.757Z" fill="white" stroke="#263238" stroke-width="1.15613" stroke-linecap="round" stroke-linejoin="round"/>
<path d="M129.606 121.674C129.606 121.674 134.571 126.244 136.417 126.4C138.262 126.556 139.236 125.46 140.231 124.351C141.225 123.243 142.71 119.165 142.71 118.205C142.594 117.489 142.364 116.794 142.029 116.143C136.648 117.44 128.973 116.63 128.973 116.63L134.605 118.367L133.611 122.465L129.606 121.674Z" fill="#92E3A9" stroke="#263238" stroke-width="1.15613" stroke-linecap="round" stroke-linejoin="round"/>
<path d="M140.264 114.982C140.264 115.592 140.046 116.085 139.787 116.085C139.528 116.085 139.311 115.592 139.311 114.982C139.311 114.373 139.522 113.88 139.787 113.88C140.053 113.88 140.264 114.379 140.264 114.982Z" fill="#263238"/>
<path d="M138.494 112.98C138.494 112.98 139.175 110.905 140.81 112.461" stroke="#263238" stroke-width="1.15613" stroke-linecap="round" stroke-linejoin="round"/>
<path d="M203.235 238.807C203.235 238.807 196.152 242.633 194.211 243.521C192.27 244.409 190.976 245.103 194.511 246.03C198.046 246.957 207.955 246.309 209.61 246.224C211.265 246.14 211.953 246.581 211.857 244.85C211.762 243.119 211.857 238.853 211.857 238.853C211.857 238.853 204.23 239.222 203.235 238.807Z" fill="white" stroke="#263238" stroke-width="1.15613" stroke-linecap="round" stroke-linejoin="round"/>
<path d="M203.78 136.099C203.78 136.099 198.645 144.767 198.481 147.121C198.318 149.474 198.318 150.745 198.318 150.745C198.318 150.745 194.341 159.731 193.019 164.457C191.698 169.183 194.014 175.965 195.008 178.169C196.002 180.374 197.16 182.429 197.16 182.429C197.16 182.429 198.979 199.934 199.142 205.12C199.305 210.307 201.131 217.439 201.791 222.139C202.452 226.839 204.114 234.911 204.114 234.911C204.114 234.911 202.288 236.013 202.288 236.798C202.288 237.582 202.125 239.164 202.125 239.164C203.264 239.269 204.379 239.536 205.435 239.955C207.757 240.74 212.246 240.111 212.246 240.111C212.783 237.139 213.116 234.138 213.24 231.125C213.24 227.656 214.561 217.095 214.064 213.471C213.567 209.847 213.076 203.856 213.24 203.097C213.403 202.339 215.058 186.241 215.058 186.241C217.511 182.858 218.837 178.85 218.865 174.74C218.865 167.958 218.539 166.538 218.539 166.538C218.539 166.538 220.357 146.207 219.533 139.114C218.709 132.021 214.711 130.303 214.711 130.303L203.78 136.099Z" fill="#263238" stroke="#263238" stroke-width="1.15613" stroke-linecap="round" stroke-linejoin="round"/>
<path d="M219.513 139.094C218.682 132.001 214.711 130.27 214.711 130.27L203.78 136.105C203.78 136.105 198.645 144.773 198.482 147.127C198.318 149.48 198.318 150.751 198.318 150.751C198.318 150.751 194.341 159.737 193.02 164.463C192.683 165.769 192.554 167.115 192.638 168.457C194.545 169.87 198.768 172.036 206.43 171.699C212.975 171.42 216.714 169.754 218.689 168.424C218.665 167.773 218.601 167.124 218.498 166.479C218.498 166.479 220.337 146.187 219.513 139.094Z" fill="white" stroke="#263238" stroke-width="1.15613" stroke-linecap="round" stroke-linejoin="round"/>
<path d="M201.628 102.373C201.628 102.373 195.335 105.05 194.675 108.208C194.014 111.365 195.172 116.091 195.172 116.876C195.172 117.66 192.856 119.871 193.68 120.5C193.906 120.684 194.17 120.821 194.455 120.903C194.74 120.984 195.04 121.008 195.335 120.973C196.046 122.808 196.876 124.599 197.821 126.335C198.082 126.816 198.491 127.21 198.994 127.464C199.497 127.718 200.069 127.819 200.634 127.755C201.131 127.755 202.956 127.437 202.956 127.437L205.108 133.428L212.886 127.593C212.886 127.593 211.565 124.131 212.205 122.238C212.845 120.345 216.012 117.194 216.509 112.623C217.007 108.052 212.369 102.379 208.398 101.744C206.124 101.349 203.779 101.566 201.628 102.373Z" fill="white" stroke="#263238" stroke-width="1.15613" stroke-linecap="round" stroke-linejoin="round"/>
<path d="M208.418 101.737C206.129 101.341 203.769 101.565 201.607 102.386C201.607 102.386 201.049 102.625 200.245 103.034C201.607 102.489 203.95 101.899 204.413 104.117C205.094 107.268 200.776 109.303 201.437 110.736C202.098 112.169 204.583 112.629 205.244 114.36C205.905 116.091 206.736 116.882 207.396 116.098C208.057 115.313 207.73 113.731 208.888 113.414C210.046 113.096 211.721 115.456 211.721 117.336C211.721 119.216 209.569 120.02 209.569 120.02C209.878 120.472 210.292 120.85 210.78 121.123C211.269 121.397 211.817 121.558 212.382 121.596C212.422 121.592 212.463 121.592 212.504 121.596C213.505 119.651 216.08 116.707 216.522 112.61C217.026 108.046 212.402 102.373 208.418 101.737Z" fill="#B2B2B2" stroke="#263238" stroke-width="1.15613" stroke-linecap="round" stroke-linejoin="round"/>
<path d="M195.335 120.967C195.335 120.967 200.634 119.554 202.146 120.183C203.658 120.811 201.465 122.549 199.66 122.86C197.855 123.171 195.335 123.489 195.335 120.967Z" fill="#B2B2B2" stroke="#263238" stroke-width="1.15613" stroke-linecap="round" stroke-linejoin="round"/>
<path d="M198.154 115.612C198.154 116.306 197.93 116.87 197.657 116.87C197.385 116.87 197.16 116.306 197.16 115.612C197.16 114.918 197.378 114.315 197.657 114.315C197.937 114.315 198.154 114.912 198.154 115.612Z" fill="#263238"/>
<path d="M196.329 113.09C196.705 112.783 197.192 112.628 197.687 112.657C198.181 112.686 198.645 112.897 198.978 113.245" stroke="#263238" stroke-width="1.15613" stroke-linecap="round" stroke-linejoin="round"/>
<path d="M202.956 127.431C202.956 127.431 207.09 126.484 208.745 123.178" stroke="#263238" stroke-width="1.15613" stroke-linecap="round" stroke-linejoin="round"/>
<path d="M201.962 134.193L203.12 137.655L216.06 130.089L214.568 125.68C214.568 125.68 203.12 132.164 201.962 134.193Z" fill="white" stroke="#263238" stroke-width="1.15613" stroke-linecap="round" stroke-linejoin="round"/>
<path d="M207.09 159.115C207.09 159.115 193.517 159.899 190.533 159.899C188.35 159.826 186.183 159.508 184.077 158.953C184.077 158.953 182.422 156.749 181.761 156.12C181.101 155.491 179.609 155.329 178.118 155.329C176.626 155.329 175.305 154.68 175.305 155.646C175.305 156.612 175.986 156.593 176.626 156.904L178.615 157.851C178.615 157.851 173.643 158.013 172.983 158.013C172.322 158.013 170.83 157.066 170.994 158.324C171.157 159.582 172.322 159.744 173.48 159.744C174.638 159.744 178.445 161.475 179.609 161.475C180.774 161.475 183.743 161.637 183.743 161.637C183.743 161.637 190.554 162.895 195.008 164.632C199.462 166.37 209.91 166.992 211.067 166.208C212.225 165.423 212.402 159.115 212.402 159.115H207.09Z" fill="white" stroke="#263238" stroke-width="1.15613" stroke-linecap="round" stroke-linejoin="round"/>
<path d="M205.108 144.301L203.943 158.83C205.412 159.905 207.227 160.462 209.079 160.405C211.31 160.368 213.532 160.105 215.705 159.621C215.705 159.621 216.863 144.962 216.196 141.967C215.528 138.971 214.874 138.498 213.383 138.498" fill="white"/>
<path d="M205.108 144.301L203.943 158.83C205.412 159.905 207.227 160.462 209.079 160.405C211.31 160.368 213.532 160.105 215.705 159.621C215.705 159.621 216.863 144.962 216.196 141.967C215.528 138.971 214.874 138.498 213.383 138.498" stroke="#263238" stroke-width="1.15613" stroke-linecap="round" stroke-linejoin="round"/>
<path d="M55.39 238.445C55.39 238.445 47.3944 242.406 45.4193 243.333C43.4442 244.26 42.1298 244.999 45.7326 245.991C49.3354 246.983 59.4355 246.309 61.1178 246.225C62.8 246.14 63.5083 246.607 63.4061 244.772C63.304 242.937 63.0656 239.287 63.0656 239.287C63.0656 239.287 56.4389 238.898 55.39 238.445Z" fill="white" stroke="#263238" stroke-width="1.15613" stroke-linecap="round" stroke-linejoin="round"/>
<path d="M90.7442 237.608C90.1974 239.039 89.4798 240.405 88.6057 241.68C87.4751 243.119 84.1992 244.921 84.1992 245.634V246.354H97.2279C97.2279 246.354 98.6718 245.271 98.6718 244.409C98.6718 243.547 97.9158 238.302 97.9158 238.302L90.7442 237.608Z" fill="white" stroke="#263238" stroke-width="1.15613" stroke-linecap="round" stroke-linejoin="round"/>
<path d="M63.8223 171.854C63.8223 171.854 61.1797 179.764 58.7892 187.784C56.3987 195.804 53.5042 205.289 53.0002 209.224C52.4962 213.159 55.8947 235.449 55.8947 235.449C55.6184 235.614 55.392 235.846 55.238 236.119C55.0839 236.393 55.0075 236.701 55.0161 237.012C55.0625 237.505 55.1888 237.988 55.3907 238.444C55.3907 238.444 59.6678 239.527 60.7983 239.527C61.5606 239.516 62.3201 239.436 63.0663 239.287C63.0663 239.287 63.6928 215.947 63.6928 213.179C63.7228 211.815 63.6386 210.452 63.4409 209.101L74.4127 184.575L76.4014 185.028C76.4014 185.028 78.288 207.072 78.792 209.704C79.2959 212.336 89.9886 234.989 89.9886 234.989C89.9886 234.989 89.614 236.785 89.9886 237.621C90.1894 237.996 90.3185 238.402 90.37 238.82C91.398 239.057 92.452 239.177 93.5097 239.177C95.0095 239.075 96.4899 238.794 97.9161 238.341C97.9161 238.341 97.6641 236.661 97.2896 234.989C96.8719 233.451 96.3672 231.936 95.7776 230.45L89.7366 207.111C89.7366 207.111 91.7798 177.774 91.6231 174.778C91.5035 172.813 91.0813 170.876 90.37 169.028C90.37 169.028 74.8895 175.329 63.8223 171.854Z" fill="#263238" stroke="#263238" stroke-width="1.15613" stroke-linecap="round" stroke-linejoin="round"/>
<path d="M62.2007 132.287C62.2007 132.287 55.6625 131.975 52.3866 133.998C49.1107 136.021 48.7906 143.029 48.3002 143.963C47.8099 144.897 44.7042 157.04 44.3773 158.758C44.0504 160.476 47.3195 163.893 48.6271 163.115C49.9348 162.337 55.3356 149.104 55.3356 149.104C55.3356 149.104 63.1814 162.81 63.8352 164.21C64.489 165.611 63.5083 173.086 63.5083 173.086C63.5083 173.086 65.3131 176.328 73.983 176.042C82.6529 175.757 91.0095 171.374 91.0095 171.374C91.0095 171.374 89.5384 162.81 89.2115 161.098C88.8846 159.387 87.9039 144.125 86.1059 138.206C84.3079 132.287 80.7051 130.108 77.9332 130.108C74.6551 130.084 71.3783 130.24 68.1191 130.575C66.1157 131.045 64.1401 131.616 62.2007 132.287Z" fill="white" stroke="#263238" stroke-width="1.15613" stroke-linecap="round" stroke-linejoin="round"/>
<path d="M58.6047 133.22C58.6047 133.22 64.8228 141.785 66.4573 142.407C68.0919 143.03 70.5437 133.22 70.5437 133.22L69.236 125.901C69.236 125.901 62.2007 126.99 59.2585 128.235C56.3163 129.48 58.6047 133.22 58.6047 133.22Z" fill="white" stroke="#263238" stroke-width="1.15613" stroke-linecap="round" stroke-linejoin="round"/>
<path d="M56.1536 132.287C56.1536 132.287 60.4034 137.422 62.8552 137.733C65.307 138.044 66.9416 137.733 68.0926 135.088C68.7396 133.583 68.9098 127.768 68.9098 127.768L55.1729 131.01L56.1536 132.287Z" fill="white" stroke="#263238" stroke-width="1.15613" stroke-linecap="round" stroke-linejoin="round"/>
<path d="M55.826 112.046C53.9919 113.275 52.5251 114.938 51.5694 116.869C50.2618 119.826 53.3674 126.523 53.3674 126.523C53.3674 126.523 52.3867 131.976 54.0485 132.442C55.7102 132.909 61.2473 133.091 64.6866 131.664C68.126 130.238 70.0806 127.774 70.2441 127.126C70.4075 126.478 69.9172 121.836 69.9172 121.836C69.9172 121.836 69.3791 116.688 66.7843 112.798C65.7763 111.326 58.4413 110.017 55.826 112.046Z" fill="#263238" stroke="#263238" stroke-width="1.15613" stroke-linecap="round" stroke-linejoin="round"/>
<path d="M58.2777 114.38C58.2777 114.38 56.9701 114.691 54.8724 117.181C52.7747 119.67 52.7407 123.567 52.7407 123.567L52.3389 123.833C52.8701 125.376 53.3945 126.523 53.3945 126.523C53.3945 126.523 52.4138 131.976 54.0756 132.443C55.7374 132.909 61.2744 133.091 64.7137 131.665C68.1531 130.238 70.1077 127.775 70.2712 127.126C70.4346 126.478 69.9443 121.836 69.9443 121.836C65.4765 114.691 58.2777 114.38 58.2777 114.38Z" fill="white" stroke="#263238" stroke-width="1.15613" stroke-linecap="round" stroke-linejoin="round"/>
<path d="M70.217 127.145C70.3804 126.497 69.8901 121.855 69.8901 121.855C69.8901 121.855 69.8901 121.81 69.8901 121.738C62.0579 128.721 53.3812 126.523 53.3812 126.523C53.3812 126.523 52.4004 131.976 54.0622 132.442C55.724 132.909 61.261 133.091 64.7004 131.664C68.1397 130.238 70.0603 127.768 70.217 127.145Z" fill="#263238" stroke="#263238" stroke-width="1.15613" stroke-linecap="round" stroke-linejoin="round"/>
<path d="M46.9039 148.605C45.8483 152.541 44.561 157.682 44.3567 158.758C44.023 160.47 47.2989 163.893 48.6065 163.115C49.4374 162.622 51.9097 157.112 53.6123 153.15L46.9039 148.605Z" fill="white" stroke="#263238" stroke-width="1.15613" stroke-linecap="round" stroke-linejoin="round"/>
<path d="M44.541 157.04C44.541 157.04 43.2266 163.27 43.39 165.915C43.5535 168.561 52.8772 181.955 52.8772 181.955L53.6945 178.714C53.6945 178.714 50.7523 166.097 50.4254 163.763C50.2229 162.258 50.1137 160.742 50.0985 159.225" fill="white"/>
<path d="M44.541 157.04C44.541 157.04 43.2266 163.27 43.39 165.915C43.5535 168.561 52.8772 181.955 52.8772 181.955L53.6945 178.714C53.6945 178.714 50.7523 166.097 50.4254 163.763C50.2229 162.258 50.1137 160.742 50.0985 159.225" stroke="#263238" stroke-width="1.15613" stroke-linecap="round" stroke-linejoin="round"/>
<path d="M51.5354 187.012C51.4277 187.624 51.518 188.253 51.7942 188.815C52.2505 189.554 54.9271 190.299 54.9883 189.865C55.0496 189.431 55.0565 188.004 55.0565 188.004L51.5354 187.012Z" fill="white" stroke="#263238" stroke-width="1.15613" stroke-linecap="round" stroke-linejoin="round"/>
<path d="M51.338 185.832C51.2346 186.445 51.3272 187.073 51.6036 187.635C52.0599 188.38 54.7297 189.119 54.7978 188.685C54.8659 188.25 54.8591 186.824 54.8591 186.824L51.338 185.832Z" fill="white" stroke="#263238" stroke-width="1.15613" stroke-linecap="round" stroke-linejoin="round"/>
<path d="M51.0793 184.218C50.9717 184.83 51.0619 185.459 51.3381 186.02C51.7944 186.766 54.471 187.512 54.5323 187.077C54.5936 186.643 54.6004 185.21 54.6004 185.21L51.0793 184.218Z" fill="white" stroke="#263238" stroke-width="1.15613" stroke-linecap="round" stroke-linejoin="round"/>
<path d="M53.3678 177.91C53.3678 177.91 50.916 183.045 50.916 183.823C50.916 184.601 54.3213 186.157 54.3213 186.157L54.4848 176.192L53.3678 177.91Z" fill="white" stroke="#263238" stroke-width="1.15613" stroke-linecap="round" stroke-linejoin="round"/>
<path d="M87.4951 175.557H53.3535V204.731H87.4951V175.557Z" fill="#92E3A9" stroke="#263238" stroke-width="1.15613" stroke-linecap="round" stroke-linejoin="round"/>
<path d="M72.3935 201.413C77.6853 200.217 80.9563 195.163 79.6996 190.126C78.4428 185.088 73.1341 181.974 67.8424 183.171C62.5506 184.367 59.2796 189.421 60.5363 194.458C61.7931 199.496 67.1018 202.609 72.3935 201.413Z" fill="white"/>
<path d="M63.7466 187.576C66.026 188.632 68.4756 189.316 70.9931 189.599C75.1475 190.059 76.9864 189.508 76.9864 189.508C76.4928 191.723 76.2395 193.98 76.2304 196.244C76.3053 198.06 70.026 198.429 66.7433 197.23C65.2525 196.728 63.8463 196.022 62.5684 195.136C62.5684 195.136 62.7863 189.781 63.7466 187.576Z" fill="white" stroke="#263238" stroke-width="1.15613" stroke-linecap="round" stroke-linejoin="round"/>
<path d="M63.4609 189.599C63.4609 189.599 68.2897 193.094 76.4011 191.713" stroke="#263238" stroke-width="1.15613" stroke-linecap="round" stroke-linejoin="round"/>
<path d="M62.9775 191.622C62.9775 191.622 66.88 195.694 75.9858 193.794" stroke="#263238" stroke-width="1.15613" stroke-linecap="round" stroke-linejoin="round"/>
<path d="M62.6846 193.839C62.6846 193.839 70.4146 198.345 76.1151 195.784" stroke="#263238" stroke-width="1.15613" stroke-linecap="round" stroke-linejoin="round"/>
<path d="M76.9871 189.508C76.9871 189.508 80.0791 186.267 80.9441 188.309C81.809 190.351 80.5559 195.207 76.4082 196.588" stroke="#263238" stroke-width="1.15613" stroke-linecap="round" stroke-linejoin="round"/>
<path d="M63.7468 187.576C63.7468 187.576 63.849 184.912 62.2008 184.451C60.5527 183.991 61.043 191.162 62.589 194.656" stroke="#263238" stroke-width="1.15613" stroke-linecap="round" stroke-linejoin="round"/>
<path d="M72.9751 175.557H67.8672V180.672H72.9751V175.557Z" fill="white" stroke="#263238" stroke-width="1.15613" stroke-linecap="round" stroke-linejoin="round"/>
<path d="M76.3598 179.68L89.6813 161.715C90.1433 161.351 90.4849 160.868 90.6649 160.324C90.845 159.78 90.8558 159.198 90.6961 158.648C90.3624 157.682 84.3827 134.893 84.3827 134.893C84.3827 134.893 81.0455 129.493 77.5176 132.793C74.6571 135.477 76.7344 141.597 77.613 143.814C77.9194 144.586 78.1987 145.364 78.4507 146.155L81.638 159.154L72.5799 178.603C72.5799 178.603 68.7796 180.51 68.1803 180.873C67.5809 181.236 66.3755 182.857 65.6672 183.693C64.9589 184.529 63.7261 184.711 64.5434 185.178C65.3607 185.644 65.9055 185.067 66.2937 184.756L68.2075 183.194L66.4027 188.743C66.3508 188.899 66.3626 189.068 66.4359 189.216C66.5091 189.364 66.6384 189.48 66.7977 189.541C66.959 189.603 67.1392 189.604 67.3014 189.544C67.4635 189.484 67.5952 189.366 67.6695 189.217L69.4947 185.547L69.0997 189.768C69.0862 189.924 69.137 190.078 69.2412 190.199C69.3454 190.32 69.4949 190.398 69.6582 190.416C69.8036 190.432 69.9506 190.401 70.0746 190.326C70.1985 190.252 70.2919 190.14 70.3392 190.008L71.7014 186.118L71.6332 189.573L71.8103 190.461C72.8115 190.773 72.8455 189.638 72.9068 189.048L73.1997 186.358L74.16 189.353C74.5323 188.769 74.7016 188.088 74.6435 187.408L74.3983 184.594L75.4472 180.736L76.3598 179.68Z" fill="white" stroke="#263238" stroke-width="1.15613" stroke-linecap="round" stroke-linejoin="round"/>
<path d="M78.6964 146.9L78.4513 146.135C78.1993 145.344 77.92 144.566 77.6136 143.795C76.735 141.597 74.6578 135.477 77.5182 132.773C81.0461 129.473 84.3833 134.874 84.3833 134.874C84.3833 134.874 85.6092 139.593 86.9032 144.521L78.6964 146.9Z" fill="white" stroke="#263238" stroke-width="1.15613" stroke-linecap="round" stroke-linejoin="round"/>
<path d="M94.34 204.796H45.8213V246.257H94.34V204.796Z" fill="#92E3A9" stroke="#263238" stroke-width="1.15613" stroke-linecap="round" stroke-linejoin="round"/>
<path d="M69.359 239.936C76.6636 239.936 82.5852 234.299 82.5852 227.345C82.5852 220.391 76.6636 214.754 69.359 214.754C62.0544 214.754 56.1328 220.391 56.1328 227.345C56.1328 234.299 62.0544 239.936 69.359 239.936Z" fill="white"/>
<path d="M60.8253 220.991C63.8866 222.411 67.1764 223.331 70.5576 223.714C76.1423 224.33 78.6078 223.591 78.6078 223.591C78.6078 223.591 77.4295 228.778 77.593 232.668C77.6951 235.106 69.2636 235.598 64.8503 233.965C62.8564 233.28 60.9774 232.324 59.2725 231.125C59.2725 231.125 59.5313 223.961 60.8253 220.991Z" fill="white" stroke="#263238" stroke-width="1.15613" stroke-linecap="round" stroke-linejoin="round"/>
<path d="M60.4375 223.714C60.4375 223.714 66.928 228.408 77.825 226.554" stroke="#263238" stroke-width="1.15613" stroke-linecap="round" stroke-linejoin="round"/>
<path d="M59.79 226.431C59.79 226.431 65.0342 231.896 77.2661 229.348" stroke="#263238" stroke-width="1.15613" stroke-linecap="round" stroke-linejoin="round"/>
<path d="M59.4023 229.394C59.4023 229.394 69.7817 235.449 77.4368 231.987" stroke="#263238" stroke-width="1.15613" stroke-linecap="round" stroke-linejoin="round"/>
<path d="M78.6073 223.591C78.6073 223.591 82.755 219.267 83.9264 221.983C85.0978 224.7 83.4088 231.248 77.7969 233.102" stroke="#263238" stroke-width="1.15613" stroke-linecap="round" stroke-linejoin="round"/>
<path d="M60.8257 220.991C60.8257 220.991 60.9619 217.413 58.7825 216.797C56.6031 216.181 57.2229 225.815 59.3001 230.509" stroke="#263238" stroke-width="1.15613" stroke-linecap="round" stroke-linejoin="round"/>
<path d="M72.982 204.796H68.6777V211.668H72.982V204.796Z" fill="white" stroke="#263238" stroke-width="1.15613" stroke-linecap="round" stroke-linejoin="round"/>
<path d="M49.3291 187.596H15.1875V216.771H49.3291V187.596Z" fill="#92E3A9" stroke="#263238" stroke-width="1.15613" stroke-linecap="round" stroke-linejoin="round"/>
<path d="M34.598 213.468C39.8804 212.234 43.1125 207.158 41.8169 202.13C40.5214 197.101 35.1889 194.024 29.9065 195.258C24.624 196.491 21.392 201.567 22.6876 206.596C23.9831 211.624 29.3156 214.701 34.598 213.468Z" fill="white"/>
<path d="M25.901 199.629C28.179 200.688 30.6292 201.372 33.1475 201.651C37.3019 202.112 39.1408 201.561 39.1408 201.561C38.6467 203.778 38.3934 206.037 38.3848 208.303C38.4597 210.112 32.1803 210.482 28.8976 209.289C27.4129 208.779 26.0135 208.067 24.7432 207.175C24.7432 207.175 24.9407 201.839 25.901 199.629Z" fill="white" stroke="#263238" stroke-width="1.15613" stroke-linecap="round" stroke-linejoin="round"/>
<path d="M25.6143 201.652C25.6143 201.652 30.443 205.146 38.5544 203.772" stroke="#263238" stroke-width="1.15613" stroke-linecap="round" stroke-linejoin="round"/>
<path d="M25.1104 203.681C25.1104 203.681 29.0128 207.752 38.1254 205.853" stroke="#263238" stroke-width="1.15613" stroke-linecap="round" stroke-linejoin="round"/>
<path d="M24.8379 205.885C24.8379 205.885 32.5679 210.391 38.2684 207.83" stroke="#263238" stroke-width="1.15613" stroke-linecap="round" stroke-linejoin="round"/>
<path d="M39.1404 201.561C39.1404 201.561 42.2324 198.319 43.0974 200.368C43.9623 202.416 42.716 207.266 38.5615 208.647" stroke="#263238" stroke-width="1.15613" stroke-linecap="round" stroke-linejoin="round"/>
<path d="M25.9011 199.629C25.9011 199.629 26.0032 196.964 24.3619 196.504C22.7205 196.044 23.1972 203.221 24.7432 206.715" stroke="#263238" stroke-width="1.15613" stroke-linecap="round" stroke-linejoin="round"/>
<path d="M34.8091 187.596H29.7012V192.711H34.8091V187.596Z" fill="white" stroke="#263238" stroke-width="1.15613" stroke-linecap="round" stroke-linejoin="round"/>
<path d="M49.3291 217.082H15.1875V246.257H49.3291V217.082Z" fill="#92E3A9" stroke="#263238" stroke-width="1.15613" stroke-linecap="round" stroke-linejoin="round"/>
<path d="M38.92 240.742C42.9236 237.237 43.1847 231.307 39.5032 227.495C35.8217 223.684 29.5917 223.436 25.588 226.94C21.5844 230.445 21.3233 236.375 25.0048 240.187C28.6864 243.998 34.9164 244.246 38.92 240.742Z" fill="white"/>
<path d="M25.901 229.115C28.1804 230.171 30.63 230.855 33.1475 231.138C37.3019 231.598 39.1408 231.047 39.1408 231.047C38.6472 233.262 38.3939 235.519 38.3848 237.783C38.4597 239.598 32.1803 239.968 28.8976 238.769C27.4129 238.259 26.0135 237.547 24.7432 236.655C24.7432 236.655 24.9407 231.319 25.901 229.115Z" fill="white" stroke="#263238" stroke-width="1.15613" stroke-linecap="round" stroke-linejoin="round"/>
<path d="M25.6143 231.138C25.6143 231.138 30.443 234.632 38.5544 233.251" stroke="#263238" stroke-width="1.15613" stroke-linecap="round" stroke-linejoin="round"/>
<path d="M25.1104 233.16C25.1104 233.16 29.0128 237.232 38.1254 235.332" stroke="#263238" stroke-width="1.15613" stroke-linecap="round" stroke-linejoin="round"/>
<path d="M24.8379 235.365C24.8379 235.365 32.602 239.871 38.2684 237.277" stroke="#263238" stroke-width="1.15613" stroke-linecap="round" stroke-linejoin="round"/>
<path d="M39.1404 231.047C39.1404 231.047 42.2324 227.805 43.0974 229.848C43.9623 231.89 42.716 236.746 38.5615 238.127" stroke="#263238" stroke-width="1.15613" stroke-linecap="round" stroke-linejoin="round"/>
<path d="M25.9011 229.115C25.9011 229.115 26.0032 226.45 24.3619 225.99C22.7205 225.53 23.1972 232.7 24.7432 236.195" stroke="#263238" stroke-width="1.15613" stroke-linecap="round" stroke-linejoin="round"/>
<path d="M34.8091 217.082H29.7012V222.197H34.8091V217.082Z" fill="white" stroke="#263238" stroke-width="1.15613" stroke-linecap="round" stroke-linejoin="round"/>
<path d="M0 246.522H286.352" stroke="#263238" stroke-width="1.15613" stroke-linecap="round" stroke-linejoin="round"/>
</svg>
