<svg width="288" height="260" viewBox="0 0 288 260" fill="none" xmlns="http://www.w3.org/2000/svg">
<path d="M288 225.016H0V225.188H288V225.016Z" fill="#EBEBEB"/>
<path d="M259.143 236.073H240.065V236.244H259.143V236.073Z" fill="#EBEBEB"/>
<path d="M190.783 237.942H185.777V238.113H190.783V237.942Z" fill="#EBEBEB"/>
<path d="M239.489 229.696H228.436V229.867H239.489V229.696Z" fill="#EBEBEB"/>
<path d="M55.0942 230.85H30.2168V231.022H55.0942V230.85Z" fill="#EBEBEB"/>
<path d="M63.8726 230.85H60.2266V231.022H63.8726V230.85Z" fill="#EBEBEB"/>
<path d="M129.686 233.75H75.7266V233.922H129.686V233.75Z" fill="#EBEBEB"/>
<path d="M136.512 194.368H25.292C24.4207 194.366 23.5856 193.952 22.9701 193.216C22.3545 192.48 22.0088 191.483 22.0088 190.444V3.92378C22.0088 2.88431 22.3545 1.88733 22.9701 1.15167C23.5856 0.416019 24.4207 0.00182042 25.292 0H136.512C137.384 0 138.221 0.413397 138.838 1.14925C139.454 1.8851 139.801 2.88313 139.801 3.92378V190.444C139.801 191.485 139.454 192.483 138.838 193.219C138.221 193.954 137.384 194.368 136.512 194.368ZM25.292 0.171794C24.4589 0.173614 23.6604 0.569713 23.0719 1.27315C22.4833 1.97659 22.1528 2.92988 22.1528 3.92378V190.444C22.1528 191.438 22.4833 192.391 23.0719 193.095C23.6604 193.798 24.4589 194.194 25.292 194.196H136.512C137.345 194.194 138.145 193.798 138.734 193.095C139.323 192.392 139.655 191.439 139.657 190.444V3.92378C139.655 2.92925 139.323 1.97597 138.734 1.27273C138.145 0.56949 137.345 0.173611 136.512 0.171794H25.292Z" fill="#EBEBEB"/>
<path d="M261.106 194.368H149.881C149.009 194.366 148.173 193.952 147.557 193.217C146.94 192.481 146.593 191.484 146.592 190.444V3.92378C146.593 2.88368 146.94 1.88671 147.557 1.15125C148.173 0.415796 149.009 0.00181676 149.881 0H261.106C261.977 0.00363668 262.81 0.418637 263.425 1.15409C264.039 1.88955 264.384 2.8855 264.384 3.92378V190.444C264.384 191.482 264.039 192.478 263.425 193.214C262.81 193.949 261.977 194.364 261.106 194.368ZM149.881 0.171794C149.047 0.173611 148.248 0.56949 147.659 1.27273C147.069 1.97597 146.737 2.92925 146.736 3.92378V190.444C146.737 191.439 147.069 192.392 147.659 193.095C148.248 193.798 149.047 194.194 149.881 194.196H261.106C261.94 194.194 262.739 193.798 263.328 193.095C263.918 192.392 264.25 191.439 264.251 190.444V3.92378C264.25 2.92925 263.918 1.97597 263.328 1.27273C262.739 0.56949 261.94 0.173611 261.106 0.171794H149.881Z" fill="#EBEBEB"/>
<path d="M183.26 219.759C181.22 221.957 179.573 224.624 178.416 227.6C176.538 218.034 171.015 211.19 171.015 211.19C173.305 216.76 174.661 222.811 175.006 229.001C173.854 224.92 171.475 223.758 171.475 223.758C173.25 227.819 172.599 233.241 172.599 233.241H180.778C180.683 228.574 181.535 223.949 183.26 219.759Z" fill="#F0F0F0"/>
<path d="M251.216 235C251.479 230.314 252.507 225.735 254.24 221.518C251.563 225.065 249.641 229.329 248.636 233.949C247.758 231.695 246.51 229.674 244.967 228.005C246.274 231.176 246.918 234.677 246.845 238.21H253.037C253.037 238.21 252.547 234.086 253.889 231.029C253.889 231.029 252.075 231.908 251.216 235Z" fill="#F0F0F0"/>
<path d="M36.7491 232.43C36.4932 228.001 35.5149 223.673 33.8691 219.69C36.4015 223.042 38.2193 227.073 39.1683 231.441C39.9933 229.31 41.1685 227.399 42.6243 225.82C41.3939 228.81 40.7835 232.11 40.8445 235.44H35.0269C35.0269 235.44 35.4935 231.565 34.2205 228.651C34.8368 229.04 35.3794 229.577 35.8145 230.227C36.2495 230.877 36.5677 231.627 36.7491 232.43Z" fill="#F0F0F0"/>
<path d="M169.84 193.997C165.347 165.568 160.543 123.032 145.78 122.125C123.379 120.751 126.3 164.043 113.858 163.191C101.417 162.339 100.547 96.8095 76.8847 97.1874C54.6857 97.5379 45.3487 183.339 44.2773 193.997H169.84Z" fill="#E0E0E0"/>
<g style="mix-blend-mode:multiply">
<path d="M259.442 168.076V156.353H151.166V168.076H259.442Z" fill="#E0E0E0"/>
</g>
<path d="M170.093 149.557H160.267V208.469H170.093V149.557Z" fill="#F0F0F0"/>
<path d="M190.42 149.557H180.594V208.469H190.42V149.557Z" fill="#F0F0F0"/>
<path d="M210.741 149.557H200.914V208.469H210.741V149.557Z" fill="#F0F0F0"/>
<path d="M231.063 149.557H221.236V208.469H231.063V149.557Z" fill="#F0F0F0"/>
<path d="M251.384 149.557H241.558V208.469H251.384V149.557Z" fill="#F0F0F0"/>
<path d="M166.504 161.857C166.504 161.545 166.426 161.239 166.281 160.979C166.135 160.719 165.928 160.517 165.686 160.397C165.444 160.278 165.178 160.246 164.921 160.307C164.664 160.368 164.428 160.519 164.243 160.74C164.057 160.961 163.931 161.243 163.88 161.549C163.829 161.856 163.855 162.174 163.955 162.462C164.056 162.751 164.225 162.998 164.443 163.172C164.661 163.345 164.917 163.438 165.179 163.438C165.531 163.438 165.868 163.271 166.116 162.975C166.365 162.679 166.504 162.277 166.504 161.857Z" fill="#FAFAFA"/>
<path d="M186.825 161.858C186.825 161.545 186.748 161.239 186.602 160.979C186.456 160.719 186.249 160.516 186.006 160.397C185.764 160.277 185.497 160.246 185.24 160.308C184.983 160.37 184.747 160.521 184.562 160.742C184.377 160.964 184.251 161.246 184.201 161.553C184.15 161.861 184.177 162.179 184.278 162.467C184.379 162.756 184.55 163.002 184.769 163.175C184.987 163.348 185.244 163.439 185.506 163.438C185.857 163.436 186.192 163.269 186.439 162.973C186.687 162.677 186.825 162.276 186.825 161.858Z" fill="#FAFAFA"/>
<path d="M207.153 161.857C207.153 161.545 207.075 161.239 206.929 160.979C206.784 160.719 206.577 160.517 206.335 160.397C206.093 160.278 205.826 160.246 205.569 160.307C205.312 160.368 205.076 160.519 204.891 160.74C204.706 160.961 204.58 161.243 204.528 161.549C204.477 161.856 204.504 162.174 204.604 162.462C204.704 162.751 204.874 162.998 205.092 163.172C205.31 163.345 205.566 163.438 205.828 163.438C206.179 163.438 206.516 163.271 206.764 162.975C207.013 162.679 207.153 162.277 207.153 161.857Z" fill="#FAFAFA"/>
<path d="M227.474 161.857C227.474 161.545 227.396 161.239 227.251 160.979C227.105 160.719 226.898 160.517 226.656 160.397C226.414 160.278 226.148 160.246 225.891 160.307C225.634 160.368 225.398 160.519 225.212 160.74C225.027 160.961 224.901 161.243 224.85 161.549C224.799 161.856 224.825 162.174 224.925 162.462C225.025 162.751 225.195 162.998 225.413 163.172C225.631 163.345 225.887 163.438 226.149 163.438C226.5 163.438 226.837 163.271 227.086 162.975C227.334 162.679 227.474 162.277 227.474 161.857Z" fill="#FAFAFA"/>
<path d="M247.795 161.857C247.795 161.545 247.717 161.239 247.572 160.979C247.426 160.719 247.219 160.517 246.977 160.397C246.735 160.278 246.469 160.246 246.212 160.307C245.955 160.368 245.719 160.519 245.534 160.74C245.348 160.961 245.222 161.243 245.171 161.549C245.12 161.856 245.146 162.174 245.246 162.462C245.347 162.751 245.516 162.998 245.734 163.172C245.952 163.345 246.208 163.438 246.47 163.438C246.822 163.438 247.159 163.271 247.407 162.975C247.656 162.679 247.795 162.277 247.795 161.857Z" fill="#FAFAFA"/>
<path d="M96.1172 168.083V156.36H28.3335V168.083H96.1172Z" fill="#E0E0E0"/>
<g style="mix-blend-mode:multiply" opacity="0.3">
<path d="M259.442 168.076V156.353H151.166V168.076H259.442Z" fill="#E0E0E0"/>
</g>
<g style="mix-blend-mode:multiply" opacity="0.3">
<path d="M96.1172 168.083V156.36H28.3335V168.083H96.1172Z" fill="#E0E0E0"/>
</g>
<path d="M47.2611 149.557H37.4346V208.469H47.2611V149.557Z" fill="#F0F0F0"/>
<path d="M67.5824 149.557H57.7559V208.469H67.5824V149.557Z" fill="#F0F0F0"/>
<path d="M87.9096 149.557H78.083V208.469H87.9096V149.557Z" fill="#F0F0F0"/>
<path d="M43.6721 161.857C43.6721 161.545 43.5944 161.239 43.4488 160.979C43.3032 160.719 43.0963 160.517 42.8542 160.397C42.6122 160.278 42.3458 160.246 42.0888 160.307C41.8318 160.368 41.5958 160.519 41.4105 160.74C41.2252 160.961 41.099 161.243 41.0479 161.549C40.9968 161.856 41.023 162.174 41.1233 162.462C41.2236 162.751 41.3934 162.998 41.6112 163.172C41.8291 163.345 42.0852 163.438 42.3473 163.438C42.6986 163.438 43.0356 163.271 43.284 162.975C43.5325 162.679 43.6721 162.277 43.6721 161.857Z" fill="#FAFAFA"/>
<path d="M63.9933 161.857C63.9933 161.545 63.9157 161.239 63.7701 160.979C63.6245 160.719 63.4176 160.517 63.1755 160.397C62.9335 160.278 62.6671 160.246 62.4101 160.307C62.1531 160.368 61.917 160.519 61.7318 160.74C61.5465 160.961 61.4203 161.243 61.3692 161.549C61.3181 161.856 61.3443 162.174 61.4446 162.462C61.5449 162.751 61.7147 162.998 61.9325 163.172C62.1504 163.345 62.4065 163.438 62.6686 163.438C63.0199 163.438 63.3569 163.271 63.6053 162.975C63.8538 162.679 63.9933 162.277 63.9933 161.857Z" fill="#FAFAFA"/>
<path d="M84.3146 161.857C84.3146 161.545 84.2369 161.239 84.0914 160.979C83.9458 160.719 83.7389 160.517 83.4968 160.397C83.2547 160.278 82.9884 160.246 82.7314 160.307C82.4744 160.368 82.2383 160.519 82.0531 160.74C81.8678 160.961 81.7416 161.243 81.6905 161.549C81.6394 161.856 81.6656 162.174 81.7659 162.462C81.8662 162.751 82.036 162.998 82.2538 163.172C82.4717 163.345 82.7278 163.438 82.9898 163.438C83.1638 163.438 83.3361 163.397 83.4968 163.318C83.6576 163.238 83.8036 163.122 83.9266 162.975C84.0496 162.828 84.1472 162.654 84.2138 162.462C84.2804 162.271 84.3146 162.065 84.3146 161.857Z" fill="#FAFAFA"/>
<path d="M249.984 71.0403C250.062 70.5023 250.102 69.9576 250.105 69.4116C250.11 67.9022 249.838 66.4098 249.309 65.0387C248.78 63.6677 248.006 62.4512 247.041 61.4745C246.077 60.4978 244.945 59.7845 243.725 59.3845C242.505 58.9845 241.226 58.9076 239.979 59.159C238.98 57.1718 237.515 55.5772 235.765 54.572C234.015 53.5669 232.057 53.1952 230.132 53.5029C228.207 53.8106 226.4 54.7842 224.933 56.3035C223.467 57.8228 222.406 59.8212 221.881 62.052C220.914 61.6965 219.89 61.6164 218.893 61.818C217.895 62.0196 216.951 62.4973 216.136 63.2129C215.321 63.9285 214.658 64.862 214.201 65.9385C213.743 67.015 213.503 68.2045 213.5 69.4116C213.503 69.9592 213.553 70.5049 213.65 71.0403H249.984Z" fill="#F0F0F0"/>
<path d="M106.169 48.6158C108.457 34.4395 100.679 20.7342 88.7964 18.0043C76.9136 15.2743 65.4257 24.5535 63.1374 38.7299C60.8491 52.9062 68.6271 66.6115 80.5099 69.3414C92.3927 72.0714 103.881 62.7922 106.169 48.6158Z" fill="#F0F0F0"/>
<path opacity="0.1" d="M106.169 48.6158C108.457 34.4395 100.679 20.7342 88.7964 18.0043C76.9136 15.2743 65.4257 24.5535 63.1374 38.7299C60.8491 52.9062 68.6271 66.6115 80.5099 69.3414C92.3927 72.0714 103.881 62.7922 106.169 48.6158Z" fill="black"/>
<path d="M76.2159 42.1376C76.2914 41.5854 76.3319 41.0272 76.3368 40.4677C76.3368 37.6348 75.3951 34.9176 73.7182 32.9118C72.0413 30.9061 69.7661 29.7757 67.3915 29.7684C66.905 29.7699 66.4194 29.8205 65.94 29.9196C64.9157 27.864 63.4076 26.2127 61.6033 25.1709C59.799 24.1291 57.7778 23.7427 55.791 24.0597C53.8041 24.3767 51.9391 25.3831 50.4276 26.9538C48.9162 28.5246 47.8248 30.5906 47.2891 32.895C46.1802 32.4833 45.0002 32.4254 43.8667 32.7271C42.7332 33.0288 41.6858 33.6795 40.8287 34.6145C39.9716 35.5494 39.3347 36.736 38.9817 38.0559C38.6286 39.3758 38.5715 40.7831 38.8162 42.1376H76.2159Z" fill="#F0F0F0"/>
<path d="M96.6297 55.9019C96.5103 55.0529 96.5481 54.1831 96.7405 53.3534C96.933 52.5238 97.2753 51.7545 97.7436 51.0996C98.2119 50.4446 98.7947 49.92 99.451 49.5625C100.107 49.205 100.821 49.0232 101.543 49.0301C101.815 49.032 102.087 49.0618 102.355 49.1194C102.922 47.9731 103.76 47.0513 104.763 46.4693C105.766 45.8872 106.891 45.6706 107.997 45.8465C109.103 46.0225 110.141 46.5831 110.981 47.4585C111.822 48.3338 112.428 49.4851 112.723 50.7687C113.276 50.5628 113.862 50.515 114.433 50.629C115.004 50.743 115.545 51.0158 116.011 51.4251C116.478 51.8345 116.857 52.369 117.118 52.9856C117.379 53.6021 117.516 54.2833 117.515 54.9742C117.515 55.2882 117.488 55.6013 117.435 55.9087L96.6297 55.9019Z" fill="#F0F0F0"/>
<path d="M57.7558 75.7268C54.9218 74.4556 49.519 73.0949 46.9385 79.3895C46.9385 79.3895 49.8991 76.6408 54.8815 77.2867C54.6818 77.7001 54.5626 78.1618 54.5327 78.6376C54.5027 79.1134 54.5629 79.5911 54.7087 80.0354L57.7846 78.0083H57.8306C64.4892 75.6512 68.5788 79.4445 68.5788 79.4445C65.9926 73.0949 60.5897 74.4556 57.7558 75.7268Z" fill="#F0F0F0"/>
<path d="M144 260C205.679 260 255.681 256.517 255.681 252.221C255.681 247.925 205.679 244.442 144 244.442C82.3205 244.442 32.3193 247.925 32.3193 252.221C32.3193 256.517 82.3205 260 144 260Z" fill="#F5F5F5"/>
<path d="M213.147 48.0778C221.195 47.0924 227.546 44.286 227.333 41.8093C227.12 39.3327 220.423 38.1238 212.376 39.1092C204.328 40.0945 197.977 42.901 198.19 45.3776C198.404 47.8543 205.1 49.0632 213.147 48.0778Z" fill="#407BFF"/>
<path opacity="0.35" d="M219.456 39.767C219.508 39.767 220.821 39.8494 220.608 40.2961C220.395 40.7428 219.295 40.6259 219.295 40.6259L219.456 39.767Z" fill="black"/>
<path opacity="0.35" d="M205.131 41.4987C205.131 41.4987 204.025 41.7254 204.262 42.5226C204.498 43.3197 206.825 42.9349 206.825 42.9349L206.249 41.8697L205.131 41.4987Z" fill="black"/>
<path d="M188.352 104.506L180.132 95.1259C180.127 93.9303 179.766 92.7759 179.113 91.8687C178.042 90.4943 173.255 88.5427 172.944 88.9894C172.633 89.4361 172.189 94.961 172.725 95.497C173.261 96.033 178.093 98.3831 178.093 98.3831L184.504 108.436L188.352 104.506Z" fill="#E4897B"/>
<path d="M203.852 66.1683L200.684 68.3191C197.142 75.7475 189.256 92.1573 186.86 97.1805C186.772 97.3655 186.651 97.5255 186.506 97.6493C186.361 97.7731 186.195 97.8579 186.02 97.8977C185.844 97.9376 185.664 97.9316 185.491 97.8801C185.318 97.8287 185.156 97.733 185.017 97.5997L183.047 95.7375L178.646 103.008C178.646 103.008 185.184 111.13 187.419 110.326C191.704 108.766 202.879 86.2132 202.879 86.2132L203.852 66.1683Z" fill="#407BFF"/>
<path opacity="0.4" d="M198.248 78.8879C198.248 78.8879 194.216 94.6174 194.354 102.094C196.612 98.2938 198.858 94.0677 200.477 90.9204L198.248 78.8879Z" fill="black"/>
<path d="M201.059 243.15L196.249 243.755L193.605 214.365L201.059 213.458V243.15Z" fill="#E4897B"/>
<path opacity="0.2" d="M193.899 217.636C195.731 217.553 198.813 217.368 201.059 217.23V213.458L193.605 214.365L193.899 217.636Z" fill="#263238"/>
<path d="M225.038 242.731H220.384L216.818 210.75L224.064 209.658L225.038 242.731Z" fill="#E4897B"/>
<path opacity="0.2" d="M217.043 212.757L217.504 216.907L224.254 216.117L224.064 209.658L217.366 210.668L217.043 212.757Z" fill="#263238"/>
<path d="M227.019 68.5803C225.652 74.572 224.665 80.6775 224.064 86.8455C223.874 88.7352 223.713 90.5975 223.58 92.3979C223.407 94.6862 223.292 96.892 223.194 98.9879C223.079 101.634 223.044 104.767 223.05 107.852C223.05 114.93 223.298 121.74 223.298 121.74C218.557 123.115 204.866 122.214 197.378 121.562C196.496 113.026 196.265 104.412 196.687 95.8269C196.934 90.1495 197.455 84.4938 198.248 78.888C198.65 75.8993 199.208 72.9433 199.918 70.0371C200.192 69.0062 200.708 68.0908 201.406 67.4C202.103 66.7092 202.952 66.2721 203.852 66.1408C204.756 66.0103 205.805 65.8728 206.911 65.7973C207.337 65.7973 207.763 65.7492 208.195 65.7354C211.73 65.7878 215.258 66.0815 218.765 66.615C219.427 66.7043 220.101 66.828 220.758 66.9517C222.867 67.3635 224.957 67.9071 227.019 68.5803Z" fill="#407BFF"/>
<path d="M205.2 41.533C205.2 41.533 204.129 48.288 207.533 51.236C210.937 54.184 210.943 39.925 210.943 39.925L205.2 41.533Z" fill="#F5F5F5"/>
<path d="M205.2 41.533C205.2 41.533 204.129 48.288 207.533 51.236C210.937 54.184 210.943 39.925 210.943 39.925L205.2 41.533Z" fill="#263238"/>
<path d="M218.771 66.6081C216.502 69.0682 210.943 68.1543 210.943 68.1543C210.943 68.1543 207.487 67.0273 208.202 65.7285C210.246 65.33 211.237 64.1893 211.658 62.7324C211.88 61.8301 211.95 60.8843 211.865 59.9494C211.831 59.434 211.767 58.9117 211.692 58.3964L218.564 52.3217C217.654 56.328 216.577 63.7014 218.771 66.6081Z" fill="#E4897B"/>
<path opacity="0.2" d="M216.962 56.211C216.691 61.1312 213.304 62.4849 211.646 62.7598C211.868 61.8575 211.938 60.9116 211.853 59.9767L216.962 56.211Z" fill="black"/>
<path d="M217.423 57.3174C216.711 58.5797 215.67 59.5273 214.462 60.0141C213.253 60.5009 211.944 60.4999 210.736 60.0112C209.163 59.4185 207.839 58.1334 207.032 56.4172C206.92 56.1784 206.818 55.933 206.727 55.6819C205.051 51.0023 204.515 42.818 208.662 39.7463C209.577 39.0704 210.62 38.6833 211.695 38.6214C212.769 38.5596 213.839 38.8251 214.803 39.393C215.768 39.9608 216.596 40.8122 217.208 41.8671C217.821 42.9219 218.198 44.1455 218.305 45.4224C218.817 50.8923 219.336 54.0808 217.423 57.3174Z" fill="#E4897B"/>
<path d="M212.545 41.8698C212.801 41.6737 213.103 41.5786 213.408 41.598C213.712 41.6174 214.004 41.7503 214.242 41.9779C214.48 42.2056 214.652 42.5165 214.734 42.867C214.816 43.2174 214.804 43.5897 214.699 43.9314C214.255 46.0548 215.275 53.167 217.285 50.116C217.285 50.116 217.233 49.2295 217.861 49.3463C218.489 49.4632 218.8 54.0604 217.809 56.4174C217.809 56.4174 219.439 54.1772 219.981 49.2295C220.522 44.2818 220.182 40.3374 219.048 38.9837C217.913 37.63 217.613 39.0387 216.772 37.1558C215.931 35.273 209.1 35.0943 205.454 40.0282C204.78 40.9284 204.411 46.7076 212.545 41.8698Z" fill="#263238"/>
<path d="M211.623 48.3497C211.715 48.7826 211.542 49.188 211.3 49.2361C211.058 49.2842 210.811 48.9613 210.724 48.549C210.638 48.1367 210.805 47.7106 211.047 47.6625C211.289 47.6144 211.559 47.903 211.623 48.3497Z" fill="#263238"/>
<path d="M207.435 49.2018C207.527 49.6347 207.354 50.0401 207.112 50.0882C206.87 50.1363 206.623 49.8134 206.536 49.4011C206.45 48.9888 206.623 48.5627 206.859 48.5146C207.095 48.4665 207.36 48.7826 207.435 49.2018Z" fill="#263238"/>
<path d="M208.668 48.4805C208.419 49.9162 208.004 51.3038 207.436 52.6035C208.012 52.9402 208.783 53.2907 209.371 52.9952L208.668 48.4805Z" fill="#DE5753"/>
<path opacity="0.35" d="M219.042 38.9835C218.207 37.9871 217.827 38.4819 217.349 38.0696L213.438 39.4439C213.478 39.4439 217.763 39.279 220.113 42.495C219.941 40.8733 219.583 39.6295 219.042 38.9835Z" fill="black"/>
<path d="M220.931 49.47C220.602 50.8 219.844 51.9198 218.823 52.5829C217.469 53.4487 216.456 52.1019 216.548 50.3633C216.64 48.8171 217.446 46.4601 218.95 46.3227C220.453 46.1853 221.317 47.8276 220.931 49.47Z" fill="#E4897B"/>
<path d="M180.058 70.9304L174.96 70.2569L174.137 65.8246L181.671 66.8279L180.058 70.9304Z" fill="black"/>
<path d="M168.572 165.603H168.515C168.255 165.568 168.017 165.412 167.852 165.169C167.688 164.925 167.612 164.614 167.639 164.304L177.155 62.32L179.177 62.588L169.661 164.565C169.631 164.874 169.499 165.156 169.295 165.351C169.092 165.545 168.832 165.635 168.572 165.603Z" fill="#263238"/>
<path d="M192.603 44.9208C191.008 47.921 189.84 51.216 189.147 54.6718L187.834 61.2962C187.717 61.9163 187.417 62.4655 186.989 62.8439C186.561 63.2223 186.033 63.4046 185.501 63.3577L181.055 62.7668C178.941 62.485 179.263 60.4304 179.263 60.4304L182.829 42.6188L182.253 43.7251C180.656 46.7272 179.488 50.0247 178.797 53.483L177.409 60.5953C177.242 61.1725 176.7 62.2102 174.92 61.9696L172.109 61.5986H172.052C171.827 61.5578 171.612 61.4615 171.42 61.3159C171.228 61.1702 171.063 60.9785 170.937 60.7528C170.811 60.5271 170.725 60.2725 170.686 60.0052C170.647 59.7378 170.655 59.4637 170.71 59.2003L174.292 41.3337L173.716 42.4332C172.12 45.4354 170.952 48.7328 170.26 52.1911L168.532 60.9595V61.0832C168.375 62.8687 168.813 64.6563 169.752 66.0593C170.691 67.4623 172.055 68.368 173.549 68.5803L182.875 69.8172C184.369 70.015 185.868 69.5017 187.047 68.3888C188.225 67.2759 188.989 65.6533 189.17 63.8731L193.202 43.8144L192.603 44.9208Z" fill="#407BFF"/>
<path opacity="0.5" d="M192.603 44.9208C191.008 47.921 189.84 51.216 189.147 54.6718L187.834 61.2962C187.717 61.9163 187.417 62.4655 186.989 62.8439C186.561 63.2223 186.033 63.4046 185.501 63.3577L181.055 62.7668C178.941 62.485 179.263 60.4304 179.263 60.4304L182.829 42.6188L182.253 43.7251C180.656 46.7272 179.488 50.0247 178.797 53.483L177.409 60.5953C177.242 61.1725 176.7 62.2102 174.92 61.9696L172.109 61.5986H172.052C171.827 61.5578 171.612 61.4615 171.42 61.3159C171.228 61.1702 171.063 60.9785 170.937 60.7528C170.811 60.5271 170.725 60.2725 170.686 60.0052C170.647 59.7378 170.655 59.4637 170.71 59.2003L174.292 41.3337L173.716 42.4332C172.12 45.4354 170.952 48.7328 170.26 52.1911L168.532 60.9595V61.0832C168.375 62.8687 168.813 64.6563 169.752 66.0593C170.691 67.4623 172.055 68.368 173.549 68.5803L182.875 69.8172C184.369 70.015 185.868 69.5017 187.047 68.3888C188.225 67.2759 188.989 65.6533 189.17 63.8731L193.202 43.8144L192.603 44.9208Z" fill="white"/>
<path d="M215.321 212.406L225.429 210.922C224.934 200.401 224.393 188.767 224.03 181.03C223.148 162.174 222.768 120.84 222.739 116.964H198.018C196.007 130.076 190.328 171.657 192.044 213.643L202.084 212.956C202.482 192.087 203.881 160.786 208.57 145.743C209.422 158.429 210.43 171.918 211.306 179.099C212.337 187.551 213.938 200.862 215.321 212.406Z" fill="#407BFF"/>
<path opacity="0.3" d="M215.321 212.406L225.429 210.922C224.934 200.401 224.393 188.767 224.03 181.03C223.298 165.369 222.912 134.199 222.786 121.871C222.958 121.83 223.131 121.788 223.287 121.74C223.287 121.74 223.05 114.93 223.039 107.852C223.039 104.767 223.039 101.634 223.183 98.9879C223.281 96.892 223.396 94.6862 223.569 92.3979C223.701 90.5975 223.863 88.7352 224.053 86.8455C224.657 80.6772 225.649 74.5716 227.019 68.5803C225.008 67.9391 222.97 67.423 220.914 67.0342C217.175 72.0368 215.182 85.2031 215.182 85.2031C211.646 85.265 201.71 83.9662 201.71 83.9662C202.568 70.9648 204.953 66.7868 205.557 65.9691C204.953 66.0378 204.377 66.1134 203.829 66.189C202.93 66.3202 202.08 66.7573 201.383 67.4481C200.685 68.1389 200.169 69.0543 199.895 70.0852C199.185 72.9914 198.628 75.9474 198.225 78.9361C197.429 84.5326 196.904 90.179 196.652 95.8475C196.232 104.396 196.46 112.972 197.332 121.472C194.97 137.965 190.466 175.663 192.016 213.664L202.061 212.977C202.458 192.107 203.858 160.806 208.547 145.764C209.399 158.449 210.407 171.938 211.283 179.119C212.337 187.551 213.938 200.862 215.321 212.406Z" fill="black"/>
<path opacity="0.35" d="M223.662 170.969C223.466 164.537 223.31 157.178 223.178 150.004L219.779 147.688C219.779 147.688 220.47 167.417 223.662 170.969Z" fill="black"/>
<path d="M191.86 215.794L203.086 214.818L202.977 211.121L191.312 211.898L191.86 215.794Z" fill="#407BFF"/>
<path d="M215.009 214.495L226.034 213.643L225.844 209.658L214.629 210.681L215.009 214.495Z" fill="#407BFF"/>
<path d="M204.734 246.813L203.178 240.814L203.086 222.803L192.787 223.559L194.734 241.604C193.415 243.26 190.19 245.185 185.835 246.765C184.867 247.122 185.374 249.94 187.788 249.706C190.201 249.473 195.466 248.737 197.217 248.565C200.051 248.291 201.71 248.291 203.973 248.119C204.036 248.112 204.097 248.099 204.158 248.078C204.265 248.04 204.365 247.977 204.452 247.893C204.539 247.809 204.612 247.705 204.665 247.588C204.719 247.47 204.752 247.342 204.764 247.209C204.776 247.076 204.765 246.941 204.734 246.813Z" fill="#263238"/>
<path d="M191.722 222.803L203.777 221.759V226.514L192.2 227.139L191.722 222.803Z" fill="#263238"/>
<path d="M228.73 247.336L227.174 241.336L227.082 223.326L216.783 224.081L218.73 242.12C217.417 243.783 214.186 245.7 209.831 247.287C208.863 247.645 209.37 250.462 211.789 250.229C214.209 249.995 219.462 249.26 221.213 249.088C224.052 248.813 225.706 248.813 227.969 248.641C228.032 248.635 228.093 248.621 228.154 248.6C228.261 248.562 228.361 248.499 228.448 248.415C228.535 248.331 228.608 248.228 228.661 248.11C228.715 247.993 228.748 247.864 228.76 247.731C228.772 247.598 228.761 247.464 228.73 247.336Z" fill="#263238"/>
<path d="M215.718 223.326L227.773 222.281V227.036L216.196 227.662L215.718 223.326Z" fill="#263238"/>
<path d="M201.398 90.515L203.224 91.0922C206.024 91.9641 208.917 92.3301 211.807 92.178L214.22 92.0474L212.596 100.5C212.446 101.391 212.024 102.185 211.413 102.728C210.801 103.271 210.043 103.525 209.284 103.441L204.204 102.877C203.437 102.79 202.724 102.365 202.206 101.686C201.687 101.006 201.399 100.12 201.398 99.2009V90.515Z" fill="#407BFF"/>
<path opacity="0.2" d="M201.398 90.515L203.224 91.0922C206.024 91.9641 208.917 92.3301 211.807 92.178L214.22 92.0474L212.596 100.5C212.446 101.391 212.024 102.185 211.413 102.728C210.801 103.271 210.043 103.525 209.284 103.441L204.204 102.877C203.437 102.79 202.724 102.365 202.206 101.686C201.687 101.006 201.399 100.12 201.398 99.2009V90.515Z" fill="black"/>
<path d="M234.616 153.508L233.556 153.22C233.824 151.818 233.957 150.384 233.954 148.946C233.954 142.383 231.31 137.051 228.061 137.051C224.813 137.051 222.175 142.383 222.175 148.98H221.086C221.086 141.71 224.219 135.786 228.061 135.786C231.903 135.786 235.037 141.71 235.037 148.98C235.039 150.504 234.898 152.023 234.616 153.508Z" fill="#263238"/>
<path d="M219.784 147.667L222.866 166.908C222.866 167.733 225.417 168.406 228.568 168.406C231.719 168.406 234.271 167.719 234.271 166.908L237.352 147.667H219.784Z" fill="#EBEBEB"/>
<path opacity="0.3" d="M219.784 147.667L222.866 166.908C222.866 167.733 225.417 168.406 228.568 168.406C231.719 168.406 234.271 167.719 234.271 166.908L237.352 147.667H219.784Z" fill="black"/>
<path d="M228.568 149.969C233.419 149.969 237.352 148.939 237.352 147.667C237.352 146.396 233.419 145.365 228.568 145.365C223.717 145.365 219.784 146.396 219.784 147.667C219.784 148.939 223.717 149.969 228.568 149.969Z" fill="#407BFF"/>
<path opacity="0.6" d="M228.568 149.969C233.419 149.969 237.352 148.939 237.352 147.667C237.352 146.396 233.419 145.365 228.568 145.365C223.717 145.365 219.784 146.396 219.784 147.667C219.784 148.939 223.717 149.969 228.568 149.969Z" fill="black"/>
<path opacity="0.35" d="M228.568 149.969C232.599 149.969 235.866 149.511 235.866 148.945C235.866 148.38 232.599 147.922 228.568 147.922C224.538 147.922 221.271 148.38 221.271 148.945C221.271 149.511 224.538 149.969 228.568 149.969Z" fill="black"/>
<path d="M234.063 154.677C234.823 154.677 235.44 153.941 235.44 153.034C235.44 152.127 234.823 151.392 234.063 151.392C233.303 151.392 232.687 152.127 232.687 153.034C232.687 153.941 233.303 154.677 234.063 154.677Z" fill="#F5F5F5"/>
<path opacity="0.4" d="M233.016 149.667C233.386 150.592 233.606 151.592 233.667 152.615L234.3 152.416L234.651 149.612V149.344C234.139 149.454 233.597 149.557 233.016 149.667Z" fill="black"/>
<path d="M228.568 135.8V137.099C231.581 137.621 233.954 142.733 233.954 148.946C233.955 150.172 233.859 151.396 233.666 152.601C233.638 152.766 233.666 152.937 233.742 153.078C233.818 153.219 233.938 153.319 234.075 153.357C234.216 153.387 234.362 153.353 234.484 153.262C234.605 153.17 234.694 153.028 234.732 152.862C234.936 151.571 235.038 150.26 235.037 148.946C235.037 141.998 232.18 136.295 228.568 135.8Z" fill="#263238"/>
<path d="M224.922 119.734L225.539 132.419C224.9 133.242 224.529 134.309 224.49 135.429C224.49 137.202 226.725 142.17 227.18 142.101C227.635 142.032 230.895 138.583 230.809 137.813C230.723 137.044 228.678 131.745 228.678 131.745L229.645 119.995L224.922 119.734Z" fill="#E4897B"/>
<path opacity="0.2" d="M208.57 145.723C207.354 149.875 206.429 154.141 205.805 158.477C205.114 147.193 207.879 135.229 207.879 135.229L208.57 145.723Z" fill="black"/>
<path d="M211.271 54.1496C210.931 53.9667 210.553 53.9094 210.185 53.9854C209.818 54.0613 209.478 54.2669 209.209 54.5757C209.187 54.5558 209.164 54.5374 209.14 54.5207C208.78 54.371 208.391 54.3567 208.024 54.4796C207.657 54.6025 207.331 54.8567 207.09 55.2079C206.007 56.5822 205.655 55.847 205.655 55.847C205.655 55.847 206.387 58.1834 208.362 56.6991C208.524 56.5754 208.668 56.4585 208.794 56.3486C208.973 56.1938 209.178 56.0876 209.395 56.0378C209.612 55.9879 209.836 55.9955 210.05 56.06C210.262 56.1183 210.478 56.146 210.695 56.1424C212.515 56.1424 213.08 53.9435 213.08 53.9435C213.08 53.9435 212.763 54.8368 211.271 54.1496Z" fill="#263238"/>
<path d="M212.187 39.9044C214.897 39.5387 217.633 39.5387 220.343 39.9044C219.64 35.2453 216.789 32.531 212.676 32.531C208.068 32.531 203.766 36.173 203.766 41.6773C203.766 41.8079 203.766 41.9316 203.766 42.0553C206.489 40.9309 209.317 40.2086 212.187 39.9044Z" fill="#407BFF"/>
<path d="M215.701 43.0104C215.597 43.1066 208.029 45.7591 206.157 43.4777C204.285 41.1963 212.493 40.9695 212.493 40.9695L214.935 41.1825L215.701 43.0104Z" fill="#263238"/>
<path d="M227.019 68.5803C227.019 68.5803 231.27 67.8931 231.115 101.84C231.017 124.578 231.616 124.461 231.616 124.461L222.791 124.977C222.791 124.977 216.962 68.6352 227.019 68.5803Z" fill="#407BFF"/>
<path d="M221.524 121.726L232.44 121.589L232.515 124.956L221.686 125.306L221.524 121.726Z" fill="#407BFF"/>
<path opacity="0.5" d="M221.524 121.726L232.44 121.589L232.515 124.956L221.686 125.306L221.524 121.726Z" fill="#FAFAFA"/>
<path d="M182.592 93.9577L184.452 95.6825L178.779 104.554L177.057 102.699L182.592 93.9577Z" fill="#407BFF"/>
<path opacity="0.5" d="M182.592 93.9577L184.452 95.6825L178.779 104.554L177.057 102.699L182.592 93.9577Z" fill="#FAFAFA"/>
<path d="M210.24 46.5357C210.216 46.5278 210.194 46.5144 210.175 46.4962C210.156 46.4781 210.14 46.4556 210.128 46.43C210.116 46.4044 210.109 46.3762 210.106 46.3472C210.104 46.3182 210.106 46.2888 210.113 46.2608C210.19 46.0126 210.326 45.7962 210.504 45.6377C210.682 45.4792 210.894 45.3854 211.115 45.3675C211.353 45.3059 211.601 45.3283 211.828 45.4321C212.055 45.5358 212.252 45.7164 212.394 45.9516C212.42 46.0019 212.429 46.0624 212.418 46.1202C212.407 46.178 212.378 46.2285 212.337 46.2608C212.294 46.2914 212.243 46.3006 212.194 46.2864C212.146 46.2723 212.104 46.2359 212.077 46.1852C211.971 46.0257 211.83 45.9054 211.668 45.8384C211.507 45.7715 211.333 45.7607 211.167 45.8073C211.017 45.8166 210.872 45.8763 210.748 45.9796C210.625 46.0829 210.529 46.2257 210.47 46.3914C210.456 46.4469 210.423 46.4933 210.38 46.5203C210.337 46.5474 210.287 46.5529 210.24 46.5357Z" fill="#263238"/>
<path d="M205.361 47.2779H205.309C205.261 47.2604 205.221 47.221 205.197 47.1682C205.174 47.1154 205.168 47.0536 205.183 46.9961C205.26 46.7479 205.396 46.5315 205.573 46.373C205.751 46.2145 205.964 46.1207 206.185 46.1028C206.423 46.043 206.67 46.0663 206.897 46.1699C207.123 46.2735 207.32 46.453 207.464 46.6869C207.477 46.712 207.486 46.74 207.49 46.7694C207.494 46.7988 207.493 46.8288 207.488 46.8577C207.482 46.8866 207.471 46.9138 207.456 46.9376C207.441 46.9614 207.422 46.9813 207.4 46.9961C207.38 47.0121 207.357 47.0228 207.333 47.0276C207.308 47.0324 207.284 47.0312 207.26 47.0241C207.236 47.017 207.214 47.0042 207.194 46.9864C207.175 46.9685 207.159 46.9461 207.147 46.9206C207.04 46.7628 206.898 46.6444 206.737 46.5787C206.576 46.5131 206.402 46.5029 206.237 46.5495C206.087 46.5565 205.941 46.6146 205.818 46.7168C205.694 46.8191 205.598 46.9613 205.54 47.1267C205.528 47.1714 205.504 47.2101 205.471 47.2374C205.439 47.2646 205.401 47.2788 205.361 47.2779Z" fill="#263238"/>
<path d="M70.0643 168.344C70.0643 173.622 63.6419 183.036 59.2182 183.036C54.7945 183.036 54.0342 173.622 54.0342 168.344C54.0342 165.809 54.8783 163.378 56.3809 161.585C57.8835 159.793 59.9214 158.786 62.0463 158.786C64.1713 158.786 66.2092 159.793 67.7118 161.585C69.2144 163.378 70.0585 165.809 70.0585 168.344H70.0643Z" fill="#407BFF"/>
<path opacity="0.4" d="M70.0643 168.344C70.0643 173.622 63.6419 183.036 59.2182 183.036C54.7945 183.036 54.0342 173.622 54.0342 168.344C54.0342 165.809 54.8783 163.378 56.3809 161.585C57.8835 159.793 59.9214 158.786 62.0463 158.786C64.1713 158.786 66.2092 159.793 67.7118 161.585C69.2144 163.378 70.0585 165.809 70.0585 168.344H70.0643Z" fill="#FAFAFA"/>
<path d="M66.0845 157.137C65.5056 157.512 65.0077 158.043 64.6299 158.686C64.2521 159.33 64.0047 160.07 63.9072 160.847C64.5046 161.18 65.1589 161.342 65.818 161.32C66.4771 161.297 67.1226 161.091 67.703 160.718C68.2833 160.344 68.7825 159.814 69.1606 159.17C69.5386 158.526 69.7851 157.785 69.8803 157.006C69.2822 156.676 68.6282 156.517 67.9696 156.539C67.311 156.562 66.6657 156.766 66.0845 157.137Z" fill="#407BFF"/>
<path opacity="0.2" d="M66.0845 157.137C65.5056 157.512 65.0077 158.043 64.6299 158.686C64.2521 159.33 64.0047 160.07 63.9072 160.847C64.5046 161.18 65.1589 161.342 65.818 161.32C66.4771 161.297 67.1226 161.091 67.703 160.718C68.2833 160.344 68.7825 159.814 69.1606 159.17C69.5386 158.526 69.7851 157.785 69.8803 157.006C69.2822 156.676 68.6282 156.517 67.9696 156.539C67.311 156.562 66.6657 156.766 66.0845 157.137Z" fill="#FAFAFA"/>
<path d="M61.9721 159.514C62.1901 159.901 62.4805 160.222 62.8204 160.453C63.1602 160.683 63.5403 160.816 63.9305 160.841C64.0621 160.402 64.1059 159.932 64.0584 159.47C64.0109 159.007 63.8733 158.564 63.6568 158.176C63.4402 157.788 63.1506 157.466 62.8111 157.235C62.4715 157.005 62.0915 156.872 61.7014 156.848C61.5699 157.287 61.526 157.756 61.573 158.219C61.6199 158.682 61.7566 159.125 61.9721 159.514Z" fill="#407BFF"/>
<path opacity="0.2" d="M61.9721 159.514C62.1901 159.901 62.4805 160.222 62.8204 160.453C63.1602 160.683 63.5403 160.816 63.9305 160.841C64.0621 160.402 64.1059 159.932 64.0584 159.47C64.0109 159.007 63.8733 158.564 63.6568 158.176C63.4402 157.788 63.1506 157.466 62.8111 157.235C62.4715 157.005 62.0915 156.872 61.7014 156.848C61.5699 157.287 61.526 157.756 61.573 158.219C61.6199 158.682 61.7566 159.125 61.9721 159.514Z" fill="#FAFAFA"/>
<path d="M101.111 164.73C102.551 169.726 99.0487 181.119 94.8612 182.837C90.6737 184.555 87.3732 175.965 85.9562 170.956C85.2642 168.558 85.3988 165.931 86.3305 163.652C87.2622 161.373 88.9146 159.629 90.9242 158.803C92.9338 157.978 95.1361 158.138 97.0464 159.25C98.9568 160.361 100.419 162.333 101.111 164.73Z" fill="#407BFF"/>
<path opacity="0.4" d="M101.111 164.73C102.551 169.726 99.0487 181.119 94.8612 182.837C90.6737 184.555 87.3732 175.965 85.9562 170.956C85.2642 168.558 85.3988 165.931 86.3305 163.652C87.2622 161.373 88.9146 159.629 90.9242 158.803C92.9338 157.978 95.1361 158.138 97.0464 159.25C98.9568 160.361 100.419 162.333 101.111 164.73Z" fill="#FAFAFA"/>
<path d="M94.2906 155.68C93.8439 156.259 93.5165 156.954 93.3345 157.71C93.1525 158.467 93.1209 159.263 93.2423 160.037C93.8983 160.12 94.5615 160.019 95.1789 159.742C95.7964 159.465 96.351 159.019 96.7986 158.441C97.2462 157.863 97.5744 157.168 97.757 156.412C97.9396 155.656 97.9716 154.859 97.8503 154.086C97.194 154.003 96.5306 154.105 95.9127 154.381C95.2949 154.658 94.7395 155.103 94.2906 155.68Z" fill="#407BFF"/>
<path opacity="0.2" d="M94.2906 155.68C93.8439 156.259 93.5165 156.954 93.3345 157.71C93.1525 158.467 93.1209 159.263 93.2423 160.037C93.8983 160.12 94.5615 160.019 95.1789 159.742C95.7964 159.465 96.351 159.019 96.7986 158.441C97.2462 157.863 97.5744 157.168 97.757 156.412C97.9396 155.656 97.9716 154.859 97.8503 154.086C97.194 154.003 96.5306 154.105 95.9127 154.381C95.2949 154.658 94.7395 155.103 94.2906 155.68Z" fill="#FAFAFA"/>
<path d="M91.0486 159.521C91.3594 159.804 91.7213 159.996 92.1054 160.081C92.4894 160.167 92.885 160.145 93.2605 160.016C93.2639 159.551 93.1764 159.091 93.0047 158.673C92.833 158.255 92.5819 157.891 92.2715 157.61C91.9611 157.328 91.5998 157.137 91.2166 157.051C90.8333 156.965 90.4385 156.988 90.0637 157.116C90.0589 157.581 90.1456 158.041 90.3166 158.458C90.4877 158.876 90.7384 159.24 91.0486 159.521Z" fill="#407BFF"/>
<path opacity="0.2" d="M91.0486 159.521C91.3594 159.804 91.7213 159.996 92.1054 160.081C92.4894 160.167 92.885 160.145 93.2605 160.016C93.2639 159.551 93.1764 159.091 93.0047 158.673C92.833 158.255 92.5819 157.891 92.2715 157.61C91.9611 157.328 91.5998 157.137 91.2166 157.051C90.8333 156.965 90.4385 156.988 90.0637 157.116C90.0589 157.581 90.1456 158.041 90.3166 158.458C90.4877 158.876 90.7384 159.24 91.0486 159.521Z" fill="#FAFAFA"/>
<path d="M69.7707 166.276C69.3099 172.461 75.9857 184.26 81.1639 184.83C86.3422 185.4 88.0414 174.474 88.5079 168.303C88.731 165.339 87.9578 162.39 86.3586 160.106C85.5667 158.975 84.5959 158.041 83.5015 157.358C82.4071 156.674 81.2106 156.255 79.9803 156.123C78.75 155.991 77.5099 156.15 76.331 156.59C75.1521 157.03 74.0574 157.743 73.1093 158.687C71.1947 160.595 69.9937 163.332 69.7707 166.297V166.276Z" fill="#407BFF"/>
<path opacity="0.5" d="M69.7707 166.276C69.3099 172.461 75.9857 184.26 81.1639 184.83C86.3422 185.4 88.0414 174.474 88.5079 168.303C88.731 165.339 87.9578 162.39 86.3586 160.106C85.5667 158.975 84.5959 158.041 83.5015 157.358C82.4071 156.674 81.2106 156.255 79.9803 156.123C78.75 155.991 77.5099 156.15 76.331 156.59C75.1521 157.03 74.0574 157.743 73.1093 158.687C71.1947 160.595 69.9937 163.332 69.7707 166.297V166.276Z" fill="#FAFAFA"/>
<path d="M75.41 153.68C76.054 154.19 76.5899 154.871 76.9757 155.67C77.3616 156.469 77.5867 157.364 77.6334 158.284C76.9062 158.598 76.1276 158.705 75.3596 158.597C74.5916 158.488 73.8555 158.167 73.2099 157.66C72.5642 157.152 72.027 156.471 71.641 155.671C71.2549 154.872 71.0308 153.976 70.9863 153.055C71.7137 152.742 72.4922 152.635 73.2601 152.744C74.028 152.853 74.7641 153.173 75.41 153.68Z" fill="#407BFF"/>
<path opacity="0.2" d="M75.41 153.68C76.054 154.19 76.5899 154.871 76.9757 155.67C77.3616 156.469 77.5867 157.364 77.6334 158.284C76.9062 158.598 76.1276 158.705 75.3596 158.597C74.5916 158.488 73.8555 158.167 73.2099 157.66C72.5642 157.152 72.027 156.471 71.641 155.671C71.2549 154.872 71.0308 153.976 70.9863 153.055C71.7137 152.742 72.4922 152.635 73.2601 152.744C74.028 152.853 74.7641 153.173 75.41 153.68Z" fill="#FAFAFA"/>
<path d="M80.0065 156.972C79.7175 157.395 79.3504 157.734 78.9337 157.96C78.5171 158.186 78.0622 158.295 77.6046 158.277C77.4904 157.748 77.4814 157.194 77.5783 156.659C77.6753 156.125 77.8755 155.625 78.163 155.199C78.4506 154.773 78.8175 154.434 79.2345 154.207C79.6516 153.98 80.1072 153.873 80.5652 153.893C80.6772 154.423 80.6851 154.976 80.5882 155.51C80.4912 156.044 80.2922 156.545 80.0065 156.972Z" fill="#407BFF"/>
<path opacity="0.2" d="M80.0065 156.972C79.7175 157.395 79.3504 157.734 78.9337 157.96C78.5171 158.186 78.0622 158.295 77.6046 158.277C77.4904 157.748 77.4814 157.194 77.5783 156.659C77.6753 156.125 77.8755 155.625 78.163 155.199C78.4506 154.773 78.8175 154.434 79.2345 154.207C79.6516 153.98 80.1072 153.873 80.5652 153.893C80.6772 154.423 80.6851 154.976 80.5882 155.51C80.4912 156.044 80.2922 156.545 80.0065 156.972Z" fill="#FAFAFA"/>
<path d="M100.8 161.913C99.164 167.795 103.398 181.112 108.328 183.064C113.259 185.016 117.014 174.866 118.65 168.984C119.436 166.159 119.249 163.077 118.131 160.417C117.012 157.756 115.053 155.735 112.686 154.797C110.318 153.859 107.735 154.082 105.505 155.417C103.274 156.751 101.58 159.088 100.794 161.913H100.8Z" fill="#407BFF"/>
<path opacity="0.5" d="M100.8 161.913C99.164 167.795 103.398 181.112 108.328 183.064C113.259 185.016 117.014 174.866 118.65 168.984C119.436 166.159 119.249 163.077 118.131 160.417C117.012 157.756 115.053 155.735 112.686 154.797C110.318 153.859 107.735 154.082 105.505 155.417C103.274 156.751 101.58 159.088 100.794 161.913H100.8Z" fill="#FAFAFA"/>
<path d="M108.685 151.193C109.214 151.864 109.604 152.673 109.826 153.556C110.048 154.438 110.095 155.37 109.964 156.278C109.196 156.386 108.417 156.279 107.689 155.964C106.962 155.649 106.307 155.135 105.775 154.464C105.244 153.793 104.852 152.983 104.63 152.099C104.408 151.214 104.363 150.281 104.498 149.372C105.266 149.267 106.045 149.377 106.771 149.693C107.498 150.009 108.153 150.523 108.685 151.193Z" fill="#407BFF"/>
<path opacity="0.2" d="M108.685 151.193C109.214 151.864 109.604 152.673 109.826 153.556C110.048 154.438 110.095 155.37 109.964 156.278C109.196 156.386 108.417 156.279 107.689 155.964C106.962 155.649 106.307 155.135 105.775 154.464C105.244 153.793 104.852 152.983 104.63 152.099C104.408 151.214 104.363 150.281 104.498 149.372C105.266 149.267 106.045 149.377 106.771 149.693C107.498 150.009 108.153 150.523 108.685 151.193Z" fill="#FAFAFA"/>
<path d="M112.527 155.645C112.166 155.982 111.745 156.214 111.296 156.321C110.846 156.429 110.382 156.409 109.941 156.264C109.933 155.719 110.032 155.18 110.23 154.688C110.428 154.197 110.719 153.768 111.08 153.434C111.441 153.101 111.863 152.872 112.311 152.767C112.759 152.662 113.222 152.683 113.662 152.828C113.668 153.37 113.569 153.907 113.372 154.396C113.175 154.884 112.886 155.312 112.527 155.645Z" fill="#407BFF"/>
<path opacity="0.2" d="M112.527 155.645C112.166 155.982 111.745 156.214 111.296 156.321C110.846 156.429 110.382 156.409 109.941 156.264C109.933 155.719 110.032 155.18 110.23 154.688C110.428 154.197 110.719 153.768 111.08 153.434C111.441 153.101 111.863 152.872 112.311 152.767C112.759 152.662 113.222 152.683 113.662 152.828C113.668 153.37 113.569 153.907 113.372 154.396C113.175 154.884 112.886 155.312 112.527 155.645Z" fill="#FAFAFA"/>
<path d="M41.6562 170.873H131.46C131.46 170.873 132.503 195.137 126.53 201.796C121.455 207.472 82.391 212.674 67.006 214.798C64.126 215.196 54.7891 214.193 52.462 211.74C46.5983 205.555 42.3359 193.227 41.6562 170.873Z" fill="#407BFF"/>
<g opacity="0.35">
<path d="M52.4621 211.753C54.7661 214.207 64.1319 215.189 67.0061 214.811C70.3181 214.358 74.7303 213.753 79.6781 213.038C94.3834 210.358 107.735 207.136 110.748 203.762C116.289 197.577 116.629 178.336 116.542 170.873H41.6621C42.336 193.227 46.5984 205.555 52.4621 211.753Z" fill="black"/>
</g>
<path d="M134.674 168.585H39.8936V172.928H134.674V168.585Z" fill="#407BFF"/>
<g opacity="0.4">
<path d="M134.674 168.585H39.8936V172.928H134.674V168.585Z" fill="#FAFAFA"/>
</g>
<path d="M66.8011 254.066C75.1317 252.452 80.7887 243.088 79.4365 233.149C78.0842 223.211 70.2347 216.462 61.9042 218.075C53.5736 219.688 47.9165 229.053 49.2688 238.992C50.621 248.93 58.4705 255.679 66.8011 254.066Z" fill="#2E353A"/>
<g opacity="0.35">
<path d="M131.074 185.806L126.38 193.646C125.562 195.007 124.987 196.552 124.69 198.188C124.393 199.824 124.38 201.515 124.652 203.157C125.329 202.816 125.959 202.352 126.518 201.782C129.236 198.786 130.498 192.155 131.074 185.806Z" fill="black"/>
</g>
<path d="M71.487 236.073C71.487 234.387 71.0681 232.74 70.2832 231.339C69.4984 229.937 68.3829 228.845 67.0778 228.2C65.7727 227.555 64.3366 227.387 62.9511 227.715C61.5656 228.044 60.293 228.856 59.2941 230.047C58.2952 231.239 57.615 232.757 57.3394 234.41C57.0638 236.063 57.2052 237.776 57.7458 239.334C58.2864 240.891 59.2019 242.221 60.3764 243.158C61.551 244.094 62.9319 244.594 64.3446 244.594C66.2388 244.594 68.0555 243.696 69.395 242.098C70.7345 240.5 71.487 238.333 71.487 236.073Z" fill="#F0F0F0"/>
<path d="M67.5873 236.073C67.5873 235.307 67.3971 234.56 67.0408 233.923C66.6845 233.287 66.178 232.791 65.5854 232.498C64.9929 232.206 64.3408 232.129 63.7118 232.278C63.0827 232.427 62.5049 232.796 62.0514 233.337C61.5979 233.878 61.289 234.567 61.1639 235.318C61.0387 236.068 61.103 236.846 61.3484 237.553C61.5939 238.26 62.0095 238.864 62.5428 239.289C63.0761 239.715 63.7031 239.941 64.3444 239.941C65.2045 239.941 66.0293 239.534 66.6375 238.808C67.2457 238.083 67.5873 237.099 67.5873 236.073Z" fill="#263238"/>
<path d="M129.744 251.63C127.842 251.637 125.994 250.874 124.502 249.464C123.011 248.055 121.965 246.083 121.536 243.872L115.091 208.764L76.153 216L66.1652 237.303C66.0313 237.588 65.8517 237.839 65.6365 238.041C65.4213 238.243 65.1749 238.393 64.9112 238.482C64.6475 238.571 64.3717 238.596 64.0997 238.558C63.8276 238.52 63.5645 238.418 63.3255 238.258C63.0865 238.098 62.8762 237.884 62.7066 237.627C62.537 237.37 62.4114 237.076 62.3371 236.762C62.2627 236.447 62.241 236.118 62.2733 235.794C62.3055 235.469 62.391 235.155 62.5249 234.87L73.0023 212.516C73.1582 212.187 73.3743 211.904 73.6346 211.689C73.895 211.474 74.1927 211.331 74.5057 211.272L116.387 203.487C116.911 203.39 117.446 203.535 117.884 203.892C118.322 204.25 118.629 204.793 118.742 205.411L125.626 242.793C125.759 243.467 126.008 244.101 126.357 244.655C126.705 245.209 127.145 245.671 127.65 246.013C128.155 246.355 128.714 246.569 129.291 246.641C129.868 246.714 130.452 246.644 131.006 246.435C132.014 246.067 132.87 245.261 133.404 244.175C133.937 243.089 134.109 241.804 133.886 240.574L126.68 198.388C126.589 197.859 126.644 197.31 126.835 196.821L135.763 174.405C135.902 174.057 136.106 173.752 136.36 173.514C136.614 173.275 136.91 173.11 137.226 173.031L171.481 164.572C172.011 164.474 172.552 164.623 172.992 164.988C173.433 165.353 173.739 165.905 173.848 166.531C173.956 167.158 173.859 167.81 173.576 168.353C173.293 168.897 172.846 169.29 172.328 169.451L139.087 177.656L130.908 198.223L137.952 239.557C138.211 241.015 138.194 242.524 137.902 243.973C137.609 245.423 137.05 246.776 136.263 247.934C135.476 249.093 134.483 250.027 133.355 250.669C132.227 251.31 130.994 251.644 129.744 251.644V251.63Z" fill="#407BFF"/>
<g opacity="0.7">
<path d="M129.744 251.63C127.842 251.637 125.994 250.874 124.502 249.464C123.011 248.055 121.965 246.083 121.536 243.872L115.091 208.764L76.153 216L66.1652 237.303C66.0313 237.588 65.8517 237.839 65.6365 238.041C65.4213 238.243 65.1749 238.393 64.9112 238.482C64.6475 238.571 64.3717 238.596 64.0997 238.558C63.8276 238.52 63.5645 238.418 63.3255 238.258C63.0865 238.098 62.8762 237.884 62.7066 237.627C62.537 237.37 62.4114 237.076 62.3371 236.762C62.2627 236.447 62.241 236.118 62.2733 235.794C62.3055 235.469 62.391 235.155 62.5249 234.87L73.0023 212.516C73.1582 212.187 73.3743 211.904 73.6346 211.689C73.895 211.474 74.1927 211.331 74.5057 211.272L116.387 203.487C116.911 203.39 117.446 203.535 117.884 203.892C118.322 204.25 118.629 204.793 118.742 205.411L125.626 242.793C125.759 243.467 126.008 244.101 126.357 244.655C126.705 245.209 127.145 245.671 127.65 246.013C128.155 246.355 128.714 246.569 129.291 246.641C129.868 246.714 130.452 246.644 131.006 246.435C132.014 246.067 132.87 245.261 133.404 244.175C133.937 243.089 134.109 241.804 133.886 240.574L126.68 198.388C126.589 197.859 126.644 197.31 126.835 196.821L135.763 174.405C135.902 174.057 136.106 173.752 136.36 173.514C136.614 173.275 136.91 173.11 137.226 173.031L171.481 164.572C172.011 164.474 172.552 164.623 172.992 164.988C173.433 165.353 173.739 165.905 173.848 166.531C173.956 167.158 173.859 167.81 173.576 168.353C173.293 168.897 172.846 169.29 172.328 169.451L139.087 177.656L130.908 198.223L137.952 239.557C138.211 241.015 138.194 242.524 137.902 243.973C137.609 245.423 137.05 246.776 136.263 247.934C135.476 249.093 134.483 250.027 133.355 250.669C132.227 251.31 130.994 251.644 129.744 251.644V251.63Z" fill="white"/>
</g>
<path d="M160.802 165.293L176.452 161.493C177.386 161.305 178.345 161.558 179.126 162.198C179.908 162.838 180.45 163.815 180.638 164.923C180.827 166.031 180.647 167.183 180.136 168.136C179.626 169.088 178.825 169.767 177.903 170.028L162.259 173.828C162.017 173.883 160.802 165.293 160.802 165.293Z" fill="#407BFF"/>
<path d="M148.245 221.924C148.245 225.27 144.178 231.228 141.379 231.228C138.58 231.228 138.096 225.27 138.096 221.924C138.096 220.318 138.63 218.778 139.582 217.643C140.534 216.507 141.824 215.87 143.17 215.87C144.516 215.87 145.807 216.507 146.759 217.643C147.71 218.778 148.245 220.318 148.245 221.924Z" fill="#407BFF"/>
<path opacity="0.5" d="M148.245 221.924C148.245 225.27 144.178 231.228 141.379 231.228C138.58 231.228 138.096 225.27 138.096 221.924C138.096 220.318 138.63 218.778 139.582 217.643C140.534 216.507 141.824 215.87 143.17 215.87C144.516 215.87 145.807 216.507 146.759 217.643C147.71 218.778 148.245 220.318 148.245 221.924Z" fill="#FAFAFA"/>
<path d="M145.728 214.832C145.361 215.067 145.044 215.402 144.804 215.808C144.564 216.215 144.407 216.683 144.346 217.175C144.724 217.385 145.138 217.486 145.554 217.472C145.971 217.457 146.379 217.327 146.746 217.092C147.114 216.856 147.43 216.522 147.67 216.116C147.91 215.709 148.068 215.241 148.13 214.75C147.752 214.539 147.338 214.437 146.921 214.451C146.504 214.466 146.095 214.596 145.728 214.832Z" fill="#407BFF"/>
<path opacity="0.2" d="M145.728 214.832C145.361 215.067 145.044 215.402 144.804 215.808C144.564 216.215 144.407 216.683 144.346 217.175C144.724 217.385 145.138 217.486 145.554 217.472C145.971 217.457 146.379 217.327 146.746 217.092C147.114 216.856 147.43 216.522 147.67 216.116C147.91 215.709 148.068 215.241 148.13 214.75C147.752 214.539 147.338 214.437 146.921 214.451C146.504 214.466 146.095 214.596 145.728 214.832Z" fill="#FAFAFA"/>
<path d="M143.125 216.323C143.262 216.567 143.445 216.769 143.659 216.915C143.873 217.06 144.112 217.145 144.358 217.161C144.442 216.884 144.47 216.586 144.44 216.293C144.41 216 144.323 215.719 144.186 215.473C144.049 215.227 143.865 215.023 143.65 214.877C143.435 214.731 143.194 214.647 142.946 214.633C142.865 214.912 142.838 215.21 142.869 215.503C142.9 215.796 142.988 216.077 143.125 216.323Z" fill="#407BFF"/>
<path opacity="0.2" d="M143.125 216.323C143.262 216.567 143.445 216.769 143.659 216.915C143.873 217.06 144.112 217.145 144.358 217.161C144.442 216.884 144.47 216.586 144.44 216.293C144.41 216 144.323 215.719 144.186 215.473C144.049 215.227 143.865 215.023 143.65 214.877C143.435 214.731 143.194 214.647 142.946 214.633C142.865 214.912 142.838 215.21 142.869 215.503C142.9 215.796 142.988 216.077 143.125 216.323Z" fill="#FAFAFA"/>
<path d="M167.898 219.642C168.814 222.803 166.591 230.019 163.941 231.104C161.292 232.19 159.218 226.741 158.302 223.58C158.073 222.825 157.973 222.023 158.006 221.221C158.04 220.419 158.207 219.633 158.497 218.908C158.788 218.184 159.196 217.536 159.699 217.002C160.201 216.467 160.788 216.058 161.424 215.797C162.061 215.535 162.734 215.428 163.406 215.48C164.078 215.533 164.734 215.744 165.336 216.102C165.939 216.46 166.476 216.957 166.916 217.565C167.355 218.173 167.69 218.879 167.898 219.642Z" fill="#407BFF"/>
<path opacity="0.4" d="M167.898 219.642C168.814 222.803 166.591 230.019 163.941 231.104C161.292 232.19 159.218 226.741 158.302 223.58C158.073 222.825 157.973 222.023 158.006 221.221C158.04 220.419 158.207 219.633 158.497 218.908C158.788 218.184 159.196 217.536 159.699 217.002C160.201 216.467 160.788 216.058 161.424 215.797C162.061 215.535 162.734 215.428 163.406 215.48C164.078 215.533 164.734 215.744 165.336 216.102C165.939 216.46 166.476 216.957 166.916 217.565C167.355 218.173 167.69 218.879 167.898 219.642Z" fill="#FAFAFA"/>
<path d="M163.584 213.911C163.304 214.277 163.098 214.716 162.983 215.193C162.868 215.67 162.847 216.172 162.922 216.66C163.337 216.711 163.757 216.646 164.147 216.47C164.537 216.294 164.888 216.011 165.17 215.645C165.453 215.278 165.66 214.838 165.774 214.359C165.889 213.881 165.908 213.376 165.831 212.887C165.415 212.838 164.996 212.904 164.606 213.082C164.216 213.26 163.866 213.544 163.584 213.911Z" fill="#407BFF"/>
<path opacity="0.2" d="M163.584 213.911C163.304 214.277 163.098 214.716 162.983 215.193C162.868 215.67 162.847 216.172 162.922 216.66C163.337 216.711 163.757 216.646 164.147 216.47C164.537 216.294 164.888 216.011 165.17 215.645C165.453 215.278 165.66 214.838 165.774 214.359C165.889 213.881 165.908 213.376 165.831 212.887C165.415 212.838 164.996 212.904 164.606 213.082C164.216 213.26 163.866 213.544 163.584 213.911Z" fill="#FAFAFA"/>
<path d="M161.527 216.323C161.663 216.325 161.797 216.285 161.916 216.208C162.035 216.131 162.135 216.019 162.208 215.882C162.28 215.745 162.322 215.589 162.33 215.428C162.337 215.266 162.31 215.105 162.251 214.96C162.192 214.815 162.102 214.69 161.991 214.597C161.88 214.505 161.751 214.448 161.616 214.431C161.481 214.415 161.345 214.44 161.221 214.504C161.096 214.568 160.988 214.669 160.905 214.798C160.902 215.092 160.957 215.383 161.065 215.648C161.173 215.913 161.331 216.144 161.527 216.323Z" fill="#407BFF"/>
<path opacity="0.2" d="M161.527 216.323C161.663 216.325 161.797 216.285 161.916 216.208C162.035 216.131 162.135 216.019 162.208 215.882C162.28 215.745 162.322 215.589 162.33 215.428C162.337 215.266 162.31 215.105 162.251 214.96C162.192 214.815 162.102 214.69 161.991 214.597C161.88 214.505 161.751 214.448 161.616 214.431C161.481 214.415 161.345 214.44 161.221 214.504C161.096 214.568 160.988 214.669 160.905 214.798C160.902 215.092 160.957 215.383 161.065 215.648C161.173 215.913 161.331 216.144 161.527 216.323Z" fill="#FAFAFA"/>
<path d="M148.061 220.618C147.768 224.528 151.995 231.998 155.273 232.348C158.55 232.698 159.627 225.792 159.921 221.889C160.013 220.947 159.946 219.992 159.723 219.081C159.501 218.17 159.128 217.322 158.626 216.586C158.124 215.85 157.504 215.241 156.802 214.796C156.1 214.35 155.33 214.077 154.538 213.992C153.746 213.907 152.948 214.012 152.191 214.301C151.433 214.59 150.732 215.057 150.128 215.675C149.525 216.293 149.031 217.048 148.676 217.897C148.321 218.746 148.112 219.671 148.061 220.618Z" fill="#407BFF"/>
<path opacity="0.5" d="M148.061 220.618C147.768 224.528 151.995 231.998 155.273 232.348C158.55 232.698 159.627 225.792 159.921 221.889C160.013 220.947 159.946 219.992 159.723 219.081C159.501 218.17 159.128 217.322 158.626 216.586C158.124 215.85 157.504 215.241 156.802 214.796C156.1 214.35 155.33 214.077 154.538 213.992C153.746 213.907 152.948 214.012 152.191 214.301C151.433 214.59 150.732 215.057 150.128 215.675C149.525 216.293 149.031 217.048 148.676 217.897C148.321 218.746 148.112 219.671 148.061 220.618Z" fill="#FAFAFA"/>
<path d="M151.627 212.64C152.035 212.961 152.375 213.392 152.619 213.898C152.863 214.404 153.005 214.971 153.032 215.554C152.572 215.753 152.08 215.821 151.594 215.752C151.108 215.684 150.642 215.481 150.234 215.16C149.826 214.839 149.486 214.409 149.241 213.903C148.997 213.398 148.855 212.831 148.827 212.248C149.287 212.048 149.78 211.979 150.266 212.047C150.752 212.115 151.218 212.318 151.627 212.64Z" fill="#407BFF"/>
<path opacity="0.2" d="M151.627 212.64C152.035 212.961 152.375 213.392 152.619 213.898C152.863 214.404 153.005 214.971 153.032 215.554C152.572 215.753 152.08 215.821 151.594 215.752C151.108 215.684 150.642 215.481 150.234 215.16C149.826 214.839 149.486 214.409 149.241 213.903C148.997 213.398 148.855 212.831 148.827 212.248C149.287 212.048 149.78 211.979 150.266 212.047C150.752 212.115 151.218 212.318 151.627 212.64Z" fill="#FAFAFA"/>
<path d="M154.541 214.722C154.358 214.99 154.126 215.205 153.862 215.349C153.598 215.493 153.311 215.563 153.021 215.554C152.952 215.22 152.949 214.873 153.012 214.538C153.075 214.203 153.202 213.89 153.383 213.623C153.565 213.357 153.795 213.144 154.057 213.002C154.319 212.86 154.605 212.793 154.893 212.805C154.96 213.135 154.964 213.48 154.903 213.812C154.842 214.144 154.718 214.456 154.541 214.722Z" fill="#407BFF"/>
<path opacity="0.2" d="M154.541 214.722C154.358 214.99 154.126 215.205 153.862 215.349C153.598 215.493 153.311 215.563 153.021 215.554C152.952 215.22 152.949 214.873 153.012 214.538C153.075 214.203 153.202 213.89 153.383 213.623C153.565 213.357 153.795 213.144 154.057 213.002C154.319 212.86 154.605 212.793 154.893 212.805C154.96 213.135 154.964 213.48 154.903 213.812C154.842 214.144 154.718 214.456 154.541 214.722Z" fill="#FAFAFA"/>
<path d="M167.691 217.856C166.655 221.58 169.339 230.012 172.455 231.249C175.571 232.486 177.956 226.054 178.992 222.316C179.264 221.423 179.383 220.474 179.343 219.525C179.302 218.577 179.102 217.647 178.755 216.792C178.408 215.937 177.921 215.174 177.322 214.548C176.724 213.921 176.026 213.445 175.27 213.145C174.515 212.846 173.716 212.731 172.923 212.806C172.129 212.881 171.356 213.146 170.649 213.584C169.943 214.022 169.317 214.624 168.809 215.355C168.301 216.087 167.921 216.932 167.691 217.842V217.856Z" fill="#407BFF"/>
<path opacity="0.5" d="M167.691 217.856C166.655 221.58 169.339 230.012 172.455 231.249C175.571 232.486 177.956 226.054 178.992 222.316C179.264 221.423 179.383 220.474 179.343 219.525C179.302 218.577 179.102 217.647 178.755 216.792C178.408 215.937 177.921 215.174 177.322 214.548C176.724 213.921 176.026 213.445 175.27 213.145C174.515 212.846 173.716 212.731 172.923 212.806C172.129 212.881 171.356 213.146 170.649 213.584C169.943 214.022 169.317 214.624 168.809 215.355C168.301 216.087 167.921 216.932 167.691 217.842V217.856Z" fill="#FAFAFA"/>
<path d="M172.696 211.066C173.031 211.492 173.279 212.004 173.419 212.564C173.559 213.123 173.588 213.714 173.503 214.289C173.016 214.356 172.524 214.286 172.064 214.085C171.604 213.885 171.19 213.559 170.855 213.134C170.519 212.709 170.271 212.196 170.131 211.637C169.991 211.078 169.962 210.487 170.047 209.912C170.533 209.847 171.025 209.917 171.485 210.118C171.945 210.318 172.359 210.643 172.696 211.066Z" fill="#407BFF"/>
<path opacity="0.2" d="M172.696 211.066C173.031 211.492 173.279 212.004 173.419 212.564C173.559 213.123 173.588 213.714 173.503 214.289C173.016 214.356 172.524 214.286 172.064 214.085C171.604 213.885 171.19 213.559 170.855 213.134C170.519 212.709 170.271 212.196 170.131 211.637C169.991 211.078 169.962 210.487 170.047 209.912C170.533 209.847 171.025 209.917 171.485 210.118C171.945 210.318 172.359 210.643 172.696 211.066Z" fill="#FAFAFA"/>
<path d="M175.104 213.89C174.946 213.893 174.789 213.848 174.649 213.758C174.509 213.669 174.391 213.538 174.305 213.378C174.219 213.219 174.169 213.036 174.159 212.847C174.149 212.658 174.18 212.469 174.248 212.298C174.317 212.127 174.42 211.98 174.55 211.87C174.679 211.76 174.83 211.692 174.988 211.671C175.146 211.65 175.305 211.678 175.452 211.751C175.598 211.824 175.726 211.941 175.824 212.09C175.829 212.436 175.766 212.779 175.641 213.091C175.516 213.403 175.332 213.677 175.104 213.89Z" fill="#407BFF"/>
<path opacity="0.2" d="M175.104 213.89C174.946 213.893 174.789 213.848 174.649 213.758C174.509 213.669 174.391 213.538 174.305 213.378C174.219 213.219 174.169 213.036 174.159 212.847C174.149 212.658 174.18 212.469 174.248 212.298C174.317 212.127 174.42 211.98 174.55 211.87C174.679 211.76 174.83 211.692 174.988 211.671C175.146 211.65 175.305 211.678 175.452 211.751C175.598 211.824 175.726 211.941 175.824 212.09C175.829 212.436 175.766 212.779 175.641 213.091C175.516 213.403 175.332 213.677 175.104 213.89Z" fill="#FAFAFA"/>
<path d="M171.51 235.083H188.911L183.859 221.024H166.464L171.51 235.083Z" fill="#407BFF"/>
<path d="M183.842 221.024H152.375V252.07H183.842V221.024Z" fill="#407BFF"/>
<path opacity="0.3" d="M183.842 221.024H152.375V252.07H183.842V221.024Z" fill="#FAFAFA"/>
<path d="M160.134 221.024H135.746V252.07H160.134V221.024Z" fill="#407BFF"/>
<path opacity="0.1" d="M160.134 221.024H135.746V252.07H160.134V221.024Z" fill="#E0E0E0"/>
<path opacity="0.35" d="M135.746 236.547H155.912L160.128 221.024H135.746V236.547Z" fill="black"/>
<path d="M155.082 235.083H130.7L135.746 221.024H160.128L155.082 235.083Z" fill="#407BFF"/>
</svg>
