<svg width="288" height="260" viewBox="0 0 288 260" fill="none" xmlns="http://www.w3.org/2000/svg">
<path d="M61.2748 11.2029C62.0664 10.7787 62.7383 10.0821 63.2074 9.19925C63.6764 8.31637 63.9222 7.28592 63.9142 6.2353C63.9539 5.54621 63.8768 4.85453 63.6876 4.20309C63.4984 3.55165 63.201 2.95431 62.814 2.44803C62.427 1.94176 61.9585 1.53734 61.4375 1.2598C60.9166 0.982263 60.3543 0.837517 59.7854 0.83452C59.2165 0.831523 58.6532 0.97034 58.1303 1.24238C57.6074 1.51442 57.1361 1.91389 56.7454 2.41606C56.3548 2.91824 56.0532 3.51243 55.8593 4.16185C55.6654 4.81127 55.5834 5.50211 55.6182 6.19159C55.6 7.25041 55.8411 8.29196 56.3109 9.18415C56.7808 10.0763 57.4584 10.779 58.2576 11.2029C51.8752 12.3756 52.1631 20.7959 52.1631 20.7959L67.2613 20.8833C67.2613 20.8833 67.6032 12.3684 61.2748 11.2029Z" fill="#E0E0E0"/>
<path d="M204.801 105.53C204.801 99.2727 199.402 95.3321 193.871 98.4497C192.624 99.1589 191.604 100.346 190.968 101.829C189.582 105.093 190.194 108.822 191.454 111.918L195.749 125.123C195.885 125.544 196.123 125.905 196.43 126.159C196.738 126.413 197.101 126.549 197.473 126.549C197.846 126.549 198.209 126.413 198.517 126.159C198.824 125.905 199.062 125.544 199.198 125.123L203.397 111.845C204.873 107.78 204.801 105.53 204.801 105.53ZM199.63 110.949C195.923 113.564 192.162 108.727 194.195 103.949C194.469 103.316 194.885 102.79 195.395 102.434C199.108 99.8117 202.863 104.619 200.83 109.434C200.556 110.067 200.14 110.592 199.63 110.949Z" fill="#EBEBEB"/>
<path d="M268.606 196.302C257.047 183.482 256.387 163.16 258.901 145.409C259.321 142.445 259.399 139.262 260.874 136.851C262.35 134.44 265.307 133.107 267.389 134.731C269.116 136.079 269.632 138.788 270.424 141.09C271.493 144.164 273.251 146.811 275.499 148.731C276.968 149.976 278.858 150.916 280.537 150.129C282.841 149.073 283.489 145.569 283.807 142.605L285.606 126.034C285.924 123.069 286.254 120.047 287.34 117.366C288.425 114.686 290.417 112.355 292.858 111.961C295.3 111.568 298.017 113.673 298.191 116.652C298.257 117.891 297.915 119.107 297.843 120.353C297.771 121.598 298.101 123.033 299.043 123.536C299.984 124.038 301.076 123.375 301.91 122.632C304.795 120.068 306.961 116.507 309.012 112.945C311.064 109.383 313.067 105.726 315.749 102.849C318.43 99.9721 321.921 97.9253 325.484 98.275C329.047 98.6246 332.526 101.873 332.952 106.185C333.378 110.497 330.871 114.402 328.279 117.417C324.426 121.889 320.06 125.66 315.317 128.613C314.465 129.144 313.517 129.72 313.121 130.798C312.359 132.684 313.721 134.906 315.251 135.824C317.014 136.865 319.036 136.967 320.931 137.564C322.827 138.162 324.8 139.524 325.28 141.826C325.952 145.023 323.481 147.842 321.171 149.568C316.531 153.043 311.434 155.526 306.103 156.911C304.195 157.406 302.204 157.785 300.566 159.096C298.929 160.407 297.747 162.891 298.395 165.127C299.043 167.363 301.244 168.405 303.194 168.303C305.143 168.201 306.991 167.239 308.892 166.722C312.461 165.753 316.816 166.766 318.592 170.648C319.791 173.197 319.528 176.439 318.49 179.068C317.452 181.698 315.724 183.832 313.925 185.762C307.621 192.507 299.96 197.504 291.731 199.463C283.501 201.423 276.086 201.088 268.648 196.353" fill="#EBEBEB"/>
<path d="M269.524 203.528C270.862 196.557 270.526 194.401 273.723 185.784C277.291 176.48 281.297 167.433 285.72 158.688L289.169 151.783C290.309 149.517 291.431 147.274 292.649 145.162C294.991 141.111 297.517 137.22 300.213 133.507C302.774 129.938 305.305 126.668 307.699 123.623C310.092 120.578 312.372 117.796 314.537 115.378C317.942 111.523 321.593 108.001 325.454 104.845C326.822 103.731 327.902 102.9 328.64 102.354L329.485 101.735C329.677 101.596 329.779 101.538 329.779 101.538C329.779 101.538 329.689 101.625 329.509 101.771L328.682 102.427C327.956 103.002 326.882 103.884 325.538 104.991C321.716 108.198 318.097 111.748 314.711 115.611C312.564 118.051 310.302 120.84 307.921 123.885C305.539 126.93 303.02 130.215 300.477 133.784C297.791 137.496 295.278 141.387 292.949 145.438C291.749 147.543 290.621 149.772 289.487 152.038L286.038 158.943C281.623 167.671 277.618 176.696 274.041 185.973C270.814 194.568 271.138 196.681 269.77 203.622" fill="#E0E0E0"/>
<path d="M274.179 185.128C274.113 184.967 274.059 184.799 274.017 184.626C273.921 184.24 273.795 183.752 273.639 183.169C273.309 181.887 272.877 180.03 272.361 177.721C271.33 173.095 270.058 166.671 268.762 159.547C267.467 152.423 266.213 145.992 265.247 141.337C264.767 139.065 264.371 137.207 264.083 135.853C263.957 135.248 263.855 134.753 263.771 134.396C263.729 134.222 263.701 134.044 263.688 133.864C263.756 134.023 263.808 134.192 263.843 134.367L264.221 135.823C264.551 137.098 264.989 138.963 265.499 141.272C266.537 145.89 267.802 152.321 269.098 159.445C270.394 166.569 271.647 172.993 272.613 177.655C273.099 179.928 273.489 181.792 273.777 183.14C273.909 183.752 274.011 184.247 274.089 184.633C274.134 184.794 274.164 184.96 274.179 185.128Z" fill="#E0E0E0"/>
<path d="M318.215 175.871C318.073 175.932 317.926 175.973 317.777 175.994L316.493 176.271L311.772 177.233C307.789 178.07 302.295 179.309 296.23 180.7C290.166 182.091 284.665 183.271 280.664 184.029C278.667 184.407 277.065 184.699 275.925 184.873L274.63 185.07C274.48 185.088 274.329 185.088 274.18 185.07C274.323 185.008 274.472 184.964 274.624 184.939L275.901 184.662L280.622 183.679C284.605 182.841 290.1 181.603 296.164 180.219C302.229 178.835 307.729 177.641 311.76 176.883C313.758 176.504 315.359 176.213 316.499 176.038L317.795 175.849C317.935 175.832 318.076 175.839 318.215 175.871Z" fill="#E0E0E0"/>
<path d="M-42.7689 106.914C-42.7689 106.914 -39.1698 101.975 -31.0539 112.872C-22.9379 123.769 -19.2609 130.404 -19.2609 130.404C-19.2609 130.404 -17.2574 132.59 -16.1476 130.368C-15.0379 128.146 -14.0842 122.545 -11.3488 122.589C-8.49957 122.632 -6.82598 125.925 -6.14816 131.329C-5.47033 136.734 -3.63479 148.6 -3.46683 149.663C-3.29887 150.727 -2.47108 152.074 -1.51732 150.697C-0.56356 149.321 4.16325 137.929 8.48216 140.973C12.8011 144.018 12.6391 159.526 12.6451 161.223C12.6511 162.92 13.059 163.51 13.7668 163.699C14.4746 163.889 15.7643 159.868 17.216 156.699C18.6676 153.531 20.815 150.144 23.1845 152.161C25.5539 154.179 28.5471 164.777 24.0123 185.107L21.4029 194.357L13.4909 196.411C-3.65878 199.543 -11.9967 194.714 -13.3703 191.626C-14.744 188.537 -11.7328 186.338 -8.96745 184.954C-6.20214 183.57 -2.777 182.47 -2.84899 181.596C-2.92097 180.722 -3.35286 180.139 -4.74451 179.957C-6.13616 179.775 -18.823 178.202 -20.8145 172.644C-22.806 167.086 -12.9444 162.694 -11.7148 161.718C-10.4851 160.742 -11.4928 159.569 -12.3146 159.249C-13.1364 158.928 -22.644 155.345 -27.0109 153.902C-31.3778 152.46 -33.8792 150.071 -33.6092 146.618C-33.3273 143.297 -28.6425 142.794 -26.687 141.709C-24.7315 140.624 -26.2971 137.958 -26.2971 137.958C-26.2971 137.958 -31.3058 132.801 -39.2898 121.707C-47.2738 110.614 -42.691 106.819 -42.691 106.819" fill="#EBEBEB"/>
<path d="M-35.4629 116.66C-35.4629 116.66 -35.4029 116.718 -35.3069 116.849L-34.863 117.424C-34.4731 117.963 -33.9153 118.714 -33.2015 119.683L-27.107 128.015L-6.91008 155.381C0.99593 166.059 8.12214 175.776 13.2269 182.841L19.2253 191.254L20.8509 193.556L21.2648 194.161C21.3128 194.227 21.3569 194.298 21.3968 194.372C21.3968 194.372 21.3428 194.314 21.2408 194.182L20.8029 193.607L19.1354 191.349L13.0589 183.06C7.91219 176.024 0.767986 166.351 -7.14402 155.672C-15.056 144.994 -22.1402 135.277 -27.269 128.212L-33.2674 119.806C-33.9633 118.816 -34.5091 118.044 -34.887 117.497L-35.3069 116.893C-35.3639 116.82 -35.4161 116.742 -35.4629 116.66Z" fill="#E0E0E0"/>
<path d="M1.86022 166.86C1.69069 166.987 1.50679 167.083 1.31436 167.144C0.954454 167.312 0.432587 167.523 -0.221249 167.771C-1.52292 168.273 -3.34047 168.907 -5.37395 169.475C-7.40744 170.043 -9.27297 170.459 -10.6226 170.706C-11.3005 170.83 -11.8223 170.91 -12.2302 170.961C-12.4274 171.011 -12.6298 171.023 -12.8301 170.998C-12.1183 170.758 -11.3951 170.57 -10.6646 170.437C-9.32696 170.124 -7.47943 169.708 -5.45194 169.104C-3.42445 168.499 -1.6069 167.946 -0.287232 167.516C0.416764 167.244 1.13395 167.025 1.86022 166.86Z" fill="#E0E0E0"/>
<path d="M5.23651 150.37C5.14955 151.192 5.01118 152.005 4.82262 152.802C4.53469 154.259 4.1088 156.342 3.62292 158.63C3.13704 160.917 2.68116 162.934 2.33325 164.406C2.18389 165.212 1.98334 166.004 1.7334 166.773C1.81542 165.95 1.95182 165.137 2.14129 164.34C2.43522 162.883 2.86111 160.8 3.34099 158.513C3.82087 156.226 4.28875 154.208 4.63667 152.737C4.78602 151.93 4.98657 151.139 5.23651 150.37Z" fill="#E0E0E0"/>
<path d="M19.8609 164.289C19.8451 164.576 19.8028 164.859 19.7349 165.134C19.6089 165.746 19.459 166.504 19.279 167.392C18.8831 169.301 18.3133 171.923 17.6654 174.815C17.0176 177.706 16.4117 180.314 15.9559 182.2C15.7399 183.082 15.554 183.825 15.41 184.429C15.353 184.707 15.2705 184.976 15.1641 185.231C15.1803 184.944 15.2226 184.661 15.29 184.386C15.416 183.774 15.566 183.024 15.7459 182.128C16.1418 180.227 16.7117 177.604 17.3595 174.713C18.0073 171.821 18.6132 169.206 19.0631 167.327C19.285 166.445 19.465 165.702 19.6149 165.098C19.671 164.818 19.7535 164.546 19.8609 164.289Z" fill="#E0E0E0"/>
<path d="M15.1585 184.691C14.9315 184.822 14.6944 184.924 14.4507 184.997C13.9888 185.172 13.311 185.405 12.4712 185.675C10.7976 186.221 8.47019 186.913 5.87284 187.554C3.2755 188.195 0.918096 188.668 -0.80347 188.96C-1.66125 189.105 -2.35708 189.207 -2.83696 189.266C-3.08601 189.322 -3.33982 189.342 -3.59277 189.324C-3.35362 189.224 -3.10624 189.155 -2.85496 189.12L-0.833465 188.69C0.870106 188.333 3.22152 187.824 5.81286 187.183C8.40421 186.542 10.7256 185.893 12.4112 185.42L14.4087 184.852C14.6529 184.764 14.9044 184.711 15.1585 184.691Z" fill="#E0E0E0"/>
<path d="M278.283 40.2947C279.364 39.7135 280.282 38.7599 280.921 37.552C281.561 36.3441 281.895 34.9348 281.882 33.4988C281.882 29.4417 279.362 26.1348 276.225 26.1129C273.088 26.091 270.539 29.3761 270.527 33.4332C270.502 34.8806 270.831 36.3044 271.471 37.5254C272.112 38.7464 273.035 39.7099 274.126 40.2947C265.392 41.8972 265.788 53.4058 265.788 53.4058L286.441 53.5223C286.441 53.5223 286.945 41.9117 278.283 40.2947Z" fill="#FF725E"/>
<path d="M155.875 14.3602L122.38 18.2192L124.522 45.6366L158.017 41.7776L155.875 14.3602Z" fill="white"/>
<path d="M158.013 41.7516C158.013 41.7516 158.013 41.5768 157.959 41.2417L157.833 39.785C157.725 38.4957 157.569 36.6383 157.371 34.2565C156.981 29.4928 156.423 22.6605 155.751 14.3422L155.883 14.4806L122.4 18.4431L122.538 18.2391V18.4431V18.6761L122.574 19.1277L122.646 20.0455L122.79 21.8592L123.066 25.4502C123.249 27.8248 123.431 30.1605 123.611 32.4573C123.965 37.0462 124.307 41.4603 124.631 45.6339L124.475 45.481L148.589 42.7859L155.493 42.0575L157.335 41.8609L157.815 41.8172H158.013H157.863L157.401 41.8754L155.601 42.1085L148.739 42.9462L124.547 45.816H124.403V45.6412C124.073 41.4603 123.725 37.0535 123.359 32.4646C123.179 30.1726 122.998 27.8369 122.814 25.4575C122.718 24.2702 122.622 23.0683 122.532 21.8665L122.388 20.0528L122.298 19.1714L122.262 18.7198V18.4868V18.2755L122.406 18.0643L155.901 14.2402H156.027V14.3932C156.627 22.7551 157.167 29.6239 157.527 34.424C157.695 36.784 157.833 38.6341 157.923 39.9161C157.965 40.5279 157.995 41.0087 158.019 41.3728C158.043 41.737 158.013 41.7516 158.013 41.7516Z" fill="#455A64"/>
<path d="M155.877 14.364C155.804 14.5221 155.715 14.6689 155.613 14.801L154.821 15.9155C154.108 16.9061 153.106 18.2901 151.87 19.9872L141.961 33.4479L141.871 33.5644L141.763 33.477L140.869 32.7851L127.756 22.5876L123.821 19.4118L122.753 18.545C122.626 18.451 122.506 18.3437 122.394 18.2245C122.532 18.2934 122.665 18.3788 122.789 18.4794L123.887 19.2879L127.894 22.3181L141.055 32.4354L141.949 33.1638H141.745L151.714 19.7833L154.743 15.7917L155.571 14.7209C155.667 14.5939 155.769 14.4747 155.877 14.364Z" fill="#455A64"/>
<path d="M81.412 47.0835C81.3474 46.1961 81.2331 45.3152 81.0701 44.4467C80.8574 43.4387 80.5196 42.4759 80.0684 41.5914C79.4851 40.4116 78.7192 39.3801 77.8129 38.554C76.6377 37.4736 75.2576 36.7693 73.7996 36.5059C72.3416 36.2424 70.8525 36.4282 69.469 37.0462C67.8387 37.7755 66.4205 39.0697 65.3901 40.7683C64.2795 42.5949 63.6802 44.8056 63.6802 47.0762C63.6802 49.3467 64.2795 51.5574 65.3901 53.384C66.4179 55.0875 67.8368 56.3848 69.469 57.1134C71.3956 57.9673 73.5068 57.9807 75.4407 57.1514C77.3745 56.3222 79.0106 54.7019 80.0684 52.5683C80.5196 51.6837 80.8574 50.7209 81.0701 49.7129C81.2323 48.8467 81.3465 47.9682 81.412 47.0835C81.4187 47.1414 81.4187 47.2003 81.412 47.2583V47.7754C81.4118 48.0559 81.3938 48.336 81.358 48.6131C81.325 48.9963 81.2689 49.3761 81.1901 49.7494C80.9912 50.7742 80.6656 51.7565 80.2243 52.6629C79.1621 54.8753 77.4937 56.5643 75.5103 57.435C73.527 58.3057 71.3548 58.3027 69.3731 57.4266C68.5477 57.089 67.7706 56.5975 67.0696 55.9698C66.3285 55.3212 65.6783 54.5317 65.1441 53.6317C63.9914 51.7423 63.3691 49.4531 63.3691 47.1017C63.3691 44.7502 63.9914 42.461 65.1441 40.5716C65.6783 39.6716 66.3285 38.8821 67.0696 38.2335C67.7706 37.6058 68.5477 37.1143 69.3731 36.7767C70.7988 36.1482 72.3322 35.9675 73.8309 36.2515C75.3295 36.5355 76.7447 37.2749 77.9449 38.401C78.8636 39.258 79.6359 40.3244 80.2183 41.5404C80.6637 42.4451 80.9915 43.4279 81.1901 44.454C81.2689 44.8272 81.325 45.207 81.358 45.5902C81.3938 45.8674 81.4118 46.1474 81.412 46.4279V46.9451C81.4156 46.9911 81.4156 47.0374 81.412 47.0835Z" fill="#263238"/>
<path d="M93.4268 65.206C93.3788 65.2934 90.2116 62.8169 86.3606 59.6775C82.5096 56.5382 79.4203 53.916 79.4683 53.8504C79.5163 53.7848 82.6775 56.2395 86.5345 59.3862C90.3916 62.5328 93.4748 65.1186 93.4268 65.206Z" fill="#263238"/>
<path d="M119.941 85.2365L112.935 76.0806L115.202 73.524L120.043 79.8391L130.198 67.7041L132.37 70.3846L119.941 85.2365Z" fill="#FF725E"/>
<path d="M316.498 76.4741H316.834H317.254L317.854 76.5688C319.134 76.8217 320.341 77.4631 321.363 78.4335C323.001 80.0008 324.06 82.2928 324.308 84.807C324.368 85.5353 324.368 86.3002 324.368 87.0723C324.368 87.8444 324.368 88.6529 324.368 89.4832C324.368 91.1367 324.368 92.8921 324.368 94.7277C324.368 96.5632 324.368 98.508 324.368 100.555C324.368 101.56 324.368 102.594 324.368 103.643C324.41 104.729 324.321 105.816 324.104 106.87C323.738 108.573 322.991 110.121 321.946 111.342C320.901 112.563 319.6 113.41 318.184 113.79C317.194 113.997 316.188 114.073 315.185 114.016H288.407L288.515 113.965L282.475 121.299L282.205 121.627V113.863L282.361 114.052C281.698 114.081 281.035 114.051 280.375 113.965C279.715 113.862 279.068 113.659 278.45 113.36C277.233 112.765 276.157 111.812 275.319 110.586C274.481 109.36 273.908 107.9 273.651 106.338C273.54 105.576 273.487 104.803 273.495 104.029V101.764C273.495 98.763 273.495 95.8057 273.495 92.9212V88.6383C273.459 87.236 273.495 85.8323 273.603 84.4355C273.783 83.063 274.204 81.7537 274.839 80.5968C275.45 79.4948 276.243 78.5582 277.167 77.8462C278.09 77.1342 279.126 76.6621 280.207 76.4596C281.234 76.3416 282.266 76.3027 283.297 76.343H294.478L310.626 76.4086H315.005H316.138H316.528H316.138H315.005H310.626L294.478 76.4741H283.297C282.28 76.4353 281.262 76.4767 280.249 76.598C278.651 76.8916 277.171 77.7976 276.026 79.1839C274.882 80.5701 274.131 82.3641 273.885 84.3044C273.78 85.6844 273.748 87.0712 273.789 88.4562V92.7392C273.789 95.6527 273.789 98.5663 273.789 101.582C273.736 103.085 273.786 104.59 273.939 106.083C274.198 107.57 274.745 108.961 275.534 110.14C276.762 111.943 278.507 113.112 280.417 113.411C281.063 113.493 281.712 113.52 282.361 113.491H282.517V121.146L282.253 121.008L288.299 113.673L288.341 113.622H288.407H315.185C316.178 113.683 317.174 113.61 318.154 113.404C319.095 113.157 319.989 112.695 320.787 112.042C322.32 110.784 323.426 108.895 323.9 106.724C324.109 105.725 324.2 104.695 324.17 103.665C324.17 102.616 324.17 101.582 324.17 100.577C324.17 98.559 324.17 96.6215 324.17 94.7495C324.17 92.8775 324.17 91.1585 324.17 89.5051C324.17 88.6747 324.17 87.8735 324.17 87.0941C324.17 86.3147 324.17 85.5645 324.128 84.8507C323.896 82.3786 322.867 80.1188 321.267 78.5646C320.267 77.59 319.081 76.9363 317.818 76.6635L317.248 76.547H316.834L316.498 76.4741Z" fill="#263238"/>
<path d="M15.5183 46.2967C15.5183 40.0471 10.1197 36.0992 4.59506 39.2168C3.34837 39.9264 2.32828 41.1139 1.69178 42.5965C0.300131 45.8597 0.917977 49.5891 2.17166 52.6847L6.46658 65.8978C6.60296 66.3182 6.84039 66.679 7.14797 66.9333C7.45555 67.1876 7.81904 67.3236 8.19115 67.3236C8.56326 67.3236 8.92675 67.1876 9.23433 66.9333C9.54191 66.679 9.77934 66.3182 9.91571 65.8978L14.1147 52.6119C15.5843 48.5548 15.5183 46.2967 15.5183 46.2967ZM10.3356 51.7451C6.62854 54.36 2.87349 49.5235 4.90098 44.7453C5.17158 44.1098 5.58837 43.5835 6.10067 43.2302C9.80774 40.608 13.5688 45.4518 11.5353 50.2228C11.2651 50.8604 10.8483 51.3892 10.3356 51.7451Z" fill="#FF725E"/>
<path d="M34.5874 67.8863C34.5874 67.8863 34.5874 67.9664 34.6654 68.1267C34.7434 68.2869 34.7734 68.5273 34.8633 68.8551L35.6072 71.6084C36.261 74.034 37.2148 77.5958 38.4385 82.1628L38.4744 82.3085H38.3545L26.2615 79.6207H26.1835V79.5188L26.3455 79.6134C21.0656 84.4038 14.6408 86.9668 8.0501 86.9119C6.55783 86.8828 5.06885 86.7319 3.59323 86.4603C2.06533 86.1815 0.55584 85.7701 -0.923639 85.2293L-3.16108 84.2387C-3.54039 84.0781 -3.90932 83.8833 -4.2648 83.656L-5.35652 83.0223C-8.34541 81.1957 -11.0718 78.7952 -13.4305 75.9132C-15.903 72.8702 -17.9115 69.3189 -19.363 65.4244C-21.5235 59.7187 -22.4423 53.4352 -22.0314 47.1751C-21.6205 40.915 -19.8938 34.8876 -17.0163 29.6695C-14.1388 24.4513 -10.2068 20.217 -5.59652 17.3715C-0.986197 14.5259 4.14828 13.1644 9.31579 13.4171C16.8062 13.7428 23.928 17.4449 29.2924 23.8013C34.6568 30.1576 37.8789 38.7124 38.3305 47.7973C38.5593 51.5609 38.2817 55.3447 37.5087 58.9999C37.0318 61.3092 36.3646 63.5542 35.5172 65.7011C35.2233 66.4295 34.9893 66.9904 34.8214 67.34L34.5634 67.8936L34.7914 67.34C34.9533 66.954 35.1813 66.4004 35.4632 65.6647C36.2848 63.5125 36.9317 61.2682 37.3947 58.9635C38.1412 55.3203 38.3984 51.5546 38.1565 47.8118C37.8693 42.313 36.5583 36.965 34.3223 32.1706C32.0863 27.3762 28.9835 23.2603 25.2478 20.1329C20.2896 16.0022 14.4274 13.7665 8.41466 13.7133C2.40191 13.6601 -3.48653 15.7917 -8.49373 19.8343C-14.4112 24.6492 -18.7243 31.8643 -20.6609 40.1882C-22.5974 48.512 -22.031 57.4011 -19.0631 65.2641C-17.6267 69.1212 -15.6407 72.6399 -13.1965 75.6583C-10.8619 78.5118 -8.16403 80.8901 -5.20656 82.7018L-4.12083 83.3355C-3.77052 83.5653 -3.40541 83.7602 -3.02911 83.9182L-0.821657 84.9016C0.645634 85.4423 2.14314 85.8537 3.65921 86.1326C5.12097 86.4028 6.59577 86.5561 8.07409 86.5914C14.6107 86.6436 20.9824 84.1012 26.2195 79.3512L26.3815 79.2055V79.4532L26.3035 79.3294L38.3785 82.0827L38.2945 82.1992L35.5352 71.6157L34.8214 68.8478C34.7434 68.5419 34.6894 68.3015 34.6474 68.1194C34.6054 67.9373 34.5874 67.8718 34.5874 67.8718V67.8863Z" fill="#263238"/>
<path d="M229.064 37.3156C228.981 36.8933 228.941 36.4604 228.944 36.0263C228.925 35.5031 228.875 34.9822 228.794 34.4676C228.723 33.7645 228.611 33.0683 228.458 32.3844C228.083 30.4933 227.477 28.6813 226.659 27.0088C225.602 24.7894 224.205 22.8361 222.544 21.2545C220.544 19.33 218.199 18.0027 215.7 17.3795C212.834 16.6634 209.863 16.8872 207.092 18.0278C205.59 18.6241 204.174 19.4988 202.893 20.6208C201.541 21.7474 200.349 23.1351 199.366 24.729C197.24 28.0596 196.048 32.1286 195.964 36.3409C195.88 40.5532 196.908 44.6876 198.898 48.1395C199.38 48.9673 199.909 49.7535 200.482 50.4922C201.045 51.1974 201.646 51.8568 202.281 52.4662C203.511 53.6579 204.885 54.6134 206.354 55.2996C209.074 56.6009 212.031 57.0006 214.92 56.4577C217.443 55.9799 219.839 54.7899 221.914 52.9833C223.638 51.5039 225.112 49.6371 226.257 47.4839C227.133 45.858 227.807 44.0833 228.255 42.2177C228.433 41.5431 228.574 40.8544 228.674 40.1563C228.775 39.6487 228.843 39.1324 228.878 38.6121C228.894 38.1755 228.953 37.7428 229.052 37.3229C229.093 37.7561 229.093 38.1935 229.052 38.6267C229.047 39.1566 229.007 39.6852 228.932 40.2073C228.861 40.9254 228.747 41.6363 228.59 42.3342C228.191 44.2686 227.548 46.1163 226.683 47.8117C225.413 50.3202 223.717 52.4708 221.708 54.12C219.699 55.7692 217.424 56.8791 215.034 57.3755C212.006 57.9823 208.9 57.5976 206.036 56.2611C204.489 55.5596 203.039 54.5773 201.735 53.3475C201.059 52.7094 200.418 52.0184 199.816 51.2789C199.224 50.5 198.675 49.6751 198.172 48.8096C196.061 45.1717 194.969 40.8055 195.059 36.3562C195.148 31.9069 196.415 27.6107 198.67 24.1026C199.203 23.2649 199.785 22.4739 200.41 21.7353C201.033 21.0155 201.699 20.3509 202.401 19.7468C203.749 18.576 205.238 17.6668 206.816 17.0517C209.73 15.8774 212.85 15.6762 215.85 16.469C218.215 17.097 220.443 18.3317 222.384 20.0904C224.325 21.8492 225.934 24.0913 227.103 26.6665C227.905 28.4196 228.476 30.3146 228.794 32.2824C228.928 33.0013 229.014 33.732 229.052 34.4676C229.108 34.9916 229.128 35.5202 229.112 36.0482C229.134 36.4715 229.118 36.8965 229.064 37.3156Z" fill="#455A64"/>
<path d="M225.711 24.598C225.747 24.6636 225.441 24.9841 224.859 25.5085L223.779 26.4482C223.569 26.623 223.341 26.8269 223.096 27.0163L222.268 27.5408C219.271 29.6187 215.862 30.6615 212.412 30.5563L210.919 30.4762L209.491 30.1994C209.257 30.1557 209.023 30.1193 208.795 30.061L208.123 29.8425C207.685 29.6968 207.248 29.573 206.834 29.4127C205.369 28.8145 203.962 28.0282 202.635 27.0673C200.391 25.4211 199.294 23.9206 199.378 23.826C199.462 23.7313 200.691 24.955 202.977 26.3826C204.298 27.2079 205.677 27.8904 207.098 28.4221C207.493 28.5678 207.913 28.6771 208.339 28.8082L208.981 28.9975L209.647 29.1214L211.015 29.369L212.436 29.4346C215.744 29.5206 219.019 28.6282 221.98 26.8342L222.82 26.3899C223.072 26.2297 223.306 26.0621 223.527 25.9092L224.667 25.1808C225.297 24.7364 225.669 24.5398 225.711 24.598Z" fill="#455A64"/>
<path d="M198.886 49.3489C198.85 49.2906 199.156 48.9701 199.737 48.4384L200.817 47.4988C201.027 47.324 201.255 47.12 201.501 46.9306L202.329 46.4062C205.327 44.3308 208.735 43.2905 212.184 43.3979L213.678 43.4781L215.106 43.7476C215.34 43.7986 215.573 43.835 215.801 43.8932L216.473 44.1045C216.911 44.2574 217.349 44.3813 217.763 44.5415C219.228 45.1344 220.636 45.9183 221.962 46.8796C224.205 48.5331 225.303 50.0336 225.219 50.1283C225.135 50.223 223.905 48.9993 221.62 47.5716C220.3 46.7406 218.92 46.0556 217.499 45.5248C217.097 45.3864 216.677 45.2772 216.257 45.1461L215.615 44.9494L214.95 44.8256L213.582 44.5852L212.16 44.5124C208.85 44.4274 205.572 45.3224 202.611 47.12L201.801 47.5789C201.549 47.7392 201.315 47.914 201.093 48.0597L199.953 48.8317C199.3 49.2178 198.922 49.4145 198.886 49.3489Z" fill="#455A64"/>
<path d="M229.052 37.7894C229.052 38.1026 221.536 38.1317 212.257 37.8549C202.977 37.5781 195.503 37.1265 195.509 36.7987C195.515 36.471 203.019 36.4637 212.305 36.7405C221.59 37.0173 229.058 37.4834 229.052 37.7894Z" fill="#455A64"/>
<path d="M211.518 57.1572C211.266 57.1572 211.242 48.0377 211.464 36.7986C211.686 25.5595 212.064 16.4546 212.334 16.4619C212.604 16.4692 212.61 25.5887 212.388 36.8569C212.166 48.1251 211.77 57.1645 211.518 57.1572Z" fill="#455A64"/>
<path d="M211.519 57.1279C211.459 57.2445 209.611 55.7221 207.476 52.2841C206.23 50.2599 205.221 48.0367 204.476 45.6776C203.57 42.7657 203.13 39.6704 203.181 36.5581C203.241 33.4403 203.816 30.369 204.872 27.526C205.72 25.2213 206.822 23.0673 208.147 21.1235C210.403 17.8093 212.262 16.3452 212.346 16.4618C212.43 16.5783 210.751 18.2536 208.675 21.6115C207.469 23.5641 206.462 25.6871 205.676 27.9339C204.711 30.6674 204.183 33.5994 204.122 36.5727C204.087 39.5501 204.493 42.5109 205.322 45.3134C206.006 47.6109 206.922 49.796 208.051 51.8179C209.947 55.2924 211.615 57.0041 211.519 57.1279Z" fill="#455A64"/>
<path d="M212.706 16.4693C212.772 16.3528 214.62 17.8751 216.749 21.3131C217.995 23.3374 219.004 25.5605 219.749 27.9197C220.649 30.8359 221.089 33.9323 221.044 37.0464C220.981 40.1614 220.406 43.2297 219.353 46.0712C218.501 48.3731 217.399 50.5263 216.078 52.4738C213.822 55.788 211.957 57.2593 211.879 57.1355C211.801 57.0117 213.474 55.3437 215.544 51.9858C216.75 50.0331 217.757 47.9101 218.543 45.6633C219.503 42.9282 220.029 39.997 220.091 37.0246C220.126 34.0472 219.72 31.0864 218.891 28.2839C218.204 25.9866 217.285 23.8017 216.156 21.7793C214.278 18.3049 212.598 16.5932 212.706 16.4693Z" fill="#455A64"/>
<path d="M195.545 67.1434L195.341 67.209L194.741 67.3838L192.414 68.0466L183.5 70.5232L183.38 70.5596L183.416 70.4139L186.691 56.0354V55.9335H186.805L186.709 56.1229C184.003 50.8373 182.452 44.8001 182.204 38.5832C182.138 36.8441 182.17 35.1016 182.3 33.3679C182.459 31.5671 182.715 29.781 183.068 28.0215C183.431 26.1981 183.903 24.4089 184.478 22.6678C184.814 21.801 185.15 20.9269 185.492 20.0529C185.664 19.6072 185.864 19.1786 186.091 18.7709C186.295 18.3484 186.499 17.9259 186.691 17.5035C188.456 14.0529 190.666 10.969 193.236 8.36943C195.951 5.65001 199.042 3.53655 202.365 2.12711C207.239 0.0194116 212.477 -0.533792 217.578 0.520452C222.678 1.5747 227.471 4.20109 231.496 8.14822C235.521 12.0953 238.645 17.2311 240.567 23.0637C242.49 28.8964 243.148 35.2307 242.477 41.4603C241.547 50.4928 237.878 58.7802 232.188 64.7059C226.497 70.6315 219.192 73.7702 211.699 73.5096C208.591 73.4512 205.512 72.7796 202.581 71.5211C200.732 70.7369 198.952 69.7317 197.267 68.5201C196.667 68.0976 196.253 67.7917 195.983 67.5295L195.551 67.1653L195.983 67.4931C196.283 67.7189 196.721 68.0466 197.297 68.4545C198.992 69.6299 200.775 70.6055 202.623 71.3681C205.546 72.5948 208.613 73.2416 211.705 73.2838C216.969 73.4248 222.171 71.884 226.79 68.8157C231.409 65.7474 235.284 61.2594 238.025 55.8009C240.767 50.3425 242.279 44.1052 242.411 37.7138C242.543 31.3223 241.289 25.001 238.776 19.3827C235.362 11.7878 229.833 5.917 223.179 2.82189C216.525 -0.273231 209.18 -0.390422 202.461 2.49131C199.167 3.88528 196.101 5.97375 193.404 8.66079C190.858 11.2376 188.671 14.2946 186.925 17.7147C186.721 18.1299 186.517 18.5524 186.325 18.9675C186.112 19.3739 185.922 19.7974 185.756 20.2349L184.736 22.8135C184.161 24.539 183.692 26.3138 183.332 28.1234C182.978 29.8658 182.719 31.6348 182.558 33.4189C182.426 35.1402 182.392 36.8706 182.456 38.5977C182.689 44.7656 184.212 50.7598 186.883 56.0136L186.991 56.2248H186.787L186.895 56.1374C185.606 61.6805 184.496 66.5316 183.56 70.5013L183.476 70.3848L192.402 67.9738L194.735 67.362L195.335 67.209C195.404 67.1894 195.474 67.1748 195.545 67.1653V67.1434Z" fill="#263238"/>
<path d="M220.816 84.654C217.883 85.4843 216.017 89.0899 215.375 92.6663C214.733 96.2427 215.057 99.9502 214.775 103.592C214.493 107.234 213.444 111.102 210.918 113.061L213.432 113.95C212.935 115.861 211.887 117.49 210.48 118.539C211.463 119.461 212.67 119.961 213.912 119.959C212.436 120.433 212.028 122.997 212.844 124.563C213.66 126.129 215.213 126.872 216.695 127.33C218.428 127.977 220.272 128.045 222.034 127.527C224.433 126.646 226.28 124.053 227.21 121.183C228.14 118.313 228.314 115.181 228.41 112.1C228.59 104.386 228.218 96.5923 226.61 89.1263C226.214 87.3199 225.675 85.4042 224.409 84.3407C223.143 83.2773 220.984 83.707 220.6 85.5135" fill="#FF725E"/>
<path d="M287.118 195.996C286.422 192.777 282.367 174.64 278.72 162.796C274.695 149.648 266.393 146.931 266.393 146.931C247.708 139.189 230.918 139.145 213.006 146.691C212.406 146.91 211.873 147.143 211.339 147.42H211.285C197.986 153.757 196.612 170.815 196.612 170.815L191.004 212.195C190.945 212.523 190.901 212.853 190.872 213.186L190.818 213.579C190.723 215.514 191.107 217.438 191.922 219.104C192.737 220.77 193.945 222.101 195.389 222.925C203.187 227.295 210.649 226.253 217.055 223.041L212.4 231.272H267.821L264.185 220.412L265.385 213.856L273.969 226.399C274.997 227.9 276.375 228.99 277.922 229.524C287.819 230.922 289.421 213.026 287.562 202.61" fill="#455A64"/>
<path d="M252.009 142.423C252.009 142.423 243.065 197.052 239.916 196.63C236.766 196.207 221.992 143.457 221.992 143.457C221.992 143.457 240.875 137.339 252.009 142.423Z" fill="#FFBE9D"/>
<path d="M226.647 146.451C226.599 140.165 226.455 133.544 226.455 133.544C226.455 133.544 219.779 132.254 218.339 121.693C216.971 111.626 218.225 88.3395 218.225 88.3395C222.947 85.9969 228.147 85.4636 233.126 86.8111C238.105 88.1586 242.626 91.3224 246.082 95.8784L245.776 146.953C245.74 152.882 241.511 157.566 236.287 157.471C231.002 157.377 226.689 152.467 226.647 146.451Z" fill="#FFBE9D"/>
<path d="M220.438 105.96C220.437 106.313 220.549 106.653 220.75 106.907C220.952 107.162 221.228 107.31 221.518 107.322C221.66 107.335 221.803 107.313 221.938 107.257C222.074 107.202 222.198 107.115 222.305 107C222.412 106.885 222.499 106.745 222.56 106.589C222.622 106.433 222.657 106.264 222.664 106.091C222.666 105.738 222.554 105.398 222.352 105.143C222.15 104.889 221.875 104.74 221.584 104.729C221.442 104.716 221.299 104.738 221.164 104.793C221.029 104.848 220.904 104.936 220.797 105.051C220.691 105.165 220.604 105.305 220.542 105.461C220.481 105.617 220.445 105.787 220.438 105.96Z" fill="#263238"/>
<path d="M218.969 104.998C219.107 105.173 219.946 104.408 221.146 104.401C222.346 104.393 223.234 105.129 223.366 104.94C223.498 104.75 223.282 104.546 222.898 104.211C222.368 103.772 221.739 103.546 221.098 103.563C220.472 103.58 219.866 103.835 219.365 104.291C219.023 104.597 218.897 104.918 218.969 104.998Z" fill="#263238"/>
<path d="M232.585 106.666C232.583 107.019 232.695 107.359 232.897 107.614C233.099 107.868 233.374 108.017 233.665 108.028C233.805 108.038 233.946 108.014 234.079 107.957C234.212 107.9 234.335 107.812 234.44 107.698C234.545 107.583 234.63 107.445 234.69 107.29C234.751 107.136 234.786 106.968 234.792 106.797C234.794 106.444 234.682 106.104 234.481 105.85C234.279 105.595 234.003 105.446 233.713 105.435C233.572 105.425 233.431 105.449 233.298 105.506C233.165 105.563 233.042 105.651 232.938 105.765C232.833 105.88 232.748 106.018 232.687 106.173C232.627 106.327 232.592 106.495 232.585 106.666Z" fill="#263238"/>
<path d="M231.499 105.435C231.643 105.61 232.483 104.845 233.683 104.838C234.882 104.831 235.77 105.566 235.896 105.377C236.022 105.187 235.818 104.984 235.434 104.648C234.905 104.21 234.276 103.983 233.635 104C233.008 104.011 232.4 104.267 231.901 104.729C231.559 105.035 231.433 105.355 231.499 105.435Z" fill="#263238"/>
<path d="M227.198 116.281C226.563 116.048 225.906 115.911 225.243 115.873C224.937 115.873 224.643 115.764 224.595 115.509C224.566 115.124 224.635 114.737 224.793 114.402L225.687 111.561C226.922 107.511 227.822 104.19 227.684 104.124C227.546 104.058 226.437 107.3 225.195 111.35C224.901 112.348 224.595 113.294 224.343 114.205C224.153 114.654 224.1 115.17 224.193 115.662C224.237 115.793 224.306 115.909 224.393 116.003C224.48 116.096 224.584 116.164 224.697 116.201C224.868 116.255 225.043 116.284 225.219 116.288C225.876 116.388 226.541 116.385 227.198 116.281Z" fill="#263238"/>
<path d="M226.455 133.529C230.554 133.574 234.582 132.238 238.092 129.669C238.092 129.669 235.297 136.953 226.581 136.028L226.455 133.529Z" fill="#EB996E"/>
<path d="M227.721 119.791C227.95 119.443 228.247 119.169 228.586 118.996C228.924 118.823 229.293 118.756 229.658 118.801C229.923 118.829 230.181 118.922 230.416 119.073C230.651 119.224 230.858 119.432 231.026 119.682C231.188 119.925 231.285 120.222 231.303 120.533C231.321 120.845 231.26 121.155 231.128 121.423C230.936 121.686 230.684 121.873 230.404 121.96C230.124 122.047 229.829 122.03 229.556 121.911C228.989 121.673 228.467 121.299 228.021 120.811C227.883 120.696 227.765 120.55 227.673 120.381C227.628 120.302 227.604 120.208 227.604 120.112C227.604 120.016 227.628 119.922 227.673 119.842" fill="#EB996E"/>
<path d="M230.738 117.264C230.54 117.264 230.546 118.837 229.436 119.966C228.326 121.095 226.935 120.935 226.929 121.154C226.929 121.256 227.241 121.46 227.828 121.474C228.592 121.482 229.333 121.162 229.922 120.571C230.489 120.006 230.849 119.192 230.924 118.306C230.972 117.65 230.828 117.257 230.738 117.264Z" fill="#263238"/>
<path d="M241.392 87.3634C238.29 92.9429 229.94 98.7992 223.924 100.241C224.614 99.0979 228.285 96.2426 228.969 95.1063C226.269 97.6411 222.37 101.043 218.771 101.349C218.345 101.429 217.909 101.355 217.518 101.137C217.31 100.944 217.142 100.695 217.028 100.409C216.913 100.123 216.855 99.8089 216.858 99.4912C216.611 96.3028 216.649 93.0912 216.972 89.9128C217.223 87.2264 218.311 84.7586 220.013 83.0149C222.31 80.7788 225.628 80.1742 228.765 80.014C231.392 79.8829 234.103 80.014 236.527 81.1138C238.95 82.2137 241.038 84.4499 241.428 87.1741" fill="#FF725E"/>
<path d="M251.678 112.923C252.053 110.584 252.309 108.22 252.446 105.843C252.626 100.38 253.97 80.6844 238.512 82.6365L239.387 87.9319C239.387 87.9319 236.502 100.198 243.143 108.473C243.143 108.473 241.253 125.75 245.872 131.33C245.872 131.33 250.827 118.816 251.678 112.923Z" fill="#FF725E"/>
<path d="M242.945 107.555C243.876 107.309 244.845 107.377 245.746 107.751C246.653 108.14 247.395 108.95 247.81 110.002C248.177 111.079 248.192 112.285 247.852 113.374C247.51 114.456 246.973 115.432 246.28 116.23C245.815 116.842 245.238 117.314 244.595 117.606C244.273 117.744 243.928 117.784 243.59 117.723C243.253 117.662 242.932 117.502 242.657 117.257" fill="#FFBE9D"/>
<path d="M243.491 114.401C243.389 114.445 243.797 115.13 244.643 114.846C245.1 114.654 245.478 114.251 245.692 113.724C245.943 113.14 246.096 112.501 246.142 111.845C246.211 111.145 246.068 110.438 245.74 109.856C245.607 109.611 245.43 109.406 245.222 109.256C245.015 109.106 244.782 109.015 244.541 108.99C243.665 108.99 243.395 109.718 243.497 109.718C243.599 109.718 243.905 109.419 244.475 109.579C244.828 109.739 245.122 110.048 245.302 110.449C245.483 110.851 245.538 111.318 245.458 111.765C245.363 112.93 244.997 113.994 244.487 114.263C243.977 114.533 243.551 114.307 243.491 114.401Z" fill="#EB996E"/>
<path d="M212.449 197.329C212.365 197.329 212.293 193.039 212.293 187.743C212.293 182.448 212.365 178.165 212.449 178.165C212.533 178.165 212.605 182.455 212.605 187.743C212.605 193.032 212.533 197.329 212.449 197.329Z" fill="#263238"/>
<path d="M234.973 177.764C234.973 177.764 227.175 177.873 226.701 179.949C225.885 183.417 227.343 202.449 227.343 202.449L234.511 205.363C234.511 205.363 237.966 204.394 236.371 196.316C235.329 191.241 233.735 186.357 231.632 181.792C231.632 181.792 241.158 182.113 240.894 179.527C240.63 176.941 234.973 177.764 234.973 177.764Z" fill="#FFBE9D"/>
<path d="M231.878 183.38C232.304 183.278 241.823 182.324 241.23 184.174C240.636 186.024 231.878 186.483 231.878 186.483V183.38Z" fill="#FFBE9D"/>
<path d="M262.464 155.396L261.288 191.495L256.946 205.356L230.264 206.026L229.185 161.31L262.464 155.396Z" fill="#263238"/>
<path d="M226.083 190.489C225.982 190.573 225.873 190.641 225.759 190.693L224.799 191.218L221.242 193.06L209.473 199.026L203.001 202.267C201.216 203.08 199.483 204.054 197.818 205.181C196.702 205.949 195.717 206.967 194.915 208.182C194.363 209.056 194.165 209.639 194.135 209.639C194.166 209.493 194.215 209.353 194.279 209.224C194.428 208.836 194.608 208.467 194.819 208.124C195.594 206.851 196.573 205.783 197.698 204.984C199.361 203.819 201.098 202.818 202.893 201.991L209.377 198.727L221.182 192.864L224.781 191.13L225.765 190.679C225.864 190.6 225.971 190.536 226.083 190.489Z" fill="#263238"/>
<path d="M234.906 204.635C234.729 204.946 234.528 205.236 234.306 205.502C233.917 206.048 233.335 206.813 232.585 207.723C231.091 209.559 228.932 211.977 226.448 214.497C223.965 217.017 221.65 219.188 219.922 220.703C219.064 221.431 218.363 222.058 217.871 222.466C217.626 222.69 217.365 222.887 217.091 223.056C217.308 222.787 217.545 222.543 217.799 222.327L219.79 220.47C221.47 218.904 223.767 216.712 226.251 214.191C228.734 211.671 230.905 209.304 232.429 207.519C233.197 206.638 233.803 205.895 234.229 205.392C234.436 205.117 234.663 204.863 234.906 204.635Z" fill="#263238"/>
<path d="M275.09 227.739C275.024 227.812 271.113 222.364 266.35 215.575C261.588 208.786 257.779 203.236 257.845 203.192C257.911 203.149 261.822 208.553 266.584 215.327C271.347 222.101 275.156 227.674 275.09 227.739Z" fill="#263238"/>
<path d="M282.631 201.51C282.335 201.415 282.046 201.291 281.767 201.139C281.215 200.877 280.424 200.469 279.458 199.944C277.526 198.888 274.899 197.315 272.104 195.348C269.308 193.381 266.867 191.407 265.151 189.9C264.294 189.171 263.61 188.516 263.148 188.064C262.898 187.848 262.665 187.604 262.452 187.336C262.723 187.509 262.98 187.711 263.22 187.94C263.754 188.385 264.45 188.967 265.277 189.674C267.023 191.131 269.476 193.054 272.26 195.013C275.043 196.972 277.658 198.582 279.554 199.689L281.815 200.993C282.099 201.136 282.372 201.309 282.631 201.51Z" fill="#263238"/>
<path d="M268.822 193.585C268.738 193.585 268.27 189.746 267.778 184.983C267.286 180.219 266.956 176.337 267.04 176.329C267.124 176.322 267.598 180.168 268.09 184.932C268.582 189.695 268.912 193.578 268.822 193.585Z" fill="#263238"/>
<path d="M246.256 114.336C246.187 114.498 246.105 114.652 246.01 114.795L245.248 116.033L242.483 120.403V120.17L246.988 124.468L247.39 124.861H247.174L251.073 118.932V119.15L248.14 116.237L247.336 115.414C247.236 115.32 247.145 115.212 247.066 115.093C247.066 115.093 247.186 115.166 247.384 115.341L248.23 116.069L251.229 118.866L251.331 118.961L251.247 119.085C250.137 120.818 248.818 122.858 247.396 125.058L247.3 125.211L247.174 125.094L246.79 124.788C245.164 123.215 243.635 121.729 242.309 120.454L242.201 120.345L242.285 120.221L245.14 115.953L245.956 114.766C246.136 114.46 246.244 114.321 246.256 114.336Z" fill="#263238"/>
<path d="M257.701 202.625C253.382 202.384 249.079 201.824 244.816 200.949C239.771 199.973 239.825 199.412 240.017 198.713C240.497 196.834 248.943 200.024 247.425 198.05C245.908 196.076 236.76 195.61 237.33 193.68C238.074 191.152 246.867 194.692 247.629 194.925C248.391 195.159 248.661 193.826 247.965 193.658C246.969 193.418 236.514 190.613 237.222 188.122C237.618 186.738 239.585 187.896 239.585 187.896C239.585 187.896 249.225 191.407 249.531 190.213C249.837 189.018 244.234 186.709 242.297 186.105C240.359 185.5 239.825 184.145 240.725 183.329C241.325 182.776 247.323 184.473 249.189 185.136C251.054 185.799 256.279 187.707 254.3 184.225L254.216 184.058C252.188 180.693 251.546 177.284 251.912 176.14C252.013 175.902 252.166 175.701 252.354 175.561C252.543 175.422 252.759 175.348 252.98 175.348C253.201 175.348 253.417 175.422 253.606 175.561C253.794 175.701 253.947 175.902 254.048 176.14C254.144 176.309 254.212 176.5 254.246 176.701C254.265 176.802 254.289 176.902 254.318 177C254.795 178.305 255.382 179.548 256.069 180.707C256.663 181.766 257.402 182.695 258.253 183.453C259.236 184.32 261.726 187.51 262.451 188.079" fill="#FFBE9D"/>
<path d="M79.187 159.686C76.4856 159.626 73.9067 158.307 71.9839 156.002C70.0612 153.697 68.9419 150.582 68.8576 147.303C68.7137 141.629 68.6057 136.159 68.6057 136.159C68.6057 136.159 60.0219 135.19 59.392 124.876C58.7622 114.562 59.0321 90.7507 59.0321 90.7507C63.7372 87.8671 68.991 86.5608 74.2508 86.9667C79.5106 87.3726 84.5859 89.476 88.9526 93.0597L90.2722 94.145L89.9063 147.026C89.8931 148.714 89.6047 150.383 89.0576 151.934C88.5106 153.486 87.7158 154.891 86.7192 156.068C85.7226 157.245 84.5439 158.171 83.2511 158.792C81.9583 159.413 80.577 159.717 79.187 159.686Z" fill="#B78876"/>
<path d="M68.3949 118.51C68.3949 118.393 67.6631 118.269 66.4754 118.16C66.1635 118.16 65.9235 118.08 65.8756 117.883C65.8495 117.51 65.9076 117.134 66.0435 116.798L66.8353 113.862C67.903 109.652 68.6349 106.185 68.4489 106.12C68.263 106.054 67.2492 109.412 66.1935 113.622C65.9415 114.649 65.7016 115.632 65.4677 116.601C65.2928 117.093 65.261 117.643 65.3777 118.16C65.4296 118.298 65.5068 118.42 65.6036 118.516C65.7003 118.612 65.8139 118.679 65.9355 118.714C66.1093 118.755 66.2866 118.77 66.4634 118.757C67.6511 118.699 68.3889 118.619 68.3949 118.51Z" fill="#263238"/>
<path d="M72.2763 119.792C70.4735 120.85 68.5834 121.672 66.6377 122.246C67.0726 122.964 67.6948 123.481 68.4029 123.714C69.111 123.946 69.8632 123.881 70.5367 123.528C73.0201 122.202 72.2763 119.792 72.2763 119.792Z" fill="white"/>
<path d="M68.5869 135.998C72.5162 135.795 76.3064 134.174 79.4742 131.344C79.4742 131.344 77.2307 138.97 68.6769 138.672L68.5869 135.998Z" fill="#A36957"/>
<path d="M89.7977 106.884C89.7955 106.487 89.9184 106.103 90.1414 105.812C90.3645 105.521 90.6707 105.344 90.9974 105.318C92.587 105.267 95.1963 106.047 95.4243 111.342C95.7722 118.939 89.7557 117.046 89.7377 116.827C89.7197 116.609 89.7797 109.834 89.7977 106.884Z" fill="#B78876"/>
<path d="M91.1417 113.863C91.1417 113.863 91.2497 113.95 91.4416 114.037C91.7035 114.165 91.9956 114.165 92.2574 114.037C92.9053 113.695 93.4031 112.384 93.3672 111.015C93.3562 110.363 93.2229 109.722 92.9772 109.143C92.9086 108.909 92.7941 108.699 92.6436 108.532C92.493 108.364 92.3111 108.244 92.1135 108.181C91.9858 108.149 91.8528 108.172 91.7378 108.247C91.6227 108.321 91.5328 108.442 91.4836 108.589C91.4116 108.808 91.4836 108.953 91.4236 108.968C91.3636 108.982 91.2857 108.851 91.3217 108.531C91.3485 108.342 91.4267 108.171 91.5436 108.043C91.6259 107.958 91.7213 107.893 91.8243 107.853C91.9272 107.813 92.0357 107.798 92.1435 107.81C92.4043 107.853 92.6516 107.977 92.8617 108.169C93.0718 108.362 93.2376 108.617 93.3432 108.909C93.6371 109.532 93.8038 110.232 93.829 110.949C93.859 112.479 93.2772 113.957 92.3894 114.336C92.2246 114.406 92.0489 114.43 91.8755 114.406C91.702 114.382 91.5352 114.311 91.3876 114.198C91.1597 114.023 91.1177 113.863 91.1417 113.863Z" fill="#A36957"/>
<path d="M61.6946 108.225C61.7147 108.59 61.8512 108.931 62.0753 109.176C62.2993 109.421 62.5931 109.55 62.8943 109.536C63.0415 109.538 63.1875 109.504 63.3237 109.436C63.4599 109.368 63.5834 109.267 63.6869 109.14C63.7905 109.013 63.8719 108.862 63.9264 108.696C63.9808 108.53 64.0072 108.352 64.004 108.174C63.987 107.807 63.8515 107.462 63.627 107.216C63.4024 106.969 63.1069 106.839 62.8043 106.855C62.6568 106.854 62.5107 106.889 62.3745 106.958C62.2383 107.027 62.1148 107.128 62.0114 107.255C61.9079 107.383 61.8266 107.535 61.7722 107.701C61.7178 107.868 61.6914 108.046 61.6946 108.225Z" fill="#263238"/>
<path d="M59.7334 106.819C59.8894 106.986 60.7172 106.091 61.9529 106.025C63.1886 105.959 64.1483 106.593 64.2683 106.404C64.3883 106.214 64.1663 105.996 63.7524 105.675C63.1879 105.271 62.5343 105.088 61.8809 105.151C61.2367 105.199 60.6225 105.498 60.1293 106.003C59.7694 106.404 59.6375 106.739 59.7334 106.819Z" fill="#263238"/>
<path d="M74.0342 107.963C74.0528 108.329 74.1889 108.671 74.4133 108.916C74.6377 109.161 74.9324 109.29 75.2339 109.274C75.3814 109.276 75.5277 109.242 75.6642 109.174C75.8007 109.106 75.9246 109.006 76.0286 108.879C76.1326 108.752 76.2146 108.601 76.2698 108.435C76.3249 108.269 76.3521 108.091 76.3497 107.912C76.3296 107.547 76.193 107.205 75.969 106.96C75.745 106.716 75.4511 106.587 75.15 106.601C75.0027 106.6 74.8568 106.634 74.7207 106.702C74.5845 106.771 74.4609 106.871 74.3571 106.998C74.2533 107.125 74.1712 107.275 74.1158 107.441C74.0604 107.607 74.0327 107.784 74.0342 107.963Z" fill="#263238"/>
<path d="M72.3124 106.819C72.4683 106.986 73.2961 106.091 74.5318 106.025C75.7675 105.959 76.7213 106.593 76.8472 106.404C76.9732 106.214 76.7453 105.996 76.3254 105.675C75.7633 105.27 75.1114 105.087 74.4598 105.151C73.8157 105.199 73.2014 105.498 72.7083 106.003C72.3484 106.404 72.2344 106.739 72.3124 106.819Z" fill="#263238"/>
<path d="M80.5122 87.1743C79.9509 88.7822 79.7859 90.5534 80.0372 92.2729C80.2884 93.9925 80.9452 95.5866 81.9278 96.8619C82.7616 97.9108 83.8173 98.712 84.5431 99.8847C86.0428 102.31 85.7968 105.646 86.0368 108.662C86.1447 110.06 86.4147 111.575 87.2365 112.5C88.0583 113.426 89.6659 113.52 90.2357 112.318C90.3959 111.937 90.5014 111.526 90.5476 111.102C91.0715 107.737 91.5914 104.374 92.1072 101.014C92.4971 98.4862 92.893 95.915 92.5331 93.3656C92.323 91.8828 91.8595 90.4699 91.1726 89.2177C90.4857 87.9655 89.5906 86.9018 88.5447 86.0949C87.4989 85.2881 86.3256 84.756 85.1002 84.533C83.8749 84.3099 82.6246 84.4008 81.4299 84.7997" fill="#263238"/>
<path d="M81.8322 85.04C78.9469 84.3699 77.3273 83.2481 75.2878 82.1264C73.2737 80.912 70.9724 80.5949 68.7855 81.2305C67.3338 81.7258 65.9602 82.7893 64.4666 82.7674C62.9729 82.7456 61.6473 81.6821 60.2316 81.1358C59.2626 80.7726 58.2433 80.6499 57.2344 80.775C56.2255 80.9002 55.2476 81.2706 54.3591 81.8642C52.9615 82.7966 51.7078 84.4646 51.5878 86.5041C51.4678 88.5436 52.9675 90.6486 54.4731 90.0659C52.9015 90.7287 52.2656 93.5403 53.0454 95.4123C53.453 96.2923 54.0747 96.9978 54.8253 97.432C55.576 97.8663 56.4188 98.008 57.2384 97.8379C58.8985 97.393 60.3888 96.2882 61.4733 94.6985C61.5093 96.9711 63.3868 98.5662 65.1264 98.5007C66.866 98.4351 68.4376 97.1677 69.8712 95.8639C71.3048 94.5601 72.7565 93.1397 74.4601 92.6808C75.6597 92.3603 76.8594 92.5352 78.0591 92.3603C79.2588 92.1855 80.5485 91.5518 81.1304 90.1752C81.7122 88.7985 84.0156 87.1815 82.8099 87.1378" fill="#263238"/>
<path d="M64.7366 96.2208C64.9444 96.3728 65.1586 96.5114 65.3784 96.636C66.0035 96.8882 66.6789 96.8882 67.3039 96.636C67.7381 96.4822 68.1536 96.2593 68.5396 95.9731C68.9595 95.6672 69.3854 95.2447 69.8413 94.8733C70.3158 94.435 70.8194 94.0452 71.3469 93.7078C71.9308 93.3453 72.5748 93.1486 73.2305 93.1324C74.5681 93.1324 75.7738 93.5403 76.8655 93.4238C77.3461 93.3883 77.8144 93.2251 78.2373 92.9457C78.6602 92.6663 79.0274 92.2774 79.3129 91.8067C79.7172 91.1736 79.9703 90.4176 80.0447 89.6215C80.0927 89.0534 80.0447 88.7329 80.0747 88.7329C80.1047 88.7329 80.1047 88.8057 80.1287 88.9587C80.16 89.1799 80.1721 89.4045 80.1647 89.6288C80.1377 90.4699 79.9037 91.2817 79.4929 91.9597C79.217 92.4389 78.864 92.8453 78.4551 93.1543C77.9825 93.5053 77.448 93.7151 76.8955 93.7661C75.7318 93.9045 74.4961 93.4747 73.2424 93.5039C71.9888 93.533 70.909 94.3707 70.0093 95.15C69.5474 95.5434 69.1155 95.9294 68.6716 96.2354C68.2615 96.5266 67.8191 96.7449 67.3579 96.8836C66.6917 97.1302 65.976 97.0916 65.3304 96.7744C65.1598 96.6772 65.002 96.5496 64.8626 96.3956C64.7746 96.2888 64.7326 96.2305 64.7366 96.2208Z" fill="#263238"/>
<path d="M80.9378 81.4417C80.9436 82.252 81.0018 83.0606 81.1117 83.8599C81.3216 84.6307 81.5845 85.3787 81.8975 86.0961C81.3634 85.5337 80.9848 84.7854 80.8131 83.9527C80.6414 83.12 80.6849 82.2433 80.9378 81.4417Z" fill="#263238"/>
<path d="M84.1357 81.2815C84.2017 81.3616 83.4279 82.2503 82.8521 83.6488C82.2762 85.0473 82.1143 86.3147 82.0243 86.2928C81.9589 85.307 82.1498 84.3211 82.5701 83.474C82.8959 82.5665 83.4421 81.8016 84.1357 81.2815Z" fill="#263238"/>
<path d="M124.247 189.287L137.306 230.085H117.319L108.003 201.036L124.247 189.287Z" fill="#B78876"/>
<path d="M53.465 156.16C53.465 156.16 36.2434 177.684 28.8052 177.684C26.3699 177.684 24.4623 141.833 24.4323 131.497C24.827 130.162 25.3917 128.911 26.1059 127.789C26.7354 126.723 27.4618 125.745 28.2714 124.876C29.2932 123.813 30.4293 122.923 31.6485 122.232C32.8122 121.736 32.9082 119.806 31.8465 119.42C30.7847 119.034 27.5576 120.309 24.6483 123.638C21.739 126.966 22.6208 119.515 22.8967 116.798C23.1727 114.081 23.6945 105.61 23.0707 104.867C22.1589 103.774 21.0012 104.787 20.7733 107.511C20.5453 110.235 19.4476 118.379 18.2479 118.167C17.0482 117.956 18.6438 104.124 18.6438 104.124C18.6438 104.124 19.3696 101.21 18.044 100.919C15.5966 100.387 14.8348 115.217 14.7928 116.63C14.7928 117.614 13.4731 117.446 13.5511 116.39C13.6291 115.334 15.3506 102.623 12.8853 102.048C10.9837 101.611 12.1654 114.249 10.5998 116.674C9.03422 119.1 10.5098 106.95 8.67431 106.622C7.99048 106.506 7.47461 106.528 7.47461 113.622C7.47461 117.439 8.67431 123.201 8.20643 130.543C8.99823 152.22 8.12245 213.091 28.0014 205.88C49.8419 197.941 64.7662 180.569 64.7662 180.569L53.465 156.16Z" fill="#B78876"/>
<path d="M101.681 175.448C101.77 175.726 101.834 176.014 101.873 176.308C101.981 176.861 102.119 177.67 102.275 178.675C102.581 180.685 102.947 183.475 103.229 186.571C103.51 189.666 103.654 192.485 103.714 194.525C103.714 195.544 103.756 196.375 103.75 196.943C103.769 197.24 103.757 197.538 103.714 197.832C103.663 197.542 103.635 197.247 103.63 196.95C103.594 196.302 103.546 195.493 103.492 194.539C103.378 192.507 103.198 189.703 102.893 186.614C102.587 183.526 102.293 180.736 102.029 178.718C101.909 177.772 101.813 176.978 101.729 176.337C101.684 176.044 101.668 175.745 101.681 175.448Z" fill="#263238"/>
<path d="M50.5502 230.085L105.568 230.42L103.715 216.318C104.201 209.626 104.174 202.893 103.637 196.207L106.426 205.378L129.166 191.538C129.166 191.538 120.901 164.777 113.978 155.708C105.238 144.251 89.5044 145.394 89.5044 145.394L78.8751 154.135L69.0916 145.766C63.8435 146.513 58.7348 148.318 53.9754 151.105L53.4715 151.28V151.411C47.701 155.053 39.465 163.99 31.625 172.651L40.6767 183.351L50.7002 194.692C51.2679 194.59 51.843 194.561 52.4158 194.605C52.5837 195.857 50.5502 230.085 50.5502 230.085Z" fill="#455A64"/>
<path opacity="0.2" d="M101.945 171.172L109.425 203.557L106.426 205.378L103.642 196.207C103.642 196.207 100.925 177.007 101.945 171.172Z" fill="black"/>
<path d="M68.4795 145.671V142.175C68.4795 142.175 77.0693 141.366 78.8089 153.691C78.8089 153.691 81.6102 142.175 89.9481 141.017L91.1478 146.4C91.1478 146.4 87.1948 161.397 86.6249 161.528C86.0551 161.659 78.8269 164.216 78.8269 164.216L74.6279 163.065L69.9791 156.634L68.4795 145.671Z" fill="#455A64"/>
<path d="M91.3334 145.992C91.1914 146.213 91.0306 146.416 90.8536 146.597C90.5416 146.983 90.0857 147.522 89.5459 148.228C88.1443 150.054 86.8965 152.045 85.8208 154.172C85.5569 154.696 85.3169 155.213 85.089 155.716L84.951 156.022L84.8191 155.716C83.8653 153.531 83.0195 151.637 82.3717 150.158C82.2321 149.873 82.0464 149.625 81.8258 149.43C81.6484 149.281 81.4412 149.193 81.226 149.175C81.0479 149.172 80.871 149.209 80.7041 149.284C80.7041 149.284 80.8421 149.051 81.232 149.044C81.4653 149.04 81.6946 149.118 81.8918 149.27C82.1481 149.473 82.365 149.741 82.5276 150.056C83.2055 151.433 84.0693 153.363 85.071 155.57H84.8311C85.059 155.06 85.299 154.529 85.5689 154.004C86.6479 151.848 87.9346 149.855 89.4019 148.068C89.9658 147.383 90.4456 146.866 90.7876 146.516C90.9479 146.311 91.1317 146.134 91.3334 145.992Z" fill="#263238"/>
<path d="M67.9219 146.64C68.0761 146.792 68.2132 146.969 68.3298 147.164C68.5817 147.521 68.9296 148.038 69.3555 148.687C70.2133 149.976 71.377 151.775 72.6487 153.785L72.8526 154.106H72.5887C73.0506 153.079 73.0866 151.921 73.2965 150.857C73.4301 149.892 73.8585 149.023 74.4962 148.424C74.7217 148.243 74.9786 148.127 75.2469 148.085C75.5153 148.043 75.788 148.077 76.0438 148.184C76.1782 148.253 76.3019 148.349 76.4097 148.468C76.4757 148.563 76.4997 148.614 76.4937 148.621C76.3413 148.5 76.1783 148.4 76.0078 148.322C75.7706 148.251 75.5233 148.242 75.2831 148.297C75.0428 148.353 74.8153 148.471 74.6162 148.643C74.0547 149.23 73.6898 150.046 73.5904 150.937C73.4792 152.089 73.2391 153.216 72.8766 154.288L72.7627 154.543L72.6187 154.31L72.4147 153.989C71.1431 151.986 70.0153 150.158 69.1936 148.825C68.7917 148.162 68.4677 147.616 68.2458 147.237C68.1173 147.056 68.0084 146.855 67.9219 146.64Z" fill="#263238"/>
<path d="M74.0342 230.085C74.0264 230.017 74.0264 229.948 74.0342 229.881C74.0342 229.735 74.0342 229.538 74.0342 229.305C74.0342 228.766 74.0882 228.023 74.1302 227.077C74.2322 225.117 74.3821 222.327 74.5561 218.897C74.952 211.962 75.4919 202.435 76.0857 191.91L77.6993 164.959C77.9212 161.528 78.1012 158.746 78.2272 156.787C78.2931 155.84 78.3471 155.097 78.3891 154.565C78.3891 154.325 78.4251 154.135 78.4371 153.982C78.4303 153.919 78.4303 153.856 78.4371 153.793C78.4476 153.858 78.4476 153.925 78.4371 153.99V154.565C78.4371 155.104 78.3771 155.847 78.3352 156.794C78.2332 158.753 78.0892 161.543 77.9092 164.974C77.5193 171.908 76.9795 181.435 76.3856 191.961C75.7918 202.486 75.1859 212.013 74.766 218.911C74.5441 222.342 74.3701 225.124 74.2442 227.084C74.1722 228.031 74.1182 228.774 74.0822 229.313C74.0822 229.546 74.0462 229.735 74.0342 229.888C74.043 229.953 74.043 230.02 74.0342 230.085Z" fill="#263238"/>
<path d="M54.2811 165.287C54.2913 165.674 54.2733 166.062 54.2271 166.445C54.1791 167.254 54.1072 168.31 54.0232 169.592C53.8612 172.243 53.6933 175.922 53.5073 179.986C53.3214 184.05 53.1174 187.722 52.9075 190.38C52.7995 191.706 52.6915 192.784 52.6015 193.52C52.5724 193.906 52.5141 194.289 52.4276 194.663C52.4174 194.276 52.4354 193.888 52.4816 193.505C52.5356 192.697 52.6015 191.633 52.6855 190.358C52.8535 187.7 53.0154 184.021 53.2074 179.964C53.3993 175.907 53.5913 172.221 53.8072 169.563C53.9152 168.237 54.0232 167.166 54.1132 166.423C54.1427 166.04 54.1989 165.659 54.2811 165.287Z" fill="#263238"/>
<path d="M78.2325 151.928C78.2325 151.928 75.2812 156.612 75.7131 157.311L78.2325 161.398H80.032C80.032 161.398 81.7116 155.672 81.2797 154.944C80.8478 154.216 78.2325 151.928 78.2325 151.928Z" fill="#FF725E"/>
<path d="M82.7318 150.668L79.4746 153.757L80.7223 156.663L84.0695 153.662L82.7318 150.668Z" fill="#FF725E"/>
<path d="M73.1641 152.62L76.1333 155.628L77.7769 152.62L74.0278 149.16L73.1641 152.62Z" fill="#FF725E"/>
<path d="M78.1968 161.39L73.668 210.673L78.1249 227.805L84.0694 210.826L80.1583 160.807L78.1968 161.39Z" fill="#FF725E"/>
<path d="M109.887 152.234C109.7 152.05 109.499 151.887 109.287 151.746C108.702 151.417 108.035 151.37 107.422 151.615C106.524 152.033 105.726 152.717 105.1 153.604C104.275 154.638 103.561 155.796 102.977 157.049C101.923 159.342 101.308 161.894 101.177 164.515C101.081 166.533 101.291 167.778 101.225 167.786C101.151 167.503 101.099 167.213 101.069 166.919C100.977 166.12 100.941 165.314 100.962 164.508C101.025 161.825 101.624 159.2 102.707 156.86C103.303 155.577 104.04 154.398 104.897 153.356C105.561 152.441 106.411 151.753 107.362 151.36C107.69 151.239 108.035 151.2 108.376 151.243C108.717 151.287 109.047 151.414 109.347 151.615C109.507 151.728 109.651 151.87 109.773 152.038C109.863 152.154 109.893 152.227 109.887 152.234Z" fill="#263238"/>
<path d="M152.758 91.2825C148.913 94.1451 146.243 98.9306 144.66 104.051C143.076 109.172 142.476 114.664 142.008 120.076C140.769 134.463 140.354 148.937 140.767 163.393C155.301 165.622 169.949 167.866 184.556 166.657C182.018 146.385 180.411 126.136 182.444 105.777" fill="#263238"/>
<path d="M185.407 259.738L174.808 233.749L178.851 214.738C179.325 218.766 179.745 222.262 179.745 222.262L202.449 220.805C202.649 220.792 202.844 220.729 203.023 220.62C203.202 220.51 203.36 220.357 203.487 220.169C203.614 219.981 203.707 219.763 203.761 219.529C203.814 219.295 203.827 219.05 203.799 218.809L199.402 180.787C199.402 180.787 197.98 163.146 184.226 156.59H184.16C183.608 156.328 183.032 156.095 182.438 155.862C163.897 148.053 146.531 148.104 127.21 156.109C127.21 156.109 118.626 158.914 114.463 172.513C110.3 186.112 106.065 206.099 106.065 206.099L125.321 214.381L125.447 210.426L129.705 230.209L120.366 259.024L152.968 260L185.407 259.738Z" fill="#FF725E"/>
<path d="M106.084 205.844L103.918 218.227C102.059 228.898 108.567 239.853 117.493 241.084L164.947 246.998C167.447 247.34 169.979 247.071 172.393 246.207C174.807 245.343 177.054 243.902 179.001 241.967C180.949 240.033 182.559 237.645 183.735 234.944C184.912 232.243 185.631 229.283 185.852 226.239L126.023 219.319L126.395 212.341L106.084 205.844Z" fill="#FF725E"/>
<path d="M165.427 218.511L169.11 217.681C169.11 217.681 177.844 206.077 179.481 205.917C180.831 205.779 188.263 205.866 190.878 205.917C191.115 205.921 191.341 206.038 191.507 206.242C191.673 206.447 191.766 206.722 191.766 207.01C191.766 207.293 191.676 207.566 191.513 207.77C191.351 207.973 191.13 208.093 190.896 208.102L182.121 208.517L182.079 209.377L190.866 209.515C191.766 209.603 192.336 211.322 189.475 211.635L182.121 211.948V212.502L189.577 213.769C189.955 213.835 190.944 214.068 190.95 214.534C190.95 214.534 191.406 215.663 189.277 215.991C188.551 216.1 182.079 215.838 182.079 215.838L182.324 216.566L189.031 218.322C189.265 218.383 189.472 218.55 189.609 218.79C189.746 219.029 189.803 219.322 189.769 219.611C189.736 219.906 189.61 220.174 189.417 220.359C189.225 220.544 188.981 220.63 188.737 220.601L181.581 219.8L174.55 226.611H165.133L165.427 218.511Z" fill="#FFBE9D"/>
<path d="M142.104 150.501C142.104 150.501 151.348 207.898 154.605 207.483C157.863 207.068 173.141 152.467 173.141 152.467C173.141 152.467 153.616 145.249 142.104 150.501Z" fill="#FAFAFA"/>
<path d="M183.009 206.062C182.925 206.062 182.853 202.1 182.853 197.22C182.853 192.339 182.925 188.384 183.009 188.384C183.092 188.384 183.164 192.339 183.164 197.22C183.164 202.1 183.098 206.062 183.009 206.062Z" fill="#263238"/>
<path d="M126.263 206.434C126.276 205.582 126.34 204.733 126.455 203.892C126.617 202.319 126.857 200.163 127.144 197.781C127.432 195.399 127.702 193.236 127.918 191.684C128.005 190.835 128.143 189.995 128.332 189.171C128.319 190.025 128.255 190.877 128.14 191.721C127.978 193.287 127.738 195.45 127.45 197.832C127.162 200.214 126.893 202.362 126.677 203.921C126.59 204.77 126.452 205.61 126.263 206.434Z" fill="#263238"/>
<path d="M152.968 259.963C152.951 259.787 152.951 259.608 152.968 259.432C152.968 259.046 152.968 258.543 152.968 257.909C152.968 256.584 152.968 254.668 153.01 252.301C153.082 247.566 153.292 241.033 153.562 233.821C153.831 226.61 154.071 220.077 154.203 215.342C154.257 213.011 154.305 211.11 154.341 209.741C154.341 209.114 154.341 208.605 154.377 208.219C154.374 208.04 154.386 207.862 154.413 207.687C154.426 207.864 154.426 208.042 154.413 208.219C154.413 208.602 154.413 209.112 154.413 209.748C154.413 211.067 154.413 212.982 154.377 215.349C154.305 220.084 154.089 226.618 153.825 233.836C153.562 241.054 153.31 247.581 153.184 252.308C153.124 254.646 153.076 256.547 153.046 257.909C153.046 258.543 153.046 259.053 153.004 259.432C153.001 259.61 152.989 259.787 152.968 259.963Z" fill="#263238"/>
<path d="M173.063 152.373C173.063 152.373 173.093 152.62 173.164 153.101C173.268 153.779 173.426 154.443 173.638 155.082C173.976 156.089 174.377 157.064 174.838 157.996C175.459 159.241 176.026 160.524 176.536 161.842C177.188 163.459 177.438 165.271 177.255 167.057C177.107 168.049 176.777 168.987 176.29 169.803C175.783 170.652 175.217 171.446 174.598 172.178C173.277 173.714 172.073 175.391 170.999 177.189C169.854 179.116 169.209 181.414 169.145 183.788C169.146 184.982 169.363 186.161 169.781 187.241C170.221 188.303 170.609 189.395 170.945 190.511C171.097 191.08 171.16 191.678 171.131 192.274C171.096 192.869 170.942 193.444 170.681 193.949C170.136 194.85 169.459 195.621 168.684 196.222L161.168 202.952L156.087 207.454L154.695 208.67L154.329 208.976L154.197 209.071C154.197 209.071 154.233 209.02 154.311 208.94L154.659 208.605L156.015 207.337L161.012 202.727L168.486 195.938C169.23 195.36 169.879 194.619 170.399 193.753C170.636 193.299 170.776 192.781 170.807 192.245C170.83 191.69 170.769 191.135 170.627 190.606C170.294 189.506 169.907 188.431 169.469 187.387C169.034 186.261 168.809 185.032 168.81 183.788C168.872 181.339 169.539 178.969 170.723 176.985C171.808 175.167 173.029 173.475 174.37 171.93C175.6 170.473 176.734 168.864 176.974 166.999C177.161 165.274 176.93 163.519 176.308 161.951C175.815 160.632 175.264 159.346 174.658 158.098C174.21 157.143 173.823 156.147 173.5 155.119C173.298 154.465 173.157 153.786 173.08 153.094C173.059 152.915 173.045 152.735 173.039 152.555C173.038 152.493 173.046 152.432 173.063 152.373Z" fill="#263238"/>
<path d="M154.57 206.893H154.426L154 206.798C153.458 206.661 152.923 206.484 152.398 206.267C150.466 205.473 148.676 204.236 147.126 202.625C144.809 200.205 143.126 197.015 142.285 193.447C141.789 191.352 141.586 189.17 141.685 186.993C141.734 185.847 141.861 184.706 142.063 183.585C142.292 182.469 142.319 181.305 142.141 180.176C142.016 179.64 141.764 179.161 141.415 178.799C141.043 178.468 140.624 178.222 140.18 178.071C139.736 177.889 139.274 177.743 138.824 177.517C138.377 177.293 137.97 176.966 137.624 176.556C136.974 175.725 136.544 174.677 136.388 173.547C136.222 172.494 136.174 171.419 136.244 170.35C136.525 166.692 137.186 163.091 138.212 159.635C138.897 157.308 139.74 155.055 140.731 152.897C141.085 152.169 141.373 151.557 141.583 151.178L141.817 150.741C141.841 150.687 141.871 150.638 141.907 150.596C141.907 150.596 141.907 150.654 141.847 150.756L141.637 151.215C141.445 151.608 141.175 152.205 140.833 152.97C139.895 155.145 139.093 157.402 138.434 159.722C137.455 163.167 136.821 166.743 136.544 170.372C136.486 171.41 136.539 172.453 136.7 173.475C136.849 174.531 137.249 175.511 137.852 176.293C138.178 176.667 138.558 176.963 138.974 177.167C139.394 177.379 139.85 177.524 140.311 177.714C140.793 177.883 141.245 178.16 141.643 178.53C142.042 178.939 142.33 179.485 142.471 180.096C142.664 181.28 142.639 182.501 142.399 183.672C142.201 184.78 142.075 185.905 142.021 187.037C141.932 189.175 142.135 191.316 142.621 193.374C143.436 196.886 145.071 200.036 147.33 202.443C148.85 204.062 150.603 205.329 152.5 206.179C153.172 206.471 153.7 206.66 154.078 206.777L154.492 206.908C154.518 206.901 154.544 206.896 154.57 206.893Z" fill="#263238"/>
<path d="M179.535 218.591L139.783 217.032L139.843 233.057L166.165 240.079L184.682 243.67C196.187 243.67 205.395 230.843 203.613 217.039H203.565L179.535 218.591Z" fill="#FF725E"/>
<path d="M190.476 218.285C190.305 218.318 190.133 218.333 189.96 218.329L188.485 218.38L183.05 218.496C178.461 218.584 172.121 218.678 165.114 218.591C158.108 218.504 151.768 218.205 147.185 217.863C144.893 217.673 143.046 217.498 141.786 217.338L140.317 217.156C140.143 217.145 139.97 217.115 139.801 217.069C139.972 217.051 140.145 217.051 140.317 217.069L141.792 217.178C143.076 217.287 144.929 217.426 147.191 217.579C151.774 217.884 158.108 218.154 165.114 218.234C172.121 218.314 178.449 218.234 183.038 218.234H188.479H189.954C190.129 218.235 190.303 218.252 190.476 218.285Z" fill="#263238"/>
<path d="M139.447 218.511L135.764 217.681C135.764 217.681 127.03 206.077 125.387 205.917C124.043 205.779 116.611 205.866 114.02 205.917C113.783 205.921 113.557 206.038 113.391 206.242C113.225 206.447 113.132 206.722 113.132 207.01C113.132 207.292 113.222 207.563 113.383 207.767C113.544 207.971 113.763 208.091 113.996 208.102L122.777 208.517L122.819 209.377L114.026 209.515C113.132 209.603 112.556 211.322 115.423 211.635L122.777 211.948V212.502L115.321 213.769C114.943 213.835 113.954 214.068 113.942 214.534C113.942 214.534 113.492 215.663 115.615 215.991C116.347 216.1 122.813 215.838 122.813 215.838L122.561 216.566L115.861 218.322C115.627 218.385 115.421 218.552 115.283 218.791C115.145 219.029 115.086 219.322 115.117 219.611C115.152 219.905 115.278 220.172 115.47 220.357C115.662 220.541 115.905 220.629 116.149 220.601L123.311 219.8L130.342 226.611H139.735L139.447 218.511Z" fill="#FFBE9D"/>
<path d="M183.974 243.407C183.825 243.428 183.674 243.428 183.524 243.407L182.241 243.24C181.119 243.087 179.511 242.839 177.52 242.511C173.537 241.841 168.054 240.785 162.038 239.357C156.021 237.93 150.641 236.385 146.718 235.176C144.774 234.579 143.203 234.069 142.123 233.72L140.881 233.282C140.734 233.237 140.589 233.179 140.449 233.108C140.6 233.123 140.748 233.157 140.893 233.21L142.153 233.574L146.772 234.943C150.677 236.08 156.087 237.573 162.098 239.008C168.108 240.443 173.585 241.535 177.55 242.271L182.253 243.123L183.53 243.363C183.679 243.368 183.827 243.382 183.974 243.407Z" fill="#263238"/>
<path d="M140.203 233.122C140.028 232.377 139.912 231.614 139.855 230.842C139.7 229.386 139.532 227.448 139.436 225.27C139.34 223.092 139.346 221.104 139.382 219.669C139.373 218.895 139.423 218.122 139.532 217.36C139.603 218.129 139.627 218.903 139.604 219.676C139.604 221.133 139.658 223.07 139.748 225.248C139.837 227.426 139.975 229.386 140.077 230.806C140.162 231.574 140.204 232.348 140.203 233.122Z" fill="#263238"/>
<path d="M144.546 233.749C144.466 233.555 144.407 233.349 144.372 233.137C144.282 232.743 144.162 232.161 144.042 231.44C143.403 227.661 143.201 223.792 143.442 219.946C143.49 219.217 143.55 218.613 143.604 218.205C143.614 217.991 143.65 217.779 143.712 217.578C143.734 218.373 143.718 219.168 143.664 219.96C143.616 221.417 143.598 223.456 143.712 225.693C143.826 227.929 144.042 229.939 144.234 231.389C144.378 232.167 144.482 232.955 144.546 233.749Z" fill="#263238"/>
<path d="M140.875 219.924C140.911 219.967 140.683 220.164 140.689 220.652C140.689 220.776 140.71 220.898 140.751 221.011C140.793 221.124 140.853 221.225 140.929 221.308C141.027 221.388 141.143 221.43 141.262 221.43C141.38 221.43 141.496 221.388 141.595 221.308C141.702 221.239 141.79 221.133 141.847 221.003C141.903 220.873 141.926 220.725 141.912 220.579C141.893 220.458 141.852 220.344 141.793 220.244C141.734 220.143 141.658 220.059 141.571 219.997C141.253 219.763 140.971 219.902 140.971 219.844C140.971 219.785 141.217 219.53 141.667 219.764C141.795 219.827 141.909 219.926 142.001 220.053C142.092 220.179 142.159 220.329 142.194 220.492C142.216 220.708 142.184 220.927 142.104 221.121C142.023 221.315 141.897 221.476 141.742 221.584C141.586 221.692 141.408 221.742 141.229 221.728C141.051 221.714 140.879 221.636 140.737 221.504C140.634 221.387 140.555 221.243 140.508 221.082C140.46 220.921 140.444 220.749 140.461 220.579C140.533 220.018 140.875 219.873 140.875 219.924Z" fill="#263238"/>
<path d="M148.103 236.116C147.968 236.136 147.831 236.136 147.695 236.116C147.425 236.116 147.035 236.116 146.526 236.116C145.097 236.162 143.672 236.325 142.261 236.604C140.169 237.035 138.097 237.594 136.052 238.279C133.731 239.008 131.199 239.918 128.482 240.639C125.927 241.363 123.308 241.708 120.684 241.666C118.539 241.599 116.418 241.107 114.404 240.21C113.052 239.588 111.786 238.721 110.649 237.638C110.343 237.342 110.052 237.024 109.779 236.684C109.676 236.576 109.583 236.454 109.503 236.32C109.503 236.32 109.917 236.786 110.703 237.522C111.851 238.548 113.116 239.367 114.458 239.955C116.466 240.82 118.577 241.285 120.708 241.331C123.302 241.351 125.89 240.999 128.416 240.282C131.115 239.554 133.653 238.68 135.98 237.951C138.039 237.282 140.125 236.747 142.231 236.349C143.653 236.095 145.088 235.974 146.526 235.985C147.035 235.985 147.431 235.985 147.695 236.05C147.833 236.057 147.969 236.079 148.103 236.116Z" fill="#263238"/>
<path d="M165.589 157.26C166.531 150.865 167.623 144.149 167.623 144.149C167.623 144.149 174.617 144.229 177.586 133.77C180.417 123.791 182.463 99.7828 182.463 99.7828C177.982 96.401 172.757 94.7637 167.489 95.0905C162.22 95.4173 157.16 97.6925 152.986 101.611L146.016 153.749C145.206 159.802 148.847 165.469 154.192 166.467C159.585 167.48 164.689 163.393 165.589 157.26Z" fill="#FFBE9D"/>
<path d="M177.262 117.759C177.213 118.12 177.05 118.442 176.808 118.659C176.566 118.875 176.264 118.968 175.966 118.918C175.819 118.902 175.676 118.851 175.545 118.767C175.415 118.683 175.3 118.568 175.207 118.428C175.114 118.289 175.045 118.128 175.004 117.956C174.964 117.783 174.952 117.602 174.97 117.424C175.021 117.064 175.185 116.741 175.428 116.525C175.671 116.308 175.974 116.216 176.272 116.266C176.418 116.283 176.56 116.336 176.69 116.421C176.819 116.505 176.933 116.621 177.026 116.76C177.118 116.899 177.186 117.059 177.227 117.231C177.267 117.402 177.279 117.582 177.262 117.759Z" fill="#263238"/>
<path d="M179.331 116.609C179.163 116.762 178.414 115.8 177.19 115.545C175.966 115.29 174.964 115.837 174.857 115.625C174.803 115.538 174.994 115.239 175.456 114.977C176.051 114.647 176.714 114.545 177.358 114.686C177.995 114.822 178.581 115.2 179.031 115.764C179.331 116.193 179.409 116.543 179.331 116.609Z" fill="#263238"/>
<path d="M164.701 115.32C164.651 115.679 164.488 116.001 164.246 116.217C164.005 116.433 163.703 116.526 163.406 116.478C163.115 116.444 162.846 116.272 162.66 115.999C162.473 115.726 162.383 115.374 162.41 115.021C162.46 114.66 162.624 114.336 162.867 114.119C163.11 113.901 163.413 113.807 163.712 113.855C164.002 113.892 164.269 114.067 164.454 114.341C164.639 114.615 164.728 114.966 164.701 115.32Z" fill="#263238"/>
<path d="M166.489 114.424C166.321 114.569 165.571 113.615 164.347 113.353C163.124 113.091 162.122 113.651 162.014 113.44C161.96 113.346 162.146 113.047 162.614 112.785C163.208 112.454 163.873 112.355 164.515 112.501C165.153 112.632 165.739 113.007 166.189 113.571C166.489 114.001 166.567 114.358 166.489 114.424Z" fill="#263238"/>
<path d="M169.326 126.384C170.008 126.284 170.696 126.284 171.378 126.384C171.696 126.384 171.978 126.384 172.091 126.151C172.175 125.766 172.16 125.36 172.049 124.985C171.888 124.002 171.72 122.975 171.546 121.897C170.856 117.526 170.418 113.928 170.568 113.884C170.718 113.841 171.384 117.381 172.073 121.766C172.235 122.851 172.391 123.878 172.535 124.861C172.664 125.361 172.645 125.899 172.481 126.384C172.417 126.509 172.329 126.615 172.225 126.692C172.121 126.769 172.003 126.816 171.882 126.828C171.7 126.858 171.517 126.858 171.336 126.828C170.653 126.786 169.977 126.636 169.326 126.384Z" fill="#263238"/>
<path d="M167.61 144.149C163.426 143.329 159.51 141.118 156.297 137.761C156.297 137.761 158.096 145.774 167.094 146.662L167.61 144.149Z" fill="#EB996E"/>
<path d="M168.294 129.887C168.115 129.475 167.853 129.125 167.532 128.87C167.211 128.615 166.841 128.464 166.459 128.43C166.185 128.402 165.909 128.442 165.648 128.547C165.387 128.652 165.147 128.821 164.941 129.042C164.74 129.253 164.599 129.535 164.535 129.848C164.472 130.161 164.49 130.49 164.587 130.79C164.745 131.099 164.974 131.343 165.247 131.492C165.519 131.641 165.822 131.689 166.117 131.628C166.73 131.501 167.317 131.229 167.844 130.827C168 130.738 168.14 130.614 168.258 130.463C168.316 130.391 168.354 130.299 168.368 130.201C168.382 130.102 168.371 130 168.336 129.909" fill="#EB996E"/>
<path d="M165.582 126.646C165.78 126.646 165.546 128.285 166.518 129.676C167.49 131.067 168.918 131.184 168.918 131.417C168.918 131.519 168.558 131.657 167.958 131.548C167.179 131.398 166.469 130.918 165.954 130.193C165.452 129.51 165.186 128.618 165.211 127.702C165.283 126.974 165.492 126.617 165.582 126.646Z" fill="#263238"/>
<path d="M158.979 93.919C161.348 100.263 169.026 107.984 174.952 110.723C174.413 109.412 171.083 105.726 170.544 104.422C172.943 107.576 176.392 111.859 180.045 112.93C180.468 113.103 180.922 113.12 181.353 112.981C181.591 112.826 181.796 112.607 181.953 112.34C182.11 112.074 182.215 111.767 182.259 111.444C182.965 108.243 183.383 104.958 183.506 101.647C183.64 98.8587 182.888 96.1141 181.407 93.9773C179.385 91.2167 176.086 89.8983 172.913 89.0752C170.25 88.3905 167.466 87.9535 164.839 88.5653C162.212 89.1772 159.764 91.0127 158.979 93.7151" fill="#263238"/>
<path d="M144.846 117.81C144.798 115.348 144.874 112.883 145.074 110.432C145.673 104.83 147.107 84.4573 162.589 89.7018L160.946 94.9243C160.946 94.9243 162.145 108.035 154.185 115.072C154.185 115.072 154.221 128.183 148.715 132.881C148.715 132.881 144.876 124.009 144.846 117.818" fill="#263238"/>
<path d="M154.515 114.176C153.601 113.73 152.603 113.596 151.63 113.79C150.66 114.002 149.798 114.669 149.231 115.647C148.704 116.669 148.518 117.895 148.709 119.078C148.904 120.254 149.314 121.361 149.908 122.319C150.291 123.034 150.807 123.63 151.414 124.06C151.722 124.271 152.069 124.386 152.423 124.394C152.776 124.403 153.126 124.306 153.442 124.111" fill="#FFBE9D"/>
<path d="M152.98 121.045C153.082 121.11 152.572 121.722 151.744 121.249C151.527 121.105 151.335 120.911 151.18 120.677C151.024 120.443 150.908 120.175 150.838 119.886C150.663 119.239 150.598 118.555 150.647 117.876C150.678 117.149 150.923 116.459 151.336 115.931C151.512 115.706 151.728 115.533 151.967 115.425C152.206 115.316 152.462 115.275 152.716 115.305C153.61 115.472 153.778 116.281 153.67 116.281C153.562 116.281 153.298 115.895 152.692 115.939C152.311 116.027 151.969 116.279 151.728 116.648C151.487 117.017 151.363 117.478 151.378 117.949C151.312 119.158 151.528 120.323 152.008 120.702C152.488 121.081 152.938 120.935 152.98 121.045Z" fill="#EB996E"/>
<path d="M152.968 124.104C150.569 141.52 152.518 159.322 152.968 176.978C153.01 178.668 153.022 180.438 152.368 181.945C151.414 184.225 149.183 185.34 147.078 185.493C144.972 185.646 142.879 185.056 140.785 184.844C140.557 183.155 140.335 181.457 140.107 179.746C139.405 181.698 138.704 183.643 138.008 185.573C138.932 173.19 139.943 160.807 141.043 148.425" fill="#263238"/>
</svg>
