<svg width="24" height="25" viewBox="0 0 24 25" fill="none" xmlns="http://www.w3.org/2000/svg">
<path d="M4 7C4.48 7.5 4.96 8 6 8C8 8 8 6 10 6C12.08 6 11.92 8 14 8C16 8 16 6 18 6C19.04 6 19.52 6.5 20 7" stroke="#96EED7" stroke-width="2" stroke-linecap="round" stroke-linejoin="round"/>
<path d="M4 13C4.48 13.5 4.96 14 6 14C8 14 8 12 10 12C12.08 12 11.92 14 14 14C16 14 16 12 18 12C19.04 12 19.52 12.5 20 13" stroke="#96EED7" stroke-width="2" stroke-linecap="round" stroke-linejoin="round"/>
<path d="M4 19C4.48 19.5 4.96 20 6 20C8 20 8 18 10 18C12.08 18 11.92 20 14 20C16 20 16 18 18 18C19.04 18 19.52 18.5 20 19" stroke="#96EED7" stroke-width="2" stroke-linecap="round" stroke-linejoin="round"/>
</svg>
