<svg width="117" height="29" viewBox="0 0 117 29" fill="none" xmlns="http://www.w3.org/2000/svg">
<path d="M7 23.2462V6L28 28H22.3503L10.9442 16.5025V19.1558L7 23.2462Z" stroke="#2D6886"/>
<path d="M16 14.2917L28 2V7.10417L18.7 17" stroke="#2D6886"/>
<rect x="0.5" y="1.5" width="16" height="4" stroke="#96EED7"/>
<path d="M46.3984 8.625V20H44.9141V8.625H46.3984ZM50.0547 8.625V9.85938H41.2656V8.625H50.0547ZM54.25 20.1562C53.6615 20.1562 53.1276 20.0573 52.6484 19.8594C52.1745 19.6562 51.7656 19.3724 51.4219 19.0078C51.0833 18.6432 50.8229 18.2109 50.6406 17.7109C50.4583 17.2109 50.3672 16.6641 50.3672 16.0703V15.7422C50.3672 15.0547 50.4688 14.4427 50.6719 13.9062C50.875 13.3646 51.151 12.9062 51.5 12.5312C51.849 12.1562 52.2448 11.8724 52.6875 11.6797C53.1302 11.487 53.5885 11.3906 54.0625 11.3906C54.6667 11.3906 55.1875 11.4948 55.625 11.7031C56.0677 11.9115 56.4297 12.2031 56.7109 12.5781C56.9922 12.9479 57.2005 13.3854 57.3359 13.8906C57.4714 14.3906 57.5391 14.9375 57.5391 15.5312V16.1797H51.2266V15H56.0938V14.8906C56.0729 14.5156 55.9948 14.151 55.8594 13.7969C55.7292 13.4427 55.5208 13.151 55.2344 12.9219C54.9479 12.6927 54.5573 12.5781 54.0625 12.5781C53.7344 12.5781 53.4323 12.6484 53.1562 12.7891C52.8802 12.9245 52.6432 13.1276 52.4453 13.3984C52.2474 13.6693 52.0938 14 51.9844 14.3906C51.875 14.7812 51.8203 15.2318 51.8203 15.7422V16.0703C51.8203 16.4714 51.875 16.849 51.9844 17.2031C52.099 17.5521 52.263 17.8594 52.4766 18.125C52.6953 18.3906 52.9583 18.599 53.2656 18.75C53.5781 18.901 53.9323 18.9766 54.3281 18.9766C54.8385 18.9766 55.2708 18.8724 55.625 18.6641C55.9792 18.4557 56.2891 18.1771 56.5547 17.8281L57.4297 18.5234C57.2474 18.7995 57.0156 19.0625 56.7344 19.3125C56.4531 19.5625 56.1068 19.7656 55.6953 19.9219C55.2891 20.0781 54.8073 20.1562 54.25 20.1562ZM62.3828 15.9609H60.8281V15.0703H62.2656C62.6667 15.0703 62.9844 15.0208 63.2188 14.9219C63.4531 14.8177 63.6198 14.6745 63.7188 14.4922C63.8177 14.3099 63.8672 14.0964 63.8672 13.8516C63.8672 13.6328 63.8099 13.4271 63.6953 13.2344C63.5859 13.0365 63.4089 12.8776 63.1641 12.7578C62.9193 12.6328 62.5911 12.5703 62.1797 12.5703C61.8464 12.5703 61.5443 12.6302 61.2734 12.75C61.0026 12.8646 60.7865 13.0234 60.625 13.2266C60.4688 13.4245 60.3906 13.6484 60.3906 13.8984H58.9453C58.9453 13.3828 59.0911 12.9401 59.3828 12.5703C59.6797 12.1953 60.0729 11.9062 60.5625 11.7031C61.0573 11.5 61.5964 11.3984 62.1797 11.3984C62.6693 11.3984 63.1068 11.4531 63.4922 11.5625C63.8828 11.6667 64.2135 11.8229 64.4844 12.0312C64.7552 12.2344 64.9609 12.4896 65.1016 12.7969C65.2474 13.099 65.3203 13.4505 65.3203 13.8516C65.3203 14.138 65.2526 14.4089 65.1172 14.6641C64.9818 14.9193 64.7865 15.1458 64.5312 15.3438C64.276 15.5365 63.9661 15.6875 63.6016 15.7969C63.2422 15.9062 62.8359 15.9609 62.3828 15.9609ZM60.8281 15.4141H62.3828C62.888 15.4141 63.3333 15.4635 63.7188 15.5625C64.1042 15.6562 64.4271 15.7969 64.6875 15.9844C64.9479 16.1719 65.1432 16.4036 65.2734 16.6797C65.4089 16.9505 65.4766 17.263 65.4766 17.6172C65.4766 18.013 65.3958 18.3698 65.2344 18.6875C65.0781 19 64.8542 19.2656 64.5625 19.4844C64.2708 19.7031 63.9219 19.8698 63.5156 19.9844C63.1146 20.099 62.6693 20.1562 62.1797 20.1562C61.6328 20.1562 61.1016 20.0625 60.5859 19.875C60.0703 19.6875 59.6458 19.3984 59.3125 19.0078C58.9792 18.612 58.8125 18.1094 58.8125 17.5H60.2578C60.2578 17.7552 60.3385 17.9974 60.5 18.2266C60.6615 18.4557 60.8854 18.6406 61.1719 18.7812C61.4635 18.9219 61.7995 18.9922 62.1797 18.9922C62.5859 18.9922 62.9245 18.9297 63.1953 18.8047C63.4661 18.6797 63.6693 18.513 63.8047 18.3047C63.9453 18.0964 64.0156 17.8698 64.0156 17.625C64.0156 17.3073 63.9531 17.0521 63.8281 16.8594C63.7031 16.6667 63.5104 16.526 63.25 16.4375C62.9948 16.3438 62.6667 16.2969 62.2656 16.2969H60.8281V15.4141ZM72.8906 11.5469V20H71.4453V11.5469H72.8906ZM78.4375 11.5469L74.4297 16.3906H72.4062L72.1875 15.125H73.8438L76.6797 11.5469H78.4375ZM76.8828 20L73.7734 16.1719L74.7031 15.125L78.7188 20H76.8828ZM84.9609 18.5547V14.2031C84.9609 13.8698 84.8932 13.5807 84.7578 13.3359C84.6276 13.0859 84.4297 12.8932 84.1641 12.7578C83.8984 12.6224 83.5703 12.5547 83.1797 12.5547C82.8151 12.5547 82.4948 12.6172 82.2188 12.7422C81.9479 12.8672 81.7344 13.0312 81.5781 13.2344C81.4271 13.4375 81.3516 13.6562 81.3516 13.8906H79.9062C79.9062 13.5885 79.9844 13.2891 80.1406 12.9922C80.2969 12.6953 80.5208 12.4271 80.8125 12.1875C81.1094 11.9427 81.4635 11.75 81.875 11.6094C82.2917 11.4635 82.7552 11.3906 83.2656 11.3906C83.8802 11.3906 84.4219 11.4948 84.8906 11.7031C85.3646 11.9115 85.7344 12.2266 86 12.6484C86.2708 13.0651 86.4062 13.5885 86.4062 14.2188V18.1562C86.4062 18.4375 86.4297 18.737 86.4766 19.0547C86.5286 19.3724 86.6042 19.6458 86.7031 19.875V20H85.1953C85.1224 19.8333 85.0651 19.612 85.0234 19.3359C84.9818 19.0547 84.9609 18.7943 84.9609 18.5547ZM85.2109 14.875L85.2266 15.8906H83.7656C83.3542 15.8906 82.987 15.9245 82.6641 15.9922C82.3411 16.0547 82.0703 16.151 81.8516 16.2812C81.6328 16.4115 81.4661 16.5755 81.3516 16.7734C81.237 16.9661 81.1797 17.1927 81.1797 17.4531C81.1797 17.7188 81.2396 17.9609 81.3594 18.1797C81.4792 18.3984 81.6589 18.5729 81.8984 18.7031C82.1432 18.8281 82.4427 18.8906 82.7969 18.8906C83.2396 18.8906 83.6302 18.7969 83.9688 18.6094C84.3073 18.4219 84.5755 18.1927 84.7734 17.9219C84.9766 17.651 85.0859 17.388 85.1016 17.1328L85.7188 17.8281C85.6823 18.0469 85.5833 18.2891 85.4219 18.5547C85.2604 18.8203 85.0443 19.0755 84.7734 19.3203C84.5078 19.5599 84.1901 19.7604 83.8203 19.9219C83.4557 20.0781 83.0443 20.1562 82.5859 20.1562C82.013 20.1562 81.5104 20.0443 81.0781 19.8203C80.651 19.5964 80.3177 19.2969 80.0781 18.9219C79.8438 18.5417 79.7266 18.1172 79.7266 17.6484C79.7266 17.1953 79.8151 16.7969 79.9922 16.4531C80.1693 16.1042 80.4245 15.8151 80.7578 15.5859C81.0911 15.3516 81.4922 15.1745 81.9609 15.0547C82.4297 14.9349 82.9531 14.875 83.5312 14.875H85.2109ZM94.1016 7.86719H95.2891C95.2891 8.3776 95.2109 8.78385 95.0547 9.08594C94.8984 9.38281 94.6849 9.61198 94.4141 9.77344C94.1484 9.9349 93.8464 10.0573 93.5078 10.1406C93.1745 10.224 92.8281 10.3047 92.4688 10.3828C92.0208 10.4766 91.6042 10.625 91.2188 10.8281C90.8385 11.026 90.5104 11.3073 90.2344 11.6719C89.9635 12.0365 89.763 12.5104 89.6328 13.0938C89.5078 13.6771 89.474 14.3984 89.5312 15.2578V15.9766H88.3438V15.2578C88.3438 14.2943 88.4349 13.4531 88.6172 12.7344C88.8047 12.0156 89.0677 11.4089 89.4062 10.9141C89.7448 10.4193 90.1458 10.026 90.6094 9.73438C91.0781 9.44271 91.5938 9.24219 92.1562 9.13281C92.5625 9.05469 92.9115 8.97135 93.2031 8.88281C93.4948 8.78906 93.7161 8.66406 93.8672 8.50781C94.0234 8.35156 94.1016 8.13802 94.1016 7.86719ZM92.3906 12.0312C92.9427 12.0312 93.4349 12.1276 93.8672 12.3203C94.2995 12.513 94.6667 12.7812 94.9688 13.125C95.2708 13.4688 95.5 13.875 95.6562 14.3438C95.8177 14.8073 95.8984 15.3125 95.8984 15.8594V16.0312C95.8984 16.6198 95.8125 17.1667 95.6406 17.6719C95.474 18.1719 95.2266 18.6094 94.8984 18.9844C94.5755 19.3542 94.1797 19.6432 93.7109 19.8516C93.2474 20.0599 92.7188 20.1641 92.125 20.1641C91.5312 20.1641 91 20.0599 90.5312 19.8516C90.0677 19.6432 89.6719 19.3542 89.3438 18.9844C89.0156 18.6094 88.7656 18.1719 88.5938 17.6719C88.4271 17.1667 88.3438 16.6198 88.3438 16.0312V15.8594C88.3438 15.7292 88.3672 15.6016 88.4141 15.4766C88.4609 15.3516 88.5182 15.224 88.5859 15.0938C88.6589 14.9635 88.724 14.8255 88.7812 14.6797C88.974 14.2109 89.237 13.776 89.5703 13.375C89.9089 12.974 90.3125 12.651 90.7812 12.4062C91.2552 12.1562 91.7917 12.0312 92.3906 12.0312ZM92.1094 13.2109C91.5781 13.2109 91.1406 13.3333 90.7969 13.5781C90.4583 13.8229 90.2057 14.1484 90.0391 14.5547C89.8724 14.9557 89.7891 15.3906 89.7891 15.8594V16.0312C89.7891 16.4271 89.8359 16.8021 89.9297 17.1562C90.0234 17.5104 90.1641 17.8255 90.3516 18.1016C90.5443 18.3724 90.7865 18.5859 91.0781 18.7422C91.375 18.8984 91.724 18.9766 92.125 18.9766C92.526 18.9766 92.8724 18.8984 93.1641 18.7422C93.4557 18.5859 93.6953 18.3724 93.8828 18.1016C94.0703 17.8255 94.2109 17.5104 94.3047 17.1562C94.3984 16.8021 94.4453 16.4271 94.4453 16.0312V15.8594C94.4453 15.5052 94.3984 15.1693 94.3047 14.8516C94.2109 14.5339 94.0677 14.2526 93.875 14.0078C93.6875 13.763 93.4453 13.5703 93.1484 13.4297C92.8568 13.2839 92.5104 13.2109 92.1094 13.2109ZM102.523 18.5547V14.2031C102.523 13.8698 102.456 13.5807 102.32 13.3359C102.19 13.0859 101.992 12.8932 101.727 12.7578C101.461 12.6224 101.133 12.5547 100.742 12.5547C100.378 12.5547 100.057 12.6172 99.7812 12.7422C99.5104 12.8672 99.2969 13.0312 99.1406 13.2344C98.9896 13.4375 98.9141 13.6562 98.9141 13.8906H97.4688C97.4688 13.5885 97.5469 13.2891 97.7031 12.9922C97.8594 12.6953 98.0833 12.4271 98.375 12.1875C98.6719 11.9427 99.026 11.75 99.4375 11.6094C99.8542 11.4635 100.318 11.3906 100.828 11.3906C101.443 11.3906 101.984 11.4948 102.453 11.7031C102.927 11.9115 103.297 12.2266 103.562 12.6484C103.833 13.0651 103.969 13.5885 103.969 14.2188V18.1562C103.969 18.4375 103.992 18.737 104.039 19.0547C104.091 19.3724 104.167 19.6458 104.266 19.875V20H102.758C102.685 19.8333 102.628 19.612 102.586 19.3359C102.544 19.0547 102.523 18.7943 102.523 18.5547ZM102.773 14.875L102.789 15.8906H101.328C100.917 15.8906 100.549 15.9245 100.227 15.9922C99.9036 16.0547 99.6328 16.151 99.4141 16.2812C99.1953 16.4115 99.0286 16.5755 98.9141 16.7734C98.7995 16.9661 98.7422 17.1927 98.7422 17.4531C98.7422 17.7188 98.8021 17.9609 98.9219 18.1797C99.0417 18.3984 99.2214 18.5729 99.4609 18.7031C99.7057 18.8281 100.005 18.8906 100.359 18.8906C100.802 18.8906 101.193 18.7969 101.531 18.6094C101.87 18.4219 102.138 18.1927 102.336 17.9219C102.539 17.651 102.648 17.388 102.664 17.1328L103.281 17.8281C103.245 18.0469 103.146 18.2891 102.984 18.5547C102.823 18.8203 102.607 19.0755 102.336 19.3203C102.07 19.5599 101.753 19.7604 101.383 19.9219C101.018 20.0781 100.607 20.1562 100.148 20.1562C99.5755 20.1562 99.0729 20.0443 98.6406 19.8203C98.2135 19.5964 97.8802 19.2969 97.6406 18.9219C97.4062 18.5417 97.2891 18.1172 97.2891 17.6484C97.2891 17.1953 97.3776 16.7969 97.5547 16.4531C97.7318 16.1042 97.987 15.8151 98.3203 15.5859C98.6536 15.3516 99.0547 15.1745 99.5234 15.0547C99.9922 14.9349 100.516 14.875 101.094 14.875H102.773ZM107.688 13.1719V23.25H106.234V11.5469H107.562L107.688 13.1719ZM113.383 15.7031V15.8672C113.383 16.4818 113.31 17.0521 113.164 17.5781C113.018 18.099 112.805 18.5521 112.523 18.9375C112.247 19.3229 111.906 19.6224 111.5 19.8359C111.094 20.0495 110.628 20.1562 110.102 20.1562C109.565 20.1562 109.091 20.0677 108.68 19.8906C108.268 19.7135 107.919 19.4557 107.633 19.1172C107.346 18.7786 107.117 18.3724 106.945 17.8984C106.779 17.4245 106.664 16.8906 106.602 16.2969V15.4219C106.664 14.7969 106.781 14.237 106.953 13.7422C107.125 13.2474 107.352 12.8255 107.633 12.4766C107.919 12.1224 108.266 11.8542 108.672 11.6719C109.078 11.4844 109.547 11.3906 110.078 11.3906C110.609 11.3906 111.081 11.4948 111.492 11.7031C111.904 11.9062 112.25 12.1979 112.531 12.5781C112.812 12.9583 113.023 13.4141 113.164 13.9453C113.31 14.4714 113.383 15.0573 113.383 15.7031ZM111.93 15.8672V15.7031C111.93 15.2812 111.885 14.8854 111.797 14.5156C111.708 14.1406 111.57 13.8125 111.383 13.5312C111.201 13.2448 110.966 13.0208 110.68 12.8594C110.393 12.6927 110.052 12.6094 109.656 12.6094C109.292 12.6094 108.974 12.6719 108.703 12.7969C108.438 12.9219 108.211 13.0911 108.023 13.3047C107.836 13.513 107.682 13.7526 107.562 14.0234C107.448 14.2891 107.362 14.5651 107.305 14.8516V16.875C107.409 17.2396 107.555 17.5833 107.742 17.9062C107.93 18.224 108.18 18.4818 108.492 18.6797C108.805 18.8724 109.198 18.9688 109.672 18.9688C110.062 18.9688 110.398 18.888 110.68 18.7266C110.966 18.5599 111.201 18.3333 111.383 18.0469C111.57 17.7604 111.708 17.4323 111.797 17.0625C111.885 16.6875 111.93 16.2891 111.93 15.8672Z" fill="black"/>
</svg>
