<svg width="40" height="40" viewBox="0 0 40 40" fill="none" xmlns="http://www.w3.org/2000/svg">
<circle cx="20" cy="20" r="19.5" stroke="#96EED7"/>
<path d="M11.5109 9.91669L15.15 10.0429C15.9165 10.0695 16.5968 10.5333 16.8905 11.2298L17.9666 13.7808C18.217 14.3745 18.1496 15.0518 17.7869 15.5865L16.4083 17.6193C17.2245 18.7426 19.4447 21.3743 21.7955 22.9149L23.5484 21.881C23.9939 21.6182 24.5273 21.5402 25.0314 21.664L28.5161 22.5204C29.4429 22.7482 30.0674 23.6 29.9942 24.5363L29.7705 27.3953C29.6919 28.3985 28.8351 29.1858 27.818 29.0725C14.3924 27.5765 6.51944 9.91666 11.5109 9.91669Z" fill="#96EED7"/>
</svg>
