<svg width="24" height="25" viewBox="0 0 24 25" fill="none" xmlns="http://www.w3.org/2000/svg">
<path d="M4.26007 10.647C3.98502 12.7526 3.82112 14.8712 3.76907 16.994C6.64786 18.1965 9.40423 19.6733 12.0001 21.404C14.5962 19.6733 17.3529 18.1965 20.2321 16.994C20.18 14.8712 20.0161 12.7526 19.7411 10.647M4.25907 10.647C3.38069 10.3517 2.49436 10.0806 1.60107 9.83398C4.86447 7.54589 8.34806 5.5892 12.0001 3.99298C15.6521 5.58886 19.1356 7.54522 22.3991 9.83298C21.5031 10.081 20.6161 10.353 19.7411 10.647M4.25907 10.647C6.92773 11.5441 9.51701 12.662 12.0001 13.989C14.4828 12.662 17.0718 11.5442 19.7401 10.647M6.75007 15.5C6.94899 15.5 7.13975 15.421 7.2804 15.2803C7.42106 15.1397 7.50007 14.9489 7.50007 14.75C7.50007 14.5511 7.42106 14.3603 7.2804 14.2197C7.13975 14.079 6.94899 14 6.75007 14C6.55116 14 6.3604 14.079 6.21974 14.2197C6.07909 14.3603 6.00007 14.5511 6.00007 14.75C6.00007 14.9489 6.07909 15.1397 6.21974 15.2803C6.3604 15.421 6.55116 15.5 6.75007 15.5ZM6.75007 15.5V11.825C8.44681 10.7703 10.1994 9.80825 12.0001 8.94298M4.99307 20.493C5.55105 19.9364 5.99351 19.275 6.29504 18.5468C6.59656 17.8187 6.75121 17.0381 6.75007 16.25V14.75" fill="#96EED7"/>
<path d="M4.26007 10.647C3.98502 12.7526 3.82112 14.8712 3.76907 16.994C6.64786 18.1965 9.40423 19.6733 12.0001 21.404C14.5962 19.6733 17.3529 18.1965 20.2321 16.994C20.18 14.8712 20.0161 12.7526 19.7411 10.647M4.25907 10.647C3.38069 10.3517 2.49436 10.0806 1.60107 9.83398C4.86447 7.54589 8.34806 5.5892 12.0001 3.99298C15.6521 5.58886 19.1356 7.54522 22.3991 9.83298C21.5031 10.081 20.6161 10.353 19.7411 10.647M4.25907 10.647C6.92773 11.5441 9.51701 12.662 12.0001 13.989C14.4828 12.662 17.0718 11.5442 19.7401 10.647M6.75007 15.5V11.825C8.44681 10.7703 10.1994 9.80825 12.0001 8.94298M4.99307 20.493C5.55105 19.9364 5.99351 19.275 6.29504 18.5468C6.59656 17.8187 6.75121 17.0381 6.75007 16.25V14.75M6.75007 15.5C6.94899 15.5 7.13975 15.421 7.2804 15.2803C7.42106 15.1397 7.50007 14.9489 7.50007 14.75C7.50007 14.5511 7.42106 14.3603 7.2804 14.2197C7.13975 14.079 6.94899 14 6.75007 14C6.55116 14 6.3604 14.079 6.21974 14.2197C6.07909 14.3603 6.00007 14.5511 6.00007 14.75C6.00007 14.9489 6.07909 15.1397 6.21974 15.2803C6.3604 15.421 6.55116 15.5 6.75007 15.5Z" stroke="#2D6886" stroke-width="1.5" stroke-linecap="round" stroke-linejoin="round"/>
</svg>
