<svg width="24" height="25" viewBox="0 0 24 25" fill="none" xmlns="http://www.w3.org/2000/svg">
<path d="M12 8H13.5H12ZM12 11H13.5H12ZM6 14H13.5H6ZM6 17H13.5H6ZM16.5 8H19.875C20.496 8 21 8.504 21 9.125V18.5C21 19.0967 20.7629 19.669 20.341 20.091C19.919 20.5129 19.3467 20.75 18.75 20.75M16.5 8V18.5C16.5 19.0967 16.7371 19.669 17.159 20.091C17.581 20.5129 18.1533 20.75 18.75 20.75M16.5 8V5.375C16.5 4.754 15.996 4.25 15.375 4.25H4.125C3.504 4.25 3 4.754 3 5.375V18.5C3 19.0967 3.23705 19.669 3.65901 20.091C4.08097 20.5129 4.65326 20.75 5.25 20.75H18.75M6 8H9V11H6V8Z" fill="#96EED7"/>
<path d="M12 8H13.5M12 11H13.5M6 14H13.5M6 17H13.5M16.5 8H19.875C20.496 8 21 8.504 21 9.125V18.5C21 19.0967 20.7629 19.669 20.341 20.091C19.919 20.5129 19.3467 20.75 18.75 20.75M16.5 8V18.5C16.5 19.0967 16.7371 19.669 17.159 20.091C17.581 20.5129 18.1533 20.75 18.75 20.75M16.5 8V5.375C16.5 4.754 15.996 4.25 15.375 4.25H4.125C3.504 4.25 3 4.754 3 5.375V18.5C3 19.0967 3.23705 19.669 3.65901 20.091C4.08097 20.5129 4.65326 20.75 5.25 20.75H18.75M6 8H9V11H6V8Z" stroke="#2D6886" stroke-width="1.5" stroke-linecap="round" stroke-linejoin="round"/>
</svg>
