<svg width="288" height="260" viewBox="0 0 288 260" fill="none" xmlns="http://www.w3.org/2000/svg">
<path d="M52.3227 85.2778H10.3213V201.881H52.3227V85.2778Z" fill="#EBEBEB"/>
<path d="M54.354 82.0592H8.28516V85.2777H54.354V82.0592Z" fill="#DBDBDB"/>
<path d="M68.8417 82.0592H54.3545V85.2777H68.8417V82.0592Z" fill="#EBEBEB"/>
<path d="M66.5518 85.2778H52.3223V201.881H66.5518V85.2778Z" fill="#DBDBDB"/>
<path d="M47.8002 125.471H14.8398V97.626H47.8002V125.471ZM14.9472 125.31H47.6928V97.7863H14.9472V125.31Z" fill="#C7C7C7"/>
<path d="M33.1366 105.756H26.7197V111.263H33.1366V105.756Z" fill="#C7C7C7"/>
<path d="M35.0867 110.923H28.584V106.089H35.1039L35.0867 110.923ZM28.6742 110.763H34.9793V106.275H28.6742V110.763Z" fill="#C7C7C7"/>
<path d="M47.8002 160.368H14.8398V132.555H47.8002V160.368ZM14.9472 160.207H47.6928V132.715H14.9472V160.207Z" fill="#C7C7C7"/>
<path d="M33.1366 140.685H26.7197V146.192H33.1366V140.685Z" fill="#C7C7C7"/>
<path d="M35.0867 145.859H28.584V141.018H35.1039L35.0867 145.859ZM28.6742 145.699H34.9793V141.179H28.6742V145.699Z" fill="#C7C7C7"/>
<path d="M47.8002 195.297H14.8398V167.484H47.8002V195.297ZM14.9472 195.137H47.6928V167.645H14.9472V195.137Z" fill="#C7C7C7"/>
<path d="M33.1366 175.614H26.7197V181.121H33.1366V175.614Z" fill="#C7C7C7"/>
<path d="M35.0867 180.788H28.584V175.954H35.1039L35.0867 180.788ZM28.6742 180.608H34.9793V176.12H28.6742V180.608Z" fill="#C7C7C7"/>
<path d="M266.87 119.258H224.868V201.881H266.87V119.258Z" fill="#EBEBEB"/>
<path d="M268.901 116.039H222.832V119.258H268.901V116.039Z" fill="#DBDBDB"/>
<path d="M283.389 116.039H268.901V119.258H283.389V116.039Z" fill="#EBEBEB"/>
<path d="M281.099 119.258H266.869V201.881H281.099V119.258Z" fill="#DBDBDB"/>
<path d="M262.295 131.69H229.442V159.336H262.295V131.69Z" fill="#A6A6A6"/>
<path d="M259.096 124.612H234.086V151.674H259.096V124.612Z" fill="#C7C7C7"/>
<path d="M242.921 121.803H234.086V124.612H243.432L242.921 121.803Z" fill="#C7C7C7"/>
<path d="M259.027 151.668H234.021L232.093 126.856H257.099L259.027 151.668Z" fill="#A6A6A6"/>
<path d="M240.726 124.285H231.891L232.093 126.856H241.434L240.726 124.285Z" fill="#A6A6A6"/>
<path d="M246.468 131.69H213.615V159.336H246.468V131.69Z" fill="#EBEBEB"/>
<path d="M246.52 159.451H213.563V131.606H246.52V159.451ZM213.671 159.291H246.412V131.767H213.671V159.291Z" fill="#C7C7C7"/>
<path d="M231.86 139.736H225.443V145.243H231.86V139.736Z" fill="#C7C7C7"/>
<path d="M233.806 144.91H227.286V140.069H233.806V144.91ZM227.394 144.75H233.699V140.217H227.394V144.75Z" fill="#C7C7C7"/>
<path d="M262.296 135.831H246.55V159.336H262.296V135.831Z" fill="#DBDBDB"/>
<path d="M262.347 194.348H229.387V166.536H262.347V194.348ZM229.494 194.188H262.235V166.696H229.494V194.188Z" fill="#C7C7C7"/>
<path d="M247.683 174.665H241.267V180.172H247.683V174.665Z" fill="#C7C7C7"/>
<path d="M249.633 179.839H243.113V174.998H249.633V179.839ZM243.221 179.679H249.526V175.159H243.221V179.679Z" fill="#C7C7C7"/>
<path d="M5.83301 201.881L40.8378 201.727L75.8383 201.669L145.839 201.56L215.84 201.669L250.841 201.727L285.846 201.881L250.841 202.041L215.84 202.093L145.839 202.202L75.8383 202.093L40.8378 202.035L5.83301 201.881Z" fill="#263238"/>
<path d="M145.839 260C213.857 260 268.996 250.981 268.996 239.856C268.996 228.73 213.857 219.711 145.839 219.711C77.8218 219.711 22.6826 228.73 22.6826 239.856C22.6826 250.981 77.8218 260 145.839 260Z" fill="#EBEBEB"/>
<path d="M274.412 156.162C274.008 158.355 273.742 160.6 273.617 162.868C273.66 162.977 273.651 163.394 273.617 163.278C273.617 163.65 273.235 163.579 273.235 163.22V162.515C272.376 160.887 271.087 159.854 270.052 158.444C269.224 157.333 268.62 155.898 268.308 154.302C267.449 149.904 268.257 145.243 267.226 140.838C266.341 137.062 264.752 133.786 263.408 130.349C261.99 126.727 260.942 122.919 260.831 118.674C260.749 115.43 261.007 111.096 262.665 108.666C264.421 106.102 266.599 108.025 267.948 110.32C271.847 117.001 273.651 125.445 274.39 134.081C274.794 138.864 275.211 143.698 275.116 148.494C275.053 151.078 274.817 153.647 274.412 156.162Z" fill="#FFC727"/>
<path d="M273.634 164.618C273.848 160.11 273.812 155.583 273.527 151.084C273.527 151.084 273.527 151.052 273.527 151.032C273.574 147.371 273.767 143.73 273.673 140.062C273.555 136.1 273.194 132.162 272.595 128.298C272.595 128.253 272.539 128.298 272.547 128.298C273.029 132.093 273.316 135.939 273.406 139.8C273.458 141.873 273.448 143.941 273.376 146.006C273.351 146.679 273.308 147.352 273.278 148.032C272.256 137.757 269.765 127.931 265.976 119.219C265.924 119.097 265.783 119.219 265.834 119.347C268.538 125.969 270.54 133.175 271.77 140.71C269.893 135.523 267.045 131.26 264.958 126.272C264.958 126.272 264.919 126.272 264.928 126.304C266.814 131.856 269.936 136.228 271.925 141.691C272.268 143.922 272.552 146.179 272.762 148.429C273.043 151.535 273.194 154.663 273.213 157.796C272.071 154.591 270.885 151.558 269.949 148.179C269.949 148.09 269.837 148.179 269.859 148.243C270.653 151.744 271.723 155.52 273.222 158.502C273.222 160.72 273.18 162.936 273.097 165.15C272.865 171.061 272.187 176.896 271.873 182.788C271.87 182.824 271.877 182.859 271.892 182.888C271.907 182.916 271.929 182.934 271.953 182.938C271.976 182.943 272.001 182.933 272.02 182.91C272.038 182.888 272.051 182.856 272.054 182.82C272.856 176.813 273.384 170.732 273.634 164.618Z" fill="#263238"/>
<path d="M269.43 119.059C269.427 119.054 269.424 119.049 269.42 119.046C269.417 119.043 269.412 119.042 269.408 119.042C269.404 119.042 269.4 119.043 269.396 119.046C269.392 119.049 269.389 119.054 269.387 119.059C270.108 122.04 270.516 125.066 271.04 128.131C271.046 128.157 271.058 128.179 271.074 128.193C271.09 128.206 271.108 128.211 271.126 128.207C271.144 128.202 271.161 128.188 271.173 128.167C271.184 128.146 271.191 128.12 271.191 128.093C270.897 124.971 270.304 121.928 269.43 119.059Z" fill="#263238"/>
<path d="M287.795 131.548C287.314 133.309 286.759 135.022 286.133 136.677C284.844 140.204 283.47 143.441 283.225 147.577C283.186 149.417 283.011 151.244 282.701 153.026C282.361 154.547 281.872 155.984 281.249 157.29C279.836 160.361 278.071 163.002 276.765 166.189C275.403 169.511 274.398 173.13 273.784 176.915C273.75 177.12 273.535 177.063 273.565 176.857C273.568 176.843 273.568 176.827 273.565 176.812C273.565 176.812 273.565 176.812 273.565 176.768C273.359 167.952 273.832 159.072 275.631 150.622C276.426 146.9 277.381 143.26 278.492 139.723C279.402 136.606 280.716 133.789 282.357 131.433C283.457 129.952 285.841 127.15 287.404 128.637C288.147 129.317 288.091 130.445 287.795 131.548Z" fill="#FFC727"/>
<path d="M281.863 151.532C280.82 154.089 279.673 156.547 278.427 158.893C277.852 160.008 277.272 161.111 276.709 162.227C276.439 162.759 276.134 163.284 275.889 163.849C276.044 162.919 276.194 161.989 276.353 161.066C277.117 156.61 277.848 152.122 278.986 147.839C280.147 143.69 281.517 139.678 283.083 135.837C283.122 135.735 283.015 135.664 282.972 135.76C281.726 138.825 280.459 141.883 279.411 145.115C278.83 146.914 278.325 148.766 277.899 150.66C278.378 146.642 279.05 142.681 279.909 138.806C279.909 138.774 279.883 138.748 279.875 138.806C278.75 142.72 278.045 146.874 277.787 151.116C277.53 152.257 277.293 153.417 277.074 154.578C276.142 159.508 275.326 164.496 274.57 169.497C274.557 166.21 274.748 162.928 275.142 159.694C275.142 159.679 275.138 159.664 275.13 159.653C275.123 159.642 275.113 159.636 275.103 159.636C275.093 159.636 275.083 159.642 275.076 159.653C275.068 159.664 275.064 159.679 275.064 159.694C274.487 163.065 274.294 166.556 274.493 170.023C274.207 171.925 273.928 173.829 273.656 175.735C273.076 179.8 272.367 183.935 272.023 188.058C272.023 188.077 272.028 188.096 272.036 188.111C272.044 188.126 272.056 188.136 272.068 188.14C272.081 188.143 272.094 188.141 272.106 188.132C272.117 188.122 272.126 188.108 272.131 188.09C272.56 185.865 272.779 183.557 273.114 181.307C273.449 179.056 273.789 176.819 274.141 174.543C274.651 171.26 275.183 167.986 275.739 164.721C276.104 163.528 276.808 162.464 277.341 161.457C277.873 160.451 278.5 159.252 279.059 158.13C280.121 156.056 281.071 153.861 281.902 151.564C281.932 151.52 281.881 151.481 281.863 151.532Z" fill="#263238"/>
<path d="M282.113 147.763C280.813 150.238 279.688 152.906 278.754 155.726C278.754 155.764 278.78 155.803 278.797 155.764C279.926 153.123 281.039 150.455 282.164 147.808C282.186 147.769 282.134 147.718 282.113 147.763Z" fill="#263238"/>
<path d="M256.974 139.902C257.743 141.871 258.615 144.236 258.262 146.596C258.056 148.09 257.322 149.308 257.189 150.834C256.892 154.2 259.143 156.424 260.771 158.014C264.825 161.989 270.383 165.529 271.122 173.639C271.152 173.921 271.483 173.85 271.457 173.568C271.458 173.551 271.458 173.534 271.457 173.517C271.457 173.517 271.457 173.517 271.457 173.472C271.99 169.378 271.963 165.165 271.38 161.085C270.778 156.905 269.554 153.148 268.111 149.474C265.671 143.262 263.086 136.895 259.396 132.164C258.374 130.843 256.282 128.477 255.471 131.452C254.659 134.427 256.038 137.504 256.974 139.902Z" fill="#FFC727"/>
<path d="M260.69 153.077C263.374 157.424 267.652 159.861 269.963 164.727C268.672 157.319 266.229 150.47 262.833 144.736C262.747 144.589 262.884 144.371 262.983 144.512C265.458 148.102 267.437 152.382 268.807 157.11C268.171 153.809 267.331 150.602 266.299 147.532C266.29 147.508 266.287 147.48 266.292 147.453C266.297 147.427 266.309 147.404 266.325 147.391C266.341 147.377 266.36 147.373 266.377 147.381C266.395 147.388 266.41 147.405 266.419 147.429C267.689 150.775 268.596 154.399 269.108 158.168C272.153 169.189 272.437 182.108 271.797 193.726C271.797 193.892 271.621 193.899 271.625 193.726C271.797 184.57 271.698 175.261 270.229 166.323C270.199 166.137 270.164 165.951 270.134 165.766C267.618 160.527 263.361 158.072 260.625 153.122C260.617 153.103 260.66 153.039 260.69 153.077Z" fill="#263238"/>
<path d="M259.839 140.973C261.089 144.03 262.502 146.931 264.065 149.648C264.067 149.651 264.069 149.656 264.07 149.661C264.071 149.665 264.072 149.67 264.072 149.675C264.071 149.681 264.071 149.686 264.069 149.69C264.068 149.695 264.066 149.699 264.063 149.702C264.06 149.705 264.057 149.708 264.054 149.71C264.051 149.711 264.048 149.712 264.044 149.712C264.041 149.711 264.038 149.71 264.035 149.708C264.031 149.706 264.029 149.703 264.026 149.699C262.274 147.213 260.832 144.282 259.766 141.044C259.759 141.029 259.757 141.011 259.76 140.995C259.762 140.978 259.769 140.963 259.779 140.954C259.788 140.944 259.8 140.941 259.811 140.945C259.823 140.948 259.833 140.959 259.839 140.973Z" fill="#263238"/>
<path d="M266.195 201.939H278.557L276.89 177.114H268.098L266.195 201.939Z" fill="#455A64"/>
<path d="M267.789 181.153H277.161L276.89 177.114H268.098L267.789 181.153Z" fill="#263238"/>
<path d="M266.582 178.332H278.17V174.37H266.582V178.332Z" fill="#455A64"/>
<path d="M79.9735 246.273C78.9728 246.761 50.4621 246.209 49.3883 245.158C48.9588 244.767 48.7827 238.561 48.7011 231.053V230.816C48.6797 229.27 48.6668 227.674 48.6668 226.065C48.6668 225.84 48.6668 225.616 48.6668 225.424C48.6238 214.588 48.7398 203.343 48.7398 203.343L67.8099 203.625L67.2386 225.488L67.2172 226.353L67.1012 230.88V231.348C67.1012 231.348 77.9505 238.843 79.0544 240.183C80.1582 241.523 80.9828 245.799 79.9735 246.273Z" fill="#DD6A57"/>
<path d="M71.405 234.245C71.332 234.213 71.2934 234.175 71.2891 234.143L71.405 234.245Z" fill="#FFC727"/>
<path d="M79.9695 246.274C78.973 246.754 50.4624 246.209 49.3843 245.152C49.0192 244.812 48.8259 239.869 48.7314 233.502C53.9542 235.131 74.2012 241.241 74.7553 238.631C74.9743 237.618 73.2434 235.862 72.1481 234.868C75.1547 236.996 78.4533 239.433 79.0202 240.151C80.1241 241.516 80.9831 245.799 79.9695 246.274Z" fill="#FFC727"/>
<path opacity="0.1" d="M62.0848 246.209C55.668 245.979 49.8825 245.62 49.4058 245.152C49.0407 244.812 48.8474 239.869 48.7529 233.502C49.496 233.727 50.5397 234.054 51.7895 234.425L62.0848 246.209Z" fill="black"/>
<path d="M42.8857 80.7255C42.8857 80.7255 47.1808 152.642 47.8637 158.13C48.0226 159.38 48.1257 166.176 48.1901 174.908C48.3362 193.976 48.2503 228.354 48.2503 228.354H68.3469C68.3469 228.354 67.7499 168.786 66.8608 157.829C65.9717 146.872 60.2851 80.7319 60.2851 80.7319L42.8857 80.7255Z" fill="#37474F"/>
<path d="M67.4367 223.128C64.3013 223.032 65.2032 222.994 62.0678 222.949C60.5345 222.949 50.4454 222.795 49.0108 223.148C48.9808 223.148 48.9808 223.237 49.0108 223.244C50.4454 223.596 60.5345 223.468 62.0678 223.442C65.2032 223.398 64.3013 223.359 67.4367 223.263C67.4463 223.258 67.4547 223.25 67.4606 223.237C67.4666 223.225 67.4698 223.211 67.4698 223.196C67.4698 223.181 67.4666 223.166 67.4606 223.154C67.4547 223.142 67.4463 223.133 67.4367 223.128Z" fill="#263238"/>
<path d="M52.0687 189.071L52.0042 176.018C51.9828 171.805 52.0042 167.587 51.8539 163.375C51.579 154.854 50.4194 146.468 49.599 138.043C48.7786 129.619 48.0871 121.143 47.4515 112.673C46.7514 103.172 46.1329 93.6509 45.48 84.1429C45.48 84.0788 45.407 84.0788 45.4113 84.1429C46.3605 101.127 47.4171 118.123 48.9891 134.985C49.3843 139.182 49.8138 143.373 50.2776 147.558C50.7501 151.789 51.214 156.027 51.4373 160.31C51.6606 164.593 51.695 168.702 51.7208 172.908L51.811 185.949C51.8711 195.611 51.9355 210.479 51.9957 220.134C51.9957 220.173 52.0061 220.211 52.0246 220.239C52.0431 220.266 52.0682 220.282 52.0944 220.282C52.1206 220.282 52.1458 220.266 52.1643 220.239C52.1828 220.211 52.1932 220.173 52.1932 220.134C52.1546 211.511 52.1116 197.688 52.0687 189.071Z" fill="#263238"/>
<path d="M38.6465 80.7255C38.6465 80.7255 47.1636 152.642 47.8637 158.13C48.0226 159.38 48.1257 166.176 48.1901 174.908L57.7896 80.7255H38.6465Z" fill="#263238"/>
<path d="M56.6351 248.812C55.6172 249.191 27.201 245.607 26.1788 244.459C25.7879 244.03 25.891 237.817 26.1788 230.354C26.1788 230.277 26.1788 230.194 26.1788 230.117C26.2346 228.572 26.2948 226.982 26.3721 225.372C26.3721 225.148 26.3721 224.93 26.3978 224.731C26.8703 213.922 27.5188 202.715 27.5188 202.715L46.5245 204.972L44.9053 226.712L44.8451 227.578L44.5144 232.066L44.4758 232.54C44.4758 232.54 54.9428 241.164 55.978 242.619C57.0131 244.074 57.6573 248.447 56.6351 248.812Z" fill="#DD6A57"/>
<path d="M56.6345 248.812C55.6123 249.191 27.2047 245.607 26.1782 244.459C25.8432 244.094 25.8689 239.503 26.0579 233.508C30.4561 235.188 51.6651 243.125 52.3179 240.561C52.4511 240.003 52.0001 239.182 51.3902 238.381C53.5893 240.304 55.5693 242.055 55.9945 242.645C57.0167 244.081 57.6524 248.44 56.6345 248.812Z" fill="#FFC727"/>
<path d="M45.3343 229.976L25.2549 228.694C25.2549 228.694 30.7354 162.926 30.8385 158.88C30.9888 152.873 32.9173 128.067 34.5408 107.987C34.5408 107.987 31.4655 97.0875 37.2209 80.6873H60.294C60.294 80.6873 58.7478 96.3182 56.0977 106.23C54.3199 107.157 52.6032 108.326 50.9694 109.724C50.9694 109.724 48.6716 154.501 48.5857 160.086C48.4268 171.139 45.3343 229.976 45.3343 229.976Z" fill="#37474F"/>
<path d="M44.8059 224.481C41.6791 224.186 42.5767 224.205 39.4456 223.962C37.9123 223.84 27.849 223.077 26.3972 223.321C26.3672 223.321 26.3629 223.404 26.3972 223.41C27.8189 223.859 37.8994 224.366 39.4328 224.443C42.5682 224.597 41.6662 224.5 44.8059 224.597C44.8617 224.622 44.866 224.488 44.8059 224.481Z" fill="#263238"/>
<path d="M38.7495 82.1682C37.5597 86.015 36.4516 90.0606 36.035 94.2793C35.7335 98.8045 36.0715 103.374 37.0271 107.692C37.0271 107.692 36.8596 111.237 36.6792 113.501C36.4988 115.764 36.3227 118.053 36.1466 120.329C35.7945 124.928 35.4394 129.527 35.0815 134.126C34.3771 143.273 33.6741 152.426 32.9726 161.586C32.2711 170.746 31.5767 179.901 30.8895 189.052C30.2066 198.182 29.4764 207.305 28.8708 216.448C28.7935 217.589 28.7205 218.724 28.6475 219.865C28.6475 219.974 28.772 220 28.7806 219.865C29.5967 210.742 30.2925 201.599 31.0226 192.457C31.7528 183.314 32.4529 174.255 33.1702 165.151C33.8874 156.046 34.5918 146.853 35.2962 137.697C35.992 128.676 36.7737 119.655 37.3707 110.622C37.4414 109.576 37.4586 108.524 37.4223 107.474C37.4223 107.474 36.1338 101.063 36.2927 96.908C36.4516 92.5675 37.1517 89.272 38.1868 85.2777C38.4445 84.2776 38.7151 83.2774 38.9728 82.2836C39.0243 82.1105 38.8096 81.9823 38.7495 82.1682Z" fill="#263238"/>
<path d="M56.9821 105.595C54.8999 106.722 52.8879 108.118 50.969 109.769C50.9546 109.782 50.9438 109.802 50.9387 109.826C50.9337 109.85 50.9347 109.876 50.9416 109.899C50.9484 109.922 50.9607 109.94 50.9761 109.951C50.9914 109.961 51.0088 109.963 51.0249 109.955C53.0478 108.673 55.1095 107.391 57.0852 105.954C57.111 105.929 57.1299 105.89 57.1387 105.846C57.1475 105.801 57.1456 105.754 57.1334 105.711C57.1211 105.669 57.0993 105.634 57.0717 105.613C57.0441 105.591 57.0124 105.585 56.9821 105.595Z" fill="#263238"/>
<path d="M54.1566 100.575C54.3542 98.7736 54.5174 96.9656 54.6205 95.1512C54.8303 91.7669 54.8058 88.3595 54.5475 84.9827C54.544 84.9638 54.5364 84.947 54.5259 84.9351C54.5154 84.9232 54.5026 84.9167 54.4895 84.9167C54.4763 84.9167 54.4635 84.9232 54.453 84.9351C54.4425 84.947 54.435 84.9638 54.4315 84.9827C54.4826 89.6769 54.2989 94.3703 53.8817 99.0236C53.6541 101.261 52.8981 104.627 54.4658 104.967C56.0335 105.307 57.0944 99.684 57.2877 98.1388C57.787 93.7451 57.901 89.273 57.627 84.8353C57.627 84.7263 57.4982 84.707 57.4982 84.8353C57.4983 88.2054 57.3851 91.5735 57.1589 94.9268C57.0644 96.4847 56.2268 105.082 54.4186 104.454C54.1179 104.345 53.9633 103.903 53.9161 103.223C53.9239 102.333 54.0047 101.448 54.1566 100.588" fill="#263238"/>
<path d="M54.4695 104.672C54.3007 105.252 54.1572 105.847 54.04 106.454C53.9232 106.922 53.8663 107.418 53.8725 107.916C53.8725 108.012 53.9627 108.025 53.9971 107.961C54.188 107.52 54.3329 107.038 54.4266 106.531C54.564 105.98 54.7101 105.435 54.8561 104.877C54.8651 104.839 54.8691 104.799 54.8677 104.759C54.8663 104.719 54.8596 104.679 54.8481 104.643C54.8365 104.607 54.8203 104.574 54.8003 104.547C54.7803 104.52 54.7569 104.5 54.7315 104.486C54.7062 104.473 54.6792 104.467 54.6523 104.469C54.6254 104.471 54.5991 104.481 54.5747 104.498C54.5504 104.515 54.5286 104.54 54.5105 104.569C54.4925 104.599 54.4786 104.634 54.4695 104.672Z" fill="#263238"/>
<path d="M47.9117 18.2341C44.175 23.017 45.2144 29.9926 43.6553 33.7817C42.6975 36.0962 39.5878 38.5389 38.9693 41.2061C37.9557 45.585 40.4425 47.1622 39.8842 49.5408C39.0982 52.9196 36.0702 52.6568 35.5247 58.1769C34.9792 63.6971 39.0509 69.5699 48.7063 71.16C58.3616 72.75 63.6703 67.4734 64.0139 62.7867C64.3575 58.1 61.1491 56.542 60.93 53.0479C60.7926 50.8103 62.7726 49.2587 62.8757 45.1426C62.9788 41.0265 60.2986 39.693 59.9035 36.1988C59.5083 32.7046 60.7625 24.2159 57.3265 19.8819C53.8904 15.5478 49.7714 15.8683 47.9117 18.2341Z" fill="#263238"/>
<path d="M48.3405 18.3558C47.2949 19.463 46.4433 20.9298 45.8579 22.6322C45.253 24.4354 44.7903 26.3374 44.4792 28.2999C44.3152 29.4691 44.0631 30.6069 43.7276 31.6915C43.3988 32.5968 42.9621 33.405 42.4391 34.0765C41.3954 35.487 40.1498 36.5577 39.2092 38.1477C38.2686 39.7377 37.6329 41.6547 37.9851 43.7C38.1784 44.8155 38.6723 45.7196 38.9772 46.7582C39.2822 47.7968 39.381 48.9637 38.814 49.7844C38.333 50.4832 37.6329 50.8038 37.096 51.3744C36.5555 51.9355 36.0797 52.6241 35.6872 53.4132C35.2885 54.1943 35.0035 55.091 34.8504 56.046C34.6973 57.001 34.6795 57.9932 34.7981 58.959C35.3694 63.447 38.187 66.0115 40.8112 67.5951L41.9022 68.2363C41.958 68.2683 42.0053 68.1465 41.9494 68.108C39.338 66.3642 36.3057 64.3189 35.305 59.9592C35.0754 59.0126 34.9947 57.9999 35.0692 56.9994C35.1437 55.9988 35.3713 55.0372 35.7345 54.189C36.1036 53.3474 36.5723 52.6131 37.1175 52.0219C37.6415 51.4385 38.2471 51.0859 38.784 50.5345C39.0486 50.2835 39.2639 49.9324 39.408 49.5168C39.5521 49.1012 39.6198 48.6361 39.6043 48.1687C39.5203 47.1512 39.276 46.1778 38.8913 45.3285C38.487 44.4376 38.2729 43.3848 38.2771 42.3087C38.3545 41.26 38.6218 40.2626 39.0503 39.4236C39.862 37.7053 41.0646 36.5834 42.1427 35.2818C43.2478 34.071 44.0709 32.3737 44.4964 30.4284C44.694 29.3962 44.8185 28.3383 44.9903 27.2997C45.149 26.3359 45.3426 25.3856 45.5702 24.453C45.9964 22.5754 46.6927 20.8598 47.6103 19.4265C47.855 19.064 48.1225 18.7377 48.4092 18.452C48.4221 18.4007 48.392 18.3238 48.3405 18.3558Z" fill="#263238"/>
<path d="M64.4558 59.35C64.341 58.5896 64.1184 57.8747 63.8029 57.2535C63.4679 56.6124 63.0599 56.0802 62.6862 55.4968C62.3081 54.9778 62.0344 54.3118 61.8959 53.5734C61.8361 52.6701 61.9878 51.7638 62.3254 51.0088C62.6498 50.2013 62.9368 49.3616 63.1844 48.4956C63.3975 47.6333 63.5207 46.7273 63.5495 45.8092C63.6029 43.9161 63.2639 42.0445 62.5788 40.4493C62.2481 39.6415 61.8787 38.8785 61.548 38.0771C61.1783 37.2053 60.8893 36.2629 60.689 35.2754C60.2595 33.1083 60.1607 30.7874 59.8042 28.6204C59.4304 26.3453 58.8992 24.1343 58.2193 22.0231C58.2193 21.9718 58.1506 22.0231 58.1678 22.0679C58.7618 23.9598 59.2225 25.9387 59.5422 27.9728C59.8472 29.8962 59.9717 31.8709 60.1951 33.82C60.2954 34.778 60.4594 35.7187 60.6847 36.6281C60.9216 37.4688 61.2091 38.2757 61.5437 39.0388C62.1966 40.6288 62.8709 42.1932 63.0513 44.0782C63.2309 45.9306 63.0129 47.8204 62.4285 49.4765C61.9217 50.9063 61.2087 52.4835 61.6511 54.1632C62.0291 55.5866 62.9396 56.4393 63.5366 57.6126C63.8548 58.2607 64.0777 59.0017 64.191 59.7872C64.3042 60.5726 64.3052 61.385 64.1938 62.171C63.6698 66.2038 60.9639 68.2105 58.4255 68.4093C58.4118 68.4147 58.3996 68.4268 58.3909 68.4436C58.3823 68.4604 58.3776 68.481 58.3776 68.5023C58.3776 68.5235 58.3823 68.5441 58.3909 68.5609C58.3996 68.5777 58.4118 68.5898 58.4255 68.5952C60.6289 68.5568 63.0298 67.1078 64.0649 64.0239C64.5539 62.5806 64.6921 60.9285 64.4558 59.35Z" fill="#263238"/>
<path d="M53.495 52.7785C54.8694 58.1897 61.312 77.9239 66.1482 79.469C71.5557 81.1937 82.04 74.981 88.7832 70.647C91.2057 69.0826 85.2957 56.6061 82.6327 55.1507C81.0349 54.2723 69.915 62.8443 67.4539 62.8443C66.0666 62.8443 62.9398 55.2212 56.7549 48.0277C53.3704 44.0462 51.6481 45.5016 53.495 52.7785Z" fill="#DD6A57"/>
<path d="M87.0782 71.3972C88.5257 70.756 96.6949 67.2362 98.3399 65.6269C99.9849 64.0177 104.482 58.7347 103.765 56.7279C103.047 54.7212 101.651 56.0868 101.651 56.0868C101.651 56.0868 103.318 53.4069 102.459 51.4835C101.6 49.56 99.4824 51.8168 99.4824 51.8168C99.4824 51.8168 101.059 48.8933 100.127 47.066C99.1946 45.2388 97.3048 48.0405 97.3048 48.0405C97.3048 48.0405 98.8295 45.476 97.6355 44.4438C96.201 43.2192 93.7485 48.4316 91.8415 50.0409C91.412 50.4063 82.7188 56.5356 82.7188 56.5356L87.0782 71.3972Z" fill="#DD6A57"/>
<path d="M97.4808 47.8034C95.6725 51.6502 94.4399 52.8363 91.5836 54.6058C91.5278 54.6379 91.5536 54.7725 91.6137 54.7404C94.5129 53.3941 96.2051 52.2144 97.6268 47.9252C97.6783 47.7136 97.571 47.6238 97.4808 47.8034Z" fill="#263238"/>
<path d="M99.6369 51.5091C97.5238 55.2405 96.2009 56.5676 93.2974 58.7411C93.2545 58.7731 93.2974 58.8821 93.3275 58.8565C96.2911 57.0741 97.9662 55.8367 99.7443 51.695C99.8259 51.5091 99.7314 51.336 99.6369 51.5091Z" fill="#263238"/>
<path d="M101.501 56.1765C99.28 59.5681 97.8626 61.1133 94.869 62.6905C94.8616 62.6934 94.8548 62.6985 94.8488 62.7054C94.8427 62.7123 94.8377 62.7209 94.8339 62.7307C94.8262 62.7506 94.8242 62.7741 94.8282 62.7962C94.8321 62.8184 94.8419 62.8372 94.8551 62.8486C94.8684 62.86 94.8842 62.8631 94.899 62.8572C98.0602 61.6967 99.8384 59.7797 101.561 56.2855C101.681 56.0483 101.638 55.9585 101.501 56.1765Z" fill="#263238"/>
<path d="M80.2012 56.2277C80.2012 56.2277 82.5721 50.8998 83.9508 49.2393C85.3295 47.5788 91.9825 44.2256 92.5409 46.3285C93.2711 49.0469 89.689 52.0988 87.8163 53.272C87.8163 53.272 89.5344 59.5552 87.2623 62.5878C84.9902 65.6203 80.2012 56.2277 80.2012 56.2277Z" fill="#DD6A57"/>
<path d="M92.5796 47.1556C92.0514 50.3613 89.5087 51.6436 87.7348 52.9643C87.708 52.9819 87.6845 53.0089 87.6662 53.0431C87.648 53.0772 87.6355 53.1175 87.6301 53.1604C87.6246 53.2033 87.6261 53.2476 87.6347 53.2894C87.6432 53.3312 87.6584 53.3692 87.679 53.4003C88.2717 56.1059 88.5852 60.1771 87.374 62.5814C87.3694 62.5953 87.368 62.6111 87.3701 62.6264C87.3721 62.6416 87.3774 62.6555 87.3853 62.6657C87.3931 62.6759 87.403 62.682 87.4134 62.683C87.4238 62.684 87.4341 62.6798 87.4427 62.6711C88.9761 60.3631 88.8859 56.3239 88.1085 53.4195C89.9425 52.0988 92.4551 50.6434 92.6011 47.1621L92.5796 47.1556Z" fill="#263238"/>
<path d="M63.4934 80.95L66.4141 61.2543C63.4709 56.3879 60.3478 51.771 57.0594 47.425C52.3134 41.3021 50.0542 41.9561 52.8975 52.8618C55.7408 63.7676 59.9371 76.398 63.4934 80.95Z" fill="#FFC727"/>
<path d="M63.4934 80.95L66.4141 61.2543C63.4709 56.3879 60.3478 51.771 57.0594 47.425C52.3134 41.3021 50.0542 41.9561 52.8975 52.8618C55.7408 63.7676 59.9371 76.398 63.4934 80.95Z" fill="#FFC727"/>
<path d="M64.7613 60.8311C64.2588 63.5239 63.825 66.2231 63.4471 68.9607C63.2581 70.3327 63.082 71.7112 62.9188 73.096C62.7513 74.5001 62.6482 75.9234 62.4893 77.3404C62.4893 77.4045 62.5494 77.4173 62.558 77.3404C62.9016 74.5835 63.3096 71.833 63.6876 69.0761L64.8086 60.8439C64.8344 60.799 64.7742 60.7734 64.7613 60.8311Z" fill="#263238"/>
<path d="M53.9246 55.9586C54.0496 56.3925 54.1348 56.8497 54.178 57.3178C54.178 57.3947 54.178 57.4716 54.178 57.555C54.0835 57.1959 53.9847 56.8497 53.8859 56.4971C53.8884 56.3163 53.9013 56.1361 53.9246 55.9586ZM61.7759 54.7532C61.7048 55.6884 61.7949 56.6352 62.0379 57.5037C62.0831 57.0381 62.0831 56.5652 62.0379 56.0996C61.9858 55.6333 61.8904 55.1802 61.7545 54.7532H61.7759ZM59.1216 68.8582C59.0764 69.3217 59.0764 69.7924 59.1216 70.2559C59.1636 70.7222 59.2489 71.1775 59.375 71.6087C59.4223 71.1433 59.4223 70.67 59.375 70.2046C59.3277 69.7382 59.2351 69.2847 59.1001 68.8582H59.1216ZM61.6041 64.4728C62.2307 64.5877 62.8664 64.4528 63.4467 64.0818C63.1348 64.0143 62.818 64.0143 62.5061 64.0818C62.187 64.1431 61.8758 64.2749 61.5827 64.4728H61.6041ZM51.9531 46.0402C52.2652 46.1045 52.5817 46.1045 52.8937 46.0402C53.2061 45.9811 53.5113 45.8559 53.8 45.6683C53.4881 45.6009 53.1713 45.6009 52.8594 45.6683C52.5401 45.7278 52.2279 45.8529 51.9316 46.0402H51.9531ZM56.2482 64.3254C56.2452 64.3378 56.2452 64.3514 56.2482 64.3639C56.2586 64.3352 56.2672 64.3051 56.274 64.2741C56.2577 64.2872 56.2431 64.3046 56.231 64.3254H56.2482ZM64.2327 71.3138C63.9831 71.6016 63.7619 71.9405 63.5756 72.3204C63.3835 72.6909 63.2287 73.1013 63.116 73.5385C63.3651 73.2545 63.5851 72.9175 63.7688 72.5383C63.9614 72.1649 64.1176 71.7526 64.2327 71.3138ZM59.3535 60.9594C59.161 60.5886 58.9356 60.2585 58.6835 59.9785C58.4331 59.6931 58.1569 59.4621 57.8631 59.2925C58.2575 60.0274 58.7702 60.6009 59.3535 60.9594ZM57.5711 50.5602C57.3203 50.8457 57.0976 51.1824 56.9096 51.5604C56.7171 51.9316 56.5609 52.3417 56.4458 52.7785C56.9416 52.1946 57.329 51.4309 57.5711 50.5602Z" fill="white"/>
<path d="M52.8977 52.8618C55.741 63.7612 59.9201 76.398 63.4936 80.95L64.6963 72.8397L51.8755 44.1616C51.3901 45.3285 51.6564 48.111 52.8977 52.8618Z" fill="#263238"/>
<path d="M61.1059 85.7521C61.1059 85.7521 51.9832 88.9577 34.7041 86.7458C34.7041 86.7458 41.4602 54.5543 46.9021 45.8734C49.3803 41.924 51.7985 42.5266 53.8515 45.0719C54.3626 45.7131 60.7236 57.7216 61.2433 61.9146C61.7201 65.614 59.7057 69.7236 59.7057 69.7236L61.1059 85.7521Z" fill="#FFC727"/>
<path d="M54.1567 57.3177C54.2019 57.7812 54.2019 58.252 54.1567 58.7154C54.0305 58.2869 53.9466 57.8334 53.9076 57.369C53.8603 56.9037 53.8603 56.4303 53.9076 55.9649C54.0322 56.3965 54.116 56.8518 54.1567 57.3177ZM54.3156 79.0587C54.2725 79.5245 54.2725 79.997 54.3156 80.4628C54.3541 80.9301 54.4396 81.3862 54.569 81.8156C54.6121 81.3498 54.6121 80.8773 54.569 80.4115C54.528 79.9449 54.4426 79.4894 54.3156 79.0587ZM58.7954 83.2325C58.7184 84.1678 58.8088 85.1168 59.0574 85.983C59.1005 85.5172 59.1005 85.0447 59.0574 84.5789C59.0142 84.1135 58.926 83.66 58.7954 83.2325ZM44.2866 64.1587C44.2393 64.624 44.2393 65.0974 44.2866 65.5628C44.3257 66.0272 44.4096 66.4807 44.5358 66.9092C44.5809 66.4457 44.5809 65.9749 44.5358 65.5115C44.4946 65.0456 44.4108 64.5904 44.2866 64.1587ZM59.1003 68.8582C59.0551 69.3217 59.0551 69.7924 59.1003 70.2559C59.1423 70.7222 59.2276 71.1775 59.3537 71.6087C59.401 71.1433 59.401 70.67 59.3537 70.2046C59.3133 69.7399 59.228 69.2864 59.1003 68.8582ZM48.4142 60.3567C48.7261 60.4242 49.0429 60.4242 49.3548 60.3567C49.6672 60.2976 49.9724 60.1724 50.2611 59.9849C49.9492 59.9174 49.6324 59.9174 49.3205 59.9849C49.0084 60.0463 48.7034 60.1714 48.4142 60.3567ZM43.0368 73.9809C43.6647 74.0963 44.302 73.9613 44.8837 73.5898C44.5717 73.5224 44.2549 73.5224 43.943 73.5898C43.63 73.655 43.3248 73.7867 43.0368 73.9809ZM51.992 72.8974C52.304 72.9617 52.6206 72.9617 52.9326 72.8974C53.245 72.8383 53.5501 72.7131 53.8389 72.5255C53.527 72.4581 53.2102 72.4581 52.8982 72.5255C52.5859 72.5848 52.2808 72.71 51.992 72.8974ZM35.748 85.4188C36.0587 85.483 36.3737 85.483 36.6844 85.4188C36.997 85.3613 37.3023 85.2361 37.5906 85.0469C36.9641 84.932 36.3283 85.067 35.748 85.438V85.4188ZM51.9319 46.0722C52.2439 46.1366 52.5604 46.1366 52.8725 46.0722C53.1849 46.0131 53.49 45.8879 53.7787 45.7004C53.4668 45.6329 53.15 45.6329 52.8381 45.7004C52.5272 45.7524 52.2224 45.8667 51.9319 46.0402V46.0722ZM48.891 48.5342C48.6415 48.8198 48.4203 49.1565 48.2338 49.5343C48.0417 49.9072 47.8869 50.3197 47.7742 50.7589C48.0225 50.4709 48.2423 50.132 48.4271 49.7523C48.6205 49.382 48.7767 48.9717 48.891 48.5342ZM40.7303 65.9282C40.4799 66.2121 40.2585 66.5491 40.0732 66.9284C39.8797 67.301 39.7235 67.7135 39.6093 68.153C40.1044 67.5669 40.4904 66.8009 40.7303 65.9282ZM56.2527 64.3061C56.0022 64.5901 55.7809 64.927 55.5955 65.3063C55.4021 65.6789 55.2459 66.0914 55.1317 66.5309C55.6268 65.9448 56.0128 65.1788 56.2527 64.3061ZM48.4915 77.2699C48.2431 77.5572 48.022 77.8937 47.8344 78.2701C47.6432 78.6438 47.4884 79.0561 47.3748 79.4947C47.6243 79.2067 47.8456 78.8679 48.0319 78.4881C48.2315 78.1112 48.3922 77.692 48.5087 77.2443L48.4915 77.2699ZM57.0816 51.2398L56.8927 51.586C56.6993 51.9563 56.543 52.3667 56.4288 52.8041C56.6804 52.5196 56.9019 52.1803 57.0859 51.7976C57.1289 51.7078 57.1675 51.618 57.2148 51.5283L57.0816 51.2398ZM59.3366 60.985C59.1441 60.6142 58.9187 60.2842 58.6665 60.0041C58.4162 59.7187 58.14 59.4878 57.8462 59.3181C58.2405 60.053 58.7533 60.6265 59.3366 60.985ZM39.5792 77.1481C39.3864 76.7755 39.1594 76.4453 38.9049 76.1672C38.6568 75.8785 38.3819 75.6452 38.0889 75.4747C38.2791 75.8486 38.5048 76.1791 38.7589 76.4557C39.0178 76.7343 39.301 76.9587 39.6007 77.1225L39.5792 77.1481ZM59.7661 77.6546C59.376 76.9117 58.862 76.3347 58.2757 75.9812C58.4662 76.3568 58.6936 76.6875 58.95 76.9622C59.2018 77.2429 59.4796 77.4675 59.7746 77.629L59.7661 77.6546ZM45.8414 57.5101C45.6475 57.1391 45.4206 56.8091 45.1671 56.5291C44.9189 56.2425 44.644 56.0114 44.3511 55.8431C44.5414 56.215 44.7671 56.5434 45.0211 56.8177C45.2713 57.1051 45.5475 57.3382 45.8414 57.5101ZM51.5711 86.3612C51.1767 85.6263 50.664 85.0528 50.0807 84.6943C50.2709 85.0681 50.4966 85.3986 50.7507 85.6752C51.0011 85.9606 51.2773 86.1916 51.5711 86.3612ZM49.853 68.6274C49.6695 68.2516 49.4495 67.9189 49.2002 67.64C48.9506 67.3513 48.6743 67.1181 48.3798 66.9476C48.7724 67.6867 49.2856 68.2629 49.8702 68.621L49.853 68.6274ZM43.3718 82.8735C42.982 82.1327 42.4699 81.556 41.8857 81.2001C42.0759 81.574 42.3016 81.9044 42.5557 82.181C42.8086 82.4677 43.0878 82.6987 43.3847 82.867L43.3718 82.8735Z" fill="white"/>
<path d="M57.936 53.0542C58.4913 54.1683 59.006 55.3261 59.4779 56.5228C59.2847 55.8496 59.1 55.17 58.9411 54.4711H58.9711C59.1386 54.9648 59.3104 55.4521 59.4479 55.965C59.5853 56.4779 59.6927 56.8882 59.8087 57.3498C60.3456 58.7603 60.9726 60.1836 61.2432 61.7673C61.4704 63.1961 61.4497 64.6878 61.1831 66.1013C61.0438 66.8299 60.8538 67.5348 60.6161 68.2043C60.4281 68.8123 60.1774 69.3726 59.8731 69.8648C60.0492 71.3458 60.1652 72.8525 60.3026 74.3528C60.4641 75.8082 60.5659 77.277 60.6076 78.751C60.6076 78.7714 60.6021 78.7909 60.5925 78.8054C60.5828 78.8198 60.5697 78.8279 60.556 78.8279C60.5423 78.8279 60.5292 78.8198 60.5196 78.8054C60.5099 78.7909 60.5045 78.7714 60.5045 78.751L60.44 78.4432C60.4365 78.4357 60.4346 78.4267 60.4346 78.4176C60.4346 78.4084 60.4365 78.3995 60.44 78.3919C60.2499 77.0296 60.1065 75.6536 60.0105 74.2694C59.8817 72.8461 59.6412 69.884 59.6369 69.8712C59.6326 69.8584 60.0921 68.6274 60.2682 68.0632C60.4872 67.3753 60.6626 66.6584 60.7922 65.9218C61.0674 64.5364 61.0882 63.0661 60.8524 61.6647C60.5169 60.1673 60.0673 58.7324 59.5123 57.3883C58.9754 55.9521 58.4214 54.5288 57.8673 53.1055C57.8501 53.067 57.9102 53.0222 57.936 53.0542Z" fill="#263238"/>
<path d="M45.463 48.0724C40.9531 57.1894 32.3372 78.7572 35.2278 83.508C39.9825 91.3171 51.4159 97.9208 54.9851 99.3697C56.5228 100.011 61.6682 83.2131 60.2079 81.9116C58.4555 80.3408 46.2103 74.7501 46.2447 73.1986C46.2447 72.3138 47.5332 64.9151 48.5855 55.4263C49.7924 44.4179 47.6148 43.7319 45.463 48.0724Z" fill="#DD6A57"/>
<path d="M55.6171 80.437C55.6171 80.437 58.3745 79.1034 61.2651 77.148C62.8758 76.058 65.7492 74.5834 67.1794 74.5834C69.327 74.5834 78.2521 76.6864 77.9601 79.9305C77.6938 82.8669 70.1731 79.6164 70.1731 79.6164C70.1731 79.6164 77.9772 81.8732 77.2041 85.3225C76.431 88.7718 68.2747 83.3991 68.2747 83.3991C68.2747 83.3991 76.242 86.0021 75.0867 89.3745C74.2276 91.939 66.6254 87.6947 66.6254 87.6947C66.6254 87.6947 73.4631 90.0092 72.6385 92.6827C71.7322 95.6448 64.5637 92.4006 64.5637 92.4006C61.7075 98.6838 57.2879 101.133 54.1697 98.9979C53.6672 98.6709 55.6171 80.437 55.6171 80.437Z" fill="#DD6A57"/>
<path d="M67.5093 78.5522C68.4328 78.7702 69.3648 78.9817 70.271 79.3215C71.1773 79.6613 72.075 80.046 72.9555 80.5141C74.1128 81.0859 75.2224 81.8539 76.2627 82.8029C74.3342 81.3219 71.1086 80.0268 70.198 79.687C69.2875 79.3472 68.4027 78.9433 67.5007 78.6035C67.4792 78.5971 67.4878 78.5522 67.5093 78.5522Z" fill="#263238"/>
<path d="M66.6297 83.4119C67.7979 83.7646 68.9662 84.0531 70.1259 84.4826C71.2855 84.9122 72.3464 85.47 73.476 86.0149C73.5619 86.0598 73.519 86.1175 73.4331 86.0791C72.2863 85.5982 71.2039 85.2905 70.0571 84.8288C68.9104 84.3672 67.7765 83.8479 66.6211 83.4504L66.6297 83.4119Z" fill="#263238"/>
<path d="M65.3754 87.3742C67.1747 87.854 68.9363 88.6081 70.6325 89.6246C70.7184 89.6759 70.6583 89.7336 70.5681 89.6951C68.8286 88.9001 67.4671 88.2526 65.3625 87.4704C65.3324 87.4576 65.3367 87.3678 65.3754 87.3742Z" fill="#263238"/>
<path d="M62.9743 76.103C63.4337 75.695 63.9167 75.3495 64.4175 75.0708C64.8791 74.7819 65.3542 74.5441 65.8391 74.3591C66.8892 73.9596 67.9838 73.8941 69.0519 74.1668C71.6125 74.79 74.1085 75.9041 76.478 77.4814C76.5167 77.4814 76.5038 77.6225 76.478 77.6032C74.4679 76.7954 72.2732 75.5131 69.2022 74.8207C68.1512 74.5469 67.0755 74.5622 66.0281 74.8656C65.4909 75.0509 64.9604 75.2778 64.4389 75.5452C63.9708 75.7696 63.5112 76.0773 63.0345 76.2376C63.0225 76.2495 63.0079 76.2539 62.9938 76.2496C62.9797 76.2454 62.9673 76.233 62.9593 76.2152C62.9513 76.1973 62.9484 76.1755 62.9512 76.1544C62.9541 76.1334 62.9624 76.1149 62.9743 76.103Z" fill="#263238"/>
<path d="M34.1113 80.4114L46.6229 72.8139C47.6357 66.4357 48.4086 59.9779 48.9379 53.4708C49.6208 44.1615 47.9758 41.7572 43.5777 51.4384C39.1795 61.1195 34.5967 73.4358 34.1113 80.4114Z" fill="#FFC727"/>
<path d="M44.209 51.041C44.1462 50.835 44.0973 50.6202 44.0629 50.3998C44.1173 50.2801 44.1732 50.1647 44.2304 50.0536C44.2522 50.3827 44.2449 50.7147 44.209 51.041ZM44.2863 64.1586C44.239 64.624 44.239 65.0973 44.2863 65.5627C44.3253 66.0271 44.4092 66.4806 44.5354 66.9091C44.5805 66.4456 44.5805 65.9749 44.5354 65.5114C44.4942 65.0456 44.4104 64.5904 44.2863 64.1586ZM43.0364 73.9808C43.6644 74.0962 44.3016 73.9613 44.8833 73.5897C44.5714 73.5223 44.2546 73.5223 43.9427 73.5897C43.6296 73.655 43.3244 73.7867 43.0364 73.9808ZM40.3434 59.0167L40.1888 59.395H40.3262C40.6387 59.3368 40.9439 59.2115 41.2325 59.0231C40.938 58.9536 40.6382 58.9514 40.3434 59.0167ZM48.8906 48.5341C48.6411 48.8198 48.4199 49.1565 48.2334 49.5343C48.0413 49.9071 47.8865 50.3196 47.7739 50.7589C48.0221 50.4709 48.2419 50.132 48.4267 49.7523C48.6201 49.382 48.7763 48.9716 48.8906 48.5341ZM40.7299 65.9282C40.4795 66.2121 40.2581 66.549 40.0728 66.9283C39.8794 67.3009 39.7231 67.7134 39.6089 68.1529C40.1041 67.5669 40.4901 66.8008 40.7299 65.9282ZM39.5832 77.1481C39.3903 76.7755 39.1633 76.4453 38.9088 76.1671C38.6608 75.8784 38.3859 75.6452 38.0928 75.4747C38.283 75.8486 38.5087 76.179 38.7628 76.4556C39.0203 76.7338 39.3021 76.9581 39.6003 77.1224L39.5832 77.1481ZM45.8411 57.51C45.6471 57.139 45.4202 56.809 45.1667 56.5291C44.9185 56.2425 44.6436 56.0113 44.3507 55.8431C44.541 56.215 44.7667 56.5433 45.0207 56.8176C45.2709 57.105 45.5471 57.3382 45.8411 57.51Z" fill="white"/>
<path d="M48.8261 59.2411C48.6505 59.7813 48.5068 60.3434 48.3966 60.9209C48.3494 61.1132 48.3107 61.312 48.2678 61.5043C48.3752 60.4272 48.4782 59.3437 48.577 58.2602C48.577 58.1896 48.5126 58.1576 48.504 58.2602C48.1862 60.7029 46.7302 72.1664 46.6657 72.7563C46.6271 72.7563 46.2362 73.0961 46.2147 73.0897C46.1933 73.0832 46.2147 73.2115 46.2448 73.1858C46.2749 73.1602 46.7473 72.846 46.7473 72.8396C46.9062 72.3203 48.0359 63.5752 48.1647 62.5109C48.1822 62.4652 48.1979 62.4181 48.212 62.3699C48.2506 62.216 48.285 62.0621 48.3236 61.9146C48.3966 61.6325 48.4568 61.3504 48.5255 61.0683C48.675 60.4899 48.797 59.8964 48.8906 59.2924C48.8951 59.2796 48.8961 59.2647 48.8933 59.2509C48.8905 59.2371 48.8841 59.2255 48.8755 59.2187C48.867 59.2119 48.857 59.2104 48.8477 59.2146C48.8385 59.2188 48.8307 59.2283 48.8261 59.2411Z" fill="#263238"/>
<path d="M46.3994 70.711C45.9036 70.8836 45.4146 71.0977 44.9348 71.3521C44.4495 71.5829 43.9598 71.7945 43.4745 72.0317C42.5425 72.4869 41.619 72.9806 40.6956 73.4935C38.84 74.4876 37.0194 75.6217 35.2408 76.8916C35.2022 76.8916 35.2408 77.0134 35.2709 76.9941C37.1564 76.0068 39.0119 74.8912 40.8846 73.8462L43.6506 72.3138L45.0293 71.5317C45.4889 71.2816 45.9828 71.0829 46.4209 70.7687C46.4467 70.7559 46.4252 70.7046 46.3994 70.711Z" fill="#263238"/>
<path d="M49.1437 44.8411C49.2468 45.54 51.4329 50.0792 53.559 49.9702C54.2505 49.9318 54.2806 44.2769 54.2806 44.2769L54.345 43.8602L55.2641 38.0259L50.6942 33.5379L50.0371 32.9481C50.0371 32.9481 49.8524 34.5701 49.6419 36.5897C49.6419 36.6795 49.6204 36.7756 49.6118 36.8782C49.6033 36.9808 49.5818 37.0962 49.5732 37.2052C49.5388 37.5065 49.5045 37.8463 49.4744 38.122C49.4443 38.3977 49.4272 38.5837 49.41 38.8337C49.3928 39.0837 49.3713 39.321 49.3455 39.5646C49.196 41.3143 49.1286 43.0774 49.1437 44.8411Z" fill="#DD6A57"/>
<path d="M49.6289 36.5897C50.0148 38.2416 50.6375 39.7479 51.4535 41.0036C52.2695 42.2593 53.2591 43.2341 54.3535 43.8602L55.2726 38.0259L50.7027 33.5379L50.0455 32.9481C50.0455 32.9481 49.8522 34.5701 49.6289 36.5897Z" fill="#263238"/>
<path d="M60.9121 28.8C61.814 39.2313 57.7337 41.2188 56.2261 41.5073C54.856 41.7702 50.1787 42.4049 48.5552 32.1659C46.9316 21.927 49.8952 18.0096 53.0006 17.1569C56.1059 16.3042 60.0058 18.4007 60.9121 28.8Z" fill="#DD6A57"/>
<path d="M59.7697 27.1907C59.6071 27.1781 59.4451 27.1524 59.2844 27.1137C59.1113 27.1259 58.9405 27.0514 58.799 26.9022C58.7614 26.8416 58.7381 26.7643 58.7327 26.6821C58.7272 26.5999 58.74 26.5173 58.7689 26.4469C58.8399 26.3202 58.9323 26.2243 59.0366 26.169C59.1408 26.1137 59.2531 26.1012 59.3617 26.1328C59.589 26.1468 59.8048 26.2861 59.9673 26.5239C60.0024 26.5808 60.0257 26.6519 60.0341 26.7283C60.0426 26.8047 60.0359 26.8831 60.0149 26.954C59.9939 27.0248 59.9596 27.0849 59.916 27.127C59.8724 27.169 59.8216 27.1912 59.7697 27.1907Z" fill="#263238"/>
<path d="M54.964 27.9343C55.1198 27.8721 55.2732 27.7972 55.4236 27.7099C55.5898 27.662 55.7408 27.5335 55.8531 27.3445C55.8824 27.2754 55.8954 27.1937 55.8899 27.1123C55.8845 27.031 55.8609 26.9547 55.823 26.8957C55.7355 26.793 55.631 26.7275 55.5207 26.7061C55.4103 26.6846 55.2981 26.7081 55.1959 26.7739C54.9769 26.8582 54.7869 27.0617 54.6633 27.3445C54.6353 27.4128 54.6217 27.4922 54.6244 27.5722C54.627 27.6523 54.6459 27.7292 54.6784 27.793C54.7109 27.8568 54.7556 27.9044 54.8065 27.9296C54.8575 27.9549 54.9124 27.9565 54.964 27.9343Z" fill="#263238"/>
<path d="M56.2565 30.3257C56.2565 30.3257 56.2221 30.3642 56.2264 30.3963C56.3037 31.1015 56.3123 31.9286 55.9043 32.2492C55.9043 32.2492 55.9043 32.294 55.9043 32.2876C56.424 32.0761 56.4068 30.9733 56.2565 30.3257Z" fill="#263238"/>
<path d="M55.7672 29.6656C54.9941 29.7297 55.1359 32.0314 55.8531 31.9737C56.5704 31.916 56.4158 29.6143 55.7672 29.6656Z" fill="#263238"/>
<path d="M55.4711 29.8321C55.3465 29.9795 55.2263 30.2232 55.0674 30.2745C54.9085 30.3257 54.7238 30.1013 54.5863 29.8898H54.5605C54.5863 30.3257 54.7281 30.7681 55.0459 30.7874C55.3637 30.8066 55.5226 30.3899 55.5699 29.9347C55.5785 29.8834 55.5226 29.768 55.4711 29.8321Z" fill="#263238"/>
<path d="M58.9026 29.8129C58.9026 29.8129 58.9413 29.8129 58.9456 29.8706C58.9671 30.5887 59.0787 31.3965 59.5254 31.5825V31.6209C58.9885 31.5761 58.8511 30.4989 58.9026 29.8129Z" fill="#263238"/>
<path d="M59.2891 29.0114C60.0536 28.8319 60.2426 31.1272 59.5339 31.2938C58.8252 31.4605 58.6491 29.1653 59.2891 29.0114Z" fill="#263238"/>
<path d="M59.6237 29.1076C59.7526 29.2038 59.89 29.4025 60.0533 29.3897C60.2165 29.3769 60.3281 29.1076 60.4183 28.8511C60.4183 28.8511 60.4183 28.8511 60.4441 28.8511C60.487 29.2871 60.4441 29.7615 60.152 29.8962C59.86 30.0308 59.6796 29.6782 59.5722 29.255C59.5378 29.1973 59.5679 29.0627 59.6237 29.1076Z" fill="#263238"/>
<path d="M56.5619 36.1857C56.6822 36.346 56.8025 36.5704 56.9914 36.5768C57.1685 36.561 57.3413 36.4888 57.4983 36.3652C57.4983 36.3652 57.5326 36.3652 57.524 36.3652C57.4596 36.5103 57.3701 36.6268 57.265 36.7024C57.16 36.778 57.0432 36.8099 56.927 36.7948C56.8282 36.7638 56.7377 36.6901 56.6667 36.583C56.5957 36.4759 56.5473 36.3399 56.5276 36.1921C56.5018 36.1793 56.5447 36.1665 56.5619 36.1857Z" fill="#263238"/>
<path d="M58.3785 33.3071C58.3785 33.3071 58.5503 34.3522 58.5846 34.8522C58.5846 34.9035 58.5073 34.9356 58.3957 34.9612C58.1129 35.0851 57.8129 35.0908 57.5281 34.9778C57.2434 34.8647 56.9849 34.6372 56.7807 34.3201C56.7549 34.2752 56.7807 34.2175 56.8279 34.2432C57.2856 34.6144 57.8116 34.7539 58.3269 34.6407C58.3269 34.4996 57.9919 32.8647 58.0478 32.8455C58.3113 32.8427 58.574 32.8901 58.8295 32.9865C58.5116 30.7874 57.9704 28.6781 57.6698 26.4854C57.6691 26.47 57.6718 26.4548 57.6775 26.4419C57.6832 26.4291 57.6916 26.4194 57.7013 26.4143C57.7111 26.4092 57.7216 26.409 57.7315 26.4138C57.7413 26.4185 57.7498 26.4279 57.7557 26.4405C58.3914 28.6709 58.8763 30.9905 59.2031 33.3648C59.2375 33.6405 58.5202 33.3712 58.3785 33.3071Z" fill="#263238"/>
<path d="M49.221 32.4351C50.3549 32.3774 50.3463 28.8127 50.3463 28.8127C50.3463 28.8127 52.6313 28.4408 53.0136 23.4079C53.0607 24.8888 52.8158 26.3578 52.3092 27.633C52.3092 27.633 56.2907 26.3187 57.6093 21.0037C57.6093 21.0037 57.124 23.6772 56.557 24.6966C57.5444 24.0591 58.3576 22.9402 58.8635 21.523C58.8635 21.523 59.7912 24.3055 60.3925 25.0172C60.3925 25.0172 59.4304 14.5218 52.9835 16.7401C52.9835 16.7401 48.9247 17.8364 47.8294 22.9142C46.7342 27.992 49.221 32.4351 49.221 32.4351Z" fill="#263238"/>
<path d="M55.2389 34.3842C54.83 34.3888 54.4284 34.2222 54.0798 33.9032C53.7312 33.5843 53.4495 33.1258 53.2667 32.5798C53.084 32.0338 53.0074 31.4223 53.0458 30.8146C53.0842 30.207 53.2359 29.6276 53.4839 29.1422C53.7318 28.6568 54.0659 28.285 54.4483 28.0689C54.8307 27.8528 55.2461 27.8011 55.6471 27.9198C56.0482 28.0384 56.419 28.3225 56.7173 28.7399C57.0157 29.1573 57.2296 29.6912 57.3348 30.2809C57.4828 31.1192 57.4016 32.0109 57.1092 32.7599C56.8169 33.5089 56.3372 34.054 55.7757 34.2752C55.6003 34.3429 55.4201 34.3795 55.2389 34.3842ZM55.2131 28.287C55.0552 28.2888 54.898 28.319 54.7449 28.3768C54.2761 28.557 53.8709 28.9973 53.6119 29.608C53.3529 30.2186 53.2596 30.9537 53.351 31.6634C53.4424 32.3731 53.7116 33.0042 54.1038 33.4279C54.496 33.8517 54.9817 34.0364 55.4619 33.9443C55.9421 33.8523 56.3808 33.4904 56.6885 32.9324C56.9962 32.3744 57.1499 31.6623 57.1182 30.9412C57.0864 30.22 56.8717 29.544 56.5178 29.0509C56.1638 28.5577 55.6972 28.2846 55.2131 28.287Z" fill="#FFC727"/>
<path d="M60.2165 33.4097C59.3575 33.4097 58.6145 32.1274 58.4684 30.4541C58.3933 29.6489 58.4879 28.8288 58.739 28.1075C58.8339 27.7868 58.9828 27.5083 59.1712 27.2989C59.3595 27.0895 59.581 26.9564 59.814 26.9125C60.047 26.8686 60.2836 26.9155 60.5009 27.0485C60.7182 27.1815 60.9088 27.3961 61.0541 27.6715C61.4173 28.2794 61.644 29.0416 61.7026 29.8514C61.8529 31.6337 61.2516 33.2238 60.3583 33.3905C60.3115 33.4032 60.2641 33.4097 60.2165 33.4097ZM59.9588 27.3317H59.8514C59.667 27.3795 59.4928 27.4922 59.3434 27.6606C59.194 27.829 59.0737 28.0481 58.9924 28.2998C58.7713 28.9435 58.6902 29.6742 58.7605 30.3899C58.8893 31.9351 59.5894 33.0827 60.3239 32.9545C61.0584 32.8263 61.5437 31.4478 61.4105 29.8963C61.3581 29.1823 61.1585 28.5102 60.8393 27.9729C60.7302 27.781 60.5956 27.6249 60.4441 27.5145C60.2925 27.4042 60.1273 27.3419 59.9588 27.3317Z" fill="#FFC727"/>
<path d="M57.2958 30.672L57.0811 30.3771C57.3731 29.9026 58.0904 29.2038 58.6917 29.9475L58.5027 30.2873C57.9658 29.6141 57.3216 30.6271 57.2958 30.672Z" fill="#FFC727"/>
<path d="M48.1304 33.3583L47.8555 33.2109C47.9027 33.0185 48.3365 31.3324 48.9679 31.0567C49.5993 30.781 53.0611 30.5758 53.2286 30.563V31.0054C51.8295 31.0488 50.433 31.2051 49.0452 31.4734C48.6329 31.6593 48.2463 32.8967 48.1304 33.3583Z" fill="#FFC727"/>
<path d="M48.8775 36.0192C48.9831 36.0729 49.0927 36.1073 49.2039 36.1218C49.3149 36.1476 49.4279 36.1476 49.5389 36.1218C49.6816 36.0921 49.818 36.0155 49.9384 35.8974C50.0342 35.8097 50.121 35.7017 50.1961 35.5768C50.3038 35.3867 50.3881 35.1697 50.4452 34.9357L49.977 32.1531C49.977 32.1531 48.3449 28.9475 47.3742 29.8515C46.4035 30.7555 47.6877 35.4422 48.8775 36.0192Z" fill="#DD6A57"/>
<path d="M47.7607 31.2234V31.2683C48.6198 31.7171 49.0493 32.8263 49.3972 33.9803C49.3455 33.8612 49.2773 33.7601 49.1971 33.6838C49.117 33.6076 49.0267 33.5581 48.9326 33.5386C48.8384 33.5191 48.7425 33.5302 48.6515 33.571C48.5605 33.6118 48.4764 33.6815 48.405 33.7752C48.405 33.7752 48.405 33.8521 48.4308 33.8393C48.5731 33.7605 48.7283 33.7503 48.8747 33.8101C49.0211 33.87 49.1512 33.9967 49.2468 34.1727C49.4119 34.4657 49.5558 34.7837 49.6763 35.1216C49.7193 35.2306 49.8524 35.16 49.8181 35.0382C49.7665 33.4225 48.8903 31.294 47.7607 31.2234Z" fill="#263238"/>
<path d="M48.9597 35.5704C48.9751 35.6639 49.0087 35.7485 49.0562 35.8136C49.1038 35.8786 49.1632 35.9211 49.227 35.9358C49.2907 35.9505 49.3559 35.9367 49.4144 35.896C49.4729 35.8554 49.522 35.7898 49.5556 35.7076C49.5891 35.6253 49.6056 35.5301 49.6029 35.4339C49.6002 35.3377 49.5784 35.2449 49.5404 35.1671C49.5024 35.0893 49.4498 35.0301 49.3893 34.9969C49.3287 34.9637 49.2629 34.958 49.2002 34.9805C49.1164 35.0124 49.0444 35.092 48.9994 35.2023C48.9544 35.3125 48.9402 35.4447 48.9597 35.5704Z" fill="white"/>
<path d="M48.268 34.8779C48.2842 34.965 48.3222 35.0396 48.3741 35.0861C48.4261 35.1327 48.488 35.1476 48.5472 35.1279C48.607 35.1066 48.6586 35.0507 48.6908 34.9726C48.7231 34.8945 48.7332 34.8004 48.719 34.7112C48.712 34.6671 48.6991 34.6256 48.6812 34.5891C48.6633 34.5525 48.6406 34.5217 48.6146 34.4984C48.5886 34.4751 48.5598 34.4598 48.5297 34.4534C48.4997 34.447 48.4691 34.4496 48.4398 34.4611C48.38 34.4824 48.3283 34.5383 48.2961 34.6164C48.2639 34.6946 48.2538 34.7886 48.268 34.8779Z" fill="white"/>
<path d="M54.2892 44.7256L53.2369 49.4957L49.1136 43.9819L48.0957 45.9695C48.0957 45.9695 52.2877 54.9454 52.292 54.535L53.4044 50.3997L55.3801 53.0156L54.9249 46.0272L54.2892 44.7256Z" fill="#EBEBEB"/>
<path d="M55.2855 49.5471C55.1867 48.3931 55.1051 47.2326 54.9677 46.0914C54.9677 46.0529 54.9204 46.0337 54.9161 46.0914C54.8087 47.2198 55.2082 51.618 55.2511 52.6759C55.1695 52.5669 53.4257 50.387 53.4128 50.4255C53.1594 51.0666 52.3434 54.0992 52.2918 54.3749C51.6304 52.9452 49.1006 47.7648 48.3318 46.4312C48.306 46.3927 48.2674 46.4312 48.2845 46.4761C48.8815 47.9892 52.236 54.9712 52.2789 54.9455C52.7182 53.5226 53.1054 52.0651 53.4386 50.5794C53.7393 51.0602 55.5088 53.535 55.5088 53.3619C55.4799 52.0853 55.4053 50.8119 55.2855 49.5471Z" fill="#263238"/>
<path d="M135.44 55.234H85.7637V150.43H135.44V55.234Z" fill="#EBEBEB"/>
<path d="M135.441 150.43L110.641 150.558L85.7642 150.629H85.6267V150.424L85.5537 55.2275V54.9454H85.7642L135.441 55.0224H135.604V55.2596L135.531 102.896L135.441 150.43ZM135.441 150.43L135.334 102.768L135.282 55.2339L135.441 55.4776L85.7642 55.5481L85.9746 55.2339L85.8973 150.43L85.7642 150.225L110.568 150.302L135.441 150.43Z" fill="#DBDBDB"/>
<path d="M91.1973 75.5832L110.602 75.5066L130.007 75.5832L110.602 75.6535L91.1973 75.5832Z" fill="#C7C7C7"/>
<path d="M91.1973 77.9426L110.602 77.8724L130.007 77.9426L110.602 78.0193L91.1973 77.9426Z" fill="#C7C7C7"/>
<path d="M91.1973 80.3086L110.602 80.2319L130.007 80.3086L110.602 80.3788L91.1973 80.3086Z" fill="#C7C7C7"/>
<path d="M91.1973 82.668L110.602 82.5978L130.007 82.668L110.602 82.7383L91.1973 82.668Z" fill="#C7C7C7"/>
<path d="M91.1973 85.0337L110.602 84.957L130.007 85.0337L110.602 85.1039L91.1973 85.0337Z" fill="#C7C7C7"/>
<path d="M91.1973 87.3931L110.602 87.3228L130.007 87.3931L110.602 87.4633L91.1973 87.3931Z" fill="#C7C7C7"/>
<path d="M91.1973 89.7524L110.602 89.6821L130.007 89.7524L110.602 89.829L91.1973 89.7524Z" fill="#C7C7C7"/>
<path d="M91.1973 92.1182L110.602 92.0479L130.007 92.1182L110.602 92.1884L91.1973 92.1182Z" fill="#C7C7C7"/>
<path d="M91.1973 94.4777L110.602 94.4075L130.007 94.4777L110.602 94.5544L91.1973 94.4777Z" fill="#C7C7C7"/>
<path d="M91.1973 96.8434L110.602 96.7667L130.007 96.8434L110.602 96.9136L91.1973 96.8434Z" fill="#C7C7C7"/>
<path d="M91.1973 99.2028L110.602 99.1326L130.007 99.2028L110.602 99.2795L91.1973 99.2028Z" fill="#C7C7C7"/>
<path d="M91.1973 101.568L110.602 101.492L130.007 101.568L110.602 101.639L91.1973 101.568Z" fill="#C7C7C7"/>
<path d="M91.1973 103.928L110.602 103.858L130.007 103.928L110.602 104.005L91.1973 103.928Z" fill="#C7C7C7"/>
<path d="M91.1973 106.294L110.602 106.217L130.007 106.294L110.602 106.364L91.1973 106.294Z" fill="#C7C7C7"/>
<path d="M91.1973 108.653L110.602 108.583L130.007 108.653L110.602 108.73L91.1973 108.653Z" fill="#C7C7C7"/>
<path d="M98.2449 101.492H95.3027V111.404H98.2449V101.492Z" fill="#FFC727"/>
<path d="M103.704 96.2026H100.762V111.404H103.704V96.2026Z" fill="#FFC727"/>
<path d="M109.163 90.2848H106.221V111.41H109.163V90.2848Z" fill="#FFC727"/>
<path d="M114.623 87.746H111.681V111.41H114.623V87.746Z" fill="#FFC727"/>
<path d="M120.082 83.2131H117.14V111.41H120.082V83.2131Z" fill="#FFC727"/>
<path d="M125.541 78.7316H122.599V111.404H125.541V78.7316Z" fill="#FFC727"/>
<path d="M92.2497 73.9232L92.327 83.2966L92.3786 92.6636C92.4172 98.9147 92.4258 105.159 92.4344 111.41L92.2497 111.135H101.699L111.148 111.167L120.597 111.257L130.046 111.417L120.597 111.577L111.148 111.667H101.699H92.2497H92.0693V111.398C92.0693 105.149 92.0865 98.8997 92.1209 92.6508L92.1767 83.2837L92.2497 73.9232Z" fill="#C7C7C7"/>
<path d="M98.2449 113.391H95.3027V113.789H98.2449V113.391Z" fill="#C7C7C7"/>
<path d="M103.704 113.391H100.762V113.789H103.704V113.391Z" fill="#C7C7C7"/>
<path d="M109.163 113.391H106.221V113.789H109.163V113.391Z" fill="#C7C7C7"/>
<path d="M114.623 113.391H111.681V113.789H114.623V113.391Z" fill="#C7C7C7"/>
<path d="M120.082 113.391H117.14V113.789H120.082V113.391Z" fill="#C7C7C7"/>
<path d="M125.541 113.391H122.599V113.789H125.541V113.391Z" fill="#C7C7C7"/>
<path d="M95.6338 102.742C97.0706 102.71 98.5049 102.549 99.9289 102.261C101.357 101.983 102.775 101.598 104.177 101.107C106.973 100.166 109.686 98.7392 112.26 96.8565C114.841 95.0003 117.222 92.5801 119.325 89.6758L119.725 89.1372L120.103 88.5666L120.85 87.419C121.314 86.6047 121.812 85.8289 122.233 84.9634C123.125 83.2786 123.931 81.4978 124.647 79.6356H124.668C122.713 85.4622 119.801 90.4539 116.203 94.1445C115.012 95.3784 113.76 96.4757 112.458 97.4271C107.219 101.165 101.459 102.987 95.6553 102.742H95.6338Z" fill="#263238"/>
<path d="M125.471 82.7065L125.063 82.8603L124.561 79.8598L122.594 80.8279L122.465 80.2317L124.861 79.0584L125.471 82.7065Z" fill="#263238"/>
<path d="M90.3678 128.586H130.836V126.144L90.3678 126.144V128.586Z" fill="#DBDBDB"/>
<path d="M90.368 134.76H113.153V132.318H90.368V134.76Z" fill="#DBDBDB"/>
<path d="M99.2069 68.1978H121.992V65.755H99.2069V68.1978Z" fill="#DBDBDB"/>
<path d="M126.051 173.639L77.3883 188.565L64.5547 95.3179L100.685 84.239L115.662 98.1645L126.051 173.639Z" fill="#FFC727"/>
<path opacity="0.8" d="M126.051 173.639L77.3883 188.565L64.5547 95.3179L100.685 84.239L115.662 98.1645L126.051 173.639Z" fill="white"/>
<path d="M100.685 84.239L115.661 98.1645L103.128 102.005L100.685 84.239Z" fill="#FFC727"/>
<path d="M71.7834 111.9L98.8398 103.602L98.5105 101.209L71.4541 109.507L71.7834 111.9Z" fill="#DBDBDB"/>
<path d="M72.6125 117.942L99.6689 109.644L99.3396 107.251L72.2832 115.549L72.6125 117.942Z" fill="#DBDBDB"/>
<path d="M73.4514 123.982L100.508 115.684L100.178 113.292L73.122 121.589L73.4514 123.982Z" fill="#DBDBDB"/>
<path d="M74.2827 130.027L113.923 117.87L113.594 115.477L73.9534 127.634L74.2827 130.027Z" fill="#DBDBDB"/>
<path d="M75.1918 135.752L114.851 123.67L114.523 121.276L74.8645 133.358L75.1918 135.752Z" fill="#DBDBDB"/>
<path d="M75.9458 142.11L115.586 129.953L115.257 127.561L75.6165 139.718L75.9458 142.11Z" fill="#DBDBDB"/>
<path d="M76.7808 148.157L116.421 136L116.092 133.607L76.4514 145.764L76.7808 148.157Z" fill="#DBDBDB"/>
<path d="M77.6108 154.199L117.251 142.042L116.922 139.649L77.2815 151.806L77.6108 154.199Z" fill="#DBDBDB"/>
<path d="M78.4419 160.247L118.082 148.09L117.753 145.697L78.1126 157.854L78.4419 160.247Z" fill="#DBDBDB"/>
<path d="M79.271 166.288L118.911 154.131L118.582 151.738L78.9417 163.895L79.271 166.288Z" fill="#DBDBDB"/>
<path d="M80.1099 172.329L119.75 160.172L119.421 157.779L79.7805 169.936L80.1099 172.329Z" fill="#DBDBDB"/>
<path d="M80.9399 178.377L120.58 166.22L120.251 163.827L80.6106 175.984L80.9399 178.377Z" fill="#DBDBDB"/>
<path d="M225.834 105.865L171.325 111.789C165.119 76.5646 171.755 41.3406 166.932 6.11655L221.432 0.192444C227.642 35.4165 221.002 70.6405 225.834 105.865Z" fill="#EBEBEB"/>
<path d="M225.834 105.864L171.36 112.007H171.231C171.217 111.941 171.205 111.875 171.197 111.808C164.956 76.5902 171.579 41.3661 166.721 6.14209C166.721 6.03951 166.691 5.93051 166.674 5.82793H166.889L221.397 0H221.548C221.559 0.0758408 221.574 0.150739 221.591 0.224399C227.745 35.4036 221.041 70.634 225.834 105.864ZM225.834 105.864C220.938 70.6468 227.552 35.4292 221.29 0.211576L221.479 0.41674L166.974 6.43701L167.142 6.0908C171.957 41.3533 165.278 76.5453 171.437 111.776L171.27 111.59L225.834 105.864Z" fill="#DBDBDB"/>
<path d="M173.512 21.2088L204.114 17.9198C204.183 18.8217 204.243 19.7257 204.294 20.6318L173.653 23.9273C173.611 23.0168 173.563 22.1128 173.512 21.2088Z" fill="#DBDBDB"/>
<path d="M173.816 28.0627L204.513 24.7672C204.55 25.6691 204.585 26.5731 204.616 27.4792L173.889 30.7747C173.868 29.8707 173.842 28.9667 173.816 28.0627Z" fill="#DBDBDB"/>
<path d="M173.959 34.91L204.729 31.6146C204.729 32.5186 204.759 33.4226 204.772 34.3266L173.976 37.6348C173.976 36.718 173.968 35.814 173.959 34.91Z" fill="#DBDBDB"/>
<path d="M173.976 41.7571L219.13 36.9358C219.13 37.8398 219.13 38.7438 219.13 39.6478L173.95 44.4691C173.967 43.5651 173.976 42.6611 173.976 41.7571Z" fill="#DBDBDB"/>
<path d="M173.916 48.6046L219.125 43.7832L219.1 46.4952L173.877 51.323L173.916 48.6046Z" fill="#DBDBDB"/>
<path d="M173.808 55.4583L219.044 50.6306C219.044 51.5346 219.018 52.4386 219.001 53.3426L173.757 58.1511C173.778 57.2663 173.795 56.3623 173.808 55.4583Z" fill="#DBDBDB"/>
<path d="M173.701 62.3056L218.933 57.5099C218.933 58.414 218.907 59.3244 218.89 60.2284L173.667 65.0497C173.68 64.1137 173.688 63.2097 173.701 62.3056Z" fill="#DBDBDB"/>
<path d="M173.633 69.1529L218.855 64.3315C218.855 65.2355 218.834 66.1395 218.825 67.0435L173.641 71.8649C173.624 70.9737 173.624 70.0569 173.633 69.1529Z" fill="#DBDBDB"/>
<path d="M173.637 76.0003L218.778 71.179C218.778 72.083 218.778 72.987 218.778 73.891L173.68 78.7187C173.654 77.8147 173.645 76.9107 173.637 76.0003Z" fill="#DBDBDB"/>
<path d="M173.757 82.8541L218.816 78.0263C218.816 78.9303 218.842 79.8343 218.864 80.7447L173.847 85.5661C173.813 84.6642 173.783 83.7602 173.757 82.8541Z" fill="#DBDBDB"/>
<path d="M174.036 89.7015L218.98 84.8737C219.01 85.7841 219.048 86.6881 219.087 87.5921L174.186 92.4135C174.135 91.4903 174.083 90.6055 174.036 89.7015Z" fill="#DBDBDB"/>
<path d="M174.509 96.5487L219.311 91.7274C219.366 92.6314 219.427 93.5354 219.495 94.4394L174.758 99.2671C174.668 98.3631 174.586 97.4527 174.509 96.5487Z" fill="#DBDBDB"/>
<path d="M218.082 143.57C199.286 138.813 180.705 134.062 162.336 129.317C164.737 94.51 176.505 59.7283 175.904 24.9467C194.699 29.7039 213.281 34.4611 231.65 39.2184C229.266 74 217.48 108.801 218.082 143.57Z" fill="#FFC727"/>
<path opacity="0.8" d="M218.082 143.57C199.286 138.813 180.705 134.062 162.336 129.317C164.737 94.51 176.505 59.7283 175.904 24.9467C194.699 29.7039 213.281 34.4611 231.65 39.2184C229.266 74 217.48 108.801 218.082 143.57Z" fill="white"/>
<path d="M180.525 41.7125C190.713 44.3582 200.854 47.004 210.947 49.6497C210.844 50.5473 210.737 51.4385 210.625 52.3297C200.552 49.6882 190.44 47.0424 180.289 44.3924C180.375 43.5012 180.452 42.6101 180.525 41.7125Z" fill="#DBDBDB"/>
<path d="M179.873 48.4763C189.978 51.122 200.047 53.7678 210.08 56.4135C209.951 57.3111 209.823 58.2023 209.689 59.0935C199.682 56.452 189.639 53.8062 179.56 51.1562C179.667 50.265 179.77 49.3738 179.873 48.4763Z" fill="#DBDBDB"/>
<path d="M179.031 55.2403L209.063 63.1776C208.917 64.0687 208.775 64.9663 208.633 65.8575C198.669 63.2075 188.678 60.5617 178.662 57.9202C178.782 57.0291 178.911 56.1379 179.031 55.2403Z" fill="#DBDBDB"/>
<path d="M178.052 61.9978C192.689 65.8788 207.278 69.7556 221.818 73.628C221.659 74.5192 221.496 75.4104 221.333 76.308C206.796 72.4355 192.225 68.5609 177.622 64.6842C177.751 63.793 177.893 62.9018 178.052 61.9978Z" fill="#DBDBDB"/>
<path d="M176.922 68.7684C191.502 72.6494 206.052 76.5261 220.573 80.3986C220.409 81.2898 220.246 82.181 220.079 83.0785L176.458 71.4483C176.613 70.5571 176.763 69.6916 176.922 68.7684Z" fill="#DBDBDB"/>
<path d="M175.729 75.5324L219.319 87.1626C219.156 88.0538 218.988 88.945 218.825 89.8426L175.243 78.2124C175.406 77.3212 175.57 76.4236 175.729 75.5324Z" fill="#DBDBDB"/>
<path d="M174.491 82.2961L218.086 93.9264C217.923 94.8175 217.764 95.7087 217.605 96.5999C203.048 92.7274 188.51 88.8528 173.993 84.9761C174.161 84.0849 174.324 83.1873 174.491 82.2961Z" fill="#DBDBDB"/>
<path d="M173.241 89.0602C187.77 92.9326 202.323 96.8072 216.901 100.684C216.75 101.582 216.6 102.473 216.471 103.364C201.868 99.4915 187.299 95.6169 172.765 91.7401C172.898 90.8489 173.074 89.9514 173.241 89.0602Z" fill="#DBDBDB"/>
<path d="M172.039 95.8242C186.591 99.6967 201.185 103.571 215.823 107.448C215.685 108.346 215.552 109.237 215.419 110.128C200.747 106.256 186.13 102.381 171.566 98.5042C171.7 97.6066 171.858 96.7154 172.039 95.8242Z" fill="#DBDBDB"/>
<path d="M170.853 102.588C185.456 106.461 200.114 110.335 214.826 114.212C214.706 115.11 214.594 116.001 214.482 116.892C199.716 113.02 185.027 109.145 170.415 105.268C170.557 104.371 170.703 103.479 170.853 102.588Z" fill="#DBDBDB"/>
<path d="M169.784 109.346C184.45 113.227 199.197 117.104 214.023 120.976C213.924 121.867 213.834 122.765 213.748 123.656C198.87 119.784 184.087 115.9 169.397 112.007C169.522 111.135 169.651 110.243 169.784 109.346Z" fill="#DBDBDB"/>
<path d="M168.847 116.11C183.602 119.987 198.447 123.863 213.383 127.74C213.314 128.631 213.254 129.529 213.198 130.42C198.194 126.539 183.304 122.662 168.529 118.79C168.628 117.899 168.735 117.007 168.847 116.11Z" fill="#DBDBDB"/>
<path d="M195.345 129.311H99.0107V233.547H195.345V129.311Z" fill="#FFC727"/>
<path d="M133.049 118.514H99.0107V129.311H135.003L133.049 118.514Z" fill="#FFC727"/>
<g opacity="0.1">
<path d="M195.345 129.311H99.0107V233.547H195.345V129.311Z" fill="black"/>
<path d="M133.049 118.514H99.0107V129.311H135.003L133.049 118.514Z" fill="black"/>
</g>
<path d="M194.688 194.54C175.88 186.507 157.492 178.57 139.389 170.709C143.941 138.941 156.698 107.82 157.565 75.5838C176.356 83.1556 194.731 90.7274 212.843 98.3313C208.209 130.6 195.469 162.015 194.688 194.54Z" fill="#EBEBEB"/>
<path d="M194.687 194.54C175.879 186.571 157.479 178.685 139.363 170.889L139.229 170.831L139.255 170.652C143.791 138.877 156.521 107.743 157.346 75.4941C157.346 75.3979 157.346 75.2953 157.346 75.1992L157.565 75.2889C176.369 82.88 194.752 90.4903 212.843 98.1262L212.993 98.1903C212.993 98.2544 212.993 98.325 212.963 98.3955C208.298 130.657 195.521 162.067 194.687 194.54ZM194.687 194.54C195.418 162.015 208.118 130.6 212.675 98.2673C212.714 98.357 212.752 98.4468 212.795 98.5365C194.705 90.9647 176.335 83.4121 157.557 75.8724L157.784 75.6672C156.869 107.897 144.092 139.005 139.517 170.761L139.414 170.53C157.501 178.448 175.905 186.449 194.687 194.54Z" fill="#DBDBDB"/>
<path d="M191.711 135.517C188.915 146.667 180.441 152.879 172.534 149.391C164.626 145.904 160.482 134.126 163.209 123.041C165.936 111.955 174.093 105.647 182.107 109.064C190.122 112.481 194.542 124.361 191.711 135.517Z" fill="#455A64"/>
<path d="M177.468 129.266C174.225 134.793 170.944 140.307 167.744 145.82C165.43 143.277 163.736 139.677 162.917 135.566C162.099 131.455 162.201 127.057 163.208 123.041C165.897 112.007 174.143 105.666 182.107 109.064C190.07 112.462 194.532 124.451 191.719 135.517C186.969 133.427 182.218 131.344 177.468 129.266Z" fill="#DBDBDB"/>
<path d="M177.468 129.266C180.294 134.94 183.09 140.614 185.946 146.308C183.998 148.255 181.787 149.54 179.469 150.073C177.151 150.606 174.784 150.373 172.533 149.392C164.639 145.936 160.507 134.056 163.208 123.041C165.91 112.026 174.144 105.666 182.107 109.064C190.07 112.462 194.532 124.451 191.719 135.517C186.969 133.427 182.218 131.344 177.468 129.266Z" fill="#DBDBDB"/>
<path d="M177.469 129.266L162.526 132.985C162.194 129.637 162.429 126.219 163.209 123.041C165.898 112.007 174.144 105.666 182.107 109.064C190.07 112.462 194.533 124.451 191.72 135.517C186.969 133.427 182.219 131.344 177.469 129.266Z" fill="#FFC727"/>
<path d="M161.817 89.5671C169.454 92.7344 177.034 95.9037 184.559 99.0752C184.426 99.9023 184.293 100.723 184.151 101.544C176.649 98.3678 169.101 95.1963 161.508 92.0291C161.615 91.2084 161.731 90.3878 161.817 89.5671Z" fill="#DBDBDB"/>
<path d="M160.094 153.078C170.153 157.51 180.267 161.958 190.435 166.42C190.284 167.241 190.134 168.061 190.005 168.882C179.791 164.407 169.647 159.953 159.57 155.521C159.734 154.707 159.914 153.892 160.094 153.078Z" fill="#DBDBDB"/>
<path d="M158.78 159.239C168.905 163.685 179.1 168.151 189.365 172.639C189.237 173.46 189.112 174.287 188.992 175.108C178.684 170.607 168.451 166.132 158.295 161.682C158.454 160.868 158.613 160.054 158.78 159.239Z" fill="#DBDBDB"/>
<path d="M157.604 165.407C167.809 169.874 178.103 174.362 188.485 178.871C188.382 179.692 188.284 180.519 188.193 181.346C177.756 176.819 167.418 172.321 157.179 167.85C157.316 167.042 157.458 166.221 157.604 165.407Z" fill="#DBDBDB"/>
<path d="M154.146 153.142L150.486 151.539L151.04 149.103L154.695 150.712C154.511 151.52 154.326 152.334 154.146 153.142Z" fill="#FFC727"/>
<path d="M152.844 159.297L149.159 157.681C149.327 156.874 149.498 156.059 149.67 155.245L153.347 156.861C153.175 157.669 153.008 158.483 152.844 159.297Z" fill="#455A64"/>
<path d="M151.685 165.458L147.987 163.836C148.133 163.022 148.284 162.214 148.438 161.4L152.141 163.016C151.977 163.828 151.826 164.642 151.685 165.458Z" fill="#DBDBDB"/>
<path d="M195.091 233.547H98.7566L91.3262 137.96H187.66L195.091 233.547Z" fill="#FFC727"/>
<path d="M124.596 128.061H90.5576L91.3264 137.96H127.319L124.596 128.061Z" fill="#FFC727"/>
<path d="M157.204 64.7934C157.052 63.9578 156.98 63.0945 156.989 62.2289C156.978 61.363 157.05 60.4992 157.204 59.6643C157.491 61.3472 157.491 63.1106 157.204 64.7934Z" fill="#263238"/>
<path d="M153.708 66.3002C153.298 65.689 152.947 64.9965 152.664 64.2421C152.367 63.5002 152.142 62.6994 151.994 61.8635C152.404 62.4743 152.755 63.1669 153.038 63.9216C153.335 64.6636 153.56 65.4643 153.708 66.3002Z" fill="#263238"/>
<path d="M151.191 70.2111C150.631 69.9911 150.095 69.6544 149.597 69.211C149.09 68.7924 148.626 68.2678 148.219 67.653C148.779 67.8731 149.315 68.2098 149.812 68.6532C150.317 69.0771 150.781 69.6012 151.191 70.2111Z" fill="#263238"/>
<path d="M150.319 75.4621C149.192 75.8906 148.01 75.8906 146.883 75.4621C148.011 75.0421 149.191 75.0421 150.319 75.4621Z" fill="#263238"/>
<path d="M151.329 80.7C150.919 81.3119 150.455 81.8362 149.95 82.258C149.453 82.7014 148.916 83.0381 148.356 83.2581C149.188 82.0451 150.21 81.1632 151.329 80.6936V80.7Z" fill="#263238"/>
<path d="M153.948 84.4379C153.8 85.2733 153.574 86.0739 153.278 86.8165C152.996 87.5702 152.645 88.2609 152.234 88.8681C152.382 88.0343 152.607 87.2356 152.904 86.4959C153.186 85.7406 153.538 85.0478 153.948 84.4379Z" fill="#263238"/>
<path d="M157.48 85.765C157.767 87.4477 157.767 89.2114 157.48 90.8941C157.192 89.2114 157.192 87.4477 157.48 85.765Z" fill="#263238"/>
<path d="M160.976 84.2519C161.384 84.8644 161.735 85.5567 162.019 86.3099C162.316 87.0519 162.542 87.8527 162.689 88.6886C162.277 88.0803 161.926 87.3873 161.646 86.6305C161.349 85.8885 161.123 85.0878 160.976 84.2519Z" fill="#263238"/>
<path d="M163.497 80.3411C164.055 80.5612 164.59 80.8979 165.086 81.3413C165.589 81.763 166.05 82.2874 166.456 82.8993C165.338 82.4325 164.316 81.5502 163.488 80.3347L163.497 80.3411Z" fill="#263238"/>
<path d="M164.364 75.071C164.925 74.8482 165.503 74.7404 166.082 74.7504C166.662 74.733 167.241 74.841 167.8 75.071C167.241 75.301 166.662 75.409 166.082 75.3915C165.503 75.4016 164.925 75.2937 164.364 75.071Z" fill="#263238"/>
<path d="M163.354 69.8584C163.764 69.2466 164.228 68.7223 164.733 68.3005C165.229 67.852 165.766 67.513 166.327 67.2939C165.919 67.9086 165.455 68.4333 164.948 68.8519C164.45 69.2947 163.914 69.6333 163.354 69.8584Z" fill="#263238"/>
<path d="M160.734 66.095C160.882 65.2591 161.107 64.4584 161.404 63.7164C161.685 62.9596 162.036 62.2666 162.448 61.6583C162.301 62.4942 162.075 63.2949 161.778 64.0369C161.496 64.7916 161.144 65.4842 160.734 66.095Z" fill="#263238"/>
<path d="M158.956 181.48H181.028C181.674 179.42 182.046 177.193 182.124 174.921V148.551H160.051V175.287C160.051 177.935 158.956 181.48 158.956 181.48Z" fill="#455A64"/>
<path d="M162.753 156.322C165.33 156.001 167.946 155.931 170.54 155.912C173.134 155.892 175.733 156.001 178.327 156.322C175.75 156.636 173.134 156.713 170.54 156.726C167.946 156.739 165.347 156.636 162.753 156.322Z" fill="white"/>
<path d="M162.753 160.662C165.089 160.348 167.422 160.271 169.758 160.252C172.095 160.233 174.427 160.342 176.759 160.662C174.427 160.983 172.09 161.053 169.758 161.073C167.426 161.092 165.089 160.983 162.753 160.662Z" fill="white"/>
<path d="M162.753 165.009C164.793 164.689 166.838 164.618 168.878 164.599C170.924 164.582 172.97 164.719 175.007 165.009C172.962 165.323 170.922 165.4 168.878 165.413C166.833 165.426 164.793 165.323 162.753 165.009Z" fill="white"/>
<path d="M162.753 169.35C165.33 169.036 167.946 168.959 170.54 168.939C173.134 168.92 175.733 169.029 178.327 169.35C175.75 169.67 173.134 169.741 170.54 169.76C167.946 169.779 165.347 169.67 162.753 169.35Z" fill="white"/>
</svg>
